  0
SECTION
  2
HEADER
  9
$ACADVER
  1
AC1009
  9
$FILLMODE
 70
1
  9
$EXTMIN
 10
-3.9200
 20
7.3080
 30
0.0000
  9
$EXTMAX
 10
18.1737
 20
43.5115
 30
0.0000
  0
ENDSEC
  0
SECTION
  2
TABLES
  0
TABLE
  2
LTYPE
 70
1
  0
LTYPE
  2
CONTINUOUS
 70
64
  3
Solid line
 72
65
 73
0
 40
0
  0
ENDTAB
  0
TABLE
  2
LAYER
 70
255
  0
LAYER
  2
17
 70
64
 62
82
  6
CONTINUOUS
  0
LAYER
  2
20
 70
64
 62
213
  6
CONTINUOUS
  0
LAYER
  2
22
 70
64
 62
140
  6
CONTINUOUS
  0
ENDTAB
  0
ENDSEC
  0
SECTION
  2
BLOCKS
  0
BLOCK
  8
0
  2
RECT
 70
64
 10
0.0000
 20
0.0000
 30
0.0000
  3
RECT
  0
SOLID
  8
0
 10
-0.5000
 20
-0.5000
 30
0.0000
 11
0.5000
 21
-0.5000
 31
0.0000
 12
-0.5000
 22
0.5000
 32
0.0000
 13
0.5000
 23
0.5000
 33
0.0000
  0
ENDBLK
  8
0
  0
BLOCK
  8
0
  2
PIE
 70
64
 10
0.0000
 20
0.0000
 30
0.0000
  3
PIE
  0
POLYLINE
  8
0
 66
1
 10
0.0000
 20
0.0000
 30
0.0000
 40
0.5000
 41
0.5000
 70
0
  0
VERTEX
  8
0
 10
0.0000
 20
-0.2500
 30
0.0000
 42
1.0000
  0
VERTEX
  8
0
 10
0.0000
 20
0.2500
 30
0.0000
 42
1.0000
  0
VERTEX
  8
0
 10
0.0000
 20
-0.2500
 30
0.0000
  0
SEQEND
  8
0
  0
ENDBLK
  8
0
  0
BLOCK
  8
0
  2
OCTAGONP
 70
64
 10
0.0000
 20
0.0000
 30
0.0000
  3
OCTAGONP
  0
POLYLINE
  8
0
 66
1
 10
0.0000
 20
0.0000
 30
0.0000
 40
0.5000
 41
0.5000
 70
0
  0
VERTEX
  8
0
 10
-0.2500
 20
-0.1036
 30
0.0000
  0
VERTEX
  8
0
 10
-0.2500
 20
0.1036
 30
0.0000
  0
VERTEX
  8
0
 10
-0.1036
 20
0.2500
 30
0.0000
  0
VERTEX
  8
0
 10
0.1036
 20
0.2500
 30
0.0000
  0
VERTEX
  8
0
 10
0.2500
 20
0.1036
 30
0.0000
  0
VERTEX
  8
0
 10
0.2500
 20
-0.1036
 30
0.0000
  0
VERTEX
  8
0
 10
0.1036
 20
-0.2500
 30
0.0000
  0
VERTEX
  8
0
 10
-0.1036
 20
-0.2500
 30
0.0000
  0
VERTEX
  8
0
 10
-0.2500
 20
-0.1036
 30
0.0000
  0
VERTEX
  8
0
 10
-0.2500
 20
0.1036
 30
0.0000
  0
SEQEND
  8
0
  0
ENDBLK
  8
0
  0
BLOCK
  8
0
  2
SQUAREP
 70
64
 10
0.0000
 20
0.0000
 30
0.0000
  3
SQUAREP
  0
SOLID
  8
0
 10
-0.5000
 20
-0.5000
 30
0.0000
 11
0.5000
 21
-0.5000
 31
0.0000
 12
-0.5000
 22
0.5000
 32
0.0000
 13
0.5000
 23
0.5000
 33
0.0000
  0
ENDBLK
  8
0
  0
BLOCK
  8
0
  2
ROUNDP
 70
64
 10
0.0000
 20
0.0000
 30
0.0000
  3
ROUNDP
  0
POLYLINE
  8
0
 66
1
 10
0.0000
 20
0.0000
 30
0.0000
 40
0.5000
 41
0.5000
 70
0
  0
VERTEX
  8
0
 10
0.0000
 20
-0.2500
 30
0.0000
 42
1.0000
  0
VERTEX
  8
0
 10
0.0000
 20
0.2500
 30
0.0000
 42
1.0000
  0
VERTEX
  8
0
 10
0.0000
 20
-0.2500
 30
0.0000
  0
SEQEND
  8
0
  0
ENDBLK
  8
0
  0
BLOCK
  8
0
  2
ANNULUSP
 70
64
 10
0.0000
 20
0.0000
 30
0.0000
  3
ANNULUSP
  0
POLYLINE
  8
0
 66
1
 10
0.0000
 20
0.0000
 30
0.0000
 40
0.5000
 41
0.5000
 70
0
  0
VERTEX
  8
0
 10
0.0000
 20
-0.2500
 30
0.0000
 42
1.0000
  0
VERTEX
  8
0
 10
0.0000
 20
0.2500
 30
0.0000
 42
1.0000
  0
VERTEX
  8
0
 10
0.0000
 20
-0.2500
 30
0.0000
  0
SEQEND
  8
0
  0
ENDBLK
  8
0
  0
BLOCK
  8
0
  2
THERMALP
 70
64
 10
0.0000
 20
0.0000
 30
0.0000
  3
THERMALP
  0
POLYLINE
  8
0
 66
1
 10
0.0000
 20
0.0000
 30
0.0000
 40
0.1000
 41
0.1000
 70
0
  0
VERTEX
  8
0
 10
-0.2379
 20
0.4500
 30
0.0000
  0
VERTEX
  8
0
 10
0.2379
 20
0.4500
 30
0.0000
  0
SEQEND
  8
0
  0
POLYLINE
  8
0
 66
1
 10
0.0000
 20
0.0000
 30
0.0000
 40
0.0500
 41
0.0500
 70
0
  0
VERTEX
  8
0
 10
0.2379
 20
0.4250
 30
0.0000
 42
1.0000
  0
VERTEX
  8
0
 10
0.2379
 20
0.4750
 30
0.0000
  0
SEQEND
  8
0
  0
POLYLINE
  8
0
 66
1
 10
0.0000
 20
0.0000
 30
0.0000
 40
0.0500
 41
0.0500
 70
0
  0
VERTEX
  8
0
 10
-0.2379
 20
0.4750
 30
0.0000
 42
1.0000
  0
VERTEX
  8
0
 10
-0.2379
 20
0.4250
 30
0.0000
  0
SEQEND
  8
0
  0
POLYLINE
  8
0
 66
1
 10
0.0000
 20
0.0000
 30
0.0000
 40
0.1000
 41
0.1000
 70
0
  0
VERTEX
  8
0
 10
0.4500
 20
0.2379
 30
0.0000
  0
VERTEX
  8
0
 10
0.4500
 20
-0.2379
 30
0.0000
  0
SEQEND
  8
0
  0
POLYLINE
  8
0
 66
1
 10
0.0000
 20
0.0000
 30
0.0000
 40
0.0500
 41
0.0500
 70
0
  0
VERTEX
  8
0
 10
0.4250
 20
-0.2379
 30
0.0000
 42
1.0000
  0
VERTEX
  8
0
 10
0.4750
 20
-0.2379
 30
0.0000
  0
SEQEND
  8
0
  0
POLYLINE
  8
0
 66
1
 10
0.0000
 20
0.0000
 30
0.0000
 40
0.0500
 41
0.0500
 70
0
  0
VERTEX
  8
0
 10
0.4750
 20
0.2379
 30
0.0000
 42
1.0000
  0
VERTEX
  8
0
 10
0.4250
 20
0.2379
 30
0.0000
  0
SEQEND
  8
0
  0
POLYLINE
  8
0
 66
1
 10
0.0000
 20
0.0000
 30
0.0000
 40
0.1000
 41
0.1000
 70
0
  0
VERTEX
  8
0
 10
0.2379
 20
-0.4500
 30
0.0000
  0
VERTEX
  8
0
 10
-0.2379
 20
-0.4500
 30
0.0000
  0
SEQEND
  8
0
  0
POLYLINE
  8
0
 66
1
 10
0.0000
 20
0.0000
 30
0.0000
 40
0.0500
 41
0.0500
 70
0
  0
VERTEX
  8
0
 10
-0.2379
 20
-0.4250
 30
0.0000
 42
1.0000
  0
VERTEX
  8
0
 10
-0.2379
 20
-0.4750
 30
0.0000
  0
SEQEND
  8
0
  0
POLYLINE
  8
0
 66
1
 10
0.0000
 20
0.0000
 30
0.0000
 40
0.0500
 41
0.0500
 70
0
  0
VERTEX
  8
0
 10
0.2379
 20
-0.4750
 30
0.0000
 42
1.0000
  0
VERTEX
  8
0
 10
0.2379
 20
-0.4250
 30
0.0000
  0
SEQEND
  8
0
  0
POLYLINE
  8
0
 66
1
 10
0.0000
 20
0.0000
 30
0.0000
 40
0.1000
 41
0.1000
 70
0
  0
VERTEX
  8
0
 10
-0.4500
 20
-0.2379
 30
0.0000
  0
VERTEX
  8
0
 10
-0.4500
 20
0.2379
 30
0.0000
  0
SEQEND
  8
0
  0
POLYLINE
  8
0
 66
1
 10
0.0000
 20
0.0000
 30
0.0000
 40
0.0500
 41
0.0500
 70
0
  0
VERTEX
  8
0
 10
-0.4250
 20
0.2379
 30
0.0000
 42
1.0000
  0
VERTEX
  8
0
 10
-0.4750
 20
0.2379
 30
0.0000
  0
SEQEND
  8
0
  0
POLYLINE
  8
0
 66
1
 10
0.0000
 20
0.0000
 30
0.0000
 40
0.0500
 41
0.0500
 70
0
  0
VERTEX
  8
0
 10
-0.4750
 20
-0.2379
 30
0.0000
 42
1.0000
  0
VERTEX
  8
0
 10
-0.4250
 20
-0.2379
 30
0.0000
  0
SEQEND
  8
0
  0
ENDBLK
  8
0
  0
BLOCK
  8
0
  2
OCTAGONV
 70
64
 10
0.0000
 20
0.0000
 30
0.0000
  3
OCTAGONV
  0
POLYLINE
  8
0
 66
1
 10
0.0000
 20
0.0000
 30
0.0000
 40
0.5000
 41
0.5000
 70
0
  0
VERTEX
  8
0
 10
-0.2500
 20
-0.1036
 30
0.0000
  0
VERTEX
  8
0
 10
-0.2500
 20
0.1036
 30
0.0000
  0
VERTEX
  8
0
 10
-0.1036
 20
0.2500
 30
0.0000
  0
VERTEX
  8
0
 10
0.1036
 20
0.2500
 30
0.0000
  0
VERTEX
  8
0
 10
0.2500
 20
0.1036
 30
0.0000
  0
VERTEX
  8
0
 10
0.2500
 20
-0.1036
 30
0.0000
  0
VERTEX
  8
0
 10
0.1036
 20
-0.2500
 30
0.0000
  0
VERTEX
  8
0
 10
-0.1036
 20
-0.2500
 30
0.0000
  0
VERTEX
  8
0
 10
-0.2500
 20
-0.1036
 30
0.0000
  0
VERTEX
  8
0
 10
-0.2500
 20
0.1036
 30
0.0000
  0
SEQEND
  8
0
  0
ENDBLK
  8
0
  0
BLOCK
  8
0
  2
SQUAREV
 70
64
 10
0.0000
 20
0.0000
 30
0.0000
  3
SQUAREV
  0
SOLID
  8
0
 10
-0.5000
 20
-0.5000
 30
0.0000
 11
0.5000
 21
-0.5000
 31
0.0000
 12
-0.5000
 22
0.5000
 32
0.0000
 13
0.5000
 23
0.5000
 33
0.0000
  0
ENDBLK
  8
0
  0
BLOCK
  8
0
  2
ROUNDV
 70
64
 10
0.0000
 20
0.0000
 30
0.0000
  3
ROUNDV
  0
POLYLINE
  8
0
 66
1
 10
0.0000
 20
0.0000
 30
0.0000
 40
0.5000
 41
0.5000
 70
0
  0
VERTEX
  8
0
 10
0.0000
 20
-0.2500
 30
0.0000
 42
1.0000
  0
VERTEX
  8
0
 10
0.0000
 20
0.2500
 30
0.0000
 42
1.0000
  0
VERTEX
  8
0
 10
0.0000
 20
-0.2500
 30
0.0000
  0
SEQEND
  8
0
  0
ENDBLK
  8
0
  0
BLOCK
  8
0
  2
ANNULUSV
 70
64
 10
0.0000
 20
0.0000
 30
0.0000
  3
ANNULUSV
  0
POLYLINE
  8
0
 66
1
 10
0.0000
 20
0.0000
 30
0.0000
 40
0.5000
 41
0.5000
 70
0
  0
VERTEX
  8
0
 10
0.0000
 20
-0.2500
 30
0.0000
 42
1.0000
  0
VERTEX
  8
0
 10
0.0000
 20
0.2500
 30
0.0000
 42
1.0000
  0
VERTEX
  8
0
 10
0.0000
 20
-0.2500
 30
0.0000
  0
SEQEND
  8
0
  0
ENDBLK
  8
0
  0
BLOCK
  8
0
  2
THERMALV
 70
64
 10
0.0000
 20
0.0000
 30
0.0000
  3
THERMALV
  0
POLYLINE
  8
0
 66
1
 10
0.0000
 20
0.0000
 30
0.0000
 40
0.1000
 41
0.1000
 70
0
  0
VERTEX
  8
0
 10
-0.2379
 20
0.4500
 30
0.0000
  0
VERTEX
  8
0
 10
0.2379
 20
0.4500
 30
0.0000
  0
SEQEND
  8
0
  0
POLYLINE
  8
0
 66
1
 10
0.0000
 20
0.0000
 30
0.0000
 40
0.0500
 41
0.0500
 70
0
  0
VERTEX
  8
0
 10
0.2379
 20
0.4250
 30
0.0000
 42
1.0000
  0
VERTEX
  8
0
 10
0.2379
 20
0.4750
 30
0.0000
  0
SEQEND
  8
0
  0
POLYLINE
  8
0
 66
1
 10
0.0000
 20
0.0000
 30
0.0000
 40
0.0500
 41
0.0500
 70
0
  0
VERTEX
  8
0
 10
-0.2379
 20
0.4750
 30
0.0000
 42
1.0000
  0
VERTEX
  8
0
 10
-0.2379
 20
0.4250
 30
0.0000
  0
SEQEND
  8
0
  0
POLYLINE
  8
0
 66
1
 10
0.0000
 20
0.0000
 30
0.0000
 40
0.1000
 41
0.1000
 70
0
  0
VERTEX
  8
0
 10
0.4500
 20
0.2379
 30
0.0000
  0
VERTEX
  8
0
 10
0.4500
 20
-0.2379
 30
0.0000
  0
SEQEND
  8
0
  0
POLYLINE
  8
0
 66
1
 10
0.0000
 20
0.0000
 30
0.0000
 40
0.0500
 41
0.0500
 70
0
  0
VERTEX
  8
0
 10
0.4250
 20
-0.2379
 30
0.0000
 42
1.0000
  0
VERTEX
  8
0
 10
0.4750
 20
-0.2379
 30
0.0000
  0
SEQEND
  8
0
  0
POLYLINE
  8
0
 66
1
 10
0.0000
 20
0.0000
 30
0.0000
 40
0.0500
 41
0.0500
 70
0
  0
VERTEX
  8
0
 10
0.4750
 20
0.2379
 30
0.0000
 42
1.0000
  0
VERTEX
  8
0
 10
0.4250
 20
0.2379
 30
0.0000
  0
SEQEND
  8
0
  0
POLYLINE
  8
0
 66
1
 10
0.0000
 20
0.0000
 30
0.0000
 40
0.1000
 41
0.1000
 70
0
  0
VERTEX
  8
0
 10
0.2379
 20
-0.4500
 30
0.0000
  0
VERTEX
  8
0
 10
-0.2379
 20
-0.4500
 30
0.0000
  0
SEQEND
  8
0
  0
POLYLINE
  8
0
 66
1
 10
0.0000
 20
0.0000
 30
0.0000
 40
0.0500
 41
0.0500
 70
0
  0
VERTEX
  8
0
 10
-0.2379
 20
-0.4250
 30
0.0000
 42
1.0000
  0
VERTEX
  8
0
 10
-0.2379
 20
-0.4750
 30
0.0000
  0
SEQEND
  8
0
  0
POLYLINE
  8
0
 66
1
 10
0.0000
 20
0.0000
 30
0.0000
 40
0.0500
 41
0.0500
 70
0
  0
VERTEX
  8
0
 10
0.2379
 20
-0.4750
 30
0.0000
 42
1.0000
  0
VERTEX
  8
0
 10
0.2379
 20
-0.4250
 30
0.0000
  0
SEQEND
  8
0
  0
POLYLINE
  8
0
 66
1
 10
0.0000
 20
0.0000
 30
0.0000
 40
0.1000
 41
0.1000
 70
0
  0
VERTEX
  8
0
 10
-0.4500
 20
-0.2379
 30
0.0000
  0
VERTEX
  8
0
 10
-0.4500
 20
0.2379
 30
0.0000
  0
SEQEND
  8
0
  0
POLYLINE
  8
0
 66
1
 10
0.0000
 20
0.0000
 30
0.0000
 40
0.0500
 41
0.0500
 70
0
  0
VERTEX
  8
0
 10
-0.4250
 20
0.2379
 30
0.0000
 42
1.0000
  0
VERTEX
  8
0
 10
-0.4750
 20
0.2379
 30
0.0000
  0
SEQEND
  8
0
  0
POLYLINE
  8
0
 66
1
 10
0.0000
 20
0.0000
 30
0.0000
 40
0.0500
 41
0.0500
 70
0
  0
VERTEX
  8
0
 10
-0.4750
 20
-0.2379
 30
0.0000
 42
1.0000
  0
VERTEX
  8
0
 10
-0.4250
 20
-0.2379
 30
0.0000
  0
SEQEND
  8
0
  0
ENDBLK
  8
0
  0
ENDSEC
  0
SECTION
  2
ENTITIES
  0
POLYLINE
  8
20
 66
1
 10
0.0000
 20
0.0000
 30
0.0000
 40
0.1000
 41
0.1000
 70
0
  0
VERTEX
  8
20
 10
-0.6350
 20
14.4780
 30
0.0000
  0
VERTEX
  8
20
 10
-0.6350
 20
26.0350
 30
0.0000
  0
SEQEND
  8
0
  0
POLYLINE
  8
20
 66
1
 10
0.0000
 20
0.0000
 30
0.0000
 40
0.0500
 41
0.0500
 70
0
  0
VERTEX
  8
20
 10
-0.6100
 20
26.0350
 30
0.0000
 42
1.0000
  0
VERTEX
  8
20
 10
-0.6600
 20
26.0350
 30
0.0000
  0
SEQEND
  8
0
  0
POLYLINE
  8
20
 66
1
 10
0.0000
 20
0.0000
 30
0.0000
 40
0.0500
 41
0.0500
 70
0
  0
VERTEX
  8
20
 10
-0.6600
 20
14.4780
 30
0.0000
 42
1.0000
  0
VERTEX
  8
20
 10
-0.6100
 20
14.4780
 30
0.0000
  0
SEQEND
  8
0
  0
POLYLINE
  8
20
 66
1
 10
0.0000
 20
0.0000
 30
0.0000
 40
0.1000
 41
0.1000
 70
0
  0
VERTEX
  8
20
 10
1.2700
 20
27.9400
 30
0.0000
 42
0.4142
  0
VERTEX
  8
20
 10
-0.6350
 20
26.0350
 30
0.0000
  0
SEQEND
  8
0
  0
POLYLINE
  8
20
 66
1
 10
0.0000
 20
0.0000
 30
0.0000
 40
0.0500
 41
0.0500
 70
0
  0
VERTEX
  8
20
 10
1.2700
 20
27.9150
 30
0.0000
 42
1.0000
  0
VERTEX
  8
20
 10
1.2700
 20
27.9650
 30
0.0000
  0
SEQEND
  8
0
  0
POLYLINE
  8
20
 66
1
 10
0.0000
 20
0.0000
 30
0.0000
 40
0.0500
 41
0.0500
 70
0
  0
VERTEX
  8
20
 10
-0.6600
 20
26.0350
 30
0.0000
 42
1.0000
  0
VERTEX
  8
20
 10
-0.6100
 20
26.0350
 30
0.0000
  0
SEQEND
  8
0
  0
POLYLINE
  8
20
 66
1
 10
0.0000
 20
0.0000
 30
0.0000
 40
0.1000
 41
0.1000
 70
0
  0
VERTEX
  8
20
 10
1.2700
 20
27.9400
 30
0.0000
  0
VERTEX
  8
20
 10
15.2400
 20
27.9400
 30
0.0000
  0
SEQEND
  8
0
  0
POLYLINE
  8
20
 66
1
 10
0.0000
 20
0.0000
 30
0.0000
 40
0.0500
 41
0.0500
 70
0
  0
VERTEX
  8
20
 10
15.2400
 20
27.9150
 30
0.0000
 42
1.0000
  0
VERTEX
  8
20
 10
15.2400
 20
27.9650
 30
0.0000
  0
SEQEND
  8
0
  0
POLYLINE
  8
20
 66
1
 10
0.0000
 20
0.0000
 30
0.0000
 40
0.0500
 41
0.0500
 70
0
  0
VERTEX
  8
20
 10
1.2700
 20
27.9650
 30
0.0000
 42
1.0000
  0
VERTEX
  8
20
 10
1.2700
 20
27.9150
 30
0.0000
  0
SEQEND
  8
0
  0
POLYLINE
  8
20
 66
1
 10
0.0000
 20
0.0000
 30
0.0000
 40
0.1000
 41
0.1000
 70
0
  0
VERTEX
  8
20
 10
17.1450
 20
26.0350
 30
0.0000
 42
0.4142
  0
VERTEX
  8
20
 10
15.2400
 20
27.9400
 30
0.0000
  0
SEQEND
  8
0
  0
POLYLINE
  8
20
 66
1
 10
0.0000
 20
0.0000
 30
0.0000
 40
0.0500
 41
0.0500
 70
0
  0
VERTEX
  8
20
 10
17.1200
 20
26.0350
 30
0.0000
 42
1.0000
  0
VERTEX
  8
20
 10
17.1700
 20
26.0350
 30
0.0000
  0
SEQEND
  8
0
  0
POLYLINE
  8
20
 66
1
 10
0.0000
 20
0.0000
 30
0.0000
 40
0.0500
 41
0.0500
 70
0
  0
VERTEX
  8
20
 10
15.2400
 20
27.9650
 30
0.0000
 42
1.0000
  0
VERTEX
  8
20
 10
15.2400
 20
27.9150
 30
0.0000
  0
SEQEND
  8
0
  0
POLYLINE
  8
20
 66
1
 10
0.0000
 20
0.0000
 30
0.0000
 40
0.1000
 41
0.1000
 70
0
  0
VERTEX
  8
20
 10
17.1450
 20
26.0350
 30
0.0000
  0
VERTEX
  8
20
 10
17.1450
 20
14.4780
 30
0.0000
  0
SEQEND
  8
0
  0
POLYLINE
  8
20
 66
1
 10
0.0000
 20
0.0000
 30
0.0000
 40
0.0500
 41
0.0500
 70
0
  0
VERTEX
  8
20
 10
17.1200
 20
14.4780
 30
0.0000
 42
1.0000
  0
VERTEX
  8
20
 10
17.1700
 20
14.4780
 30
0.0000
  0
SEQEND
  8
0
  0
POLYLINE
  8
20
 66
1
 10
0.0000
 20
0.0000
 30
0.0000
 40
0.0500
 41
0.0500
 70
0
  0
VERTEX
  8
20
 10
17.1700
 20
26.0350
 30
0.0000
 42
1.0000
  0
VERTEX
  8
20
 10
17.1200
 20
26.0350
 30
0.0000
  0
SEQEND
  8
0
  0
POLYLINE
  8
20
 66
1
 10
0.0000
 20
0.0000
 30
0.0000
 40
0.1000
 41
0.1000
 70
0
  0
VERTEX
  8
20
 10
15.2400
 20
12.5730
 30
0.0000
 42
0.4142
  0
VERTEX
  8
20
 10
17.1450
 20
14.4780
 30
0.0000
  0
SEQEND
  8
0
  0
POLYLINE
  8
20
 66
1
 10
0.0000
 20
0.0000
 30
0.0000
 40
0.0500
 41
0.0500
 70
0
  0
VERTEX
  8
20
 10
15.2400
 20
12.5980
 30
0.0000
 42
1.0000
  0
VERTEX
  8
20
 10
15.2400
 20
12.5480
 30
0.0000
  0
SEQEND
  8
0
  0
POLYLINE
  8
20
 66
1
 10
0.0000
 20
0.0000
 30
0.0000
 40
0.0500
 41
0.0500
 70
0
  0
VERTEX
  8
20
 10
17.1700
 20
14.4780
 30
0.0000
 42
1.0000
  0
VERTEX
  8
20
 10
17.1200
 20
14.4780
 30
0.0000
  0
SEQEND
  8
0
  0
POLYLINE
  8
20
 66
1
 10
0.0000
 20
0.0000
 30
0.0000
 40
0.1000
 41
0.1000
 70
0
  0
VERTEX
  8
20
 10
15.2400
 20
12.5730
 30
0.0000
  0
VERTEX
  8
20
 10
1.2700
 20
12.5730
 30
0.0000
  0
SEQEND
  8
0
  0
POLYLINE
  8
20
 66
1
 10
0.0000
 20
0.0000
 30
0.0000
 40
0.0500
 41
0.0500
 70
0
  0
VERTEX
  8
20
 10
1.2700
 20
12.5980
 30
0.0000
 42
1.0000
  0
VERTEX
  8
20
 10
1.2700
 20
12.5480
 30
0.0000
  0
SEQEND
  8
0
  0
POLYLINE
  8
20
 66
1
 10
0.0000
 20
0.0000
 30
0.0000
 40
0.0500
 41
0.0500
 70
0
  0
VERTEX
  8
20
 10
15.2400
 20
12.5480
 30
0.0000
 42
1.0000
  0
VERTEX
  8
20
 10
15.2400
 20
12.5980
 30
0.0000
  0
SEQEND
  8
0
  0
POLYLINE
  8
20
 66
1
 10
0.0000
 20
0.0000
 30
0.0000
 40
0.1000
 41
0.1000
 70
0
  0
VERTEX
  8
20
 10
-0.6350
 20
14.4780
 30
0.0000
 42
0.4142
  0
VERTEX
  8
20
 10
1.2700
 20
12.5730
 30
0.0000
  0
SEQEND
  8
0
  0
POLYLINE
  8
20
 66
1
 10
0.0000
 20
0.0000
 30
0.0000
 40
0.0500
 41
0.0500
 70
0
  0
VERTEX
  8
20
 10
-0.6100
 20
14.4780
 30
0.0000
 42
1.0000
  0
VERTEX
  8
20
 10
-0.6600
 20
14.4780
 30
0.0000
  0
SEQEND
  8
0
  0
POLYLINE
  8
20
 66
1
 10
0.0000
 20
0.0000
 30
0.0000
 40
0.0500
 41
0.0500
 70
0
  0
VERTEX
  8
20
 10
1.2700
 20
12.5480
 30
0.0000
 42
1.0000
  0
VERTEX
  8
20
 10
1.2700
 20
12.5980
 30
0.0000
  0
SEQEND
  8
0
  0
POLYLINE
  8
22
 66
1
 10
0.0000
 20
0.0000
 30
0.0000
 40
0.1016
 41
0.1016
 70
0
  0
VERTEX
  8
22
 10
2.4892
 20
13.9112
 30
0.0000
  0
VERTEX
  8
22
 10
2.2265
 20
13.3858
 30
0.0000
  0
SEQEND
  8
0
  0
POLYLINE
  8
22
 66
1
 10
0.0000
 20
0.0000
 30
0.0000
 40
0.0508
 41
0.0508
 70
0
  0
VERTEX
  8
22
 10
2.2038
 20
13.3972
 30
0.0000
 42
1.0000
  0
VERTEX
  8
22
 10
2.2492
 20
13.3744
 30
0.0000
  0
SEQEND
  8
0
  0
POLYLINE
  8
22
 66
1
 10
0.0000
 20
0.0000
 30
0.0000
 40
0.0508
 41
0.0508
 70
0
  0
VERTEX
  8
22
 10
2.5119
 20
13.8998
 30
0.0000
 42
1.0000
  0
VERTEX
  8
22
 10
2.4665
 20
13.9225
 30
0.0000
  0
SEQEND
  8
0
  0
POLYLINE
  8
22
 66
1
 10
0.0000
 20
0.0000
 30
0.0000
 40
0.1016
 41
0.1016
 70
0
  0
VERTEX
  8
22
 10
2.2265
 20
13.3858
 30
0.0000
  0
VERTEX
  8
22
 10
1.9638
 20
13.9112
 30
0.0000
  0
SEQEND
  8
0
  0
POLYLINE
  8
22
 66
1
 10
0.0000
 20
0.0000
 30
0.0000
 40
0.0508
 41
0.0508
 70
0
  0
VERTEX
  8
22
 10
1.9865
 20
13.9225
 30
0.0000
 42
1.0000
  0
VERTEX
  8
22
 10
1.9411
 20
13.8998
 30
0.0000
  0
SEQEND
  8
0
  0
POLYLINE
  8
22
 66
1
 10
0.0000
 20
0.0000
 30
0.0000
 40
0.0508
 41
0.0508
 70
0
  0
VERTEX
  8
22
 10
2.2038
 20
13.3744
 30
0.0000
 42
1.0000
  0
VERTEX
  8
22
 10
2.2492
 20
13.3972
 30
0.0000
  0
SEQEND
  8
0
  0
POLYLINE
  8
22
 66
1
 10
0.0000
 20
0.0000
 30
0.0000
 40
0.1016
 41
0.1016
 70
0
  0
VERTEX
  8
22
 10
1.6706
 20
13.9112
 30
0.0000
  0
VERTEX
  8
22
 10
1.4079
 20
14.1739
 30
0.0000
  0
SEQEND
  8
0
  0
POLYLINE
  8
22
 66
1
 10
0.0000
 20
0.0000
 30
0.0000
 40
0.0508
 41
0.0508
 70
0
  0
VERTEX
  8
22
 10
1.4259
 20
14.1918
 30
0.0000
 42
1.0000
  0
VERTEX
  8
22
 10
1.3900
 20
14.1559
 30
0.0000
  0
SEQEND
  8
0
  0
POLYLINE
  8
22
 66
1
 10
0.0000
 20
0.0000
 30
0.0000
 40
0.0508
 41
0.0508
 70
0
  0
VERTEX
  8
22
 10
1.6527
 20
13.8932
 30
0.0000
 42
1.0000
  0
VERTEX
  8
22
 10
1.6886
 20
13.9291
 30
0.0000
  0
SEQEND
  8
0
  0
POLYLINE
  8
22
 66
1
 10
0.0000
 20
0.0000
 30
0.0000
 40
0.1016
 41
0.1016
 70
0
  0
VERTEX
  8
22
 10
1.4079
 20
14.1739
 30
0.0000
  0
VERTEX
  8
22
 10
1.4079
 20
13.3858
 30
0.0000
  0
SEQEND
  8
0
  0
POLYLINE
  8
22
 66
1
 10
0.0000
 20
0.0000
 30
0.0000
 40
0.0508
 41
0.0508
 70
0
  0
VERTEX
  8
22
 10
1.3825
 20
13.3858
 30
0.0000
 42
1.0000
  0
VERTEX
  8
22
 10
1.4333
 20
13.3858
 30
0.0000
  0
SEQEND
  8
0
  0
POLYLINE
  8
22
 66
1
 10
0.0000
 20
0.0000
 30
0.0000
 40
0.0508
 41
0.0508
 70
0
  0
VERTEX
  8
22
 10
1.4333
 20
14.1739
 30
0.0000
 42
1.0000
  0
VERTEX
  8
22
 10
1.3825
 20
14.1739
 30
0.0000
  0
SEQEND
  8
0
  0
POLYLINE
  8
22
 66
1
 10
0.0000
 20
0.0000
 30
0.0000
 40
0.1016
 41
0.1016
 70
0
  0
VERTEX
  8
22
 10
1.6706
 20
13.3858
 30
0.0000
  0
VERTEX
  8
22
 10
1.1452
 20
13.3858
 30
0.0000
  0
SEQEND
  8
0
  0
POLYLINE
  8
22
 66
1
 10
0.0000
 20
0.0000
 30
0.0000
 40
0.0508
 41
0.0508
 70
0
  0
VERTEX
  8
22
 10
1.1452
 20
13.4112
 30
0.0000
 42
1.0000
  0
VERTEX
  8
22
 10
1.1452
 20
13.3604
 30
0.0000
  0
SEQEND
  8
0
  0
POLYLINE
  8
22
 66
1
 10
0.0000
 20
0.0000
 30
0.0000
 40
0.0508
 41
0.0508
 70
0
  0
VERTEX
  8
22
 10
1.6706
 20
13.3604
 30
0.0000
 42
1.0000
  0
VERTEX
  8
22
 10
1.6706
 20
13.4112
 30
0.0000
  0
SEQEND
  8
0
  0
POLYLINE
  8
22
 66
1
 10
0.0000
 20
0.0000
 30
0.0000
 40
0.1016
 41
0.1016
 70
0
  0
VERTEX
  8
22
 10
0.8520
 20
13.3858
 30
0.0000
  0
VERTEX
  8
22
 10
0.8520
 20
13.5171
 30
0.0000
  0
SEQEND
  8
0
  0
POLYLINE
  8
22
 66
1
 10
0.0000
 20
0.0000
 30
0.0000
 40
0.0508
 41
0.0508
 70
0
  0
VERTEX
  8
22
 10
0.8774
 20
13.5171
 30
0.0000
 42
1.0000
  0
VERTEX
  8
22
 10
0.8266
 20
13.5171
 30
0.0000
  0
SEQEND
  8
0
  0
POLYLINE
  8
22
 66
1
 10
0.0000
 20
0.0000
 30
0.0000
 40
0.0508
 41
0.0508
 70
0
  0
VERTEX
  8
22
 10
0.8266
 20
13.3858
 30
0.0000
 42
1.0000
  0
VERTEX
  8
22
 10
0.8774
 20
13.3858
 30
0.0000
  0
SEQEND
  8
0
  0
POLYLINE
  8
22
 66
1
 10
0.0000
 20
0.0000
 30
0.0000
 40
0.1016
 41
0.1016
 70
0
  0
VERTEX
  8
22
 10
0.8520
 20
13.5171
 30
0.0000
  0
VERTEX
  8
22
 10
0.7207
 20
13.5171
 30
0.0000
  0
SEQEND
  8
0
  0
POLYLINE
  8
22
 66
1
 10
0.0000
 20
0.0000
 30
0.0000
 40
0.0508
 41
0.0508
 70
0
  0
VERTEX
  8
22
 10
0.7207
 20
13.5425
 30
0.0000
 42
1.0000
  0
VERTEX
  8
22
 10
0.7207
 20
13.4917
 30
0.0000
  0
SEQEND
  8
0
  0
POLYLINE
  8
22
 66
1
 10
0.0000
 20
0.0000
 30
0.0000
 40
0.0508
 41
0.0508
 70
0
  0
VERTEX
  8
22
 10
0.8520
 20
13.4917
 30
0.0000
 42
1.0000
  0
VERTEX
  8
22
 10
0.8520
 20
13.5425
 30
0.0000
  0
SEQEND
  8
0
  0
POLYLINE
  8
22
 66
1
 10
0.0000
 20
0.0000
 30
0.0000
 40
0.1016
 41
0.1016
 70
0
  0
VERTEX
  8
22
 10
0.7207
 20
13.5171
 30
0.0000
  0
VERTEX
  8
22
 10
0.7207
 20
13.3858
 30
0.0000
  0
SEQEND
  8
0
  0
POLYLINE
  8
22
 66
1
 10
0.0000
 20
0.0000
 30
0.0000
 40
0.0508
 41
0.0508
 70
0
  0
VERTEX
  8
22
 10
0.6953
 20
13.3858
 30
0.0000
 42
1.0000
  0
VERTEX
  8
22
 10
0.7461
 20
13.3858
 30
0.0000
  0
SEQEND
  8
0
  0
POLYLINE
  8
22
 66
1
 10
0.0000
 20
0.0000
 30
0.0000
 40
0.0508
 41
0.0508
 70
0
  0
VERTEX
  8
22
 10
0.7461
 20
13.5171
 30
0.0000
 42
1.0000
  0
VERTEX
  8
22
 10
0.6953
 20
13.5171
 30
0.0000
  0
SEQEND
  8
0
  0
POLYLINE
  8
22
 66
1
 10
0.0000
 20
0.0000
 30
0.0000
 40
0.1016
 41
0.1016
 70
0
  0
VERTEX
  8
22
 10
0.7207
 20
13.3858
 30
0.0000
  0
VERTEX
  8
22
 10
0.8520
 20
13.3858
 30
0.0000
  0
SEQEND
  8
0
  0
POLYLINE
  8
22
 66
1
 10
0.0000
 20
0.0000
 30
0.0000
 40
0.0508
 41
0.0508
 70
0
  0
VERTEX
  8
22
 10
0.8520
 20
13.3604
 30
0.0000
 42
1.0000
  0
VERTEX
  8
22
 10
0.8520
 20
13.4112
 30
0.0000
  0
SEQEND
  8
0
  0
POLYLINE
  8
22
 66
1
 10
0.0000
 20
0.0000
 30
0.0000
 40
0.0508
 41
0.0508
 70
0
  0
VERTEX
  8
22
 10
0.7207
 20
13.4112
 30
0.0000
 42
1.0000
  0
VERTEX
  8
22
 10
0.7207
 20
13.3604
 30
0.0000
  0
SEQEND
  8
0
  0
POLYLINE
  8
22
 66
1
 10
0.0000
 20
0.0000
 30
0.0000
 40
0.1016
 41
0.1016
 70
0
  0
VERTEX
  8
22
 10
0.4428
 20
13.5171
 30
0.0000
  0
VERTEX
  8
22
 10
0.4428
 20
14.0425
 30
0.0000
  0
SEQEND
  8
0
  0
POLYLINE
  8
22
 66
1
 10
0.0000
 20
0.0000
 30
0.0000
 40
0.0508
 41
0.0508
 70
0
  0
VERTEX
  8
22
 10
0.4682
 20
14.0425
 30
0.0000
 42
1.0000
  0
VERTEX
  8
22
 10
0.4174
 20
14.0425
 30
0.0000
  0
SEQEND
  8
0
  0
POLYLINE
  8
22
 66
1
 10
0.0000
 20
0.0000
 30
0.0000
 40
0.0508
 41
0.0508
 70
0
  0
VERTEX
  8
22
 10
0.4174
 20
13.5171
 30
0.0000
 42
1.0000
  0
VERTEX
  8
22
 10
0.4682
 20
13.5171
 30
0.0000
  0
SEQEND
  8
0
  0
POLYLINE
  8
22
 66
1
 10
0.0000
 20
0.0000
 30
0.0000
 40
0.1016
 41
0.1016
 70
0
  0
VERTEX
  8
22
 10
0.4428
 20
14.0425
 30
0.0000
  0
VERTEX
  8
22
 10
0.3114
 20
14.1739
 30
0.0000
  0
SEQEND
  8
0
  0
POLYLINE
  8
22
 66
1
 10
0.0000
 20
0.0000
 30
0.0000
 40
0.0508
 41
0.0508
 70
0
  0
VERTEX
  8
22
 10
0.3294
 20
14.1918
 30
0.0000
 42
1.0000
  0
VERTEX
  8
22
 10
0.2935
 20
14.1559
 30
0.0000
  0
SEQEND
  8
0
  0
POLYLINE
  8
22
 66
1
 10
0.0000
 20
0.0000
 30
0.0000
 40
0.0508
 41
0.0508
 70
0
  0
VERTEX
  8
22
 10
0.4248
 20
14.0246
 30
0.0000
 42
1.0000
  0
VERTEX
  8
22
 10
0.4607
 20
14.0605
 30
0.0000
  0
SEQEND
  8
0
  0
POLYLINE
  8
22
 66
1
 10
0.0000
 20
0.0000
 30
0.0000
 40
0.1016
 41
0.1016
 70
0
  0
VERTEX
  8
22
 10
0.3114
 20
14.1739
 30
0.0000
  0
VERTEX
  8
22
 10
0.0487
 20
14.1739
 30
0.0000
  0
SEQEND
  8
0
  0
POLYLINE
  8
22
 66
1
 10
0.0000
 20
0.0000
 30
0.0000
 40
0.0508
 41
0.0508
 70
0
  0
VERTEX
  8
22
 10
0.0487
 20
14.1993
 30
0.0000
 42
1.0000
  0
VERTEX
  8
22
 10
0.0487
 20
14.1485
 30
0.0000
  0
SEQEND
  8
0
  0
POLYLINE
  8
22
 66
1
 10
0.0000
 20
0.0000
 30
0.0000
 40
0.0508
 41
0.0508
 70
0
  0
VERTEX
  8
22
 10
0.3114
 20
14.1485
 30
0.0000
 42
1.0000
  0
VERTEX
  8
22
 10
0.3114
 20
14.1993
 30
0.0000
  0
SEQEND
  8
0
  0
POLYLINE
  8
22
 66
1
 10
0.0000
 20
0.0000
 30
0.0000
 40
0.1016
 41
0.1016
 70
0
  0
VERTEX
  8
22
 10
0.0487
 20
14.1739
 30
0.0000
  0
VERTEX
  8
22
 10
-0.0826
 20
14.0425
 30
0.0000
  0
SEQEND
  8
0
  0
POLYLINE
  8
22
 66
1
 10
0.0000
 20
0.0000
 30
0.0000
 40
0.0508
 41
0.0508
 70
0
  0
VERTEX
  8
22
 10
-0.1006
 20
14.0605
 30
0.0000
 42
1.0000
  0
VERTEX
  8
22
 10
-0.0647
 20
14.0246
 30
0.0000
  0
SEQEND
  8
0
  0
POLYLINE
  8
22
 66
1
 10
0.0000
 20
0.0000
 30
0.0000
 40
0.0508
 41
0.0508
 70
0
  0
VERTEX
  8
22
 10
0.0667
 20
14.1559
 30
0.0000
 42
1.0000
  0
VERTEX
  8
22
 10
0.0308
 20
14.1918
 30
0.0000
  0
SEQEND
  8
0
  0
POLYLINE
  8
22
 66
1
 10
0.0000
 20
0.0000
 30
0.0000
 40
0.1016
 41
0.1016
 70
0
  0
VERTEX
  8
22
 10
-0.0826
 20
14.0425
 30
0.0000
  0
VERTEX
  8
22
 10
-0.0826
 20
13.5171
 30
0.0000
  0
SEQEND
  8
0
  0
POLYLINE
  8
22
 66
1
 10
0.0000
 20
0.0000
 30
0.0000
 40
0.0508
 41
0.0508
 70
0
  0
VERTEX
  8
22
 10
-0.1080
 20
13.5171
 30
0.0000
 42
1.0000
  0
VERTEX
  8
22
 10
-0.0572
 20
13.5171
 30
0.0000
  0
SEQEND
  8
0
  0
POLYLINE
  8
22
 66
1
 10
0.0000
 20
0.0000
 30
0.0000
 40
0.0508
 41
0.0508
 70
0
  0
VERTEX
  8
22
 10
-0.0572
 20
14.0425
 30
0.0000
 42
1.0000
  0
VERTEX
  8
22
 10
-0.1080
 20
14.0425
 30
0.0000
  0
SEQEND
  8
0
  0
POLYLINE
  8
22
 66
1
 10
0.0000
 20
0.0000
 30
0.0000
 40
0.1016
 41
0.1016
 70
0
  0
VERTEX
  8
22
 10
-0.0826
 20
13.5171
 30
0.0000
  0
VERTEX
  8
22
 10
0.0487
 20
13.3858
 30
0.0000
  0
SEQEND
  8
0
  0
POLYLINE
  8
22
 66
1
 10
0.0000
 20
0.0000
 30
0.0000
 40
0.0508
 41
0.0508
 70
0
  0
VERTEX
  8
22
 10
0.0308
 20
13.3678
 30
0.0000
 42
1.0000
  0
VERTEX
  8
22
 10
0.0667
 20
13.4038
 30
0.0000
  0
SEQEND
  8
0
  0
POLYLINE
  8
22
 66
1
 10
0.0000
 20
0.0000
 30
0.0000
 40
0.0508
 41
0.0508
 70
0
  0
VERTEX
  8
22
 10
-0.0647
 20
13.5351
 30
0.0000
 42
1.0000
  0
VERTEX
  8
22
 10
-0.1006
 20
13.4992
 30
0.0000
  0
SEQEND
  8
0
  0
POLYLINE
  8
22
 66
1
 10
0.0000
 20
0.0000
 30
0.0000
 40
0.1016
 41
0.1016
 70
0
  0
VERTEX
  8
22
 10
0.0487
 20
13.3858
 30
0.0000
  0
VERTEX
  8
22
 10
0.3114
 20
13.3858
 30
0.0000
  0
SEQEND
  8
0
  0
POLYLINE
  8
22
 66
1
 10
0.0000
 20
0.0000
 30
0.0000
 40
0.0508
 41
0.0508
 70
0
  0
VERTEX
  8
22
 10
0.3114
 20
13.3604
 30
0.0000
 42
1.0000
  0
VERTEX
  8
22
 10
0.3114
 20
13.4112
 30
0.0000
  0
SEQEND
  8
0
  0
POLYLINE
  8
22
 66
1
 10
0.0000
 20
0.0000
 30
0.0000
 40
0.0508
 41
0.0508
 70
0
  0
VERTEX
  8
22
 10
0.0487
 20
13.4112
 30
0.0000
 42
1.0000
  0
VERTEX
  8
22
 10
0.0487
 20
13.3604
 30
0.0000
  0
SEQEND
  8
0
  0
POLYLINE
  8
22
 66
1
 10
0.0000
 20
0.0000
 30
0.0000
 40
0.1016
 41
0.1016
 70
0
  0
VERTEX
  8
22
 10
0.3114
 20
13.3858
 30
0.0000
  0
VERTEX
  8
22
 10
0.4428
 20
13.5171
 30
0.0000
  0
SEQEND
  8
0
  0
POLYLINE
  8
22
 66
1
 10
0.0000
 20
0.0000
 30
0.0000
 40
0.0508
 41
0.0508
 70
0
  0
VERTEX
  8
22
 10
0.4607
 20
13.4992
 30
0.0000
 42
1.0000
  0
VERTEX
  8
22
 10
0.4248
 20
13.5351
 30
0.0000
  0
SEQEND
  8
0
  0
POLYLINE
  8
22
 66
1
 10
0.0000
 20
0.0000
 30
0.0000
 40
0.0508
 41
0.0508
 70
0
  0
VERTEX
  8
22
 10
0.2935
 20
13.4038
 30
0.0000
 42
1.0000
  0
VERTEX
  8
22
 10
0.3294
 20
13.3678
 30
0.0000
  0
SEQEND
  8
0
  0
POLYLINE
  8
22
 66
1
 10
0.0000
 20
0.0000
 30
0.0000
 40
0.1016
 41
0.1016
 70
0
  0
VERTEX
  8
22
 10
0.4428
 20
13.5171
 30
0.0000
  0
VERTEX
  8
22
 10
-0.0826
 20
14.0425
 30
0.0000
  0
SEQEND
  8
0
  0
POLYLINE
  8
22
 66
1
 10
0.0000
 20
0.0000
 30
0.0000
 40
0.0508
 41
0.0508
 70
0
  0
VERTEX
  8
22
 10
-0.0647
 20
14.0605
 30
0.0000
 42
1.0000
  0
VERTEX
  8
22
 10
-0.1006
 20
14.0246
 30
0.0000
  0
SEQEND
  8
0
  0
POLYLINE
  8
22
 66
1
 10
0.0000
 20
0.0000
 30
0.0000
 40
0.0508
 41
0.0508
 70
0
  0
VERTEX
  8
22
 10
0.4248
 20
13.4992
 30
0.0000
 42
1.0000
  0
VERTEX
  8
22
 10
0.4607
 20
13.5351
 30
0.0000
  0
SEQEND
  8
0
  0
POLYLINE
  8
22
 66
1
 10
0.0000
 20
0.0000
 30
0.0000
 40
0.0762
 41
0.0762
 70
0
  0
VERTEX
  8
22
 10
11.6205
 20
18.8595
 30
0.0000
  0
VERTEX
  8
22
 10
11.6205
 20
17.9705
 30
0.0000
  0
SEQEND
  8
0
  0
POLYLINE
  8
22
 66
1
 10
0.0000
 20
0.0000
 30
0.0000
 40
0.0381
 41
0.0381
 70
0
  0
VERTEX
  8
22
 10
11.6014
 20
17.9705
 30
0.0000
 42
1.0000
  0
VERTEX
  8
22
 10
11.6395
 20
17.9705
 30
0.0000
  0
SEQEND
  8
0
  0
POLYLINE
  8
22
 66
1
 10
0.0000
 20
0.0000
 30
0.0000
 40
0.0381
 41
0.0381
 70
0
  0
VERTEX
  8
22
 10
11.6395
 20
18.8595
 30
0.0000
 42
1.0000
  0
VERTEX
  8
22
 10
11.6014
 20
18.8595
 30
0.0000
  0
SEQEND
  8
0
  0
POLYLINE
  8
22
 66
1
 10
0.0000
 20
0.0000
 30
0.0000
 40
0.0762
 41
0.0762
 70
0
  0
VERTEX
  8
22
 10
11.6205
 20
17.9705
 30
0.0000
 42
0.4142
  0
VERTEX
  8
22
 10
11.7475
 20
17.8435
 30
0.0000
  0
SEQEND
  8
0
  0
POLYLINE
  8
22
 66
1
 10
0.0000
 20
0.0000
 30
0.0000
 40
0.0381
 41
0.0381
 70
0
  0
VERTEX
  8
22
 10
11.6395
 20
17.9705
 30
0.0000
 42
1.0000
  0
VERTEX
  8
22
 10
11.6014
 20
17.9705
 30
0.0000
  0
SEQEND
  8
0
  0
POLYLINE
  8
22
 66
1
 10
0.0000
 20
0.0000
 30
0.0000
 40
0.0381
 41
0.0381
 70
0
  0
VERTEX
  8
22
 10
11.7475
 20
17.8245
 30
0.0000
 42
1.0000
  0
VERTEX
  8
22
 10
11.7475
 20
17.8626
 30
0.0000
  0
SEQEND
  8
0
  0
POLYLINE
  8
22
 66
1
 10
0.0000
 20
0.0000
 30
0.0000
 40
0.0762
 41
0.0762
 70
0
  0
VERTEX
  8
22
 10
11.7475
 20
17.8435
 30
0.0000
  0
VERTEX
  8
22
 10
12.1285
 20
17.8435
 30
0.0000
  0
SEQEND
  8
0
  0
POLYLINE
  8
22
 66
1
 10
0.0000
 20
0.0000
 30
0.0000
 40
0.0381
 41
0.0381
 70
0
  0
VERTEX
  8
22
 10
12.1285
 20
17.8245
 30
0.0000
 42
1.0000
  0
VERTEX
  8
22
 10
12.1285
 20
17.8626
 30
0.0000
  0
SEQEND
  8
0
  0
POLYLINE
  8
22
 66
1
 10
0.0000
 20
0.0000
 30
0.0000
 40
0.0381
 41
0.0381
 70
0
  0
VERTEX
  8
22
 10
11.7475
 20
17.8626
 30
0.0000
 42
1.0000
  0
VERTEX
  8
22
 10
11.7475
 20
17.8245
 30
0.0000
  0
SEQEND
  8
0
  0
POLYLINE
  8
22
 66
1
 10
0.0000
 20
0.0000
 30
0.0000
 40
0.0762
 41
0.0762
 70
0
  0
VERTEX
  8
22
 10
12.1285
 20
17.8435
 30
0.0000
 42
0.4142
  0
VERTEX
  8
22
 10
12.2555
 20
17.9705
 30
0.0000
  0
SEQEND
  8
0
  0
POLYLINE
  8
22
 66
1
 10
0.0000
 20
0.0000
 30
0.0000
 40
0.0381
 41
0.0381
 70
0
  0
VERTEX
  8
22
 10
12.1285
 20
17.8626
 30
0.0000
 42
1.0000
  0
VERTEX
  8
22
 10
12.1285
 20
17.8245
 30
0.0000
  0
SEQEND
  8
0
  0
POLYLINE
  8
22
 66
1
 10
0.0000
 20
0.0000
 30
0.0000
 40
0.0381
 41
0.0381
 70
0
  0
VERTEX
  8
22
 10
12.2746
 20
17.9705
 30
0.0000
 42
1.0000
  0
VERTEX
  8
22
 10
12.2365
 20
17.9705
 30
0.0000
  0
SEQEND
  8
0
  0
POLYLINE
  8
22
 66
1
 10
0.0000
 20
0.0000
 30
0.0000
 40
0.0762
 41
0.0762
 70
0
  0
VERTEX
  8
22
 10
12.2555
 20
17.9705
 30
0.0000
  0
VERTEX
  8
22
 10
12.2555
 20
18.8595
 30
0.0000
  0
SEQEND
  8
0
  0
POLYLINE
  8
22
 66
1
 10
0.0000
 20
0.0000
 30
0.0000
 40
0.0381
 41
0.0381
 70
0
  0
VERTEX
  8
22
 10
12.2746
 20
18.8595
 30
0.0000
 42
1.0000
  0
VERTEX
  8
22
 10
12.2365
 20
18.8595
 30
0.0000
  0
SEQEND
  8
0
  0
POLYLINE
  8
22
 66
1
 10
0.0000
 20
0.0000
 30
0.0000
 40
0.0381
 41
0.0381
 70
0
  0
VERTEX
  8
22
 10
12.2365
 20
17.9705
 30
0.0000
 42
1.0000
  0
VERTEX
  8
22
 10
12.2746
 20
17.9705
 30
0.0000
  0
SEQEND
  8
0
  0
POLYLINE
  8
22
 66
1
 10
0.0000
 20
0.0000
 30
0.0000
 40
0.0762
 41
0.0762
 70
0
  0
VERTEX
  8
22
 10
12.2555
 20
18.8595
 30
0.0000
 42
0.4142
  0
VERTEX
  8
22
 10
12.1285
 20
18.9865
 30
0.0000
  0
SEQEND
  8
0
  0
POLYLINE
  8
22
 66
1
 10
0.0000
 20
0.0000
 30
0.0000
 40
0.0381
 41
0.0381
 70
0
  0
VERTEX
  8
22
 10
12.2365
 20
18.8595
 30
0.0000
 42
1.0000
  0
VERTEX
  8
22
 10
12.2746
 20
18.8595
 30
0.0000
  0
SEQEND
  8
0
  0
POLYLINE
  8
22
 66
1
 10
0.0000
 20
0.0000
 30
0.0000
 40
0.0381
 41
0.0381
 70
0
  0
VERTEX
  8
22
 10
12.1285
 20
19.0055
 30
0.0000
 42
1.0000
  0
VERTEX
  8
22
 10
12.1285
 20
18.9674
 30
0.0000
  0
SEQEND
  8
0
  0
POLYLINE
  8
22
 66
1
 10
0.0000
 20
0.0000
 30
0.0000
 40
0.0762
 41
0.0762
 70
0
  0
VERTEX
  8
22
 10
12.1285
 20
18.9865
 30
0.0000
  0
VERTEX
  8
22
 10
11.7475
 20
18.9865
 30
0.0000
  0
SEQEND
  8
0
  0
POLYLINE
  8
22
 66
1
 10
0.0000
 20
0.0000
 30
0.0000
 40
0.0381
 41
0.0381
 70
0
  0
VERTEX
  8
22
 10
11.7475
 20
19.0055
 30
0.0000
 42
1.0000
  0
VERTEX
  8
22
 10
11.7475
 20
18.9674
 30
0.0000
  0
SEQEND
  8
0
  0
POLYLINE
  8
22
 66
1
 10
0.0000
 20
0.0000
 30
0.0000
 40
0.0381
 41
0.0381
 70
0
  0
VERTEX
  8
22
 10
12.1285
 20
18.9674
 30
0.0000
 42
1.0000
  0
VERTEX
  8
22
 10
12.1285
 20
19.0055
 30
0.0000
  0
SEQEND
  8
0
  0
POLYLINE
  8
22
 66
1
 10
0.0000
 20
0.0000
 30
0.0000
 40
0.0762
 41
0.0762
 70
0
  0
VERTEX
  8
22
 10
11.7475
 20
18.9865
 30
0.0000
 42
0.4142
  0
VERTEX
  8
22
 10
11.6205
 20
18.8595
 30
0.0000
  0
SEQEND
  8
0
  0
POLYLINE
  8
22
 66
1
 10
0.0000
 20
0.0000
 30
0.0000
 40
0.0381
 41
0.0381
 70
0
  0
VERTEX
  8
22
 10
11.7475
 20
18.9674
 30
0.0000
 42
1.0000
  0
VERTEX
  8
22
 10
11.7475
 20
19.0055
 30
0.0000
  0
SEQEND
  8
0
  0
POLYLINE
  8
22
 66
1
 10
0.0000
 20
0.0000
 30
0.0000
 40
0.0381
 41
0.0381
 70
0
  0
VERTEX
  8
22
 10
11.6014
 20
18.8595
 30
0.0000
 42
1.0000
  0
VERTEX
  8
22
 10
11.6395
 20
18.8595
 30
0.0000
  0
SEQEND
  8
0
  0
POLYLINE
  8
22
 66
1
 10
0.0000
 20
0.0000
 30
0.0000
 40
0.0762
 41
0.0762
 70
0
  0
VERTEX
  8
22
 10
1.0795
 20
17.8435
 30
0.0000
  0
VERTEX
  8
22
 10
1.0795
 20
16.9545
 30
0.0000
  0
SEQEND
  8
0
  0
POLYLINE
  8
22
 66
1
 10
0.0000
 20
0.0000
 30
0.0000
 40
0.0381
 41
0.0381
 70
0
  0
VERTEX
  8
22
 10
1.0605
 20
16.9545
 30
0.0000
 42
1.0000
  0
VERTEX
  8
22
 10
1.0986
 20
16.9545
 30
0.0000
  0
SEQEND
  8
0
  0
POLYLINE
  8
22
 66
1
 10
0.0000
 20
0.0000
 30
0.0000
 40
0.0381
 41
0.0381
 70
0
  0
VERTEX
  8
22
 10
1.0986
 20
17.8435
 30
0.0000
 42
1.0000
  0
VERTEX
  8
22
 10
1.0605
 20
17.8435
 30
0.0000
  0
SEQEND
  8
0
  0
POLYLINE
  8
22
 66
1
 10
0.0000
 20
0.0000
 30
0.0000
 40
0.0762
 41
0.0762
 70
0
  0
VERTEX
  8
22
 10
1.0795
 20
16.9545
 30
0.0000
 42
0.4142
  0
VERTEX
  8
22
 10
1.2065
 20
16.8275
 30
0.0000
  0
SEQEND
  8
0
  0
POLYLINE
  8
22
 66
1
 10
0.0000
 20
0.0000
 30
0.0000
 40
0.0381
 41
0.0381
 70
0
  0
VERTEX
  8
22
 10
1.0986
 20
16.9545
 30
0.0000
 42
1.0000
  0
VERTEX
  8
22
 10
1.0605
 20
16.9545
 30
0.0000
  0
SEQEND
  8
0
  0
POLYLINE
  8
22
 66
1
 10
0.0000
 20
0.0000
 30
0.0000
 40
0.0381
 41
0.0381
 70
0
  0
VERTEX
  8
22
 10
1.2065
 20
16.8085
 30
0.0000
 42
1.0000
  0
VERTEX
  8
22
 10
1.2065
 20
16.8466
 30
0.0000
  0
SEQEND
  8
0
  0
POLYLINE
  8
22
 66
1
 10
0.0000
 20
0.0000
 30
0.0000
 40
0.0762
 41
0.0762
 70
0
  0
VERTEX
  8
22
 10
1.2065
 20
16.8275
 30
0.0000
  0
VERTEX
  8
22
 10
1.5875
 20
16.8275
 30
0.0000
  0
SEQEND
  8
0
  0
POLYLINE
  8
22
 66
1
 10
0.0000
 20
0.0000
 30
0.0000
 40
0.0381
 41
0.0381
 70
0
  0
VERTEX
  8
22
 10
1.5875
 20
16.8085
 30
0.0000
 42
1.0000
  0
VERTEX
  8
22
 10
1.5875
 20
16.8466
 30
0.0000
  0
SEQEND
  8
0
  0
POLYLINE
  8
22
 66
1
 10
0.0000
 20
0.0000
 30
0.0000
 40
0.0381
 41
0.0381
 70
0
  0
VERTEX
  8
22
 10
1.2065
 20
16.8466
 30
0.0000
 42
1.0000
  0
VERTEX
  8
22
 10
1.2065
 20
16.8085
 30
0.0000
  0
SEQEND
  8
0
  0
POLYLINE
  8
22
 66
1
 10
0.0000
 20
0.0000
 30
0.0000
 40
0.0762
 41
0.0762
 70
0
  0
VERTEX
  8
22
 10
1.5875
 20
16.8275
 30
0.0000
 42
0.4142
  0
VERTEX
  8
22
 10
1.7145
 20
16.9545
 30
0.0000
  0
SEQEND
  8
0
  0
POLYLINE
  8
22
 66
1
 10
0.0000
 20
0.0000
 30
0.0000
 40
0.0381
 41
0.0381
 70
0
  0
VERTEX
  8
22
 10
1.5875
 20
16.8466
 30
0.0000
 42
1.0000
  0
VERTEX
  8
22
 10
1.5875
 20
16.8085
 30
0.0000
  0
SEQEND
  8
0
  0
POLYLINE
  8
22
 66
1
 10
0.0000
 20
0.0000
 30
0.0000
 40
0.0381
 41
0.0381
 70
0
  0
VERTEX
  8
22
 10
1.7336
 20
16.9545
 30
0.0000
 42
1.0000
  0
VERTEX
  8
22
 10
1.6955
 20
16.9545
 30
0.0000
  0
SEQEND
  8
0
  0
POLYLINE
  8
22
 66
1
 10
0.0000
 20
0.0000
 30
0.0000
 40
0.0762
 41
0.0762
 70
0
  0
VERTEX
  8
22
 10
1.7145
 20
16.9545
 30
0.0000
  0
VERTEX
  8
22
 10
1.7145
 20
17.8435
 30
0.0000
  0
SEQEND
  8
0
  0
POLYLINE
  8
22
 66
1
 10
0.0000
 20
0.0000
 30
0.0000
 40
0.0381
 41
0.0381
 70
0
  0
VERTEX
  8
22
 10
1.7336
 20
17.8435
 30
0.0000
 42
1.0000
  0
VERTEX
  8
22
 10
1.6955
 20
17.8435
 30
0.0000
  0
SEQEND
  8
0
  0
POLYLINE
  8
22
 66
1
 10
0.0000
 20
0.0000
 30
0.0000
 40
0.0381
 41
0.0381
 70
0
  0
VERTEX
  8
22
 10
1.6955
 20
16.9545
 30
0.0000
 42
1.0000
  0
VERTEX
  8
22
 10
1.7336
 20
16.9545
 30
0.0000
  0
SEQEND
  8
0
  0
POLYLINE
  8
22
 66
1
 10
0.0000
 20
0.0000
 30
0.0000
 40
0.0762
 41
0.0762
 70
0
  0
VERTEX
  8
22
 10
1.7145
 20
17.8435
 30
0.0000
 42
0.4142
  0
VERTEX
  8
22
 10
1.5875
 20
17.9705
 30
0.0000
  0
SEQEND
  8
0
  0
POLYLINE
  8
22
 66
1
 10
0.0000
 20
0.0000
 30
0.0000
 40
0.0381
 41
0.0381
 70
0
  0
VERTEX
  8
22
 10
1.6955
 20
17.8435
 30
0.0000
 42
1.0000
  0
VERTEX
  8
22
 10
1.7336
 20
17.8435
 30
0.0000
  0
SEQEND
  8
0
  0
POLYLINE
  8
22
 66
1
 10
0.0000
 20
0.0000
 30
0.0000
 40
0.0381
 41
0.0381
 70
0
  0
VERTEX
  8
22
 10
1.5875
 20
17.9896
 30
0.0000
 42
1.0000
  0
VERTEX
  8
22
 10
1.5875
 20
17.9515
 30
0.0000
  0
SEQEND
  8
0
  0
POLYLINE
  8
22
 66
1
 10
0.0000
 20
0.0000
 30
0.0000
 40
0.0762
 41
0.0762
 70
0
  0
VERTEX
  8
22
 10
1.5875
 20
17.9705
 30
0.0000
  0
VERTEX
  8
22
 10
1.2065
 20
17.9705
 30
0.0000
  0
SEQEND
  8
0
  0
POLYLINE
  8
22
 66
1
 10
0.0000
 20
0.0000
 30
0.0000
 40
0.0381
 41
0.0381
 70
0
  0
VERTEX
  8
22
 10
1.2065
 20
17.9896
 30
0.0000
 42
1.0000
  0
VERTEX
  8
22
 10
1.2065
 20
17.9515
 30
0.0000
  0
SEQEND
  8
0
  0
POLYLINE
  8
22
 66
1
 10
0.0000
 20
0.0000
 30
0.0000
 40
0.0381
 41
0.0381
 70
0
  0
VERTEX
  8
22
 10
1.5875
 20
17.9515
 30
0.0000
 42
1.0000
  0
VERTEX
  8
22
 10
1.5875
 20
17.9896
 30
0.0000
  0
SEQEND
  8
0
  0
POLYLINE
  8
22
 66
1
 10
0.0000
 20
0.0000
 30
0.0000
 40
0.0762
 41
0.0762
 70
0
  0
VERTEX
  8
22
 10
1.2065
 20
17.9705
 30
0.0000
 42
0.4142
  0
VERTEX
  8
22
 10
1.0795
 20
17.8435
 30
0.0000
  0
SEQEND
  8
0
  0
POLYLINE
  8
22
 66
1
 10
0.0000
 20
0.0000
 30
0.0000
 40
0.0381
 41
0.0381
 70
0
  0
VERTEX
  8
22
 10
1.2065
 20
17.9515
 30
0.0000
 42
1.0000
  0
VERTEX
  8
22
 10
1.2065
 20
17.9896
 30
0.0000
  0
SEQEND
  8
0
  0
POLYLINE
  8
22
 66
1
 10
0.0000
 20
0.0000
 30
0.0000
 40
0.0381
 41
0.0381
 70
0
  0
VERTEX
  8
22
 10
1.0605
 20
17.8435
 30
0.0000
 42
1.0000
  0
VERTEX
  8
22
 10
1.0986
 20
17.8435
 30
0.0000
  0
SEQEND
  8
0
  0
POLYLINE
  8
22
 66
1
 10
0.0000
 20
0.0000
 30
0.0000
 40
0.0762
 41
0.0762
 70
0
  0
VERTEX
  8
22
 10
16.0655
 20
16.4465
 30
0.0000
  0
VERTEX
  8
22
 10
15.1765
 20
16.4465
 30
0.0000
  0
SEQEND
  8
0
  0
POLYLINE
  8
22
 66
1
 10
0.0000
 20
0.0000
 30
0.0000
 40
0.0381
 41
0.0381
 70
0
  0
VERTEX
  8
22
 10
15.1765
 20
16.4656
 30
0.0000
 42
1.0000
  0
VERTEX
  8
22
 10
15.1765
 20
16.4275
 30
0.0000
  0
SEQEND
  8
0
  0
POLYLINE
  8
22
 66
1
 10
0.0000
 20
0.0000
 30
0.0000
 40
0.0381
 41
0.0381
 70
0
  0
VERTEX
  8
22
 10
16.0655
 20
16.4275
 30
0.0000
 42
1.0000
  0
VERTEX
  8
22
 10
16.0655
 20
16.4656
 30
0.0000
  0
SEQEND
  8
0
  0
POLYLINE
  8
22
 66
1
 10
0.0000
 20
0.0000
 30
0.0000
 40
0.0762
 41
0.0762
 70
0
  0
VERTEX
  8
22
 10
15.1765
 20
16.4465
 30
0.0000
 42
0.4142
  0
VERTEX
  8
22
 10
15.0495
 20
16.3195
 30
0.0000
  0
SEQEND
  8
0
  0
POLYLINE
  8
22
 66
1
 10
0.0000
 20
0.0000
 30
0.0000
 40
0.0381
 41
0.0381
 70
0
  0
VERTEX
  8
22
 10
15.1765
 20
16.4275
 30
0.0000
 42
1.0000
  0
VERTEX
  8
22
 10
15.1765
 20
16.4656
 30
0.0000
  0
SEQEND
  8
0
  0
POLYLINE
  8
22
 66
1
 10
0.0000
 20
0.0000
 30
0.0000
 40
0.0381
 41
0.0381
 70
0
  0
VERTEX
  8
22
 10
15.0305
 20
16.3195
 30
0.0000
 42
1.0000
  0
VERTEX
  8
22
 10
15.0686
 20
16.3195
 30
0.0000
  0
SEQEND
  8
0
  0
POLYLINE
  8
22
 66
1
 10
0.0000
 20
0.0000
 30
0.0000
 40
0.0762
 41
0.0762
 70
0
  0
VERTEX
  8
22
 10
15.0495
 20
16.3195
 30
0.0000
  0
VERTEX
  8
22
 10
15.0495
 20
15.9385
 30
0.0000
  0
SEQEND
  8
0
  0
POLYLINE
  8
22
 66
1
 10
0.0000
 20
0.0000
 30
0.0000
 40
0.0381
 41
0.0381
 70
0
  0
VERTEX
  8
22
 10
15.0305
 20
15.9385
 30
0.0000
 42
1.0000
  0
VERTEX
  8
22
 10
15.0686
 20
15.9385
 30
0.0000
  0
SEQEND
  8
0
  0
POLYLINE
  8
22
 66
1
 10
0.0000
 20
0.0000
 30
0.0000
 40
0.0381
 41
0.0381
 70
0
  0
VERTEX
  8
22
 10
15.0686
 20
16.3195
 30
0.0000
 42
1.0000
  0
VERTEX
  8
22
 10
15.0305
 20
16.3195
 30
0.0000
  0
SEQEND
  8
0
  0
POLYLINE
  8
22
 66
1
 10
0.0000
 20
0.0000
 30
0.0000
 40
0.0762
 41
0.0762
 70
0
  0
VERTEX
  8
22
 10
15.0495
 20
15.9385
 30
0.0000
 42
0.4142
  0
VERTEX
  8
22
 10
15.1765
 20
15.8115
 30
0.0000
  0
SEQEND
  8
0
  0
POLYLINE
  8
22
 66
1
 10
0.0000
 20
0.0000
 30
0.0000
 40
0.0381
 41
0.0381
 70
0
  0
VERTEX
  8
22
 10
15.0686
 20
15.9385
 30
0.0000
 42
1.0000
  0
VERTEX
  8
22
 10
15.0305
 20
15.9385
 30
0.0000
  0
SEQEND
  8
0
  0
POLYLINE
  8
22
 66
1
 10
0.0000
 20
0.0000
 30
0.0000
 40
0.0381
 41
0.0381
 70
0
  0
VERTEX
  8
22
 10
15.1765
 20
15.7925
 30
0.0000
 42
1.0000
  0
VERTEX
  8
22
 10
15.1765
 20
15.8306
 30
0.0000
  0
SEQEND
  8
0
  0
POLYLINE
  8
22
 66
1
 10
0.0000
 20
0.0000
 30
0.0000
 40
0.0762
 41
0.0762
 70
0
  0
VERTEX
  8
22
 10
15.1765
 20
15.8115
 30
0.0000
  0
VERTEX
  8
22
 10
16.0655
 20
15.8115
 30
0.0000
  0
SEQEND
  8
0
  0
POLYLINE
  8
22
 66
1
 10
0.0000
 20
0.0000
 30
0.0000
 40
0.0381
 41
0.0381
 70
0
  0
VERTEX
  8
22
 10
16.0655
 20
15.7925
 30
0.0000
 42
1.0000
  0
VERTEX
  8
22
 10
16.0655
 20
15.8306
 30
0.0000
  0
SEQEND
  8
0
  0
POLYLINE
  8
22
 66
1
 10
0.0000
 20
0.0000
 30
0.0000
 40
0.0381
 41
0.0381
 70
0
  0
VERTEX
  8
22
 10
15.1765
 20
15.8306
 30
0.0000
 42
1.0000
  0
VERTEX
  8
22
 10
15.1765
 20
15.7925
 30
0.0000
  0
SEQEND
  8
0
  0
POLYLINE
  8
22
 66
1
 10
0.0000
 20
0.0000
 30
0.0000
 40
0.0762
 41
0.0762
 70
0
  0
VERTEX
  8
22
 10
16.0655
 20
15.8115
 30
0.0000
 42
0.4142
  0
VERTEX
  8
22
 10
16.1925
 20
15.9385
 30
0.0000
  0
SEQEND
  8
0
  0
POLYLINE
  8
22
 66
1
 10
0.0000
 20
0.0000
 30
0.0000
 40
0.0381
 41
0.0381
 70
0
  0
VERTEX
  8
22
 10
16.0655
 20
15.8306
 30
0.0000
 42
1.0000
  0
VERTEX
  8
22
 10
16.0655
 20
15.7925
 30
0.0000
  0
SEQEND
  8
0
  0
POLYLINE
  8
22
 66
1
 10
0.0000
 20
0.0000
 30
0.0000
 40
0.0381
 41
0.0381
 70
0
  0
VERTEX
  8
22
 10
16.2115
 20
15.9385
 30
0.0000
 42
1.0000
  0
VERTEX
  8
22
 10
16.1734
 20
15.9385
 30
0.0000
  0
SEQEND
  8
0
  0
POLYLINE
  8
22
 66
1
 10
0.0000
 20
0.0000
 30
0.0000
 40
0.0762
 41
0.0762
 70
0
  0
VERTEX
  8
22
 10
16.1925
 20
15.9385
 30
0.0000
  0
VERTEX
  8
22
 10
16.1925
 20
16.3195
 30
0.0000
  0
SEQEND
  8
0
  0
POLYLINE
  8
22
 66
1
 10
0.0000
 20
0.0000
 30
0.0000
 40
0.0381
 41
0.0381
 70
0
  0
VERTEX
  8
22
 10
16.2115
 20
16.3195
 30
0.0000
 42
1.0000
  0
VERTEX
  8
22
 10
16.1734
 20
16.3195
 30
0.0000
  0
SEQEND
  8
0
  0
POLYLINE
  8
22
 66
1
 10
0.0000
 20
0.0000
 30
0.0000
 40
0.0381
 41
0.0381
 70
0
  0
VERTEX
  8
22
 10
16.1734
 20
15.9385
 30
0.0000
 42
1.0000
  0
VERTEX
  8
22
 10
16.2115
 20
15.9385
 30
0.0000
  0
SEQEND
  8
0
  0
POLYLINE
  8
22
 66
1
 10
0.0000
 20
0.0000
 30
0.0000
 40
0.0762
 41
0.0762
 70
0
  0
VERTEX
  8
22
 10
16.1925
 20
16.3195
 30
0.0000
 42
0.4142
  0
VERTEX
  8
22
 10
16.0655
 20
16.4465
 30
0.0000
  0
SEQEND
  8
0
  0
POLYLINE
  8
22
 66
1
 10
0.0000
 20
0.0000
 30
0.0000
 40
0.0381
 41
0.0381
 70
0
  0
VERTEX
  8
22
 10
16.1734
 20
16.3195
 30
0.0000
 42
1.0000
  0
VERTEX
  8
22
 10
16.2115
 20
16.3195
 30
0.0000
  0
SEQEND
  8
0
  0
POLYLINE
  8
22
 66
1
 10
0.0000
 20
0.0000
 30
0.0000
 40
0.0381
 41
0.0381
 70
0
  0
VERTEX
  8
22
 10
16.0655
 20
16.4656
 30
0.0000
 42
1.0000
  0
VERTEX
  8
22
 10
16.0655
 20
16.4275
 30
0.0000
  0
SEQEND
  8
0
  0
POLYLINE
  8
22
 66
1
 10
0.0000
 20
0.0000
 30
0.0000
 40
0.0762
 41
0.0762
 70
0
  0
VERTEX
  8
22
 10
16.0655
 20
15.6845
 30
0.0000
  0
VERTEX
  8
22
 10
15.1765
 20
15.6845
 30
0.0000
  0
SEQEND
  8
0
  0
POLYLINE
  8
22
 66
1
 10
0.0000
 20
0.0000
 30
0.0000
 40
0.0381
 41
0.0381
 70
0
  0
VERTEX
  8
22
 10
15.1765
 20
15.7035
 30
0.0000
 42
1.0000
  0
VERTEX
  8
22
 10
15.1765
 20
15.6654
 30
0.0000
  0
SEQEND
  8
0
  0
POLYLINE
  8
22
 66
1
 10
0.0000
 20
0.0000
 30
0.0000
 40
0.0381
 41
0.0381
 70
0
  0
VERTEX
  8
22
 10
16.0655
 20
15.6654
 30
0.0000
 42
1.0000
  0
VERTEX
  8
22
 10
16.0655
 20
15.7035
 30
0.0000
  0
SEQEND
  8
0
  0
POLYLINE
  8
22
 66
1
 10
0.0000
 20
0.0000
 30
0.0000
 40
0.0762
 41
0.0762
 70
0
  0
VERTEX
  8
22
 10
15.1765
 20
15.6845
 30
0.0000
 42
0.4142
  0
VERTEX
  8
22
 10
15.0495
 20
15.5575
 30
0.0000
  0
SEQEND
  8
0
  0
POLYLINE
  8
22
 66
1
 10
0.0000
 20
0.0000
 30
0.0000
 40
0.0381
 41
0.0381
 70
0
  0
VERTEX
  8
22
 10
15.1765
 20
15.6654
 30
0.0000
 42
1.0000
  0
VERTEX
  8
22
 10
15.1765
 20
15.7035
 30
0.0000
  0
SEQEND
  8
0
  0
POLYLINE
  8
22
 66
1
 10
0.0000
 20
0.0000
 30
0.0000
 40
0.0381
 41
0.0381
 70
0
  0
VERTEX
  8
22
 10
15.0305
 20
15.5575
 30
0.0000
 42
1.0000
  0
VERTEX
  8
22
 10
15.0686
 20
15.5575
 30
0.0000
  0
SEQEND
  8
0
  0
POLYLINE
  8
22
 66
1
 10
0.0000
 20
0.0000
 30
0.0000
 40
0.0762
 41
0.0762
 70
0
  0
VERTEX
  8
22
 10
15.0495
 20
15.5575
 30
0.0000
  0
VERTEX
  8
22
 10
15.0495
 20
15.1765
 30
0.0000
  0
SEQEND
  8
0
  0
POLYLINE
  8
22
 66
1
 10
0.0000
 20
0.0000
 30
0.0000
 40
0.0381
 41
0.0381
 70
0
  0
VERTEX
  8
22
 10
15.0305
 20
15.1765
 30
0.0000
 42
1.0000
  0
VERTEX
  8
22
 10
15.0686
 20
15.1765
 30
0.0000
  0
SEQEND
  8
0
  0
POLYLINE
  8
22
 66
1
 10
0.0000
 20
0.0000
 30
0.0000
 40
0.0381
 41
0.0381
 70
0
  0
VERTEX
  8
22
 10
15.0686
 20
15.5575
 30
0.0000
 42
1.0000
  0
VERTEX
  8
22
 10
15.0305
 20
15.5575
 30
0.0000
  0
SEQEND
  8
0
  0
POLYLINE
  8
22
 66
1
 10
0.0000
 20
0.0000
 30
0.0000
 40
0.0762
 41
0.0762
 70
0
  0
VERTEX
  8
22
 10
15.0495
 20
15.1765
 30
0.0000
 42
0.4142
  0
VERTEX
  8
22
 10
15.1765
 20
15.0495
 30
0.0000
  0
SEQEND
  8
0
  0
POLYLINE
  8
22
 66
1
 10
0.0000
 20
0.0000
 30
0.0000
 40
0.0381
 41
0.0381
 70
0
  0
VERTEX
  8
22
 10
15.0686
 20
15.1765
 30
0.0000
 42
1.0000
  0
VERTEX
  8
22
 10
15.0305
 20
15.1765
 30
0.0000
  0
SEQEND
  8
0
  0
POLYLINE
  8
22
 66
1
 10
0.0000
 20
0.0000
 30
0.0000
 40
0.0381
 41
0.0381
 70
0
  0
VERTEX
  8
22
 10
15.1765
 20
15.0305
 30
0.0000
 42
1.0000
  0
VERTEX
  8
22
 10
15.1765
 20
15.0686
 30
0.0000
  0
SEQEND
  8
0
  0
POLYLINE
  8
22
 66
1
 10
0.0000
 20
0.0000
 30
0.0000
 40
0.0762
 41
0.0762
 70
0
  0
VERTEX
  8
22
 10
15.1765
 20
15.0495
 30
0.0000
  0
VERTEX
  8
22
 10
16.0655
 20
15.0495
 30
0.0000
  0
SEQEND
  8
0
  0
POLYLINE
  8
22
 66
1
 10
0.0000
 20
0.0000
 30
0.0000
 40
0.0381
 41
0.0381
 70
0
  0
VERTEX
  8
22
 10
16.0655
 20
15.0305
 30
0.0000
 42
1.0000
  0
VERTEX
  8
22
 10
16.0655
 20
15.0686
 30
0.0000
  0
SEQEND
  8
0
  0
POLYLINE
  8
22
 66
1
 10
0.0000
 20
0.0000
 30
0.0000
 40
0.0381
 41
0.0381
 70
0
  0
VERTEX
  8
22
 10
15.1765
 20
15.0686
 30
0.0000
 42
1.0000
  0
VERTEX
  8
22
 10
15.1765
 20
15.0305
 30
0.0000
  0
SEQEND
  8
0
  0
POLYLINE
  8
22
 66
1
 10
0.0000
 20
0.0000
 30
0.0000
 40
0.0762
 41
0.0762
 70
0
  0
VERTEX
  8
22
 10
16.0655
 20
15.0495
 30
0.0000
 42
0.4142
  0
VERTEX
  8
22
 10
16.1925
 20
15.1765
 30
0.0000
  0
SEQEND
  8
0
  0
POLYLINE
  8
22
 66
1
 10
0.0000
 20
0.0000
 30
0.0000
 40
0.0381
 41
0.0381
 70
0
  0
VERTEX
  8
22
 10
16.0655
 20
15.0686
 30
0.0000
 42
1.0000
  0
VERTEX
  8
22
 10
16.0655
 20
15.0305
 30
0.0000
  0
SEQEND
  8
0
  0
POLYLINE
  8
22
 66
1
 10
0.0000
 20
0.0000
 30
0.0000
 40
0.0381
 41
0.0381
 70
0
  0
VERTEX
  8
22
 10
16.2115
 20
15.1765
 30
0.0000
 42
1.0000
  0
VERTEX
  8
22
 10
16.1734
 20
15.1765
 30
0.0000
  0
SEQEND
  8
0
  0
POLYLINE
  8
22
 66
1
 10
0.0000
 20
0.0000
 30
0.0000
 40
0.0762
 41
0.0762
 70
0
  0
VERTEX
  8
22
 10
16.1925
 20
15.1765
 30
0.0000
  0
VERTEX
  8
22
 10
16.1925
 20
15.5575
 30
0.0000
  0
SEQEND
  8
0
  0
POLYLINE
  8
22
 66
1
 10
0.0000
 20
0.0000
 30
0.0000
 40
0.0381
 41
0.0381
 70
0
  0
VERTEX
  8
22
 10
16.2115
 20
15.5575
 30
0.0000
 42
1.0000
  0
VERTEX
  8
22
 10
16.1734
 20
15.5575
 30
0.0000
  0
SEQEND
  8
0
  0
POLYLINE
  8
22
 66
1
 10
0.0000
 20
0.0000
 30
0.0000
 40
0.0381
 41
0.0381
 70
0
  0
VERTEX
  8
22
 10
16.1734
 20
15.1765
 30
0.0000
 42
1.0000
  0
VERTEX
  8
22
 10
16.2115
 20
15.1765
 30
0.0000
  0
SEQEND
  8
0
  0
POLYLINE
  8
22
 66
1
 10
0.0000
 20
0.0000
 30
0.0000
 40
0.0762
 41
0.0762
 70
0
  0
VERTEX
  8
22
 10
16.1925
 20
15.5575
 30
0.0000
 42
0.4142
  0
VERTEX
  8
22
 10
16.0655
 20
15.6845
 30
0.0000
  0
SEQEND
  8
0
  0
POLYLINE
  8
22
 66
1
 10
0.0000
 20
0.0000
 30
0.0000
 40
0.0381
 41
0.0381
 70
0
  0
VERTEX
  8
22
 10
16.1734
 20
15.5575
 30
0.0000
 42
1.0000
  0
VERTEX
  8
22
 10
16.2115
 20
15.5575
 30
0.0000
  0
SEQEND
  8
0
  0
POLYLINE
  8
22
 66
1
 10
0.0000
 20
0.0000
 30
0.0000
 40
0.0381
 41
0.0381
 70
0
  0
VERTEX
  8
22
 10
16.0655
 20
15.7035
 30
0.0000
 42
1.0000
  0
VERTEX
  8
22
 10
16.0655
 20
15.6654
 30
0.0000
  0
SEQEND
  8
0
  0
POLYLINE
  8
22
 66
1
 10
0.0000
 20
0.0000
 30
0.0000
 40
0.0762
 41
0.0762
 70
0
  0
VERTEX
  8
22
 10
2.6035
 20
17.8435
 30
0.0000
  0
VERTEX
  8
22
 10
2.6035
 20
16.9545
 30
0.0000
  0
SEQEND
  8
0
  0
POLYLINE
  8
22
 66
1
 10
0.0000
 20
0.0000
 30
0.0000
 40
0.0381
 41
0.0381
 70
0
  0
VERTEX
  8
22
 10
2.5844
 20
16.9545
 30
0.0000
 42
1.0000
  0
VERTEX
  8
22
 10
2.6225
 20
16.9545
 30
0.0000
  0
SEQEND
  8
0
  0
POLYLINE
  8
22
 66
1
 10
0.0000
 20
0.0000
 30
0.0000
 40
0.0381
 41
0.0381
 70
0
  0
VERTEX
  8
22
 10
2.6225
 20
17.8435
 30
0.0000
 42
1.0000
  0
VERTEX
  8
22
 10
2.5844
 20
17.8435
 30
0.0000
  0
SEQEND
  8
0
  0
POLYLINE
  8
22
 66
1
 10
0.0000
 20
0.0000
 30
0.0000
 40
0.0762
 41
0.0762
 70
0
  0
VERTEX
  8
22
 10
2.6035
 20
16.9545
 30
0.0000
 42
0.4142
  0
VERTEX
  8
22
 10
2.7305
 20
16.8275
 30
0.0000
  0
SEQEND
  8
0
  0
POLYLINE
  8
22
 66
1
 10
0.0000
 20
0.0000
 30
0.0000
 40
0.0381
 41
0.0381
 70
0
  0
VERTEX
  8
22
 10
2.6225
 20
16.9545
 30
0.0000
 42
1.0000
  0
VERTEX
  8
22
 10
2.5844
 20
16.9545
 30
0.0000
  0
SEQEND
  8
0
  0
POLYLINE
  8
22
 66
1
 10
0.0000
 20
0.0000
 30
0.0000
 40
0.0381
 41
0.0381
 70
0
  0
VERTEX
  8
22
 10
2.7305
 20
16.8085
 30
0.0000
 42
1.0000
  0
VERTEX
  8
22
 10
2.7305
 20
16.8466
 30
0.0000
  0
SEQEND
  8
0
  0
POLYLINE
  8
22
 66
1
 10
0.0000
 20
0.0000
 30
0.0000
 40
0.0762
 41
0.0762
 70
0
  0
VERTEX
  8
22
 10
2.7305
 20
16.8275
 30
0.0000
  0
VERTEX
  8
22
 10
3.1115
 20
16.8275
 30
0.0000
  0
SEQEND
  8
0
  0
POLYLINE
  8
22
 66
1
 10
0.0000
 20
0.0000
 30
0.0000
 40
0.0381
 41
0.0381
 70
0
  0
VERTEX
  8
22
 10
3.1115
 20
16.8085
 30
0.0000
 42
1.0000
  0
VERTEX
  8
22
 10
3.1115
 20
16.8466
 30
0.0000
  0
SEQEND
  8
0
  0
POLYLINE
  8
22
 66
1
 10
0.0000
 20
0.0000
 30
0.0000
 40
0.0381
 41
0.0381
 70
0
  0
VERTEX
  8
22
 10
2.7305
 20
16.8466
 30
0.0000
 42
1.0000
  0
VERTEX
  8
22
 10
2.7305
 20
16.8085
 30
0.0000
  0
SEQEND
  8
0
  0
POLYLINE
  8
22
 66
1
 10
0.0000
 20
0.0000
 30
0.0000
 40
0.0762
 41
0.0762
 70
0
  0
VERTEX
  8
22
 10
3.1115
 20
16.8275
 30
0.0000
 42
0.4142
  0
VERTEX
  8
22
 10
3.2385
 20
16.9545
 30
0.0000
  0
SEQEND
  8
0
  0
POLYLINE
  8
22
 66
1
 10
0.0000
 20
0.0000
 30
0.0000
 40
0.0381
 41
0.0381
 70
0
  0
VERTEX
  8
22
 10
3.1115
 20
16.8466
 30
0.0000
 42
1.0000
  0
VERTEX
  8
22
 10
3.1115
 20
16.8085
 30
0.0000
  0
SEQEND
  8
0
  0
POLYLINE
  8
22
 66
1
 10
0.0000
 20
0.0000
 30
0.0000
 40
0.0381
 41
0.0381
 70
0
  0
VERTEX
  8
22
 10
3.2576
 20
16.9545
 30
0.0000
 42
1.0000
  0
VERTEX
  8
22
 10
3.2195
 20
16.9545
 30
0.0000
  0
SEQEND
  8
0
  0
POLYLINE
  8
22
 66
1
 10
0.0000
 20
0.0000
 30
0.0000
 40
0.0762
 41
0.0762
 70
0
  0
VERTEX
  8
22
 10
3.2385
 20
16.9545
 30
0.0000
  0
VERTEX
  8
22
 10
3.2385
 20
17.8435
 30
0.0000
  0
SEQEND
  8
0
  0
POLYLINE
  8
22
 66
1
 10
0.0000
 20
0.0000
 30
0.0000
 40
0.0381
 41
0.0381
 70
0
  0
VERTEX
  8
22
 10
3.2576
 20
17.8435
 30
0.0000
 42
1.0000
  0
VERTEX
  8
22
 10
3.2195
 20
17.8435
 30
0.0000
  0
SEQEND
  8
0
  0
POLYLINE
  8
22
 66
1
 10
0.0000
 20
0.0000
 30
0.0000
 40
0.0381
 41
0.0381
 70
0
  0
VERTEX
  8
22
 10
3.2195
 20
16.9545
 30
0.0000
 42
1.0000
  0
VERTEX
  8
22
 10
3.2576
 20
16.9545
 30
0.0000
  0
SEQEND
  8
0
  0
POLYLINE
  8
22
 66
1
 10
0.0000
 20
0.0000
 30
0.0000
 40
0.0762
 41
0.0762
 70
0
  0
VERTEX
  8
22
 10
3.2385
 20
17.8435
 30
0.0000
 42
0.4142
  0
VERTEX
  8
22
 10
3.1115
 20
17.9705
 30
0.0000
  0
SEQEND
  8
0
  0
POLYLINE
  8
22
 66
1
 10
0.0000
 20
0.0000
 30
0.0000
 40
0.0381
 41
0.0381
 70
0
  0
VERTEX
  8
22
 10
3.2195
 20
17.8435
 30
0.0000
 42
1.0000
  0
VERTEX
  8
22
 10
3.2576
 20
17.8435
 30
0.0000
  0
SEQEND
  8
0
  0
POLYLINE
  8
22
 66
1
 10
0.0000
 20
0.0000
 30
0.0000
 40
0.0381
 41
0.0381
 70
0
  0
VERTEX
  8
22
 10
3.1115
 20
17.9896
 30
0.0000
 42
1.0000
  0
VERTEX
  8
22
 10
3.1115
 20
17.9515
 30
0.0000
  0
SEQEND
  8
0
  0
POLYLINE
  8
22
 66
1
 10
0.0000
 20
0.0000
 30
0.0000
 40
0.0762
 41
0.0762
 70
0
  0
VERTEX
  8
22
 10
3.1115
 20
17.9705
 30
0.0000
  0
VERTEX
  8
22
 10
2.7305
 20
17.9705
 30
0.0000
  0
SEQEND
  8
0
  0
POLYLINE
  8
22
 66
1
 10
0.0000
 20
0.0000
 30
0.0000
 40
0.0381
 41
0.0381
 70
0
  0
VERTEX
  8
22
 10
2.7305
 20
17.9896
 30
0.0000
 42
1.0000
  0
VERTEX
  8
22
 10
2.7305
 20
17.9515
 30
0.0000
  0
SEQEND
  8
0
  0
POLYLINE
  8
22
 66
1
 10
0.0000
 20
0.0000
 30
0.0000
 40
0.0381
 41
0.0381
 70
0
  0
VERTEX
  8
22
 10
3.1115
 20
17.9515
 30
0.0000
 42
1.0000
  0
VERTEX
  8
22
 10
3.1115
 20
17.9896
 30
0.0000
  0
SEQEND
  8
0
  0
POLYLINE
  8
22
 66
1
 10
0.0000
 20
0.0000
 30
0.0000
 40
0.0762
 41
0.0762
 70
0
  0
VERTEX
  8
22
 10
2.7305
 20
17.9705
 30
0.0000
 42
0.4142
  0
VERTEX
  8
22
 10
2.6035
 20
17.8435
 30
0.0000
  0
SEQEND
  8
0
  0
POLYLINE
  8
22
 66
1
 10
0.0000
 20
0.0000
 30
0.0000
 40
0.0381
 41
0.0381
 70
0
  0
VERTEX
  8
22
 10
2.7305
 20
17.9515
 30
0.0000
 42
1.0000
  0
VERTEX
  8
22
 10
2.7305
 20
17.9896
 30
0.0000
  0
SEQEND
  8
0
  0
POLYLINE
  8
22
 66
1
 10
0.0000
 20
0.0000
 30
0.0000
 40
0.0381
 41
0.0381
 70
0
  0
VERTEX
  8
22
 10
2.5844
 20
17.8435
 30
0.0000
 42
1.0000
  0
VERTEX
  8
22
 10
2.6225
 20
17.8435
 30
0.0000
  0
SEQEND
  8
0
  0
POLYLINE
  8
22
 66
1
 10
0.0000
 20
0.0000
 30
0.0000
 40
0.0762
 41
0.0762
 70
0
  0
VERTEX
  8
22
 10
12.3825
 20
18.8595
 30
0.0000
  0
VERTEX
  8
22
 10
12.3825
 20
17.9705
 30
0.0000
  0
SEQEND
  8
0
  0
POLYLINE
  8
22
 66
1
 10
0.0000
 20
0.0000
 30
0.0000
 40
0.0381
 41
0.0381
 70
0
  0
VERTEX
  8
22
 10
12.3635
 20
17.9705
 30
0.0000
 42
1.0000
  0
VERTEX
  8
22
 10
12.4016
 20
17.9705
 30
0.0000
  0
SEQEND
  8
0
  0
POLYLINE
  8
22
 66
1
 10
0.0000
 20
0.0000
 30
0.0000
 40
0.0381
 41
0.0381
 70
0
  0
VERTEX
  8
22
 10
12.4016
 20
18.8595
 30
0.0000
 42
1.0000
  0
VERTEX
  8
22
 10
12.3635
 20
18.8595
 30
0.0000
  0
SEQEND
  8
0
  0
POLYLINE
  8
22
 66
1
 10
0.0000
 20
0.0000
 30
0.0000
 40
0.0762
 41
0.0762
 70
0
  0
VERTEX
  8
22
 10
12.3825
 20
17.9705
 30
0.0000
 42
0.4142
  0
VERTEX
  8
22
 10
12.5095
 20
17.8435
 30
0.0000
  0
SEQEND
  8
0
  0
POLYLINE
  8
22
 66
1
 10
0.0000
 20
0.0000
 30
0.0000
 40
0.0381
 41
0.0381
 70
0
  0
VERTEX
  8
22
 10
12.4016
 20
17.9705
 30
0.0000
 42
1.0000
  0
VERTEX
  8
22
 10
12.3635
 20
17.9705
 30
0.0000
  0
SEQEND
  8
0
  0
POLYLINE
  8
22
 66
1
 10
0.0000
 20
0.0000
 30
0.0000
 40
0.0381
 41
0.0381
 70
0
  0
VERTEX
  8
22
 10
12.5095
 20
17.8245
 30
0.0000
 42
1.0000
  0
VERTEX
  8
22
 10
12.5095
 20
17.8626
 30
0.0000
  0
SEQEND
  8
0
  0
POLYLINE
  8
22
 66
1
 10
0.0000
 20
0.0000
 30
0.0000
 40
0.0762
 41
0.0762
 70
0
  0
VERTEX
  8
22
 10
12.5095
 20
17.8435
 30
0.0000
  0
VERTEX
  8
22
 10
12.8905
 20
17.8435
 30
0.0000
  0
SEQEND
  8
0
  0
POLYLINE
  8
22
 66
1
 10
0.0000
 20
0.0000
 30
0.0000
 40
0.0381
 41
0.0381
 70
0
  0
VERTEX
  8
22
 10
12.8905
 20
17.8245
 30
0.0000
 42
1.0000
  0
VERTEX
  8
22
 10
12.8905
 20
17.8626
 30
0.0000
  0
SEQEND
  8
0
  0
POLYLINE
  8
22
 66
1
 10
0.0000
 20
0.0000
 30
0.0000
 40
0.0381
 41
0.0381
 70
0
  0
VERTEX
  8
22
 10
12.5095
 20
17.8626
 30
0.0000
 42
1.0000
  0
VERTEX
  8
22
 10
12.5095
 20
17.8245
 30
0.0000
  0
SEQEND
  8
0
  0
POLYLINE
  8
22
 66
1
 10
0.0000
 20
0.0000
 30
0.0000
 40
0.0762
 41
0.0762
 70
0
  0
VERTEX
  8
22
 10
12.8905
 20
17.8435
 30
0.0000
 42
0.4142
  0
VERTEX
  8
22
 10
13.0175
 20
17.9705
 30
0.0000
  0
SEQEND
  8
0
  0
POLYLINE
  8
22
 66
1
 10
0.0000
 20
0.0000
 30
0.0000
 40
0.0381
 41
0.0381
 70
0
  0
VERTEX
  8
22
 10
12.8905
 20
17.8626
 30
0.0000
 42
1.0000
  0
VERTEX
  8
22
 10
12.8905
 20
17.8245
 30
0.0000
  0
SEQEND
  8
0
  0
POLYLINE
  8
22
 66
1
 10
0.0000
 20
0.0000
 30
0.0000
 40
0.0381
 41
0.0381
 70
0
  0
VERTEX
  8
22
 10
13.0366
 20
17.9705
 30
0.0000
 42
1.0000
  0
VERTEX
  8
22
 10
12.9985
 20
17.9705
 30
0.0000
  0
SEQEND
  8
0
  0
POLYLINE
  8
22
 66
1
 10
0.0000
 20
0.0000
 30
0.0000
 40
0.0762
 41
0.0762
 70
0
  0
VERTEX
  8
22
 10
13.0175
 20
17.9705
 30
0.0000
  0
VERTEX
  8
22
 10
13.0175
 20
18.8595
 30
0.0000
  0
SEQEND
  8
0
  0
POLYLINE
  8
22
 66
1
 10
0.0000
 20
0.0000
 30
0.0000
 40
0.0381
 41
0.0381
 70
0
  0
VERTEX
  8
22
 10
13.0366
 20
18.8595
 30
0.0000
 42
1.0000
  0
VERTEX
  8
22
 10
12.9985
 20
18.8595
 30
0.0000
  0
SEQEND
  8
0
  0
POLYLINE
  8
22
 66
1
 10
0.0000
 20
0.0000
 30
0.0000
 40
0.0381
 41
0.0381
 70
0
  0
VERTEX
  8
22
 10
12.9985
 20
17.9705
 30
0.0000
 42
1.0000
  0
VERTEX
  8
22
 10
13.0366
 20
17.9705
 30
0.0000
  0
SEQEND
  8
0
  0
POLYLINE
  8
22
 66
1
 10
0.0000
 20
0.0000
 30
0.0000
 40
0.0762
 41
0.0762
 70
0
  0
VERTEX
  8
22
 10
13.0175
 20
18.8595
 30
0.0000
 42
0.4142
  0
VERTEX
  8
22
 10
12.8905
 20
18.9865
 30
0.0000
  0
SEQEND
  8
0
  0
POLYLINE
  8
22
 66
1
 10
0.0000
 20
0.0000
 30
0.0000
 40
0.0381
 41
0.0381
 70
0
  0
VERTEX
  8
22
 10
12.9985
 20
18.8595
 30
0.0000
 42
1.0000
  0
VERTEX
  8
22
 10
13.0366
 20
18.8595
 30
0.0000
  0
SEQEND
  8
0
  0
POLYLINE
  8
22
 66
1
 10
0.0000
 20
0.0000
 30
0.0000
 40
0.0381
 41
0.0381
 70
0
  0
VERTEX
  8
22
 10
12.8905
 20
19.0055
 30
0.0000
 42
1.0000
  0
VERTEX
  8
22
 10
12.8905
 20
18.9674
 30
0.0000
  0
SEQEND
  8
0
  0
POLYLINE
  8
22
 66
1
 10
0.0000
 20
0.0000
 30
0.0000
 40
0.0762
 41
0.0762
 70
0
  0
VERTEX
  8
22
 10
12.8905
 20
18.9865
 30
0.0000
  0
VERTEX
  8
22
 10
12.5095
 20
18.9865
 30
0.0000
  0
SEQEND
  8
0
  0
POLYLINE
  8
22
 66
1
 10
0.0000
 20
0.0000
 30
0.0000
 40
0.0381
 41
0.0381
 70
0
  0
VERTEX
  8
22
 10
12.5095
 20
19.0055
 30
0.0000
 42
1.0000
  0
VERTEX
  8
22
 10
12.5095
 20
18.9674
 30
0.0000
  0
SEQEND
  8
0
  0
POLYLINE
  8
22
 66
1
 10
0.0000
 20
0.0000
 30
0.0000
 40
0.0381
 41
0.0381
 70
0
  0
VERTEX
  8
22
 10
12.8905
 20
18.9674
 30
0.0000
 42
1.0000
  0
VERTEX
  8
22
 10
12.8905
 20
19.0055
 30
0.0000
  0
SEQEND
  8
0
  0
POLYLINE
  8
22
 66
1
 10
0.0000
 20
0.0000
 30
0.0000
 40
0.0762
 41
0.0762
 70
0
  0
VERTEX
  8
22
 10
12.5095
 20
18.9865
 30
0.0000
 42
0.4142
  0
VERTEX
  8
22
 10
12.3825
 20
18.8595
 30
0.0000
  0
SEQEND
  8
0
  0
POLYLINE
  8
22
 66
1
 10
0.0000
 20
0.0000
 30
0.0000
 40
0.0381
 41
0.0381
 70
0
  0
VERTEX
  8
22
 10
12.5095
 20
18.9674
 30
0.0000
 42
1.0000
  0
VERTEX
  8
22
 10
12.5095
 20
19.0055
 30
0.0000
  0
SEQEND
  8
0
  0
POLYLINE
  8
22
 66
1
 10
0.0000
 20
0.0000
 30
0.0000
 40
0.0381
 41
0.0381
 70
0
  0
VERTEX
  8
22
 10
12.3635
 20
18.8595
 30
0.0000
 42
1.0000
  0
VERTEX
  8
22
 10
12.4016
 20
18.8595
 30
0.0000
  0
SEQEND
  8
0
  0
POLYLINE
  8
22
 66
1
 10
0.0000
 20
0.0000
 30
0.0000
 40
0.1270
 41
0.1270
 70
0
  0
VERTEX
  8
22
 10
15.0876
 20
19.0150
 30
0.0000
  0
VERTEX
  8
22
 10
15.0876
 20
17.8150
 30
0.0000
  0
SEQEND
  8
0
  0
POLYLINE
  8
22
 66
1
 10
0.0000
 20
0.0000
 30
0.0000
 40
0.0635
 41
0.0635
 70
0
  0
VERTEX
  8
22
 10
15.0558
 20
17.8150
 30
0.0000
 42
1.0000
  0
VERTEX
  8
22
 10
15.1194
 20
17.8150
 30
0.0000
  0
SEQEND
  8
0
  0
POLYLINE
  8
22
 66
1
 10
0.0000
 20
0.0000
 30
0.0000
 40
0.0635
 41
0.0635
 70
0
  0
VERTEX
  8
22
 10
15.1194
 20
19.0150
 30
0.0000
 42
1.0000
  0
VERTEX
  8
22
 10
15.0558
 20
19.0150
 30
0.0000
  0
SEQEND
  8
0
  0
POLYLINE
  8
22
 66
1
 10
0.0000
 20
0.0000
 30
0.0000
 40
0.1270
 41
0.1270
 70
0
  0
VERTEX
  8
22
 10
16.1544
 20
16.9291
 30
0.0000
  0
VERTEX
  8
22
 10
16.1544
 20
19.7612
 30
0.0000
  0
SEQEND
  8
0
  0
POLYLINE
  8
22
 66
1
 10
0.0000
 20
0.0000
 30
0.0000
 40
0.0635
 41
0.0635
 70
0
  0
VERTEX
  8
22
 10
16.1862
 20
19.7612
 30
0.0000
 42
1.0000
  0
VERTEX
  8
22
 10
16.1227
 20
19.7612
 30
0.0000
  0
SEQEND
  8
0
  0
POLYLINE
  8
22
 66
1
 10
0.0000
 20
0.0000
 30
0.0000
 40
0.0635
 41
0.0635
 70
0
  0
VERTEX
  8
22
 10
16.1227
 20
16.9291
 30
0.0000
 42
1.0000
  0
VERTEX
  8
22
 10
16.1862
 20
16.9291
 30
0.0000
  0
SEQEND
  8
0
  0
POLYLINE
  8
22
 66
1
 10
0.0000
 20
0.0000
 30
0.0000
 40
0.1270
 41
0.1270
 70
0
  0
VERTEX
  8
22
 10
15.0876
 20
16.9291
 30
0.0000
  0
VERTEX
  8
22
 10
15.0876
 20
19.7612
 30
0.0000
  0
SEQEND
  8
0
  0
POLYLINE
  8
22
 66
1
 10
0.0000
 20
0.0000
 30
0.0000
 40
0.0635
 41
0.0635
 70
0
  0
VERTEX
  8
22
 10
15.1194
 20
19.7612
 30
0.0000
 42
1.0000
  0
VERTEX
  8
22
 10
15.0558
 20
19.7612
 30
0.0000
  0
SEQEND
  8
0
  0
POLYLINE
  8
22
 66
1
 10
0.0000
 20
0.0000
 30
0.0000
 40
0.0635
 41
0.0635
 70
0
  0
VERTEX
  8
22
 10
15.0558
 20
16.9291
 30
0.0000
 42
1.0000
  0
VERTEX
  8
22
 10
15.1194
 20
16.9291
 30
0.0000
  0
SEQEND
  8
0
  0
POLYLINE
  8
22
 66
1
 10
0.0000
 20
0.0000
 30
0.0000
 40
0.1270
 41
0.1270
 70
0
  0
VERTEX
  8
22
 10
15.0876
 20
19.7612
 30
0.0000
  0
VERTEX
  8
22
 10
16.1544
 20
19.7612
 30
0.0000
  0
SEQEND
  8
0
  0
POLYLINE
  8
22
 66
1
 10
0.0000
 20
0.0000
 30
0.0000
 40
0.0635
 41
0.0635
 70
0
  0
VERTEX
  8
22
 10
16.1544
 20
19.7295
 30
0.0000
 42
1.0000
  0
VERTEX
  8
22
 10
16.1544
 20
19.7930
 30
0.0000
  0
SEQEND
  8
0
  0
POLYLINE
  8
22
 66
1
 10
0.0000
 20
0.0000
 30
0.0000
 40
0.0635
 41
0.0635
 70
0
  0
VERTEX
  8
22
 10
15.0876
 20
19.7930
 30
0.0000
 42
1.0000
  0
VERTEX
  8
22
 10
15.0876
 20
19.7295
 30
0.0000
  0
SEQEND
  8
0
  0
POLYLINE
  8
22
 66
1
 10
0.0000
 20
0.0000
 30
0.0000
 40
0.1270
 41
0.1270
 70
0
  0
VERTEX
  8
22
 10
15.0876
 20
16.9291
 30
0.0000
  0
VERTEX
  8
22
 10
15.3416
 20
16.6751
 30
0.0000
  0
SEQEND
  8
0
  0
POLYLINE
  8
22
 66
1
 10
0.0000
 20
0.0000
 30
0.0000
 40
0.0635
 41
0.0635
 70
0
  0
VERTEX
  8
22
 10
15.3191
 20
16.6526
 30
0.0000
 42
1.0000
  0
VERTEX
  8
22
 10
15.3641
 20
16.6976
 30
0.0000
  0
SEQEND
  8
0
  0
POLYLINE
  8
22
 66
1
 10
0.0000
 20
0.0000
 30
0.0000
 40
0.0635
 41
0.0635
 70
0
  0
VERTEX
  8
22
 10
15.1101
 20
16.9516
 30
0.0000
 42
1.0000
  0
VERTEX
  8
22
 10
15.0651
 20
16.9066
 30
0.0000
  0
SEQEND
  8
0
  0
POLYLINE
  8
22
 66
1
 10
0.0000
 20
0.0000
 30
0.0000
 40
0.1270
 41
0.1270
 70
0
  0
VERTEX
  8
22
 10
15.3416
 20
16.6751
 30
0.0000
  0
VERTEX
  8
22
 10
15.9004
 20
16.6751
 30
0.0000
  0
SEQEND
  8
0
  0
POLYLINE
  8
22
 66
1
 10
0.0000
 20
0.0000
 30
0.0000
 40
0.0635
 41
0.0635
 70
0
  0
VERTEX
  8
22
 10
15.9004
 20
16.6434
 30
0.0000
 42
1.0000
  0
VERTEX
  8
22
 10
15.9004
 20
16.7068
 30
0.0000
  0
SEQEND
  8
0
  0
POLYLINE
  8
22
 66
1
 10
0.0000
 20
0.0000
 30
0.0000
 40
0.0635
 41
0.0635
 70
0
  0
VERTEX
  8
22
 10
15.3416
 20
16.7068
 30
0.0000
 42
1.0000
  0
VERTEX
  8
22
 10
15.3416
 20
16.6434
 30
0.0000
  0
SEQEND
  8
0
  0
POLYLINE
  8
22
 66
1
 10
0.0000
 20
0.0000
 30
0.0000
 40
0.1270
 41
0.1270
 70
0
  0
VERTEX
  8
22
 10
15.9004
 20
16.6751
 30
0.0000
  0
VERTEX
  8
22
 10
16.1544
 20
16.9291
 30
0.0000
  0
SEQEND
  8
0
  0
POLYLINE
  8
22
 66
1
 10
0.0000
 20
0.0000
 30
0.0000
 40
0.0635
 41
0.0635
 70
0
  0
VERTEX
  8
22
 10
16.1769
 20
16.9066
 30
0.0000
 42
1.0000
  0
VERTEX
  8
22
 10
16.1319
 20
16.9516
 30
0.0000
  0
SEQEND
  8
0
  0
POLYLINE
  8
22
 66
1
 10
0.0000
 20
0.0000
 30
0.0000
 40
0.0635
 41
0.0635
 70
0
  0
VERTEX
  8
22
 10
15.8779
 20
16.6976
 30
0.0000
 42
1.0000
  0
VERTEX
  8
22
 10
15.9229
 20
16.6526
 30
0.0000
  0
SEQEND
  8
0
  0
POLYLINE
  8
22
 66
1
 10
0.0000
 20
0.0000
 30
0.0000
 40
0.0762
 41
0.0762
 70
0
  0
VERTEX
  8
22
 10
0.3175
 20
17.9832
 30
0.0000
  0
VERTEX
  8
22
 10
0.3175
 20
16.8148
 30
0.0000
  0
SEQEND
  8
0
  0
POLYLINE
  8
22
 66
1
 10
0.0000
 20
0.0000
 30
0.0000
 40
0.0381
 41
0.0381
 70
0
  0
VERTEX
  8
22
 10
0.2984
 20
16.8148
 30
0.0000
 42
1.0000
  0
VERTEX
  8
22
 10
0.3366
 20
16.8148
 30
0.0000
  0
SEQEND
  8
0
  0
POLYLINE
  8
22
 66
1
 10
0.0000
 20
0.0000
 30
0.0000
 40
0.0381
 41
0.0381
 70
0
  0
VERTEX
  8
22
 10
0.3366
 20
17.9832
 30
0.0000
 42
1.0000
  0
VERTEX
  8
22
 10
0.2984
 20
17.9832
 30
0.0000
  0
SEQEND
  8
0
  0
POLYLINE
  8
22
 66
1
 10
0.0000
 20
0.0000
 30
0.0000
 40
0.0762
 41
0.0762
 70
0
  0
VERTEX
  8
22
 10
0.3175
 20
16.8148
 30
0.0000
 42
0.4142
  0
VERTEX
  8
22
 10
0.4445
 20
16.6878
 30
0.0000
  0
SEQEND
  8
0
  0
POLYLINE
  8
22
 66
1
 10
0.0000
 20
0.0000
 30
0.0000
 40
0.0381
 41
0.0381
 70
0
  0
VERTEX
  8
22
 10
0.3366
 20
16.8148
 30
0.0000
 42
1.0000
  0
VERTEX
  8
22
 10
0.2984
 20
16.8148
 30
0.0000
  0
SEQEND
  8
0
  0
POLYLINE
  8
22
 66
1
 10
0.0000
 20
0.0000
 30
0.0000
 40
0.0381
 41
0.0381
 70
0
  0
VERTEX
  8
22
 10
0.4445
 20
16.6687
 30
0.0000
 42
1.0000
  0
VERTEX
  8
22
 10
0.4445
 20
16.7068
 30
0.0000
  0
SEQEND
  8
0
  0
POLYLINE
  8
22
 66
1
 10
0.0000
 20
0.0000
 30
0.0000
 40
0.0762
 41
0.0762
 70
0
  0
VERTEX
  8
22
 10
0.4445
 20
16.6878
 30
0.0000
  0
VERTEX
  8
22
 10
0.8255
 20
16.6878
 30
0.0000
  0
SEQEND
  8
0
  0
POLYLINE
  8
22
 66
1
 10
0.0000
 20
0.0000
 30
0.0000
 40
0.0381
 41
0.0381
 70
0
  0
VERTEX
  8
22
 10
0.8255
 20
16.6687
 30
0.0000
 42
1.0000
  0
VERTEX
  8
22
 10
0.8255
 20
16.7068
 30
0.0000
  0
SEQEND
  8
0
  0
POLYLINE
  8
22
 66
1
 10
0.0000
 20
0.0000
 30
0.0000
 40
0.0381
 41
0.0381
 70
0
  0
VERTEX
  8
22
 10
0.4445
 20
16.7068
 30
0.0000
 42
1.0000
  0
VERTEX
  8
22
 10
0.4445
 20
16.6687
 30
0.0000
  0
SEQEND
  8
0
  0
POLYLINE
  8
22
 66
1
 10
0.0000
 20
0.0000
 30
0.0000
 40
0.0762
 41
0.0762
 70
0
  0
VERTEX
  8
22
 10
0.8255
 20
16.6878
 30
0.0000
 42
0.4142
  0
VERTEX
  8
22
 10
0.9525
 20
16.8148
 30
0.0000
  0
SEQEND
  8
0
  0
POLYLINE
  8
22
 66
1
 10
0.0000
 20
0.0000
 30
0.0000
 40
0.0381
 41
0.0381
 70
0
  0
VERTEX
  8
22
 10
0.8255
 20
16.7068
 30
0.0000
 42
1.0000
  0
VERTEX
  8
22
 10
0.8255
 20
16.6687
 30
0.0000
  0
SEQEND
  8
0
  0
POLYLINE
  8
22
 66
1
 10
0.0000
 20
0.0000
 30
0.0000
 40
0.0381
 41
0.0381
 70
0
  0
VERTEX
  8
22
 10
0.9716
 20
16.8148
 30
0.0000
 42
1.0000
  0
VERTEX
  8
22
 10
0.9335
 20
16.8148
 30
0.0000
  0
SEQEND
  8
0
  0
POLYLINE
  8
22
 66
1
 10
0.0000
 20
0.0000
 30
0.0000
 40
0.0762
 41
0.0762
 70
0
  0
VERTEX
  8
22
 10
0.9525
 20
16.8148
 30
0.0000
  0
VERTEX
  8
22
 10
0.9525
 20
17.9832
 30
0.0000
  0
SEQEND
  8
0
  0
POLYLINE
  8
22
 66
1
 10
0.0000
 20
0.0000
 30
0.0000
 40
0.0381
 41
0.0381
 70
0
  0
VERTEX
  8
22
 10
0.9716
 20
17.9832
 30
0.0000
 42
1.0000
  0
VERTEX
  8
22
 10
0.9335
 20
17.9832
 30
0.0000
  0
SEQEND
  8
0
  0
POLYLINE
  8
22
 66
1
 10
0.0000
 20
0.0000
 30
0.0000
 40
0.0381
 41
0.0381
 70
0
  0
VERTEX
  8
22
 10
0.9335
 20
16.8148
 30
0.0000
 42
1.0000
  0
VERTEX
  8
22
 10
0.9716
 20
16.8148
 30
0.0000
  0
SEQEND
  8
0
  0
POLYLINE
  8
22
 66
1
 10
0.0000
 20
0.0000
 30
0.0000
 40
0.0762
 41
0.0762
 70
0
  0
VERTEX
  8
22
 10
0.9525
 20
17.9832
 30
0.0000
 42
0.4142
  0
VERTEX
  8
22
 10
0.8255
 20
18.1102
 30
0.0000
  0
SEQEND
  8
0
  0
POLYLINE
  8
22
 66
1
 10
0.0000
 20
0.0000
 30
0.0000
 40
0.0381
 41
0.0381
 70
0
  0
VERTEX
  8
22
 10
0.9335
 20
17.9832
 30
0.0000
 42
1.0000
  0
VERTEX
  8
22
 10
0.9716
 20
17.9832
 30
0.0000
  0
SEQEND
  8
0
  0
POLYLINE
  8
22
 66
1
 10
0.0000
 20
0.0000
 30
0.0000
 40
0.0381
 41
0.0381
 70
0
  0
VERTEX
  8
22
 10
0.8255
 20
18.1293
 30
0.0000
 42
1.0000
  0
VERTEX
  8
22
 10
0.8255
 20
18.0912
 30
0.0000
  0
SEQEND
  8
0
  0
POLYLINE
  8
22
 66
1
 10
0.0000
 20
0.0000
 30
0.0000
 40
0.0762
 41
0.0762
 70
0
  0
VERTEX
  8
22
 10
0.8255
 20
18.1102
 30
0.0000
  0
VERTEX
  8
22
 10
0.4445
 20
18.1102
 30
0.0000
  0
SEQEND
  8
0
  0
POLYLINE
  8
22
 66
1
 10
0.0000
 20
0.0000
 30
0.0000
 40
0.0381
 41
0.0381
 70
0
  0
VERTEX
  8
22
 10
0.4445
 20
18.1293
 30
0.0000
 42
1.0000
  0
VERTEX
  8
22
 10
0.4445
 20
18.0912
 30
0.0000
  0
SEQEND
  8
0
  0
POLYLINE
  8
22
 66
1
 10
0.0000
 20
0.0000
 30
0.0000
 40
0.0381
 41
0.0381
 70
0
  0
VERTEX
  8
22
 10
0.8255
 20
18.0912
 30
0.0000
 42
1.0000
  0
VERTEX
  8
22
 10
0.8255
 20
18.1293
 30
0.0000
  0
SEQEND
  8
0
  0
POLYLINE
  8
22
 66
1
 10
0.0000
 20
0.0000
 30
0.0000
 40
0.0762
 41
0.0762
 70
0
  0
VERTEX
  8
22
 10
0.4445
 20
18.1102
 30
0.0000
 42
0.4142
  0
VERTEX
  8
22
 10
0.3175
 20
17.9832
 30
0.0000
  0
SEQEND
  8
0
  0
POLYLINE
  8
22
 66
1
 10
0.0000
 20
0.0000
 30
0.0000
 40
0.0381
 41
0.0381
 70
0
  0
VERTEX
  8
22
 10
0.4445
 20
18.0912
 30
0.0000
 42
1.0000
  0
VERTEX
  8
22
 10
0.4445
 20
18.1293
 30
0.0000
  0
SEQEND
  8
0
  0
POLYLINE
  8
22
 66
1
 10
0.0000
 20
0.0000
 30
0.0000
 40
0.0381
 41
0.0381
 70
0
  0
VERTEX
  8
22
 10
0.2984
 20
17.9832
 30
0.0000
 42
1.0000
  0
VERTEX
  8
22
 10
0.3366
 20
17.9832
 30
0.0000
  0
SEQEND
  8
0
  0
INSERT
  8
17
  2
OCTAGONP
 10
0.6350
 20
25.0190
 30
0.0000
 41
1.5000
 42
1.5000
 43
1.0000
 50
0.0000
  0
INSERT
  8
17
  2
OCTAGONP
 10
0.6350
 20
25.0190
 30
0.0000
 41
1.5000
 42
1.5000
 43
1.0000
 50
0.0000
  0
INSERT
  8
17
  2
ROUNDP
 10
-0.6350
 20
25.0190
 30
0.0000
 41
1.2700
 42
1.2700
 43
1.0000
 50
270.0000
  0
INSERT
  8
17
  2
ROUNDP
 10
-0.6350
 20
25.0190
 30
0.0000
 41
1.2700
 42
1.2700
 43
1.0000
 50
270.0000
  0
INSERT
  8
17
  2
OCTAGONP
 10
15.8750
 20
25.0190
 30
0.0000
 41
1.5000
 42
1.5000
 43
1.0000
 50
180.0000
  0
INSERT
  8
17
  2
OCTAGONP
 10
15.8750
 20
25.0190
 30
0.0000
 41
1.5000
 42
1.5000
 43
1.0000
 50
180.0000
  0
INSERT
  8
17
  2
ROUNDP
 10
17.1450
 20
25.0190
 30
0.0000
 41
1.2700
 42
1.2700
 43
1.0000
 50
90.0000
  0
INSERT
  8
17
  2
ROUNDP
 10
17.1450
 20
25.0190
 30
0.0000
 41
1.2700
 42
1.2700
 43
1.0000
 50
90.0000
  0
POLYLINE
  8
22
 66
1
 10
0.0000
 20
0.0000
 30
0.0000
 40
0.1270
 41
0.1270
 70
0
  0
VERTEX
  8
22
 10
14.0140
 20
16.6844
 30
0.0000
  0
VERTEX
  8
22
 10
14.7140
 20
16.6844
 30
0.0000
  0
SEQEND
  8
0
  0
POLYLINE
  8
22
 66
1
 10
0.0000
 20
0.0000
 30
0.0000
 40
0.0635
 41
0.0635
 70
0
  0
VERTEX
  8
22
 10
14.7140
 20
16.6527
 30
0.0000
 42
1.0000
  0
VERTEX
  8
22
 10
14.7140
 20
16.7161
 30
0.0000
  0
SEQEND
  8
0
  0
POLYLINE
  8
22
 66
1
 10
0.0000
 20
0.0000
 30
0.0000
 40
0.0635
 41
0.0635
 70
0
  0
VERTEX
  8
22
 10
14.0140
 20
16.7161
 30
0.0000
 42
1.0000
  0
VERTEX
  8
22
 10
14.0140
 20
16.6527
 30
0.0000
  0
SEQEND
  8
0
  0
POLYLINE
  8
22
 66
1
 10
0.0000
 20
0.0000
 30
0.0000
 40
0.1270
 41
0.1270
 70
0
  0
VERTEX
  8
22
 10
14.7140
 20
16.6844
 30
0.0000
  0
VERTEX
  8
22
 10
14.7140
 20
13.0844
 30
0.0000
  0
SEQEND
  8
0
  0
POLYLINE
  8
22
 66
1
 10
0.0000
 20
0.0000
 30
0.0000
 40
0.0635
 41
0.0635
 70
0
  0
VERTEX
  8
22
 10
14.6822
 20
13.0844
 30
0.0000
 42
1.0000
  0
VERTEX
  8
22
 10
14.7458
 20
13.0844
 30
0.0000
  0
SEQEND
  8
0
  0
POLYLINE
  8
22
 66
1
 10
0.0000
 20
0.0000
 30
0.0000
 40
0.0635
 41
0.0635
 70
0
  0
VERTEX
  8
22
 10
14.7458
 20
16.6844
 30
0.0000
 42
1.0000
  0
VERTEX
  8
22
 10
14.6822
 20
16.6844
 30
0.0000
  0
SEQEND
  8
0
  0
POLYLINE
  8
22
 66
1
 10
0.0000
 20
0.0000
 30
0.0000
 40
0.1270
 41
0.1270
 70
0
  0
VERTEX
  8
22
 10
14.7140
 20
13.0844
 30
0.0000
  0
VERTEX
  8
22
 10
14.0140
 20
13.0844
 30
0.0000
  0
SEQEND
  8
0
  0
POLYLINE
  8
22
 66
1
 10
0.0000
 20
0.0000
 30
0.0000
 40
0.0635
 41
0.0635
 70
0
  0
VERTEX
  8
22
 10
14.0140
 20
13.1162
 30
0.0000
 42
1.0000
  0
VERTEX
  8
22
 10
14.0140
 20
13.0526
 30
0.0000
  0
SEQEND
  8
0
  0
POLYLINE
  8
22
 66
1
 10
0.0000
 20
0.0000
 30
0.0000
 40
0.0635
 41
0.0635
 70
0
  0
VERTEX
  8
22
 10
14.7140
 20
13.0526
 30
0.0000
 42
1.0000
  0
VERTEX
  8
22
 10
14.7140
 20
13.1162
 30
0.0000
  0
SEQEND
  8
0
  0
POLYLINE
  8
22
 66
1
 10
0.0000
 20
0.0000
 30
0.0000
 40
0.1270
 41
0.1270
 70
0
  0
VERTEX
  8
22
 10
6.8140
 20
13.0844
 30
0.0000
  0
VERTEX
  8
22
 10
6.1140
 20
13.0844
 30
0.0000
  0
SEQEND
  8
0
  0
POLYLINE
  8
22
 66
1
 10
0.0000
 20
0.0000
 30
0.0000
 40
0.0635
 41
0.0635
 70
0
  0
VERTEX
  8
22
 10
6.1140
 20
13.1162
 30
0.0000
 42
1.0000
  0
VERTEX
  8
22
 10
6.1140
 20
13.0526
 30
0.0000
  0
SEQEND
  8
0
  0
POLYLINE
  8
22
 66
1
 10
0.0000
 20
0.0000
 30
0.0000
 40
0.0635
 41
0.0635
 70
0
  0
VERTEX
  8
22
 10
6.8140
 20
13.0526
 30
0.0000
 42
1.0000
  0
VERTEX
  8
22
 10
6.8140
 20
13.1162
 30
0.0000
  0
SEQEND
  8
0
  0
POLYLINE
  8
22
 66
1
 10
0.0000
 20
0.0000
 30
0.0000
 40
0.1270
 41
0.1270
 70
0
  0
VERTEX
  8
22
 10
6.1140
 20
13.0844
 30
0.0000
  0
VERTEX
  8
22
 10
6.1140
 20
16.6844
 30
0.0000
  0
SEQEND
  8
0
  0
POLYLINE
  8
22
 66
1
 10
0.0000
 20
0.0000
 30
0.0000
 40
0.0635
 41
0.0635
 70
0
  0
VERTEX
  8
22
 10
6.1457
 20
16.6844
 30
0.0000
 42
1.0000
  0
VERTEX
  8
22
 10
6.0823
 20
16.6844
 30
0.0000
  0
SEQEND
  8
0
  0
POLYLINE
  8
22
 66
1
 10
0.0000
 20
0.0000
 30
0.0000
 40
0.0635
 41
0.0635
 70
0
  0
VERTEX
  8
22
 10
6.0823
 20
13.0844
 30
0.0000
 42
1.0000
  0
VERTEX
  8
22
 10
6.1457
 20
13.0844
 30
0.0000
  0
SEQEND
  8
0
  0
POLYLINE
  8
22
 66
1
 10
0.0000
 20
0.0000
 30
0.0000
 40
0.1270
 41
0.1270
 70
0
  0
VERTEX
  8
22
 10
6.1140
 20
16.6844
 30
0.0000
  0
VERTEX
  8
22
 10
6.8140
 20
16.6844
 30
0.0000
  0
SEQEND
  8
0
  0
POLYLINE
  8
22
 66
1
 10
0.0000
 20
0.0000
 30
0.0000
 40
0.0635
 41
0.0635
 70
0
  0
VERTEX
  8
22
 10
6.8140
 20
16.6527
 30
0.0000
 42
1.0000
  0
VERTEX
  8
22
 10
6.8140
 20
16.7161
 30
0.0000
  0
SEQEND
  8
0
  0
POLYLINE
  8
22
 66
1
 10
0.0000
 20
0.0000
 30
0.0000
 40
0.0635
 41
0.0635
 70
0
  0
VERTEX
  8
22
 10
6.1140
 20
16.7161
 30
0.0000
 42
1.0000
  0
VERTEX
  8
22
 10
6.1140
 20
16.6527
 30
0.0000
  0
SEQEND
  8
0
  0
POLYLINE
  8
22
 66
1
 10
0.0000
 20
0.0000
 30
0.0000
 40
0.1270
 41
0.1270
 70
0
  0
VERTEX
  8
22
 10
3.0480
 20
20.0660
 30
0.0000
  0
VERTEX
  8
22
 10
2.0320
 20
20.5740
 30
0.0000
  0
SEQEND
  8
0
  0
POLYLINE
  8
22
 66
1
 10
0.0000
 20
0.0000
 30
0.0000
 40
0.0635
 41
0.0635
 70
0
  0
VERTEX
  8
22
 10
2.0462
 20
20.6024
 30
0.0000
 42
1.0000
  0
VERTEX
  8
22
 10
2.0178
 20
20.5456
 30
0.0000
  0
SEQEND
  8
0
  0
POLYLINE
  8
22
 66
1
 10
0.0000
 20
0.0000
 30
0.0000
 40
0.0635
 41
0.0635
 70
0
  0
VERTEX
  8
22
 10
3.0338
 20
20.0376
 30
0.0000
 42
1.0000
  0
VERTEX
  8
22
 10
3.0622
 20
20.0944
 30
0.0000
  0
SEQEND
  8
0
  0
POLYLINE
  8
22
 66
1
 10
0.0000
 20
0.0000
 30
0.0000
 40
0.1270
 41
0.1270
 70
0
  0
VERTEX
  8
22
 10
3.0480
 20
24.2570
 30
0.0000
  0
VERTEX
  8
22
 10
2.0320
 20
24.7650
 30
0.0000
  0
SEQEND
  8
0
  0
POLYLINE
  8
22
 66
1
 10
0.0000
 20
0.0000
 30
0.0000
 40
0.0635
 41
0.0635
 70
0
  0
VERTEX
  8
22
 10
2.0462
 20
24.7934
 30
0.0000
 42
1.0000
  0
VERTEX
  8
22
 10
2.0178
 20
24.7366
 30
0.0000
  0
SEQEND
  8
0
  0
POLYLINE
  8
22
 66
1
 10
0.0000
 20
0.0000
 30
0.0000
 40
0.0635
 41
0.0635
 70
0
  0
VERTEX
  8
22
 10
3.0338
 20
24.2286
 30
0.0000
 42
1.0000
  0
VERTEX
  8
22
 10
3.0622
 20
24.2854
 30
0.0000
  0
SEQEND
  8
0
  0
POLYLINE
  8
22
 66
1
 10
0.0000
 20
0.0000
 30
0.0000
 40
0.1270
 41
0.1270
 70
0
  0
VERTEX
  8
22
 10
8.0010
 20
26.4160
 30
0.0000
  0
VERTEX
  8
22
 10
8.5090
 20
27.4320
 30
0.0000
  0
SEQEND
  8
0
  0
POLYLINE
  8
22
 66
1
 10
0.0000
 20
0.0000
 30
0.0000
 40
0.0635
 41
0.0635
 70
0
  0
VERTEX
  8
22
 10
8.5374
 20
27.4178
 30
0.0000
 42
1.0000
  0
VERTEX
  8
22
 10
8.4806
 20
27.4462
 30
0.0000
  0
SEQEND
  8
0
  0
POLYLINE
  8
22
 66
1
 10
0.0000
 20
0.0000
 30
0.0000
 40
0.0635
 41
0.0635
 70
0
  0
VERTEX
  8
22
 10
7.9726
 20
26.4302
 30
0.0000
 42
1.0000
  0
VERTEX
  8
22
 10
8.0294
 20
26.4018
 30
0.0000
  0
SEQEND
  8
0
  0
POLYLINE
  8
22
 66
1
 10
0.0000
 20
0.0000
 30
0.0000
 40
0.0762
 41
0.0762
 70
0
  0
VERTEX
  8
22
 10
9.7155
 20
25.9715
 30
0.0000
  0
VERTEX
  8
22
 10
9.7155
 20
24.8285
 30
0.0000
  0
SEQEND
  8
0
  0
POLYLINE
  8
22
 66
1
 10
0.0000
 20
0.0000
 30
0.0000
 40
0.0381
 41
0.0381
 70
0
  0
VERTEX
  8
22
 10
9.6965
 20
24.8285
 30
0.0000
 42
1.0000
  0
VERTEX
  8
22
 10
9.7346
 20
24.8285
 30
0.0000
  0
SEQEND
  8
0
  0
POLYLINE
  8
22
 66
1
 10
0.0000
 20
0.0000
 30
0.0000
 40
0.0381
 41
0.0381
 70
0
  0
VERTEX
  8
22
 10
9.7346
 20
25.9715
 30
0.0000
 42
1.0000
  0
VERTEX
  8
22
 10
9.6965
 20
25.9715
 30
0.0000
  0
SEQEND
  8
0
  0
POLYLINE
  8
22
 66
1
 10
0.0000
 20
0.0000
 30
0.0000
 40
0.0762
 41
0.0762
 70
0
  0
VERTEX
  8
22
 10
9.7155
 20
24.8285
 30
0.0000
  0
VERTEX
  8
22
 10
10.3505
 20
24.8285
 30
0.0000
  0
SEQEND
  8
0
  0
POLYLINE
  8
22
 66
1
 10
0.0000
 20
0.0000
 30
0.0000
 40
0.0381
 41
0.0381
 70
0
  0
VERTEX
  8
22
 10
10.3505
 20
24.8095
 30
0.0000
 42
1.0000
  0
VERTEX
  8
22
 10
10.3505
 20
24.8476
 30
0.0000
  0
SEQEND
  8
0
  0
POLYLINE
  8
22
 66
1
 10
0.0000
 20
0.0000
 30
0.0000
 40
0.0381
 41
0.0381
 70
0
  0
VERTEX
  8
22
 10
9.7155
 20
24.8476
 30
0.0000
 42
1.0000
  0
VERTEX
  8
22
 10
9.7155
 20
24.8095
 30
0.0000
  0
SEQEND
  8
0
  0
POLYLINE
  8
22
 66
1
 10
0.0000
 20
0.0000
 30
0.0000
 40
0.0762
 41
0.0762
 70
0
  0
VERTEX
  8
22
 10
10.3505
 20
24.8285
 30
0.0000
  0
VERTEX
  8
22
 10
10.3505
 20
25.9715
 30
0.0000
  0
SEQEND
  8
0
  0
POLYLINE
  8
22
 66
1
 10
0.0000
 20
0.0000
 30
0.0000
 40
0.0381
 41
0.0381
 70
0
  0
VERTEX
  8
22
 10
10.3696
 20
25.9715
 30
0.0000
 42
1.0000
  0
VERTEX
  8
22
 10
10.3315
 20
25.9715
 30
0.0000
  0
SEQEND
  8
0
  0
POLYLINE
  8
22
 66
1
 10
0.0000
 20
0.0000
 30
0.0000
 40
0.0381
 41
0.0381
 70
0
  0
VERTEX
  8
22
 10
10.3315
 20
24.8285
 30
0.0000
 42
1.0000
  0
VERTEX
  8
22
 10
10.3696
 20
24.8285
 30
0.0000
  0
SEQEND
  8
0
  0
POLYLINE
  8
22
 66
1
 10
0.0000
 20
0.0000
 30
0.0000
 40
0.0762
 41
0.0762
 70
0
  0
VERTEX
  8
22
 10
10.3505
 20
25.9715
 30
0.0000
  0
VERTEX
  8
22
 10
9.7155
 20
25.9715
 30
0.0000
  0
SEQEND
  8
0
  0
POLYLINE
  8
22
 66
1
 10
0.0000
 20
0.0000
 30
0.0000
 40
0.0381
 41
0.0381
 70
0
  0
VERTEX
  8
22
 10
9.7155
 20
25.9906
 30
0.0000
 42
1.0000
  0
VERTEX
  8
22
 10
9.7155
 20
25.9525
 30
0.0000
  0
SEQEND
  8
0
  0
POLYLINE
  8
22
 66
1
 10
0.0000
 20
0.0000
 30
0.0000
 40
0.0381
 41
0.0381
 70
0
  0
VERTEX
  8
22
 10
10.3505
 20
25.9525
 30
0.0000
 42
1.0000
  0
VERTEX
  8
22
 10
10.3505
 20
25.9906
 30
0.0000
  0
SEQEND
  8
0
  0
POLYLINE
  8
22
 66
1
 10
0.0000
 20
0.0000
 30
0.0000
 40
0.0762
 41
0.0762
 70
0
  0
VERTEX
  8
22
 10
7.1755
 20
25.9715
 30
0.0000
  0
VERTEX
  8
22
 10
7.1755
 20
24.8285
 30
0.0000
  0
SEQEND
  8
0
  0
POLYLINE
  8
22
 66
1
 10
0.0000
 20
0.0000
 30
0.0000
 40
0.0381
 41
0.0381
 70
0
  0
VERTEX
  8
22
 10
7.1565
 20
24.8285
 30
0.0000
 42
1.0000
  0
VERTEX
  8
22
 10
7.1946
 20
24.8285
 30
0.0000
  0
SEQEND
  8
0
  0
POLYLINE
  8
22
 66
1
 10
0.0000
 20
0.0000
 30
0.0000
 40
0.0381
 41
0.0381
 70
0
  0
VERTEX
  8
22
 10
7.1946
 20
25.9715
 30
0.0000
 42
1.0000
  0
VERTEX
  8
22
 10
7.1565
 20
25.9715
 30
0.0000
  0
SEQEND
  8
0
  0
POLYLINE
  8
22
 66
1
 10
0.0000
 20
0.0000
 30
0.0000
 40
0.0762
 41
0.0762
 70
0
  0
VERTEX
  8
22
 10
7.1755
 20
24.8285
 30
0.0000
  0
VERTEX
  8
22
 10
7.8105
 20
24.8285
 30
0.0000
  0
SEQEND
  8
0
  0
POLYLINE
  8
22
 66
1
 10
0.0000
 20
0.0000
 30
0.0000
 40
0.0381
 41
0.0381
 70
0
  0
VERTEX
  8
22
 10
7.8105
 20
24.8095
 30
0.0000
 42
1.0000
  0
VERTEX
  8
22
 10
7.8105
 20
24.8476
 30
0.0000
  0
SEQEND
  8
0
  0
POLYLINE
  8
22
 66
1
 10
0.0000
 20
0.0000
 30
0.0000
 40
0.0381
 41
0.0381
 70
0
  0
VERTEX
  8
22
 10
7.1755
 20
24.8476
 30
0.0000
 42
1.0000
  0
VERTEX
  8
22
 10
7.1755
 20
24.8095
 30
0.0000
  0
SEQEND
  8
0
  0
POLYLINE
  8
22
 66
1
 10
0.0000
 20
0.0000
 30
0.0000
 40
0.0762
 41
0.0762
 70
0
  0
VERTEX
  8
22
 10
7.8105
 20
24.8285
 30
0.0000
  0
VERTEX
  8
22
 10
7.8105
 20
25.9715
 30
0.0000
  0
SEQEND
  8
0
  0
POLYLINE
  8
22
 66
1
 10
0.0000
 20
0.0000
 30
0.0000
 40
0.0381
 41
0.0381
 70
0
  0
VERTEX
  8
22
 10
7.8296
 20
25.9715
 30
0.0000
 42
1.0000
  0
VERTEX
  8
22
 10
7.7915
 20
25.9715
 30
0.0000
  0
SEQEND
  8
0
  0
POLYLINE
  8
22
 66
1
 10
0.0000
 20
0.0000
 30
0.0000
 40
0.0381
 41
0.0381
 70
0
  0
VERTEX
  8
22
 10
7.7915
 20
24.8285
 30
0.0000
 42
1.0000
  0
VERTEX
  8
22
 10
7.8296
 20
24.8285
 30
0.0000
  0
SEQEND
  8
0
  0
POLYLINE
  8
22
 66
1
 10
0.0000
 20
0.0000
 30
0.0000
 40
0.0762
 41
0.0762
 70
0
  0
VERTEX
  8
22
 10
7.8105
 20
25.9715
 30
0.0000
  0
VERTEX
  8
22
 10
7.1755
 20
25.9715
 30
0.0000
  0
SEQEND
  8
0
  0
POLYLINE
  8
22
 66
1
 10
0.0000
 20
0.0000
 30
0.0000
 40
0.0381
 41
0.0381
 70
0
  0
VERTEX
  8
22
 10
7.1755
 20
25.9906
 30
0.0000
 42
1.0000
  0
VERTEX
  8
22
 10
7.1755
 20
25.9525
 30
0.0000
  0
SEQEND
  8
0
  0
POLYLINE
  8
22
 66
1
 10
0.0000
 20
0.0000
 30
0.0000
 40
0.0381
 41
0.0381
 70
0
  0
VERTEX
  8
22
 10
7.8105
 20
25.9525
 30
0.0000
 42
1.0000
  0
VERTEX
  8
22
 10
7.8105
 20
25.9906
 30
0.0000
  0
SEQEND
  8
0
  0
POLYLINE
  8
22
 66
1
 10
0.0000
 20
0.0000
 30
0.0000
 40
0.0762
 41
0.0762
 70
0
  0
VERTEX
  8
22
 10
12.2555
 20
25.9715
 30
0.0000
  0
VERTEX
  8
22
 10
12.2555
 20
24.8285
 30
0.0000
  0
SEQEND
  8
0
  0
POLYLINE
  8
22
 66
1
 10
0.0000
 20
0.0000
 30
0.0000
 40
0.0381
 41
0.0381
 70
0
  0
VERTEX
  8
22
 10
12.2365
 20
24.8285
 30
0.0000
 42
1.0000
  0
VERTEX
  8
22
 10
12.2746
 20
24.8285
 30
0.0000
  0
SEQEND
  8
0
  0
POLYLINE
  8
22
 66
1
 10
0.0000
 20
0.0000
 30
0.0000
 40
0.0381
 41
0.0381
 70
0
  0
VERTEX
  8
22
 10
12.2746
 20
25.9715
 30
0.0000
 42
1.0000
  0
VERTEX
  8
22
 10
12.2365
 20
25.9715
 30
0.0000
  0
SEQEND
  8
0
  0
POLYLINE
  8
22
 66
1
 10
0.0000
 20
0.0000
 30
0.0000
 40
0.0762
 41
0.0762
 70
0
  0
VERTEX
  8
22
 10
12.2555
 20
24.8285
 30
0.0000
  0
VERTEX
  8
22
 10
12.8905
 20
24.8285
 30
0.0000
  0
SEQEND
  8
0
  0
POLYLINE
  8
22
 66
1
 10
0.0000
 20
0.0000
 30
0.0000
 40
0.0381
 41
0.0381
 70
0
  0
VERTEX
  8
22
 10
12.8905
 20
24.8095
 30
0.0000
 42
1.0000
  0
VERTEX
  8
22
 10
12.8905
 20
24.8476
 30
0.0000
  0
SEQEND
  8
0
  0
POLYLINE
  8
22
 66
1
 10
0.0000
 20
0.0000
 30
0.0000
 40
0.0381
 41
0.0381
 70
0
  0
VERTEX
  8
22
 10
12.2555
 20
24.8476
 30
0.0000
 42
1.0000
  0
VERTEX
  8
22
 10
12.2555
 20
24.8095
 30
0.0000
  0
SEQEND
  8
0
  0
POLYLINE
  8
22
 66
1
 10
0.0000
 20
0.0000
 30
0.0000
 40
0.0762
 41
0.0762
 70
0
  0
VERTEX
  8
22
 10
12.8905
 20
24.8285
 30
0.0000
  0
VERTEX
  8
22
 10
12.8905
 20
25.9715
 30
0.0000
  0
SEQEND
  8
0
  0
POLYLINE
  8
22
 66
1
 10
0.0000
 20
0.0000
 30
0.0000
 40
0.0381
 41
0.0381
 70
0
  0
VERTEX
  8
22
 10
12.9096
 20
25.9715
 30
0.0000
 42
1.0000
  0
VERTEX
  8
22
 10
12.8715
 20
25.9715
 30
0.0000
  0
SEQEND
  8
0
  0
POLYLINE
  8
22
 66
1
 10
0.0000
 20
0.0000
 30
0.0000
 40
0.0381
 41
0.0381
 70
0
  0
VERTEX
  8
22
 10
12.8715
 20
24.8285
 30
0.0000
 42
1.0000
  0
VERTEX
  8
22
 10
12.9096
 20
24.8285
 30
0.0000
  0
SEQEND
  8
0
  0
POLYLINE
  8
22
 66
1
 10
0.0000
 20
0.0000
 30
0.0000
 40
0.0762
 41
0.0762
 70
0
  0
VERTEX
  8
22
 10
12.8905
 20
25.9715
 30
0.0000
  0
VERTEX
  8
22
 10
12.2555
 20
25.9715
 30
0.0000
  0
SEQEND
  8
0
  0
POLYLINE
  8
22
 66
1
 10
0.0000
 20
0.0000
 30
0.0000
 40
0.0381
 41
0.0381
 70
0
  0
VERTEX
  8
22
 10
12.2555
 20
25.9906
 30
0.0000
 42
1.0000
  0
VERTEX
  8
22
 10
12.2555
 20
25.9525
 30
0.0000
  0
SEQEND
  8
0
  0
POLYLINE
  8
22
 66
1
 10
0.0000
 20
0.0000
 30
0.0000
 40
0.0381
 41
0.0381
 70
0
  0
VERTEX
  8
22
 10
12.8905
 20
25.9525
 30
0.0000
 42
1.0000
  0
VERTEX
  8
22
 10
12.8905
 20
25.9906
 30
0.0000
  0
SEQEND
  8
0
  0
POLYLINE
  8
22
 66
1
 10
0.0000
 20
0.0000
 30
0.0000
 40
0.0762
 41
0.0762
 70
0
  0
VERTEX
  8
22
 10
8.9535
 20
25.9715
 30
0.0000
  0
VERTEX
  8
22
 10
8.9535
 20
24.8285
 30
0.0000
  0
SEQEND
  8
0
  0
POLYLINE
  8
22
 66
1
 10
0.0000
 20
0.0000
 30
0.0000
 40
0.0381
 41
0.0381
 70
0
  0
VERTEX
  8
22
 10
8.9345
 20
24.8285
 30
0.0000
 42
1.0000
  0
VERTEX
  8
22
 10
8.9726
 20
24.8285
 30
0.0000
  0
SEQEND
  8
0
  0
POLYLINE
  8
22
 66
1
 10
0.0000
 20
0.0000
 30
0.0000
 40
0.0381
 41
0.0381
 70
0
  0
VERTEX
  8
22
 10
8.9726
 20
25.9715
 30
0.0000
 42
1.0000
  0
VERTEX
  8
22
 10
8.9345
 20
25.9715
 30
0.0000
  0
SEQEND
  8
0
  0
POLYLINE
  8
22
 66
1
 10
0.0000
 20
0.0000
 30
0.0000
 40
0.0762
 41
0.0762
 70
0
  0
VERTEX
  8
22
 10
8.9535
 20
24.8285
 30
0.0000
  0
VERTEX
  8
22
 10
9.5885
 20
24.8285
 30
0.0000
  0
SEQEND
  8
0
  0
POLYLINE
  8
22
 66
1
 10
0.0000
 20
0.0000
 30
0.0000
 40
0.0381
 41
0.0381
 70
0
  0
VERTEX
  8
22
 10
9.5885
 20
24.8095
 30
0.0000
 42
1.0000
  0
VERTEX
  8
22
 10
9.5885
 20
24.8476
 30
0.0000
  0
SEQEND
  8
0
  0
POLYLINE
  8
22
 66
1
 10
0.0000
 20
0.0000
 30
0.0000
 40
0.0381
 41
0.0381
 70
0
  0
VERTEX
  8
22
 10
8.9535
 20
24.8476
 30
0.0000
 42
1.0000
  0
VERTEX
  8
22
 10
8.9535
 20
24.8095
 30
0.0000
  0
SEQEND
  8
0
  0
POLYLINE
  8
22
 66
1
 10
0.0000
 20
0.0000
 30
0.0000
 40
0.0762
 41
0.0762
 70
0
  0
VERTEX
  8
22
 10
9.5885
 20
24.8285
 30
0.0000
  0
VERTEX
  8
22
 10
9.5885
 20
25.9715
 30
0.0000
  0
SEQEND
  8
0
  0
POLYLINE
  8
22
 66
1
 10
0.0000
 20
0.0000
 30
0.0000
 40
0.0381
 41
0.0381
 70
0
  0
VERTEX
  8
22
 10
9.6075
 20
25.9715
 30
0.0000
 42
1.0000
  0
VERTEX
  8
22
 10
9.5694
 20
25.9715
 30
0.0000
  0
SEQEND
  8
0
  0
POLYLINE
  8
22
 66
1
 10
0.0000
 20
0.0000
 30
0.0000
 40
0.0381
 41
0.0381
 70
0
  0
VERTEX
  8
22
 10
9.5694
 20
24.8285
 30
0.0000
 42
1.0000
  0
VERTEX
  8
22
 10
9.6075
 20
24.8285
 30
0.0000
  0
SEQEND
  8
0
  0
POLYLINE
  8
22
 66
1
 10
0.0000
 20
0.0000
 30
0.0000
 40
0.0762
 41
0.0762
 70
0
  0
VERTEX
  8
22
 10
9.5885
 20
25.9715
 30
0.0000
  0
VERTEX
  8
22
 10
8.9535
 20
25.9715
 30
0.0000
  0
SEQEND
  8
0
  0
POLYLINE
  8
22
 66
1
 10
0.0000
 20
0.0000
 30
0.0000
 40
0.0381
 41
0.0381
 70
0
  0
VERTEX
  8
22
 10
8.9535
 20
25.9906
 30
0.0000
 42
1.0000
  0
VERTEX
  8
22
 10
8.9535
 20
25.9525
 30
0.0000
  0
SEQEND
  8
0
  0
POLYLINE
  8
22
 66
1
 10
0.0000
 20
0.0000
 30
0.0000
 40
0.0381
 41
0.0381
 70
0
  0
VERTEX
  8
22
 10
9.5885
 20
25.9525
 30
0.0000
 42
1.0000
  0
VERTEX
  8
22
 10
9.5885
 20
25.9906
 30
0.0000
  0
SEQEND
  8
0
  0
POLYLINE
  8
22
 66
1
 10
0.0000
 20
0.0000
 30
0.0000
 40
0.0762
 41
0.0762
 70
0
  0
VERTEX
  8
22
 10
13.0175
 20
25.9715
 30
0.0000
  0
VERTEX
  8
22
 10
13.0175
 20
24.8285
 30
0.0000
  0
SEQEND
  8
0
  0
POLYLINE
  8
22
 66
1
 10
0.0000
 20
0.0000
 30
0.0000
 40
0.0381
 41
0.0381
 70
0
  0
VERTEX
  8
22
 10
12.9985
 20
24.8285
 30
0.0000
 42
1.0000
  0
VERTEX
  8
22
 10
13.0366
 20
24.8285
 30
0.0000
  0
SEQEND
  8
0
  0
POLYLINE
  8
22
 66
1
 10
0.0000
 20
0.0000
 30
0.0000
 40
0.0381
 41
0.0381
 70
0
  0
VERTEX
  8
22
 10
13.0366
 20
25.9715
 30
0.0000
 42
1.0000
  0
VERTEX
  8
22
 10
12.9985
 20
25.9715
 30
0.0000
  0
SEQEND
  8
0
  0
POLYLINE
  8
22
 66
1
 10
0.0000
 20
0.0000
 30
0.0000
 40
0.0762
 41
0.0762
 70
0
  0
VERTEX
  8
22
 10
13.0175
 20
24.8285
 30
0.0000
  0
VERTEX
  8
22
 10
13.6525
 20
24.8285
 30
0.0000
  0
SEQEND
  8
0
  0
POLYLINE
  8
22
 66
1
 10
0.0000
 20
0.0000
 30
0.0000
 40
0.0381
 41
0.0381
 70
0
  0
VERTEX
  8
22
 10
13.6525
 20
24.8095
 30
0.0000
 42
1.0000
  0
VERTEX
  8
22
 10
13.6525
 20
24.8476
 30
0.0000
  0
SEQEND
  8
0
  0
POLYLINE
  8
22
 66
1
 10
0.0000
 20
0.0000
 30
0.0000
 40
0.0381
 41
0.0381
 70
0
  0
VERTEX
  8
22
 10
13.0175
 20
24.8476
 30
0.0000
 42
1.0000
  0
VERTEX
  8
22
 10
13.0175
 20
24.8095
 30
0.0000
  0
SEQEND
  8
0
  0
POLYLINE
  8
22
 66
1
 10
0.0000
 20
0.0000
 30
0.0000
 40
0.0762
 41
0.0762
 70
0
  0
VERTEX
  8
22
 10
13.6525
 20
24.8285
 30
0.0000
  0
VERTEX
  8
22
 10
13.6525
 20
25.9715
 30
0.0000
  0
SEQEND
  8
0
  0
POLYLINE
  8
22
 66
1
 10
0.0000
 20
0.0000
 30
0.0000
 40
0.0381
 41
0.0381
 70
0
  0
VERTEX
  8
22
 10
13.6715
 20
25.9715
 30
0.0000
 42
1.0000
  0
VERTEX
  8
22
 10
13.6334
 20
25.9715
 30
0.0000
  0
SEQEND
  8
0
  0
POLYLINE
  8
22
 66
1
 10
0.0000
 20
0.0000
 30
0.0000
 40
0.0381
 41
0.0381
 70
0
  0
VERTEX
  8
22
 10
13.6334
 20
24.8285
 30
0.0000
 42
1.0000
  0
VERTEX
  8
22
 10
13.6715
 20
24.8285
 30
0.0000
  0
SEQEND
  8
0
  0
POLYLINE
  8
22
 66
1
 10
0.0000
 20
0.0000
 30
0.0000
 40
0.0762
 41
0.0762
 70
0
  0
VERTEX
  8
22
 10
13.6525
 20
25.9715
 30
0.0000
  0
VERTEX
  8
22
 10
13.0175
 20
25.9715
 30
0.0000
  0
SEQEND
  8
0
  0
POLYLINE
  8
22
 66
1
 10
0.0000
 20
0.0000
 30
0.0000
 40
0.0381
 41
0.0381
 70
0
  0
VERTEX
  8
22
 10
13.0175
 20
25.9906
 30
0.0000
 42
1.0000
  0
VERTEX
  8
22
 10
13.0175
 20
25.9525
 30
0.0000
  0
SEQEND
  8
0
  0
POLYLINE
  8
22
 66
1
 10
0.0000
 20
0.0000
 30
0.0000
 40
0.0381
 41
0.0381
 70
0
  0
VERTEX
  8
22
 10
13.6525
 20
25.9525
 30
0.0000
 42
1.0000
  0
VERTEX
  8
22
 10
13.6525
 20
25.9906
 30
0.0000
  0
SEQEND
  8
0
  0
POLYLINE
  8
22
 66
1
 10
0.0000
 20
0.0000
 30
0.0000
 40
0.0762
 41
0.0762
 70
0
  0
VERTEX
  8
22
 10
4.3815
 20
25.9715
 30
0.0000
  0
VERTEX
  8
22
 10
4.3815
 20
24.8285
 30
0.0000
  0
SEQEND
  8
0
  0
POLYLINE
  8
22
 66
1
 10
0.0000
 20
0.0000
 30
0.0000
 40
0.0381
 41
0.0381
 70
0
  0
VERTEX
  8
22
 10
4.3624
 20
24.8285
 30
0.0000
 42
1.0000
  0
VERTEX
  8
22
 10
4.4005
 20
24.8285
 30
0.0000
  0
SEQEND
  8
0
  0
POLYLINE
  8
22
 66
1
 10
0.0000
 20
0.0000
 30
0.0000
 40
0.0381
 41
0.0381
 70
0
  0
VERTEX
  8
22
 10
4.4005
 20
25.9715
 30
0.0000
 42
1.0000
  0
VERTEX
  8
22
 10
4.3624
 20
25.9715
 30
0.0000
  0
SEQEND
  8
0
  0
POLYLINE
  8
22
 66
1
 10
0.0000
 20
0.0000
 30
0.0000
 40
0.0762
 41
0.0762
 70
0
  0
VERTEX
  8
22
 10
4.3815
 20
24.8285
 30
0.0000
  0
VERTEX
  8
22
 10
5.0165
 20
24.8285
 30
0.0000
  0
SEQEND
  8
0
  0
POLYLINE
  8
22
 66
1
 10
0.0000
 20
0.0000
 30
0.0000
 40
0.0381
 41
0.0381
 70
0
  0
VERTEX
  8
22
 10
5.0165
 20
24.8095
 30
0.0000
 42
1.0000
  0
VERTEX
  8
22
 10
5.0165
 20
24.8476
 30
0.0000
  0
SEQEND
  8
0
  0
POLYLINE
  8
22
 66
1
 10
0.0000
 20
0.0000
 30
0.0000
 40
0.0381
 41
0.0381
 70
0
  0
VERTEX
  8
22
 10
4.3815
 20
24.8476
 30
0.0000
 42
1.0000
  0
VERTEX
  8
22
 10
4.3815
 20
24.8095
 30
0.0000
  0
SEQEND
  8
0
  0
POLYLINE
  8
22
 66
1
 10
0.0000
 20
0.0000
 30
0.0000
 40
0.0762
 41
0.0762
 70
0
  0
VERTEX
  8
22
 10
5.0165
 20
24.8285
 30
0.0000
  0
VERTEX
  8
22
 10
5.0165
 20
25.9715
 30
0.0000
  0
SEQEND
  8
0
  0
POLYLINE
  8
22
 66
1
 10
0.0000
 20
0.0000
 30
0.0000
 40
0.0381
 41
0.0381
 70
0
  0
VERTEX
  8
22
 10
5.0356
 20
25.9715
 30
0.0000
 42
1.0000
  0
VERTEX
  8
22
 10
4.9975
 20
25.9715
 30
0.0000
  0
SEQEND
  8
0
  0
POLYLINE
  8
22
 66
1
 10
0.0000
 20
0.0000
 30
0.0000
 40
0.0381
 41
0.0381
 70
0
  0
VERTEX
  8
22
 10
4.9975
 20
24.8285
 30
0.0000
 42
1.0000
  0
VERTEX
  8
22
 10
5.0356
 20
24.8285
 30
0.0000
  0
SEQEND
  8
0
  0
POLYLINE
  8
22
 66
1
 10
0.0000
 20
0.0000
 30
0.0000
 40
0.0762
 41
0.0762
 70
0
  0
VERTEX
  8
22
 10
5.0165
 20
25.9715
 30
0.0000
  0
VERTEX
  8
22
 10
4.3815
 20
25.9715
 30
0.0000
  0
SEQEND
  8
0
  0
POLYLINE
  8
22
 66
1
 10
0.0000
 20
0.0000
 30
0.0000
 40
0.0381
 41
0.0381
 70
0
  0
VERTEX
  8
22
 10
4.3815
 20
25.9906
 30
0.0000
 42
1.0000
  0
VERTEX
  8
22
 10
4.3815
 20
25.9525
 30
0.0000
  0
SEQEND
  8
0
  0
POLYLINE
  8
22
 66
1
 10
0.0000
 20
0.0000
 30
0.0000
 40
0.0381
 41
0.0381
 70
0
  0
VERTEX
  8
22
 10
5.0165
 20
25.9525
 30
0.0000
 42
1.0000
  0
VERTEX
  8
22
 10
5.0165
 20
25.9906
 30
0.0000
  0
SEQEND
  8
0
  0
POLYLINE
  8
22
 66
1
 10
0.0000
 20
0.0000
 30
0.0000
 40
0.0762
 41
0.0762
 70
0
  0
VERTEX
  8
22
 10
10.0965
 20
18.9865
 30
0.0000
  0
VERTEX
  8
22
 10
10.0965
 20
17.8435
 30
0.0000
  0
SEQEND
  8
0
  0
POLYLINE
  8
22
 66
1
 10
0.0000
 20
0.0000
 30
0.0000
 40
0.0381
 41
0.0381
 70
0
  0
VERTEX
  8
22
 10
10.0775
 20
17.8435
 30
0.0000
 42
1.0000
  0
VERTEX
  8
22
 10
10.1156
 20
17.8435
 30
0.0000
  0
SEQEND
  8
0
  0
POLYLINE
  8
22
 66
1
 10
0.0000
 20
0.0000
 30
0.0000
 40
0.0381
 41
0.0381
 70
0
  0
VERTEX
  8
22
 10
10.1156
 20
18.9865
 30
0.0000
 42
1.0000
  0
VERTEX
  8
22
 10
10.0775
 20
18.9865
 30
0.0000
  0
SEQEND
  8
0
  0
POLYLINE
  8
22
 66
1
 10
0.0000
 20
0.0000
 30
0.0000
 40
0.0762
 41
0.0762
 70
0
  0
VERTEX
  8
22
 10
10.0965
 20
17.8435
 30
0.0000
  0
VERTEX
  8
22
 10
10.7315
 20
17.8435
 30
0.0000
  0
SEQEND
  8
0
  0
POLYLINE
  8
22
 66
1
 10
0.0000
 20
0.0000
 30
0.0000
 40
0.0381
 41
0.0381
 70
0
  0
VERTEX
  8
22
 10
10.7315
 20
17.8245
 30
0.0000
 42
1.0000
  0
VERTEX
  8
22
 10
10.7315
 20
17.8626
 30
0.0000
  0
SEQEND
  8
0
  0
POLYLINE
  8
22
 66
1
 10
0.0000
 20
0.0000
 30
0.0000
 40
0.0381
 41
0.0381
 70
0
  0
VERTEX
  8
22
 10
10.0965
 20
17.8626
 30
0.0000
 42
1.0000
  0
VERTEX
  8
22
 10
10.0965
 20
17.8245
 30
0.0000
  0
SEQEND
  8
0
  0
POLYLINE
  8
22
 66
1
 10
0.0000
 20
0.0000
 30
0.0000
 40
0.0762
 41
0.0762
 70
0
  0
VERTEX
  8
22
 10
10.7315
 20
17.8435
 30
0.0000
  0
VERTEX
  8
22
 10
10.7315
 20
18.9865
 30
0.0000
  0
SEQEND
  8
0
  0
POLYLINE
  8
22
 66
1
 10
0.0000
 20
0.0000
 30
0.0000
 40
0.0381
 41
0.0381
 70
0
  0
VERTEX
  8
22
 10
10.7506
 20
18.9865
 30
0.0000
 42
1.0000
  0
VERTEX
  8
22
 10
10.7125
 20
18.9865
 30
0.0000
  0
SEQEND
  8
0
  0
POLYLINE
  8
22
 66
1
 10
0.0000
 20
0.0000
 30
0.0000
 40
0.0381
 41
0.0381
 70
0
  0
VERTEX
  8
22
 10
10.7125
 20
17.8435
 30
0.0000
 42
1.0000
  0
VERTEX
  8
22
 10
10.7506
 20
17.8435
 30
0.0000
  0
SEQEND
  8
0
  0
POLYLINE
  8
22
 66
1
 10
0.0000
 20
0.0000
 30
0.0000
 40
0.0762
 41
0.0762
 70
0
  0
VERTEX
  8
22
 10
10.7315
 20
18.9865
 30
0.0000
  0
VERTEX
  8
22
 10
10.0965
 20
18.9865
 30
0.0000
  0
SEQEND
  8
0
  0
POLYLINE
  8
22
 66
1
 10
0.0000
 20
0.0000
 30
0.0000
 40
0.0381
 41
0.0381
 70
0
  0
VERTEX
  8
22
 10
10.0965
 20
19.0055
 30
0.0000
 42
1.0000
  0
VERTEX
  8
22
 10
10.0965
 20
18.9674
 30
0.0000
  0
SEQEND
  8
0
  0
POLYLINE
  8
22
 66
1
 10
0.0000
 20
0.0000
 30
0.0000
 40
0.0381
 41
0.0381
 70
0
  0
VERTEX
  8
22
 10
10.7315
 20
18.9674
 30
0.0000
 42
1.0000
  0
VERTEX
  8
22
 10
10.7315
 20
19.0055
 30
0.0000
  0
SEQEND
  8
0
  0
POLYLINE
  8
22
 66
1
 10
0.0000
 20
0.0000
 30
0.0000
 40
0.0762
 41
0.0762
 70
0
  0
VERTEX
  8
22
 10
9.3345
 20
18.9865
 30
0.0000
  0
VERTEX
  8
22
 10
9.3345
 20
17.8435
 30
0.0000
  0
SEQEND
  8
0
  0
POLYLINE
  8
22
 66
1
 10
0.0000
 20
0.0000
 30
0.0000
 40
0.0381
 41
0.0381
 70
0
  0
VERTEX
  8
22
 10
9.3155
 20
17.8435
 30
0.0000
 42
1.0000
  0
VERTEX
  8
22
 10
9.3536
 20
17.8435
 30
0.0000
  0
SEQEND
  8
0
  0
POLYLINE
  8
22
 66
1
 10
0.0000
 20
0.0000
 30
0.0000
 40
0.0381
 41
0.0381
 70
0
  0
VERTEX
  8
22
 10
9.3536
 20
18.9865
 30
0.0000
 42
1.0000
  0
VERTEX
  8
22
 10
9.3155
 20
18.9865
 30
0.0000
  0
SEQEND
  8
0
  0
POLYLINE
  8
22
 66
1
 10
0.0000
 20
0.0000
 30
0.0000
 40
0.0762
 41
0.0762
 70
0
  0
VERTEX
  8
22
 10
9.3345
 20
17.8435
 30
0.0000
  0
VERTEX
  8
22
 10
9.9695
 20
17.8435
 30
0.0000
  0
SEQEND
  8
0
  0
POLYLINE
  8
22
 66
1
 10
0.0000
 20
0.0000
 30
0.0000
 40
0.0381
 41
0.0381
 70
0
  0
VERTEX
  8
22
 10
9.9695
 20
17.8245
 30
0.0000
 42
1.0000
  0
VERTEX
  8
22
 10
9.9695
 20
17.8626
 30
0.0000
  0
SEQEND
  8
0
  0
POLYLINE
  8
22
 66
1
 10
0.0000
 20
0.0000
 30
0.0000
 40
0.0381
 41
0.0381
 70
0
  0
VERTEX
  8
22
 10
9.3345
 20
17.8626
 30
0.0000
 42
1.0000
  0
VERTEX
  8
22
 10
9.3345
 20
17.8245
 30
0.0000
  0
SEQEND
  8
0
  0
POLYLINE
  8
22
 66
1
 10
0.0000
 20
0.0000
 30
0.0000
 40
0.0762
 41
0.0762
 70
0
  0
VERTEX
  8
22
 10
9.9695
 20
17.8435
 30
0.0000
  0
VERTEX
  8
22
 10
9.9695
 20
18.9865
 30
0.0000
  0
SEQEND
  8
0
  0
POLYLINE
  8
22
 66
1
 10
0.0000
 20
0.0000
 30
0.0000
 40
0.0381
 41
0.0381
 70
0
  0
VERTEX
  8
22
 10
9.9886
 20
18.9865
 30
0.0000
 42
1.0000
  0
VERTEX
  8
22
 10
9.9505
 20
18.9865
 30
0.0000
  0
SEQEND
  8
0
  0
POLYLINE
  8
22
 66
1
 10
0.0000
 20
0.0000
 30
0.0000
 40
0.0381
 41
0.0381
 70
0
  0
VERTEX
  8
22
 10
9.9505
 20
17.8435
 30
0.0000
 42
1.0000
  0
VERTEX
  8
22
 10
9.9886
 20
17.8435
 30
0.0000
  0
SEQEND
  8
0
  0
POLYLINE
  8
22
 66
1
 10
0.0000
 20
0.0000
 30
0.0000
 40
0.0762
 41
0.0762
 70
0
  0
VERTEX
  8
22
 10
9.9695
 20
18.9865
 30
0.0000
  0
VERTEX
  8
22
 10
9.3345
 20
18.9865
 30
0.0000
  0
SEQEND
  8
0
  0
POLYLINE
  8
22
 66
1
 10
0.0000
 20
0.0000
 30
0.0000
 40
0.0381
 41
0.0381
 70
0
  0
VERTEX
  8
22
 10
9.3345
 20
19.0055
 30
0.0000
 42
1.0000
  0
VERTEX
  8
22
 10
9.3345
 20
18.9674
 30
0.0000
  0
SEQEND
  8
0
  0
POLYLINE
  8
22
 66
1
 10
0.0000
 20
0.0000
 30
0.0000
 40
0.0381
 41
0.0381
 70
0
  0
VERTEX
  8
22
 10
9.9695
 20
18.9674
 30
0.0000
 42
1.0000
  0
VERTEX
  8
22
 10
9.9695
 20
19.0055
 30
0.0000
  0
SEQEND
  8
0
  0
POLYLINE
  8
22
 66
1
 10
0.0000
 20
0.0000
 30
0.0000
 40
0.0762
 41
0.0762
 70
0
  0
VERTEX
  8
22
 10
2.4765
 20
16.8275
 30
0.0000
  0
VERTEX
  8
22
 10
2.4765
 20
17.9705
 30
0.0000
  0
SEQEND
  8
0
  0
POLYLINE
  8
22
 66
1
 10
0.0000
 20
0.0000
 30
0.0000
 40
0.0381
 41
0.0381
 70
0
  0
VERTEX
  8
22
 10
2.4956
 20
17.9705
 30
0.0000
 42
1.0000
  0
VERTEX
  8
22
 10
2.4575
 20
17.9705
 30
0.0000
  0
SEQEND
  8
0
  0
POLYLINE
  8
22
 66
1
 10
0.0000
 20
0.0000
 30
0.0000
 40
0.0381
 41
0.0381
 70
0
  0
VERTEX
  8
22
 10
2.4575
 20
16.8275
 30
0.0000
 42
1.0000
  0
VERTEX
  8
22
 10
2.4956
 20
16.8275
 30
0.0000
  0
SEQEND
  8
0
  0
POLYLINE
  8
22
 66
1
 10
0.0000
 20
0.0000
 30
0.0000
 40
0.0762
 41
0.0762
 70
0
  0
VERTEX
  8
22
 10
2.4765
 20
17.9705
 30
0.0000
  0
VERTEX
  8
22
 10
1.8415
 20
17.9705
 30
0.0000
  0
SEQEND
  8
0
  0
POLYLINE
  8
22
 66
1
 10
0.0000
 20
0.0000
 30
0.0000
 40
0.0381
 41
0.0381
 70
0
  0
VERTEX
  8
22
 10
1.8415
 20
17.9896
 30
0.0000
 42
1.0000
  0
VERTEX
  8
22
 10
1.8415
 20
17.9515
 30
0.0000
  0
SEQEND
  8
0
  0
POLYLINE
  8
22
 66
1
 10
0.0000
 20
0.0000
 30
0.0000
 40
0.0381
 41
0.0381
 70
0
  0
VERTEX
  8
22
 10
2.4765
 20
17.9515
 30
0.0000
 42
1.0000
  0
VERTEX
  8
22
 10
2.4765
 20
17.9896
 30
0.0000
  0
SEQEND
  8
0
  0
POLYLINE
  8
22
 66
1
 10
0.0000
 20
0.0000
 30
0.0000
 40
0.0762
 41
0.0762
 70
0
  0
VERTEX
  8
22
 10
1.8415
 20
17.9705
 30
0.0000
  0
VERTEX
  8
22
 10
1.8415
 20
16.8275
 30
0.0000
  0
SEQEND
  8
0
  0
POLYLINE
  8
22
 66
1
 10
0.0000
 20
0.0000
 30
0.0000
 40
0.0381
 41
0.0381
 70
0
  0
VERTEX
  8
22
 10
1.8225
 20
16.8275
 30
0.0000
 42
1.0000
  0
VERTEX
  8
22
 10
1.8606
 20
16.8275
 30
0.0000
  0
SEQEND
  8
0
  0
POLYLINE
  8
22
 66
1
 10
0.0000
 20
0.0000
 30
0.0000
 40
0.0381
 41
0.0381
 70
0
  0
VERTEX
  8
22
 10
1.8606
 20
17.9705
 30
0.0000
 42
1.0000
  0
VERTEX
  8
22
 10
1.8225
 20
17.9705
 30
0.0000
  0
SEQEND
  8
0
  0
POLYLINE
  8
22
 66
1
 10
0.0000
 20
0.0000
 30
0.0000
 40
0.0762
 41
0.0762
 70
0
  0
VERTEX
  8
22
 10
1.8415
 20
16.8275
 30
0.0000
  0
VERTEX
  8
22
 10
2.4765
 20
16.8275
 30
0.0000
  0
SEQEND
  8
0
  0
POLYLINE
  8
22
 66
1
 10
0.0000
 20
0.0000
 30
0.0000
 40
0.0381
 41
0.0381
 70
0
  0
VERTEX
  8
22
 10
2.4765
 20
16.8085
 30
0.0000
 42
1.0000
  0
VERTEX
  8
22
 10
2.4765
 20
16.8466
 30
0.0000
  0
SEQEND
  8
0
  0
POLYLINE
  8
22
 66
1
 10
0.0000
 20
0.0000
 30
0.0000
 40
0.0381
 41
0.0381
 70
0
  0
VERTEX
  8
22
 10
1.8415
 20
16.8466
 30
0.0000
 42
1.0000
  0
VERTEX
  8
22
 10
1.8415
 20
16.8085
 30
0.0000
  0
SEQEND
  8
0
  0
POLYLINE
  8
22
 66
1
 10
0.0000
 20
0.0000
 30
0.0000
 40
0.0762
 41
0.0762
 70
0
  0
VERTEX
  8
22
 10
4.0005
 20
16.8275
 30
0.0000
  0
VERTEX
  8
22
 10
4.0005
 20
17.9705
 30
0.0000
  0
SEQEND
  8
0
  0
POLYLINE
  8
22
 66
1
 10
0.0000
 20
0.0000
 30
0.0000
 40
0.0381
 41
0.0381
 70
0
  0
VERTEX
  8
22
 10
4.0196
 20
17.9705
 30
0.0000
 42
1.0000
  0
VERTEX
  8
22
 10
3.9815
 20
17.9705
 30
0.0000
  0
SEQEND
  8
0
  0
POLYLINE
  8
22
 66
1
 10
0.0000
 20
0.0000
 30
0.0000
 40
0.0381
 41
0.0381
 70
0
  0
VERTEX
  8
22
 10
3.9815
 20
16.8275
 30
0.0000
 42
1.0000
  0
VERTEX
  8
22
 10
4.0196
 20
16.8275
 30
0.0000
  0
SEQEND
  8
0
  0
POLYLINE
  8
22
 66
1
 10
0.0000
 20
0.0000
 30
0.0000
 40
0.0762
 41
0.0762
 70
0
  0
VERTEX
  8
22
 10
4.0005
 20
17.9705
 30
0.0000
  0
VERTEX
  8
22
 10
3.3655
 20
17.9705
 30
0.0000
  0
SEQEND
  8
0
  0
POLYLINE
  8
22
 66
1
 10
0.0000
 20
0.0000
 30
0.0000
 40
0.0381
 41
0.0381
 70
0
  0
VERTEX
  8
22
 10
3.3655
 20
17.9896
 30
0.0000
 42
1.0000
  0
VERTEX
  8
22
 10
3.3655
 20
17.9515
 30
0.0000
  0
SEQEND
  8
0
  0
POLYLINE
  8
22
 66
1
 10
0.0000
 20
0.0000
 30
0.0000
 40
0.0381
 41
0.0381
 70
0
  0
VERTEX
  8
22
 10
4.0005
 20
17.9515
 30
0.0000
 42
1.0000
  0
VERTEX
  8
22
 10
4.0005
 20
17.9896
 30
0.0000
  0
SEQEND
  8
0
  0
POLYLINE
  8
22
 66
1
 10
0.0000
 20
0.0000
 30
0.0000
 40
0.0762
 41
0.0762
 70
0
  0
VERTEX
  8
22
 10
3.3655
 20
17.9705
 30
0.0000
  0
VERTEX
  8
22
 10
3.3655
 20
16.8275
 30
0.0000
  0
SEQEND
  8
0
  0
POLYLINE
  8
22
 66
1
 10
0.0000
 20
0.0000
 30
0.0000
 40
0.0381
 41
0.0381
 70
0
  0
VERTEX
  8
22
 10
3.3465
 20
16.8275
 30
0.0000
 42
1.0000
  0
VERTEX
  8
22
 10
3.3846
 20
16.8275
 30
0.0000
  0
SEQEND
  8
0
  0
POLYLINE
  8
22
 66
1
 10
0.0000
 20
0.0000
 30
0.0000
 40
0.0381
 41
0.0381
 70
0
  0
VERTEX
  8
22
 10
3.3846
 20
17.9705
 30
0.0000
 42
1.0000
  0
VERTEX
  8
22
 10
3.3465
 20
17.9705
 30
0.0000
  0
SEQEND
  8
0
  0
POLYLINE
  8
22
 66
1
 10
0.0000
 20
0.0000
 30
0.0000
 40
0.0762
 41
0.0762
 70
0
  0
VERTEX
  8
22
 10
3.3655
 20
16.8275
 30
0.0000
  0
VERTEX
  8
22
 10
4.0005
 20
16.8275
 30
0.0000
  0
SEQEND
  8
0
  0
POLYLINE
  8
22
 66
1
 10
0.0000
 20
0.0000
 30
0.0000
 40
0.0381
 41
0.0381
 70
0
  0
VERTEX
  8
22
 10
4.0005
 20
16.8085
 30
0.0000
 42
1.0000
  0
VERTEX
  8
22
 10
4.0005
 20
16.8466
 30
0.0000
  0
SEQEND
  8
0
  0
POLYLINE
  8
22
 66
1
 10
0.0000
 20
0.0000
 30
0.0000
 40
0.0381
 41
0.0381
 70
0
  0
VERTEX
  8
22
 10
3.3655
 20
16.8466
 30
0.0000
 42
1.0000
  0
VERTEX
  8
22
 10
3.3655
 20
16.8085
 30
0.0000
  0
SEQEND
  8
0
  0
POLYLINE
  8
22
 66
1
 10
0.0000
 20
0.0000
 30
0.0000
 40
0.0762
 41
0.0762
 70
0
  0
VERTEX
  8
22
 10
4.7625
 20
16.8275
 30
0.0000
  0
VERTEX
  8
22
 10
4.7625
 20
17.9705
 30
0.0000
  0
SEQEND
  8
0
  0
POLYLINE
  8
22
 66
1
 10
0.0000
 20
0.0000
 30
0.0000
 40
0.0381
 41
0.0381
 70
0
  0
VERTEX
  8
22
 10
4.7816
 20
17.9705
 30
0.0000
 42
1.0000
  0
VERTEX
  8
22
 10
4.7435
 20
17.9705
 30
0.0000
  0
SEQEND
  8
0
  0
POLYLINE
  8
22
 66
1
 10
0.0000
 20
0.0000
 30
0.0000
 40
0.0381
 41
0.0381
 70
0
  0
VERTEX
  8
22
 10
4.7435
 20
16.8275
 30
0.0000
 42
1.0000
  0
VERTEX
  8
22
 10
4.7816
 20
16.8275
 30
0.0000
  0
SEQEND
  8
0
  0
POLYLINE
  8
22
 66
1
 10
0.0000
 20
0.0000
 30
0.0000
 40
0.0762
 41
0.0762
 70
0
  0
VERTEX
  8
22
 10
4.7625
 20
17.9705
 30
0.0000
  0
VERTEX
  8
22
 10
4.1275
 20
17.9705
 30
0.0000
  0
SEQEND
  8
0
  0
POLYLINE
  8
22
 66
1
 10
0.0000
 20
0.0000
 30
0.0000
 40
0.0381
 41
0.0381
 70
0
  0
VERTEX
  8
22
 10
4.1275
 20
17.9896
 30
0.0000
 42
1.0000
  0
VERTEX
  8
22
 10
4.1275
 20
17.9515
 30
0.0000
  0
SEQEND
  8
0
  0
POLYLINE
  8
22
 66
1
 10
0.0000
 20
0.0000
 30
0.0000
 40
0.0381
 41
0.0381
 70
0
  0
VERTEX
  8
22
 10
4.7625
 20
17.9515
 30
0.0000
 42
1.0000
  0
VERTEX
  8
22
 10
4.7625
 20
17.9896
 30
0.0000
  0
SEQEND
  8
0
  0
POLYLINE
  8
22
 66
1
 10
0.0000
 20
0.0000
 30
0.0000
 40
0.0762
 41
0.0762
 70
0
  0
VERTEX
  8
22
 10
4.1275
 20
17.9705
 30
0.0000
  0
VERTEX
  8
22
 10
4.1275
 20
16.8275
 30
0.0000
  0
SEQEND
  8
0
  0
POLYLINE
  8
22
 66
1
 10
0.0000
 20
0.0000
 30
0.0000
 40
0.0381
 41
0.0381
 70
0
  0
VERTEX
  8
22
 10
4.1085
 20
16.8275
 30
0.0000
 42
1.0000
  0
VERTEX
  8
22
 10
4.1466
 20
16.8275
 30
0.0000
  0
SEQEND
  8
0
  0
POLYLINE
  8
22
 66
1
 10
0.0000
 20
0.0000
 30
0.0000
 40
0.0381
 41
0.0381
 70
0
  0
VERTEX
  8
22
 10
4.1466
 20
17.9705
 30
0.0000
 42
1.0000
  0
VERTEX
  8
22
 10
4.1085
 20
17.9705
 30
0.0000
  0
SEQEND
  8
0
  0
POLYLINE
  8
22
 66
1
 10
0.0000
 20
0.0000
 30
0.0000
 40
0.0762
 41
0.0762
 70
0
  0
VERTEX
  8
22
 10
4.1275
 20
16.8275
 30
0.0000
  0
VERTEX
  8
22
 10
4.7625
 20
16.8275
 30
0.0000
  0
SEQEND
  8
0
  0
POLYLINE
  8
22
 66
1
 10
0.0000
 20
0.0000
 30
0.0000
 40
0.0381
 41
0.0381
 70
0
  0
VERTEX
  8
22
 10
4.7625
 20
16.8085
 30
0.0000
 42
1.0000
  0
VERTEX
  8
22
 10
4.7625
 20
16.8466
 30
0.0000
  0
SEQEND
  8
0
  0
POLYLINE
  8
22
 66
1
 10
0.0000
 20
0.0000
 30
0.0000
 40
0.0381
 41
0.0381
 70
0
  0
VERTEX
  8
22
 10
4.1275
 20
16.8466
 30
0.0000
 42
1.0000
  0
VERTEX
  8
22
 10
4.1275
 20
16.8085
 30
0.0000
  0
SEQEND
  8
0
  0
POLYLINE
  8
22
 66
1
 10
0.0000
 20
0.0000
 30
0.0000
 40
0.0762
 41
0.0762
 70
0
  0
VERTEX
  8
22
 10
13.7795
 20
17.8435
 30
0.0000
  0
VERTEX
  8
22
 10
13.7795
 20
18.9865
 30
0.0000
  0
SEQEND
  8
0
  0
POLYLINE
  8
22
 66
1
 10
0.0000
 20
0.0000
 30
0.0000
 40
0.0381
 41
0.0381
 70
0
  0
VERTEX
  8
22
 10
13.7986
 20
18.9865
 30
0.0000
 42
1.0000
  0
VERTEX
  8
22
 10
13.7605
 20
18.9865
 30
0.0000
  0
SEQEND
  8
0
  0
POLYLINE
  8
22
 66
1
 10
0.0000
 20
0.0000
 30
0.0000
 40
0.0381
 41
0.0381
 70
0
  0
VERTEX
  8
22
 10
13.7605
 20
17.8435
 30
0.0000
 42
1.0000
  0
VERTEX
  8
22
 10
13.7986
 20
17.8435
 30
0.0000
  0
SEQEND
  8
0
  0
POLYLINE
  8
22
 66
1
 10
0.0000
 20
0.0000
 30
0.0000
 40
0.0762
 41
0.0762
 70
0
  0
VERTEX
  8
22
 10
13.7795
 20
18.9865
 30
0.0000
  0
VERTEX
  8
22
 10
13.1445
 20
18.9865
 30
0.0000
  0
SEQEND
  8
0
  0
POLYLINE
  8
22
 66
1
 10
0.0000
 20
0.0000
 30
0.0000
 40
0.0381
 41
0.0381
 70
0
  0
VERTEX
  8
22
 10
13.1445
 20
19.0055
 30
0.0000
 42
1.0000
  0
VERTEX
  8
22
 10
13.1445
 20
18.9674
 30
0.0000
  0
SEQEND
  8
0
  0
POLYLINE
  8
22
 66
1
 10
0.0000
 20
0.0000
 30
0.0000
 40
0.0381
 41
0.0381
 70
0
  0
VERTEX
  8
22
 10
13.7795
 20
18.9674
 30
0.0000
 42
1.0000
  0
VERTEX
  8
22
 10
13.7795
 20
19.0055
 30
0.0000
  0
SEQEND
  8
0
  0
POLYLINE
  8
22
 66
1
 10
0.0000
 20
0.0000
 30
0.0000
 40
0.0762
 41
0.0762
 70
0
  0
VERTEX
  8
22
 10
13.1445
 20
18.9865
 30
0.0000
  0
VERTEX
  8
22
 10
13.1445
 20
17.8435
 30
0.0000
  0
SEQEND
  8
0
  0
POLYLINE
  8
22
 66
1
 10
0.0000
 20
0.0000
 30
0.0000
 40
0.0381
 41
0.0381
 70
0
  0
VERTEX
  8
22
 10
13.1255
 20
17.8435
 30
0.0000
 42
1.0000
  0
VERTEX
  8
22
 10
13.1636
 20
17.8435
 30
0.0000
  0
SEQEND
  8
0
  0
POLYLINE
  8
22
 66
1
 10
0.0000
 20
0.0000
 30
0.0000
 40
0.0381
 41
0.0381
 70
0
  0
VERTEX
  8
22
 10
13.1636
 20
18.9865
 30
0.0000
 42
1.0000
  0
VERTEX
  8
22
 10
13.1255
 20
18.9865
 30
0.0000
  0
SEQEND
  8
0
  0
POLYLINE
  8
22
 66
1
 10
0.0000
 20
0.0000
 30
0.0000
 40
0.0762
 41
0.0762
 70
0
  0
VERTEX
  8
22
 10
13.1445
 20
17.8435
 30
0.0000
  0
VERTEX
  8
22
 10
13.7795
 20
17.8435
 30
0.0000
  0
SEQEND
  8
0
  0
POLYLINE
  8
22
 66
1
 10
0.0000
 20
0.0000
 30
0.0000
 40
0.0381
 41
0.0381
 70
0
  0
VERTEX
  8
22
 10
13.7795
 20
17.8245
 30
0.0000
 42
1.0000
  0
VERTEX
  8
22
 10
13.7795
 20
17.8626
 30
0.0000
  0
SEQEND
  8
0
  0
POLYLINE
  8
22
 66
1
 10
0.0000
 20
0.0000
 30
0.0000
 40
0.0381
 41
0.0381
 70
0
  0
VERTEX
  8
22
 10
13.1445
 20
17.8626
 30
0.0000
 42
1.0000
  0
VERTEX
  8
22
 10
13.1445
 20
17.8245
 30
0.0000
  0
SEQEND
  8
0
  0
POLYLINE
  8
22
 66
1
 10
0.0000
 20
0.0000
 30
0.0000
 40
0.0762
 41
0.0762
 70
0
  0
VERTEX
  8
22
 10
11.4935
 20
17.8435
 30
0.0000
  0
VERTEX
  8
22
 10
11.4935
 20
18.9865
 30
0.0000
  0
SEQEND
  8
0
  0
POLYLINE
  8
22
 66
1
 10
0.0000
 20
0.0000
 30
0.0000
 40
0.0381
 41
0.0381
 70
0
  0
VERTEX
  8
22
 10
11.5126
 20
18.9865
 30
0.0000
 42
1.0000
  0
VERTEX
  8
22
 10
11.4745
 20
18.9865
 30
0.0000
  0
SEQEND
  8
0
  0
POLYLINE
  8
22
 66
1
 10
0.0000
 20
0.0000
 30
0.0000
 40
0.0381
 41
0.0381
 70
0
  0
VERTEX
  8
22
 10
11.4745
 20
17.8435
 30
0.0000
 42
1.0000
  0
VERTEX
  8
22
 10
11.5126
 20
17.8435
 30
0.0000
  0
SEQEND
  8
0
  0
POLYLINE
  8
22
 66
1
 10
0.0000
 20
0.0000
 30
0.0000
 40
0.0762
 41
0.0762
 70
0
  0
VERTEX
  8
22
 10
11.4935
 20
18.9865
 30
0.0000
  0
VERTEX
  8
22
 10
10.8585
 20
18.9865
 30
0.0000
  0
SEQEND
  8
0
  0
POLYLINE
  8
22
 66
1
 10
0.0000
 20
0.0000
 30
0.0000
 40
0.0381
 41
0.0381
 70
0
  0
VERTEX
  8
22
 10
10.8585
 20
19.0055
 30
0.0000
 42
1.0000
  0
VERTEX
  8
22
 10
10.8585
 20
18.9674
 30
0.0000
  0
SEQEND
  8
0
  0
POLYLINE
  8
22
 66
1
 10
0.0000
 20
0.0000
 30
0.0000
 40
0.0381
 41
0.0381
 70
0
  0
VERTEX
  8
22
 10
11.4935
 20
18.9674
 30
0.0000
 42
1.0000
  0
VERTEX
  8
22
 10
11.4935
 20
19.0055
 30
0.0000
  0
SEQEND
  8
0
  0
POLYLINE
  8
22
 66
1
 10
0.0000
 20
0.0000
 30
0.0000
 40
0.0762
 41
0.0762
 70
0
  0
VERTEX
  8
22
 10
10.8585
 20
18.9865
 30
0.0000
  0
VERTEX
  8
22
 10
10.8585
 20
17.8435
 30
0.0000
  0
SEQEND
  8
0
  0
POLYLINE
  8
22
 66
1
 10
0.0000
 20
0.0000
 30
0.0000
 40
0.0381
 41
0.0381
 70
0
  0
VERTEX
  8
22
 10
10.8395
 20
17.8435
 30
0.0000
 42
1.0000
  0
VERTEX
  8
22
 10
10.8776
 20
17.8435
 30
0.0000
  0
SEQEND
  8
0
  0
POLYLINE
  8
22
 66
1
 10
0.0000
 20
0.0000
 30
0.0000
 40
0.0381
 41
0.0381
 70
0
  0
VERTEX
  8
22
 10
10.8776
 20
18.9865
 30
0.0000
 42
1.0000
  0
VERTEX
  8
22
 10
10.8395
 20
18.9865
 30
0.0000
  0
SEQEND
  8
0
  0
POLYLINE
  8
22
 66
1
 10
0.0000
 20
0.0000
 30
0.0000
 40
0.0762
 41
0.0762
 70
0
  0
VERTEX
  8
22
 10
10.8585
 20
17.8435
 30
0.0000
  0
VERTEX
  8
22
 10
11.4935
 20
17.8435
 30
0.0000
  0
SEQEND
  8
0
  0
POLYLINE
  8
22
 66
1
 10
0.0000
 20
0.0000
 30
0.0000
 40
0.0381
 41
0.0381
 70
0
  0
VERTEX
  8
22
 10
11.4935
 20
17.8245
 30
0.0000
 42
1.0000
  0
VERTEX
  8
22
 10
11.4935
 20
17.8626
 30
0.0000
  0
SEQEND
  8
0
  0
POLYLINE
  8
22
 66
1
 10
0.0000
 20
0.0000
 30
0.0000
 40
0.0381
 41
0.0381
 70
0
  0
VERTEX
  8
22
 10
10.8585
 20
17.8626
 30
0.0000
 42
1.0000
  0
VERTEX
  8
22
 10
10.8585
 20
17.8245
 30
0.0000
  0
SEQEND
  8
0
  0
POLYLINE
  8
22
 66
1
 10
0.0000
 20
0.0000
 30
0.0000
 40
0.0762
 41
0.0762
 70
0
  0
VERTEX
  8
22
 10
7.3025
 20
18.9865
 30
0.0000
  0
VERTEX
  8
22
 10
7.3025
 20
17.8435
 30
0.0000
  0
SEQEND
  8
0
  0
POLYLINE
  8
22
 66
1
 10
0.0000
 20
0.0000
 30
0.0000
 40
0.0381
 41
0.0381
 70
0
  0
VERTEX
  8
22
 10
7.2835
 20
17.8435
 30
0.0000
 42
1.0000
  0
VERTEX
  8
22
 10
7.3216
 20
17.8435
 30
0.0000
  0
SEQEND
  8
0
  0
POLYLINE
  8
22
 66
1
 10
0.0000
 20
0.0000
 30
0.0000
 40
0.0381
 41
0.0381
 70
0
  0
VERTEX
  8
22
 10
7.3216
 20
18.9865
 30
0.0000
 42
1.0000
  0
VERTEX
  8
22
 10
7.2835
 20
18.9865
 30
0.0000
  0
SEQEND
  8
0
  0
POLYLINE
  8
22
 66
1
 10
0.0000
 20
0.0000
 30
0.0000
 40
0.0762
 41
0.0762
 70
0
  0
VERTEX
  8
22
 10
7.3025
 20
17.8435
 30
0.0000
  0
VERTEX
  8
22
 10
7.9375
 20
17.8435
 30
0.0000
  0
SEQEND
  8
0
  0
POLYLINE
  8
22
 66
1
 10
0.0000
 20
0.0000
 30
0.0000
 40
0.0381
 41
0.0381
 70
0
  0
VERTEX
  8
22
 10
7.9375
 20
17.8245
 30
0.0000
 42
1.0000
  0
VERTEX
  8
22
 10
7.9375
 20
17.8626
 30
0.0000
  0
SEQEND
  8
0
  0
POLYLINE
  8
22
 66
1
 10
0.0000
 20
0.0000
 30
0.0000
 40
0.0381
 41
0.0381
 70
0
  0
VERTEX
  8
22
 10
7.3025
 20
17.8626
 30
0.0000
 42
1.0000
  0
VERTEX
  8
22
 10
7.3025
 20
17.8245
 30
0.0000
  0
SEQEND
  8
0
  0
POLYLINE
  8
22
 66
1
 10
0.0000
 20
0.0000
 30
0.0000
 40
0.0762
 41
0.0762
 70
0
  0
VERTEX
  8
22
 10
7.9375
 20
17.8435
 30
0.0000
  0
VERTEX
  8
22
 10
7.9375
 20
18.9865
 30
0.0000
  0
SEQEND
  8
0
  0
POLYLINE
  8
22
 66
1
 10
0.0000
 20
0.0000
 30
0.0000
 40
0.0381
 41
0.0381
 70
0
  0
VERTEX
  8
22
 10
7.9566
 20
18.9865
 30
0.0000
 42
1.0000
  0
VERTEX
  8
22
 10
7.9184
 20
18.9865
 30
0.0000
  0
SEQEND
  8
0
  0
POLYLINE
  8
22
 66
1
 10
0.0000
 20
0.0000
 30
0.0000
 40
0.0381
 41
0.0381
 70
0
  0
VERTEX
  8
22
 10
7.9184
 20
17.8435
 30
0.0000
 42
1.0000
  0
VERTEX
  8
22
 10
7.9566
 20
17.8435
 30
0.0000
  0
SEQEND
  8
0
  0
POLYLINE
  8
22
 66
1
 10
0.0000
 20
0.0000
 30
0.0000
 40
0.0762
 41
0.0762
 70
0
  0
VERTEX
  8
22
 10
7.9375
 20
18.9865
 30
0.0000
  0
VERTEX
  8
22
 10
7.3025
 20
18.9865
 30
0.0000
  0
SEQEND
  8
0
  0
POLYLINE
  8
22
 66
1
 10
0.0000
 20
0.0000
 30
0.0000
 40
0.0381
 41
0.0381
 70
0
  0
VERTEX
  8
22
 10
7.3025
 20
19.0055
 30
0.0000
 42
1.0000
  0
VERTEX
  8
22
 10
7.3025
 20
18.9674
 30
0.0000
  0
SEQEND
  8
0
  0
POLYLINE
  8
22
 66
1
 10
0.0000
 20
0.0000
 30
0.0000
 40
0.0381
 41
0.0381
 70
0
  0
VERTEX
  8
22
 10
7.9375
 20
18.9674
 30
0.0000
 42
1.0000
  0
VERTEX
  8
22
 10
7.9375
 20
19.0055
 30
0.0000
  0
SEQEND
  8
0
  0
POLYLINE
  8
22
 66
1
 10
0.0000
 20
0.0000
 30
0.0000
 40
0.0762
 41
0.0762
 70
0
  0
VERTEX
  8
22
 10
6.5405
 20
18.9865
 30
0.0000
  0
VERTEX
  8
22
 10
6.5405
 20
17.8435
 30
0.0000
  0
SEQEND
  8
0
  0
POLYLINE
  8
22
 66
1
 10
0.0000
 20
0.0000
 30
0.0000
 40
0.0381
 41
0.0381
 70
0
  0
VERTEX
  8
22
 10
6.5215
 20
17.8435
 30
0.0000
 42
1.0000
  0
VERTEX
  8
22
 10
6.5596
 20
17.8435
 30
0.0000
  0
SEQEND
  8
0
  0
POLYLINE
  8
22
 66
1
 10
0.0000
 20
0.0000
 30
0.0000
 40
0.0381
 41
0.0381
 70
0
  0
VERTEX
  8
22
 10
6.5596
 20
18.9865
 30
0.0000
 42
1.0000
  0
VERTEX
  8
22
 10
6.5215
 20
18.9865
 30
0.0000
  0
SEQEND
  8
0
  0
POLYLINE
  8
22
 66
1
 10
0.0000
 20
0.0000
 30
0.0000
 40
0.0762
 41
0.0762
 70
0
  0
VERTEX
  8
22
 10
6.5405
 20
17.8435
 30
0.0000
  0
VERTEX
  8
22
 10
7.1755
 20
17.8435
 30
0.0000
  0
SEQEND
  8
0
  0
POLYLINE
  8
22
 66
1
 10
0.0000
 20
0.0000
 30
0.0000
 40
0.0381
 41
0.0381
 70
0
  0
VERTEX
  8
22
 10
7.1755
 20
17.8245
 30
0.0000
 42
1.0000
  0
VERTEX
  8
22
 10
7.1755
 20
17.8626
 30
0.0000
  0
SEQEND
  8
0
  0
POLYLINE
  8
22
 66
1
 10
0.0000
 20
0.0000
 30
0.0000
 40
0.0381
 41
0.0381
 70
0
  0
VERTEX
  8
22
 10
6.5405
 20
17.8626
 30
0.0000
 42
1.0000
  0
VERTEX
  8
22
 10
6.5405
 20
17.8245
 30
0.0000
  0
SEQEND
  8
0
  0
POLYLINE
  8
22
 66
1
 10
0.0000
 20
0.0000
 30
0.0000
 40
0.0762
 41
0.0762
 70
0
  0
VERTEX
  8
22
 10
7.1755
 20
17.8435
 30
0.0000
  0
VERTEX
  8
22
 10
7.1755
 20
18.9865
 30
0.0000
  0
SEQEND
  8
0
  0
POLYLINE
  8
22
 66
1
 10
0.0000
 20
0.0000
 30
0.0000
 40
0.0381
 41
0.0381
 70
0
  0
VERTEX
  8
22
 10
7.1946
 20
18.9865
 30
0.0000
 42
1.0000
  0
VERTEX
  8
22
 10
7.1565
 20
18.9865
 30
0.0000
  0
SEQEND
  8
0
  0
POLYLINE
  8
22
 66
1
 10
0.0000
 20
0.0000
 30
0.0000
 40
0.0381
 41
0.0381
 70
0
  0
VERTEX
  8
22
 10
7.1565
 20
17.8435
 30
0.0000
 42
1.0000
  0
VERTEX
  8
22
 10
7.1946
 20
17.8435
 30
0.0000
  0
SEQEND
  8
0
  0
POLYLINE
  8
22
 66
1
 10
0.0000
 20
0.0000
 30
0.0000
 40
0.0762
 41
0.0762
 70
0
  0
VERTEX
  8
22
 10
7.1755
 20
18.9865
 30
0.0000
  0
VERTEX
  8
22
 10
6.5405
 20
18.9865
 30
0.0000
  0
SEQEND
  8
0
  0
POLYLINE
  8
22
 66
1
 10
0.0000
 20
0.0000
 30
0.0000
 40
0.0381
 41
0.0381
 70
0
  0
VERTEX
  8
22
 10
6.5405
 20
19.0055
 30
0.0000
 42
1.0000
  0
VERTEX
  8
22
 10
6.5405
 20
18.9674
 30
0.0000
  0
SEQEND
  8
0
  0
POLYLINE
  8
22
 66
1
 10
0.0000
 20
0.0000
 30
0.0000
 40
0.0381
 41
0.0381
 70
0
  0
VERTEX
  8
22
 10
7.1755
 20
18.9674
 30
0.0000
 42
1.0000
  0
VERTEX
  8
22
 10
7.1755
 20
19.0055
 30
0.0000
  0
SEQEND
  8
0
  0
POLYLINE
  8
22
 66
1
 10
0.0000
 20
0.0000
 30
0.0000
 40
0.0762
 41
0.0762
 70
0
  0
VERTEX
  8
22
 10
8.0645
 20
18.3515
 30
0.0000
  0
VERTEX
  8
22
 10
9.2075
 20
18.3515
 30
0.0000
  0
SEQEND
  8
0
  0
POLYLINE
  8
22
 66
1
 10
0.0000
 20
0.0000
 30
0.0000
 40
0.0381
 41
0.0381
 70
0
  0
VERTEX
  8
22
 10
9.2075
 20
18.3325
 30
0.0000
 42
1.0000
  0
VERTEX
  8
22
 10
9.2075
 20
18.3706
 30
0.0000
  0
SEQEND
  8
0
  0
POLYLINE
  8
22
 66
1
 10
0.0000
 20
0.0000
 30
0.0000
 40
0.0381
 41
0.0381
 70
0
  0
VERTEX
  8
22
 10
8.0645
 20
18.3706
 30
0.0000
 42
1.0000
  0
VERTEX
  8
22
 10
8.0645
 20
18.3325
 30
0.0000
  0
SEQEND
  8
0
  0
POLYLINE
  8
22
 66
1
 10
0.0000
 20
0.0000
 30
0.0000
 40
0.0762
 41
0.0762
 70
0
  0
VERTEX
  8
22
 10
9.2075
 20
18.3515
 30
0.0000
  0
VERTEX
  8
22
 10
9.2075
 20
18.9865
 30
0.0000
  0
SEQEND
  8
0
  0
POLYLINE
  8
22
 66
1
 10
0.0000
 20
0.0000
 30
0.0000
 40
0.0381
 41
0.0381
 70
0
  0
VERTEX
  8
22
 10
9.2265
 20
18.9865
 30
0.0000
 42
1.0000
  0
VERTEX
  8
22
 10
9.1884
 20
18.9865
 30
0.0000
  0
SEQEND
  8
0
  0
POLYLINE
  8
22
 66
1
 10
0.0000
 20
0.0000
 30
0.0000
 40
0.0381
 41
0.0381
 70
0
  0
VERTEX
  8
22
 10
9.1884
 20
18.3515
 30
0.0000
 42
1.0000
  0
VERTEX
  8
22
 10
9.2265
 20
18.3515
 30
0.0000
  0
SEQEND
  8
0
  0
POLYLINE
  8
22
 66
1
 10
0.0000
 20
0.0000
 30
0.0000
 40
0.0762
 41
0.0762
 70
0
  0
VERTEX
  8
22
 10
9.2075
 20
18.9865
 30
0.0000
  0
VERTEX
  8
22
 10
8.0645
 20
18.9865
 30
0.0000
  0
SEQEND
  8
0
  0
POLYLINE
  8
22
 66
1
 10
0.0000
 20
0.0000
 30
0.0000
 40
0.0381
 41
0.0381
 70
0
  0
VERTEX
  8
22
 10
8.0645
 20
19.0055
 30
0.0000
 42
1.0000
  0
VERTEX
  8
22
 10
8.0645
 20
18.9674
 30
0.0000
  0
SEQEND
  8
0
  0
POLYLINE
  8
22
 66
1
 10
0.0000
 20
0.0000
 30
0.0000
 40
0.0381
 41
0.0381
 70
0
  0
VERTEX
  8
22
 10
9.2075
 20
18.9674
 30
0.0000
 42
1.0000
  0
VERTEX
  8
22
 10
9.2075
 20
19.0055
 30
0.0000
  0
SEQEND
  8
0
  0
POLYLINE
  8
22
 66
1
 10
0.0000
 20
0.0000
 30
0.0000
 40
0.0762
 41
0.0762
 70
0
  0
VERTEX
  8
22
 10
8.0645
 20
18.9865
 30
0.0000
  0
VERTEX
  8
22
 10
8.0645
 20
18.3515
 30
0.0000
  0
SEQEND
  8
0
  0
POLYLINE
  8
22
 66
1
 10
0.0000
 20
0.0000
 30
0.0000
 40
0.0381
 41
0.0381
 70
0
  0
VERTEX
  8
22
 10
8.0455
 20
18.3515
 30
0.0000
 42
1.0000
  0
VERTEX
  8
22
 10
8.0836
 20
18.3515
 30
0.0000
  0
SEQEND
  8
0
  0
POLYLINE
  8
22
 66
1
 10
0.0000
 20
0.0000
 30
0.0000
 40
0.0381
 41
0.0381
 70
0
  0
VERTEX
  8
22
 10
8.0836
 20
18.9865
 30
0.0000
 42
1.0000
  0
VERTEX
  8
22
 10
8.0455
 20
18.9865
 30
0.0000
  0
SEQEND
  8
0
  0
ENDSEC
  0
EOF
