  0
SECTION
  2
HEADER
  9
$ACADVER
  1
AC1009
  9
$FILLMODE
 70
1
  9
$EXTMIN
 10
-3.9200
 20
7.3080
 30
0.0000
  9
$EXTMAX
 10
18.1737
 20
43.5115
 30
0.0000
  0
ENDSEC
  0
SECTION
  2
TABLES
  0
TABLE
  2
LTYPE
 70
1
  0
LTYPE
  2
CONTINUOUS
 70
64
  3
Solid line
 72
65
 73
0
 40
0
  0
ENDTAB
  0
TABLE
  2
LAYER
 70
255
  0
LAYER
  2
17
 70
64
 62
82
  6
CONTINUOUS
  0
LAYER
  2
20
 70
64
 62
213
  6
CONTINUOUS
  0
LAYER
  2
21
 70
64
 62
253
  6
CONTINUOUS
  0
LAYER
  2
25
 70
64
 62
253
  6
CONTINUOUS
  0
ENDTAB
  0
ENDSEC
  0
SECTION
  2
BLOCKS
  0
BLOCK
  8
0
  2
RECT
 70
64
 10
0.0000
 20
0.0000
 30
0.0000
  3
RECT
  0
SOLID
  8
0
 10
-0.5000
 20
-0.5000
 30
0.0000
 11
0.5000
 21
-0.5000
 31
0.0000
 12
-0.5000
 22
0.5000
 32
0.0000
 13
0.5000
 23
0.5000
 33
0.0000
  0
ENDBLK
  8
0
  0
BLOCK
  8
0
  2
PIE
 70
64
 10
0.0000
 20
0.0000
 30
0.0000
  3
PIE
  0
POLYLINE
  8
0
 66
1
 10
0.0000
 20
0.0000
 30
0.0000
 40
0.5000
 41
0.5000
 70
0
  0
VERTEX
  8
0
 10
0.0000
 20
-0.2500
 30
0.0000
 42
1.0000
  0
VERTEX
  8
0
 10
0.0000
 20
0.2500
 30
0.0000
 42
1.0000
  0
VERTEX
  8
0
 10
0.0000
 20
-0.2500
 30
0.0000
  0
SEQEND
  8
0
  0
ENDBLK
  8
0
  0
BLOCK
  8
0
  2
OCTAGONP
 70
64
 10
0.0000
 20
0.0000
 30
0.0000
  3
OCTAGONP
  0
POLYLINE
  8
0
 66
1
 10
0.0000
 20
0.0000
 30
0.0000
 40
0.5000
 41
0.5000
 70
0
  0
VERTEX
  8
0
 10
-0.2500
 20
-0.1036
 30
0.0000
  0
VERTEX
  8
0
 10
-0.2500
 20
0.1036
 30
0.0000
  0
VERTEX
  8
0
 10
-0.1036
 20
0.2500
 30
0.0000
  0
VERTEX
  8
0
 10
0.1036
 20
0.2500
 30
0.0000
  0
VERTEX
  8
0
 10
0.2500
 20
0.1036
 30
0.0000
  0
VERTEX
  8
0
 10
0.2500
 20
-0.1036
 30
0.0000
  0
VERTEX
  8
0
 10
0.1036
 20
-0.2500
 30
0.0000
  0
VERTEX
  8
0
 10
-0.1036
 20
-0.2500
 30
0.0000
  0
VERTEX
  8
0
 10
-0.2500
 20
-0.1036
 30
0.0000
  0
VERTEX
  8
0
 10
-0.2500
 20
0.1036
 30
0.0000
  0
SEQEND
  8
0
  0
ENDBLK
  8
0
  0
BLOCK
  8
0
  2
SQUAREP
 70
64
 10
0.0000
 20
0.0000
 30
0.0000
  3
SQUAREP
  0
SOLID
  8
0
 10
-0.5000
 20
-0.5000
 30
0.0000
 11
0.5000
 21
-0.5000
 31
0.0000
 12
-0.5000
 22
0.5000
 32
0.0000
 13
0.5000
 23
0.5000
 33
0.0000
  0
ENDBLK
  8
0
  0
BLOCK
  8
0
  2
ROUNDP
 70
64
 10
0.0000
 20
0.0000
 30
0.0000
  3
ROUNDP
  0
POLYLINE
  8
0
 66
1
 10
0.0000
 20
0.0000
 30
0.0000
 40
0.5000
 41
0.5000
 70
0
  0
VERTEX
  8
0
 10
0.0000
 20
-0.2500
 30
0.0000
 42
1.0000
  0
VERTEX
  8
0
 10
0.0000
 20
0.2500
 30
0.0000
 42
1.0000
  0
VERTEX
  8
0
 10
0.0000
 20
-0.2500
 30
0.0000
  0
SEQEND
  8
0
  0
ENDBLK
  8
0
  0
BLOCK
  8
0
  2
ANNULUSP
 70
64
 10
0.0000
 20
0.0000
 30
0.0000
  3
ANNULUSP
  0
POLYLINE
  8
0
 66
1
 10
0.0000
 20
0.0000
 30
0.0000
 40
0.5000
 41
0.5000
 70
0
  0
VERTEX
  8
0
 10
0.0000
 20
-0.2500
 30
0.0000
 42
1.0000
  0
VERTEX
  8
0
 10
0.0000
 20
0.2500
 30
0.0000
 42
1.0000
  0
VERTEX
  8
0
 10
0.0000
 20
-0.2500
 30
0.0000
  0
SEQEND
  8
0
  0
ENDBLK
  8
0
  0
BLOCK
  8
0
  2
THERMALP
 70
64
 10
0.0000
 20
0.0000
 30
0.0000
  3
THERMALP
  0
POLYLINE
  8
0
 66
1
 10
0.0000
 20
0.0000
 30
0.0000
 40
0.1000
 41
0.1000
 70
0
  0
VERTEX
  8
0
 10
-0.2379
 20
0.4500
 30
0.0000
  0
VERTEX
  8
0
 10
0.2379
 20
0.4500
 30
0.0000
  0
SEQEND
  8
0
  0
POLYLINE
  8
0
 66
1
 10
0.0000
 20
0.0000
 30
0.0000
 40
0.0500
 41
0.0500
 70
0
  0
VERTEX
  8
0
 10
0.2379
 20
0.4250
 30
0.0000
 42
1.0000
  0
VERTEX
  8
0
 10
0.2379
 20
0.4750
 30
0.0000
  0
SEQEND
  8
0
  0
POLYLINE
  8
0
 66
1
 10
0.0000
 20
0.0000
 30
0.0000
 40
0.0500
 41
0.0500
 70
0
  0
VERTEX
  8
0
 10
-0.2379
 20
0.4750
 30
0.0000
 42
1.0000
  0
VERTEX
  8
0
 10
-0.2379
 20
0.4250
 30
0.0000
  0
SEQEND
  8
0
  0
POLYLINE
  8
0
 66
1
 10
0.0000
 20
0.0000
 30
0.0000
 40
0.1000
 41
0.1000
 70
0
  0
VERTEX
  8
0
 10
0.4500
 20
0.2379
 30
0.0000
  0
VERTEX
  8
0
 10
0.4500
 20
-0.2379
 30
0.0000
  0
SEQEND
  8
0
  0
POLYLINE
  8
0
 66
1
 10
0.0000
 20
0.0000
 30
0.0000
 40
0.0500
 41
0.0500
 70
0
  0
VERTEX
  8
0
 10
0.4250
 20
-0.2379
 30
0.0000
 42
1.0000
  0
VERTEX
  8
0
 10
0.4750
 20
-0.2379
 30
0.0000
  0
SEQEND
  8
0
  0
POLYLINE
  8
0
 66
1
 10
0.0000
 20
0.0000
 30
0.0000
 40
0.0500
 41
0.0500
 70
0
  0
VERTEX
  8
0
 10
0.4750
 20
0.2379
 30
0.0000
 42
1.0000
  0
VERTEX
  8
0
 10
0.4250
 20
0.2379
 30
0.0000
  0
SEQEND
  8
0
  0
POLYLINE
  8
0
 66
1
 10
0.0000
 20
0.0000
 30
0.0000
 40
0.1000
 41
0.1000
 70
0
  0
VERTEX
  8
0
 10
0.2379
 20
-0.4500
 30
0.0000
  0
VERTEX
  8
0
 10
-0.2379
 20
-0.4500
 30
0.0000
  0
SEQEND
  8
0
  0
POLYLINE
  8
0
 66
1
 10
0.0000
 20
0.0000
 30
0.0000
 40
0.0500
 41
0.0500
 70
0
  0
VERTEX
  8
0
 10
-0.2379
 20
-0.4250
 30
0.0000
 42
1.0000
  0
VERTEX
  8
0
 10
-0.2379
 20
-0.4750
 30
0.0000
  0
SEQEND
  8
0
  0
POLYLINE
  8
0
 66
1
 10
0.0000
 20
0.0000
 30
0.0000
 40
0.0500
 41
0.0500
 70
0
  0
VERTEX
  8
0
 10
0.2379
 20
-0.4750
 30
0.0000
 42
1.0000
  0
VERTEX
  8
0
 10
0.2379
 20
-0.4250
 30
0.0000
  0
SEQEND
  8
0
  0
POLYLINE
  8
0
 66
1
 10
0.0000
 20
0.0000
 30
0.0000
 40
0.1000
 41
0.1000
 70
0
  0
VERTEX
  8
0
 10
-0.4500
 20
-0.2379
 30
0.0000
  0
VERTEX
  8
0
 10
-0.4500
 20
0.2379
 30
0.0000
  0
SEQEND
  8
0
  0
POLYLINE
  8
0
 66
1
 10
0.0000
 20
0.0000
 30
0.0000
 40
0.0500
 41
0.0500
 70
0
  0
VERTEX
  8
0
 10
-0.4250
 20
0.2379
 30
0.0000
 42
1.0000
  0
VERTEX
  8
0
 10
-0.4750
 20
0.2379
 30
0.0000
  0
SEQEND
  8
0
  0
POLYLINE
  8
0
 66
1
 10
0.0000
 20
0.0000
 30
0.0000
 40
0.0500
 41
0.0500
 70
0
  0
VERTEX
  8
0
 10
-0.4750
 20
-0.2379
 30
0.0000
 42
1.0000
  0
VERTEX
  8
0
 10
-0.4250
 20
-0.2379
 30
0.0000
  0
SEQEND
  8
0
  0
ENDBLK
  8
0
  0
BLOCK
  8
0
  2
OCTAGONV
 70
64
 10
0.0000
 20
0.0000
 30
0.0000
  3
OCTAGONV
  0
POLYLINE
  8
0
 66
1
 10
0.0000
 20
0.0000
 30
0.0000
 40
0.5000
 41
0.5000
 70
0
  0
VERTEX
  8
0
 10
-0.2500
 20
-0.1036
 30
0.0000
  0
VERTEX
  8
0
 10
-0.2500
 20
0.1036
 30
0.0000
  0
VERTEX
  8
0
 10
-0.1036
 20
0.2500
 30
0.0000
  0
VERTEX
  8
0
 10
0.1036
 20
0.2500
 30
0.0000
  0
VERTEX
  8
0
 10
0.2500
 20
0.1036
 30
0.0000
  0
VERTEX
  8
0
 10
0.2500
 20
-0.1036
 30
0.0000
  0
VERTEX
  8
0
 10
0.1036
 20
-0.2500
 30
0.0000
  0
VERTEX
  8
0
 10
-0.1036
 20
-0.2500
 30
0.0000
  0
VERTEX
  8
0
 10
-0.2500
 20
-0.1036
 30
0.0000
  0
VERTEX
  8
0
 10
-0.2500
 20
0.1036
 30
0.0000
  0
SEQEND
  8
0
  0
ENDBLK
  8
0
  0
BLOCK
  8
0
  2
SQUAREV
 70
64
 10
0.0000
 20
0.0000
 30
0.0000
  3
SQUAREV
  0
SOLID
  8
0
 10
-0.5000
 20
-0.5000
 30
0.0000
 11
0.5000
 21
-0.5000
 31
0.0000
 12
-0.5000
 22
0.5000
 32
0.0000
 13
0.5000
 23
0.5000
 33
0.0000
  0
ENDBLK
  8
0
  0
BLOCK
  8
0
  2
ROUNDV
 70
64
 10
0.0000
 20
0.0000
 30
0.0000
  3
ROUNDV
  0
POLYLINE
  8
0
 66
1
 10
0.0000
 20
0.0000
 30
0.0000
 40
0.5000
 41
0.5000
 70
0
  0
VERTEX
  8
0
 10
0.0000
 20
-0.2500
 30
0.0000
 42
1.0000
  0
VERTEX
  8
0
 10
0.0000
 20
0.2500
 30
0.0000
 42
1.0000
  0
VERTEX
  8
0
 10
0.0000
 20
-0.2500
 30
0.0000
  0
SEQEND
  8
0
  0
ENDBLK
  8
0
  0
BLOCK
  8
0
  2
ANNULUSV
 70
64
 10
0.0000
 20
0.0000
 30
0.0000
  3
ANNULUSV
  0
POLYLINE
  8
0
 66
1
 10
0.0000
 20
0.0000
 30
0.0000
 40
0.5000
 41
0.5000
 70
0
  0
VERTEX
  8
0
 10
0.0000
 20
-0.2500
 30
0.0000
 42
1.0000
  0
VERTEX
  8
0
 10
0.0000
 20
0.2500
 30
0.0000
 42
1.0000
  0
VERTEX
  8
0
 10
0.0000
 20
-0.2500
 30
0.0000
  0
SEQEND
  8
0
  0
ENDBLK
  8
0
  0
BLOCK
  8
0
  2
THERMALV
 70
64
 10
0.0000
 20
0.0000
 30
0.0000
  3
THERMALV
  0
POLYLINE
  8
0
 66
1
 10
0.0000
 20
0.0000
 30
0.0000
 40
0.1000
 41
0.1000
 70
0
  0
VERTEX
  8
0
 10
-0.2379
 20
0.4500
 30
0.0000
  0
VERTEX
  8
0
 10
0.2379
 20
0.4500
 30
0.0000
  0
SEQEND
  8
0
  0
POLYLINE
  8
0
 66
1
 10
0.0000
 20
0.0000
 30
0.0000
 40
0.0500
 41
0.0500
 70
0
  0
VERTEX
  8
0
 10
0.2379
 20
0.4250
 30
0.0000
 42
1.0000
  0
VERTEX
  8
0
 10
0.2379
 20
0.4750
 30
0.0000
  0
SEQEND
  8
0
  0
POLYLINE
  8
0
 66
1
 10
0.0000
 20
0.0000
 30
0.0000
 40
0.0500
 41
0.0500
 70
0
  0
VERTEX
  8
0
 10
-0.2379
 20
0.4750
 30
0.0000
 42
1.0000
  0
VERTEX
  8
0
 10
-0.2379
 20
0.4250
 30
0.0000
  0
SEQEND
  8
0
  0
POLYLINE
  8
0
 66
1
 10
0.0000
 20
0.0000
 30
0.0000
 40
0.1000
 41
0.1000
 70
0
  0
VERTEX
  8
0
 10
0.4500
 20
0.2379
 30
0.0000
  0
VERTEX
  8
0
 10
0.4500
 20
-0.2379
 30
0.0000
  0
SEQEND
  8
0
  0
POLYLINE
  8
0
 66
1
 10
0.0000
 20
0.0000
 30
0.0000
 40
0.0500
 41
0.0500
 70
0
  0
VERTEX
  8
0
 10
0.4250
 20
-0.2379
 30
0.0000
 42
1.0000
  0
VERTEX
  8
0
 10
0.4750
 20
-0.2379
 30
0.0000
  0
SEQEND
  8
0
  0
POLYLINE
  8
0
 66
1
 10
0.0000
 20
0.0000
 30
0.0000
 40
0.0500
 41
0.0500
 70
0
  0
VERTEX
  8
0
 10
0.4750
 20
0.2379
 30
0.0000
 42
1.0000
  0
VERTEX
  8
0
 10
0.4250
 20
0.2379
 30
0.0000
  0
SEQEND
  8
0
  0
POLYLINE
  8
0
 66
1
 10
0.0000
 20
0.0000
 30
0.0000
 40
0.1000
 41
0.1000
 70
0
  0
VERTEX
  8
0
 10
0.2379
 20
-0.4500
 30
0.0000
  0
VERTEX
  8
0
 10
-0.2379
 20
-0.4500
 30
0.0000
  0
SEQEND
  8
0
  0
POLYLINE
  8
0
 66
1
 10
0.0000
 20
0.0000
 30
0.0000
 40
0.0500
 41
0.0500
 70
0
  0
VERTEX
  8
0
 10
-0.2379
 20
-0.4250
 30
0.0000
 42
1.0000
  0
VERTEX
  8
0
 10
-0.2379
 20
-0.4750
 30
0.0000
  0
SEQEND
  8
0
  0
POLYLINE
  8
0
 66
1
 10
0.0000
 20
0.0000
 30
0.0000
 40
0.0500
 41
0.0500
 70
0
  0
VERTEX
  8
0
 10
0.2379
 20
-0.4750
 30
0.0000
 42
1.0000
  0
VERTEX
  8
0
 10
0.2379
 20
-0.4250
 30
0.0000
  0
SEQEND
  8
0
  0
POLYLINE
  8
0
 66
1
 10
0.0000
 20
0.0000
 30
0.0000
 40
0.1000
 41
0.1000
 70
0
  0
VERTEX
  8
0
 10
-0.4500
 20
-0.2379
 30
0.0000
  0
VERTEX
  8
0
 10
-0.4500
 20
0.2379
 30
0.0000
  0
SEQEND
  8
0
  0
POLYLINE
  8
0
 66
1
 10
0.0000
 20
0.0000
 30
0.0000
 40
0.0500
 41
0.0500
 70
0
  0
VERTEX
  8
0
 10
-0.4250
 20
0.2379
 30
0.0000
 42
1.0000
  0
VERTEX
  8
0
 10
-0.4750
 20
0.2379
 30
0.0000
  0
SEQEND
  8
0
  0
POLYLINE
  8
0
 66
1
 10
0.0000
 20
0.0000
 30
0.0000
 40
0.0500
 41
0.0500
 70
0
  0
VERTEX
  8
0
 10
-0.4750
 20
-0.2379
 30
0.0000
 42
1.0000
  0
VERTEX
  8
0
 10
-0.4250
 20
-0.2379
 30
0.0000
  0
SEQEND
  8
0
  0
ENDBLK
  8
0
  0
ENDSEC
  0
SECTION
  2
ENTITIES
  0
POLYLINE
  8
20
 66
1
 10
0.0000
 20
0.0000
 30
0.0000
 40
0.1000
 41
0.1000
 70
0
  0
VERTEX
  8
20
 10
-0.6350
 20
14.4780
 30
0.0000
  0
VERTEX
  8
20
 10
-0.6350
 20
26.0350
 30
0.0000
  0
SEQEND
  8
0
  0
POLYLINE
  8
20
 66
1
 10
0.0000
 20
0.0000
 30
0.0000
 40
0.0500
 41
0.0500
 70
0
  0
VERTEX
  8
20
 10
-0.6100
 20
26.0350
 30
0.0000
 42
1.0000
  0
VERTEX
  8
20
 10
-0.6600
 20
26.0350
 30
0.0000
  0
SEQEND
  8
0
  0
POLYLINE
  8
20
 66
1
 10
0.0000
 20
0.0000
 30
0.0000
 40
0.0500
 41
0.0500
 70
0
  0
VERTEX
  8
20
 10
-0.6600
 20
14.4780
 30
0.0000
 42
1.0000
  0
VERTEX
  8
20
 10
-0.6100
 20
14.4780
 30
0.0000
  0
SEQEND
  8
0
  0
POLYLINE
  8
20
 66
1
 10
0.0000
 20
0.0000
 30
0.0000
 40
0.1000
 41
0.1000
 70
0
  0
VERTEX
  8
20
 10
1.2700
 20
27.9400
 30
0.0000
 42
0.4142
  0
VERTEX
  8
20
 10
-0.6350
 20
26.0350
 30
0.0000
  0
SEQEND
  8
0
  0
POLYLINE
  8
20
 66
1
 10
0.0000
 20
0.0000
 30
0.0000
 40
0.0500
 41
0.0500
 70
0
  0
VERTEX
  8
20
 10
1.2700
 20
27.9150
 30
0.0000
 42
1.0000
  0
VERTEX
  8
20
 10
1.2700
 20
27.9650
 30
0.0000
  0
SEQEND
  8
0
  0
POLYLINE
  8
20
 66
1
 10
0.0000
 20
0.0000
 30
0.0000
 40
0.0500
 41
0.0500
 70
0
  0
VERTEX
  8
20
 10
-0.6600
 20
26.0350
 30
0.0000
 42
1.0000
  0
VERTEX
  8
20
 10
-0.6100
 20
26.0350
 30
0.0000
  0
SEQEND
  8
0
  0
POLYLINE
  8
20
 66
1
 10
0.0000
 20
0.0000
 30
0.0000
 40
0.1000
 41
0.1000
 70
0
  0
VERTEX
  8
20
 10
1.2700
 20
27.9400
 30
0.0000
  0
VERTEX
  8
20
 10
15.2400
 20
27.9400
 30
0.0000
  0
SEQEND
  8
0
  0
POLYLINE
  8
20
 66
1
 10
0.0000
 20
0.0000
 30
0.0000
 40
0.0500
 41
0.0500
 70
0
  0
VERTEX
  8
20
 10
15.2400
 20
27.9150
 30
0.0000
 42
1.0000
  0
VERTEX
  8
20
 10
15.2400
 20
27.9650
 30
0.0000
  0
SEQEND
  8
0
  0
POLYLINE
  8
20
 66
1
 10
0.0000
 20
0.0000
 30
0.0000
 40
0.0500
 41
0.0500
 70
0
  0
VERTEX
  8
20
 10
1.2700
 20
27.9650
 30
0.0000
 42
1.0000
  0
VERTEX
  8
20
 10
1.2700
 20
27.9150
 30
0.0000
  0
SEQEND
  8
0
  0
POLYLINE
  8
20
 66
1
 10
0.0000
 20
0.0000
 30
0.0000
 40
0.1000
 41
0.1000
 70
0
  0
VERTEX
  8
20
 10
17.1450
 20
26.0350
 30
0.0000
 42
0.4142
  0
VERTEX
  8
20
 10
15.2400
 20
27.9400
 30
0.0000
  0
SEQEND
  8
0
  0
POLYLINE
  8
20
 66
1
 10
0.0000
 20
0.0000
 30
0.0000
 40
0.0500
 41
0.0500
 70
0
  0
VERTEX
  8
20
 10
17.1200
 20
26.0350
 30
0.0000
 42
1.0000
  0
VERTEX
  8
20
 10
17.1700
 20
26.0350
 30
0.0000
  0
SEQEND
  8
0
  0
POLYLINE
  8
20
 66
1
 10
0.0000
 20
0.0000
 30
0.0000
 40
0.0500
 41
0.0500
 70
0
  0
VERTEX
  8
20
 10
15.2400
 20
27.9650
 30
0.0000
 42
1.0000
  0
VERTEX
  8
20
 10
15.2400
 20
27.9150
 30
0.0000
  0
SEQEND
  8
0
  0
POLYLINE
  8
20
 66
1
 10
0.0000
 20
0.0000
 30
0.0000
 40
0.1000
 41
0.1000
 70
0
  0
VERTEX
  8
20
 10
17.1450
 20
26.0350
 30
0.0000
  0
VERTEX
  8
20
 10
17.1450
 20
14.4780
 30
0.0000
  0
SEQEND
  8
0
  0
POLYLINE
  8
20
 66
1
 10
0.0000
 20
0.0000
 30
0.0000
 40
0.0500
 41
0.0500
 70
0
  0
VERTEX
  8
20
 10
17.1200
 20
14.4780
 30
0.0000
 42
1.0000
  0
VERTEX
  8
20
 10
17.1700
 20
14.4780
 30
0.0000
  0
SEQEND
  8
0
  0
POLYLINE
  8
20
 66
1
 10
0.0000
 20
0.0000
 30
0.0000
 40
0.0500
 41
0.0500
 70
0
  0
VERTEX
  8
20
 10
17.1700
 20
26.0350
 30
0.0000
 42
1.0000
  0
VERTEX
  8
20
 10
17.1200
 20
26.0350
 30
0.0000
  0
SEQEND
  8
0
  0
POLYLINE
  8
20
 66
1
 10
0.0000
 20
0.0000
 30
0.0000
 40
0.1000
 41
0.1000
 70
0
  0
VERTEX
  8
20
 10
15.2400
 20
12.5730
 30
0.0000
 42
0.4142
  0
VERTEX
  8
20
 10
17.1450
 20
14.4780
 30
0.0000
  0
SEQEND
  8
0
  0
POLYLINE
  8
20
 66
1
 10
0.0000
 20
0.0000
 30
0.0000
 40
0.0500
 41
0.0500
 70
0
  0
VERTEX
  8
20
 10
15.2400
 20
12.5980
 30
0.0000
 42
1.0000
  0
VERTEX
  8
20
 10
15.2400
 20
12.5480
 30
0.0000
  0
SEQEND
  8
0
  0
POLYLINE
  8
20
 66
1
 10
0.0000
 20
0.0000
 30
0.0000
 40
0.0500
 41
0.0500
 70
0
  0
VERTEX
  8
20
 10
17.1700
 20
14.4780
 30
0.0000
 42
1.0000
  0
VERTEX
  8
20
 10
17.1200
 20
14.4780
 30
0.0000
  0
SEQEND
  8
0
  0
POLYLINE
  8
20
 66
1
 10
0.0000
 20
0.0000
 30
0.0000
 40
0.1000
 41
0.1000
 70
0
  0
VERTEX
  8
20
 10
15.2400
 20
12.5730
 30
0.0000
  0
VERTEX
  8
20
 10
1.2700
 20
12.5730
 30
0.0000
  0
SEQEND
  8
0
  0
POLYLINE
  8
20
 66
1
 10
0.0000
 20
0.0000
 30
0.0000
 40
0.0500
 41
0.0500
 70
0
  0
VERTEX
  8
20
 10
1.2700
 20
12.5980
 30
0.0000
 42
1.0000
  0
VERTEX
  8
20
 10
1.2700
 20
12.5480
 30
0.0000
  0
SEQEND
  8
0
  0
POLYLINE
  8
20
 66
1
 10
0.0000
 20
0.0000
 30
0.0000
 40
0.0500
 41
0.0500
 70
0
  0
VERTEX
  8
20
 10
15.2400
 20
12.5480
 30
0.0000
 42
1.0000
  0
VERTEX
  8
20
 10
15.2400
 20
12.5980
 30
0.0000
  0
SEQEND
  8
0
  0
POLYLINE
  8
20
 66
1
 10
0.0000
 20
0.0000
 30
0.0000
 40
0.1000
 41
0.1000
 70
0
  0
VERTEX
  8
20
 10
-0.6350
 20
14.4780
 30
0.0000
 42
0.4142
  0
VERTEX
  8
20
 10
1.2700
 20
12.5730
 30
0.0000
  0
SEQEND
  8
0
  0
POLYLINE
  8
20
 66
1
 10
0.0000
 20
0.0000
 30
0.0000
 40
0.0500
 41
0.0500
 70
0
  0
VERTEX
  8
20
 10
-0.6100
 20
14.4780
 30
0.0000
 42
1.0000
  0
VERTEX
  8
20
 10
-0.6600
 20
14.4780
 30
0.0000
  0
SEQEND
  8
0
  0
POLYLINE
  8
20
 66
1
 10
0.0000
 20
0.0000
 30
0.0000
 40
0.0500
 41
0.0500
 70
0
  0
VERTEX
  8
20
 10
1.2700
 20
12.5480
 30
0.0000
 42
1.0000
  0
VERTEX
  8
20
 10
1.2700
 20
12.5980
 30
0.0000
  0
SEQEND
  8
0
  0
POLYLINE
  8
21
 66
1
 10
0.0000
 20
0.0000
 30
0.0000
 40
0.1016
 41
0.1016
 70
0
  0
VERTEX
  8
21
 10
0.1778
 20
27.2549
 30
0.0000
  0
VERTEX
  8
21
 10
0.1778
 20
26.4668
 30
0.0000
  0
SEQEND
  8
0
  0
POLYLINE
  8
21
 66
1
 10
0.0000
 20
0.0000
 30
0.0000
 40
0.0508
 41
0.0508
 70
0
  0
VERTEX
  8
21
 10
0.1524
 20
26.4668
 30
0.0000
 42
1.0000
  0
VERTEX
  8
21
 10
0.2032
 20
26.4668
 30
0.0000
  0
SEQEND
  8
0
  0
POLYLINE
  8
21
 66
1
 10
0.0000
 20
0.0000
 30
0.0000
 40
0.0508
 41
0.0508
 70
0
  0
VERTEX
  8
21
 10
0.2032
 20
27.2549
 30
0.0000
 42
1.0000
  0
VERTEX
  8
21
 10
0.1524
 20
27.2549
 30
0.0000
  0
SEQEND
  8
0
  0
POLYLINE
  8
21
 66
1
 10
0.0000
 20
0.0000
 30
0.0000
 40
0.1016
 41
0.1016
 70
0
  0
VERTEX
  8
21
 10
0.1778
 20
26.4668
 30
0.0000
  0
VERTEX
  8
21
 10
0.5718
 20
26.4668
 30
0.0000
  0
SEQEND
  8
0
  0
POLYLINE
  8
21
 66
1
 10
0.0000
 20
0.0000
 30
0.0000
 40
0.0508
 41
0.0508
 70
0
  0
VERTEX
  8
21
 10
0.5718
 20
26.4414
 30
0.0000
 42
1.0000
  0
VERTEX
  8
21
 10
0.5718
 20
26.4922
 30
0.0000
  0
SEQEND
  8
0
  0
POLYLINE
  8
21
 66
1
 10
0.0000
 20
0.0000
 30
0.0000
 40
0.0508
 41
0.0508
 70
0
  0
VERTEX
  8
21
 10
0.1778
 20
26.4922
 30
0.0000
 42
1.0000
  0
VERTEX
  8
21
 10
0.1778
 20
26.4414
 30
0.0000
  0
SEQEND
  8
0
  0
POLYLINE
  8
21
 66
1
 10
0.0000
 20
0.0000
 30
0.0000
 40
0.1016
 41
0.1016
 70
0
  0
VERTEX
  8
21
 10
0.5718
 20
26.4668
 30
0.0000
  0
VERTEX
  8
21
 10
0.7032
 20
26.5981
 30
0.0000
  0
SEQEND
  8
0
  0
POLYLINE
  8
21
 66
1
 10
0.0000
 20
0.0000
 30
0.0000
 40
0.0508
 41
0.0508
 70
0
  0
VERTEX
  8
21
 10
0.7211
 20
26.5802
 30
0.0000
 42
1.0000
  0
VERTEX
  8
21
 10
0.6852
 20
26.6161
 30
0.0000
  0
SEQEND
  8
0
  0
POLYLINE
  8
21
 66
1
 10
0.0000
 20
0.0000
 30
0.0000
 40
0.0508
 41
0.0508
 70
0
  0
VERTEX
  8
21
 10
0.5539
 20
26.4848
 30
0.0000
 42
1.0000
  0
VERTEX
  8
21
 10
0.5898
 20
26.4488
 30
0.0000
  0
SEQEND
  8
0
  0
POLYLINE
  8
21
 66
1
 10
0.0000
 20
0.0000
 30
0.0000
 40
0.1016
 41
0.1016
 70
0
  0
VERTEX
  8
21
 10
0.7032
 20
26.5981
 30
0.0000
  0
VERTEX
  8
21
 10
0.7032
 20
27.1235
 30
0.0000
  0
SEQEND
  8
0
  0
POLYLINE
  8
21
 66
1
 10
0.0000
 20
0.0000
 30
0.0000
 40
0.0508
 41
0.0508
 70
0
  0
VERTEX
  8
21
 10
0.7286
 20
27.1235
 30
0.0000
 42
1.0000
  0
VERTEX
  8
21
 10
0.6778
 20
27.1235
 30
0.0000
  0
SEQEND
  8
0
  0
POLYLINE
  8
21
 66
1
 10
0.0000
 20
0.0000
 30
0.0000
 40
0.0508
 41
0.0508
 70
0
  0
VERTEX
  8
21
 10
0.6778
 20
26.5981
 30
0.0000
 42
1.0000
  0
VERTEX
  8
21
 10
0.7286
 20
26.5981
 30
0.0000
  0
SEQEND
  8
0
  0
POLYLINE
  8
21
 66
1
 10
0.0000
 20
0.0000
 30
0.0000
 40
0.1016
 41
0.1016
 70
0
  0
VERTEX
  8
21
 10
0.7032
 20
27.1235
 30
0.0000
  0
VERTEX
  8
21
 10
0.5718
 20
27.2549
 30
0.0000
  0
SEQEND
  8
0
  0
POLYLINE
  8
21
 66
1
 10
0.0000
 20
0.0000
 30
0.0000
 40
0.0508
 41
0.0508
 70
0
  0
VERTEX
  8
21
 10
0.5898
 20
27.2728
 30
0.0000
 42
1.0000
  0
VERTEX
  8
21
 10
0.5539
 20
27.2369
 30
0.0000
  0
SEQEND
  8
0
  0
POLYLINE
  8
21
 66
1
 10
0.0000
 20
0.0000
 30
0.0000
 40
0.0508
 41
0.0508
 70
0
  0
VERTEX
  8
21
 10
0.6852
 20
27.1056
 30
0.0000
 42
1.0000
  0
VERTEX
  8
21
 10
0.7211
 20
27.1415
 30
0.0000
  0
SEQEND
  8
0
  0
POLYLINE
  8
21
 66
1
 10
0.0000
 20
0.0000
 30
0.0000
 40
0.1016
 41
0.1016
 70
0
  0
VERTEX
  8
21
 10
0.5718
 20
27.2549
 30
0.0000
  0
VERTEX
  8
21
 10
0.1778
 20
27.2549
 30
0.0000
  0
SEQEND
  8
0
  0
POLYLINE
  8
21
 66
1
 10
0.0000
 20
0.0000
 30
0.0000
 40
0.0508
 41
0.0508
 70
0
  0
VERTEX
  8
21
 10
0.1778
 20
27.2803
 30
0.0000
 42
1.0000
  0
VERTEX
  8
21
 10
0.1778
 20
27.2295
 30
0.0000
  0
SEQEND
  8
0
  0
POLYLINE
  8
21
 66
1
 10
0.0000
 20
0.0000
 30
0.0000
 40
0.0508
 41
0.0508
 70
0
  0
VERTEX
  8
21
 10
0.5718
 20
27.2295
 30
0.0000
 42
1.0000
  0
VERTEX
  8
21
 10
0.5718
 20
27.2803
 30
0.0000
  0
SEQEND
  8
0
  0
POLYLINE
  8
21
 66
1
 10
0.0000
 20
0.0000
 30
0.0000
 40
0.1016
 41
0.1016
 70
0
  0
VERTEX
  8
21
 10
0.9964
 20
26.9922
 30
0.0000
  0
VERTEX
  8
21
 10
1.2591
 20
27.2549
 30
0.0000
  0
SEQEND
  8
0
  0
POLYLINE
  8
21
 66
1
 10
0.0000
 20
0.0000
 30
0.0000
 40
0.0508
 41
0.0508
 70
0
  0
VERTEX
  8
21
 10
1.2770
 20
27.2369
 30
0.0000
 42
1.0000
  0
VERTEX
  8
21
 10
1.2411
 20
27.2728
 30
0.0000
  0
SEQEND
  8
0
  0
POLYLINE
  8
21
 66
1
 10
0.0000
 20
0.0000
 30
0.0000
 40
0.0508
 41
0.0508
 70
0
  0
VERTEX
  8
21
 10
0.9784
 20
27.0101
 30
0.0000
 42
1.0000
  0
VERTEX
  8
21
 10
1.0143
 20
26.9742
 30
0.0000
  0
SEQEND
  8
0
  0
POLYLINE
  8
21
 66
1
 10
0.0000
 20
0.0000
 30
0.0000
 40
0.1016
 41
0.1016
 70
0
  0
VERTEX
  8
21
 10
1.2591
 20
27.2549
 30
0.0000
  0
VERTEX
  8
21
 10
1.2591
 20
26.4668
 30
0.0000
  0
SEQEND
  8
0
  0
POLYLINE
  8
21
 66
1
 10
0.0000
 20
0.0000
 30
0.0000
 40
0.0508
 41
0.0508
 70
0
  0
VERTEX
  8
21
 10
1.2337
 20
26.4668
 30
0.0000
 42
1.0000
  0
VERTEX
  8
21
 10
1.2845
 20
26.4668
 30
0.0000
  0
SEQEND
  8
0
  0
POLYLINE
  8
21
 66
1
 10
0.0000
 20
0.0000
 30
0.0000
 40
0.0508
 41
0.0508
 70
0
  0
VERTEX
  8
21
 10
1.2845
 20
27.2549
 30
0.0000
 42
1.0000
  0
VERTEX
  8
21
 10
1.2337
 20
27.2549
 30
0.0000
  0
SEQEND
  8
0
  0
POLYLINE
  8
21
 66
1
 10
0.0000
 20
0.0000
 30
0.0000
 40
0.1016
 41
0.1016
 70
0
  0
VERTEX
  8
21
 10
0.9964
 20
26.4668
 30
0.0000
  0
VERTEX
  8
21
 10
1.5218
 20
26.4668
 30
0.0000
  0
SEQEND
  8
0
  0
POLYLINE
  8
21
 66
1
 10
0.0000
 20
0.0000
 30
0.0000
 40
0.0508
 41
0.0508
 70
0
  0
VERTEX
  8
21
 10
1.5218
 20
26.4414
 30
0.0000
 42
1.0000
  0
VERTEX
  8
21
 10
1.5218
 20
26.4922
 30
0.0000
  0
SEQEND
  8
0
  0
POLYLINE
  8
21
 66
1
 10
0.0000
 20
0.0000
 30
0.0000
 40
0.0508
 41
0.0508
 70
0
  0
VERTEX
  8
21
 10
0.9964
 20
26.4922
 30
0.0000
 42
1.0000
  0
VERTEX
  8
21
 10
0.9964
 20
26.4414
 30
0.0000
  0
SEQEND
  8
0
  0
POLYLINE
  8
21
 66
1
 10
0.0000
 20
0.0000
 30
0.0000
 40
0.1016
 41
0.1016
 70
0
  0
VERTEX
  8
21
 10
1.8150
 20
26.9922
 30
0.0000
  0
VERTEX
  8
21
 10
2.0776
 20
27.2549
 30
0.0000
  0
SEQEND
  8
0
  0
POLYLINE
  8
21
 66
1
 10
0.0000
 20
0.0000
 30
0.0000
 40
0.0508
 41
0.0508
 70
0
  0
VERTEX
  8
21
 10
2.0956
 20
27.2369
 30
0.0000
 42
1.0000
  0
VERTEX
  8
21
 10
2.0597
 20
27.2728
 30
0.0000
  0
SEQEND
  8
0
  0
POLYLINE
  8
21
 66
1
 10
0.0000
 20
0.0000
 30
0.0000
 40
0.0508
 41
0.0508
 70
0
  0
VERTEX
  8
21
 10
1.7970
 20
27.0101
 30
0.0000
 42
1.0000
  0
VERTEX
  8
21
 10
1.8329
 20
26.9742
 30
0.0000
  0
SEQEND
  8
0
  0
POLYLINE
  8
21
 66
1
 10
0.0000
 20
0.0000
 30
0.0000
 40
0.1016
 41
0.1016
 70
0
  0
VERTEX
  8
21
 10
2.0776
 20
27.2549
 30
0.0000
  0
VERTEX
  8
21
 10
2.0776
 20
26.4668
 30
0.0000
  0
SEQEND
  8
0
  0
POLYLINE
  8
21
 66
1
 10
0.0000
 20
0.0000
 30
0.0000
 40
0.0508
 41
0.0508
 70
0
  0
VERTEX
  8
21
 10
2.0522
 20
26.4668
 30
0.0000
 42
1.0000
  0
VERTEX
  8
21
 10
2.1030
 20
26.4668
 30
0.0000
  0
SEQEND
  8
0
  0
POLYLINE
  8
21
 66
1
 10
0.0000
 20
0.0000
 30
0.0000
 40
0.0508
 41
0.0508
 70
0
  0
VERTEX
  8
21
 10
2.1030
 20
27.2549
 30
0.0000
 42
1.0000
  0
VERTEX
  8
21
 10
2.0522
 20
27.2549
 30
0.0000
  0
SEQEND
  8
0
  0
POLYLINE
  8
21
 66
1
 10
0.0000
 20
0.0000
 30
0.0000
 40
0.1016
 41
0.1016
 70
0
  0
VERTEX
  8
21
 10
1.8150
 20
26.4668
 30
0.0000
  0
VERTEX
  8
21
 10
2.3403
 20
26.4668
 30
0.0000
  0
SEQEND
  8
0
  0
POLYLINE
  8
21
 66
1
 10
0.0000
 20
0.0000
 30
0.0000
 40
0.0508
 41
0.0508
 70
0
  0
VERTEX
  8
21
 10
2.3403
 20
26.4414
 30
0.0000
 42
1.0000
  0
VERTEX
  8
21
 10
2.3403
 20
26.4922
 30
0.0000
  0
SEQEND
  8
0
  0
POLYLINE
  8
21
 66
1
 10
0.0000
 20
0.0000
 30
0.0000
 40
0.0508
 41
0.0508
 70
0
  0
VERTEX
  8
21
 10
1.8150
 20
26.4922
 30
0.0000
 42
1.0000
  0
VERTEX
  8
21
 10
1.8150
 20
26.4414
 30
0.0000
  0
SEQEND
  8
0
  0
POLYLINE
  8
21
 66
1
 10
0.0000
 20
0.0000
 30
0.0000
 40
0.1016
 41
0.1016
 70
0
  0
VERTEX
  8
21
 10
14.2748
 20
27.2549
 30
0.0000
  0
VERTEX
  8
21
 10
14.2748
 20
26.4668
 30
0.0000
  0
SEQEND
  8
0
  0
POLYLINE
  8
21
 66
1
 10
0.0000
 20
0.0000
 30
0.0000
 40
0.0508
 41
0.0508
 70
0
  0
VERTEX
  8
21
 10
14.2494
 20
26.4668
 30
0.0000
 42
1.0000
  0
VERTEX
  8
21
 10
14.3002
 20
26.4668
 30
0.0000
  0
SEQEND
  8
0
  0
POLYLINE
  8
21
 66
1
 10
0.0000
 20
0.0000
 30
0.0000
 40
0.0508
 41
0.0508
 70
0
  0
VERTEX
  8
21
 10
14.3002
 20
27.2549
 30
0.0000
 42
1.0000
  0
VERTEX
  8
21
 10
14.2494
 20
27.2549
 30
0.0000
  0
SEQEND
  8
0
  0
POLYLINE
  8
21
 66
1
 10
0.0000
 20
0.0000
 30
0.0000
 40
0.1016
 41
0.1016
 70
0
  0
VERTEX
  8
21
 10
14.2748
 20
26.4668
 30
0.0000
  0
VERTEX
  8
21
 10
14.6688
 20
26.4668
 30
0.0000
  0
SEQEND
  8
0
  0
POLYLINE
  8
21
 66
1
 10
0.0000
 20
0.0000
 30
0.0000
 40
0.0508
 41
0.0508
 70
0
  0
VERTEX
  8
21
 10
14.6688
 20
26.4414
 30
0.0000
 42
1.0000
  0
VERTEX
  8
21
 10
14.6688
 20
26.4922
 30
0.0000
  0
SEQEND
  8
0
  0
POLYLINE
  8
21
 66
1
 10
0.0000
 20
0.0000
 30
0.0000
 40
0.0508
 41
0.0508
 70
0
  0
VERTEX
  8
21
 10
14.2748
 20
26.4922
 30
0.0000
 42
1.0000
  0
VERTEX
  8
21
 10
14.2748
 20
26.4414
 30
0.0000
  0
SEQEND
  8
0
  0
POLYLINE
  8
21
 66
1
 10
0.0000
 20
0.0000
 30
0.0000
 40
0.1016
 41
0.1016
 70
0
  0
VERTEX
  8
21
 10
14.6688
 20
26.4668
 30
0.0000
  0
VERTEX
  8
21
 10
14.8002
 20
26.5981
 30
0.0000
  0
SEQEND
  8
0
  0
POLYLINE
  8
21
 66
1
 10
0.0000
 20
0.0000
 30
0.0000
 40
0.0508
 41
0.0508
 70
0
  0
VERTEX
  8
21
 10
14.8181
 20
26.5802
 30
0.0000
 42
1.0000
  0
VERTEX
  8
21
 10
14.7822
 20
26.6161
 30
0.0000
  0
SEQEND
  8
0
  0
POLYLINE
  8
21
 66
1
 10
0.0000
 20
0.0000
 30
0.0000
 40
0.0508
 41
0.0508
 70
0
  0
VERTEX
  8
21
 10
14.6509
 20
26.4848
 30
0.0000
 42
1.0000
  0
VERTEX
  8
21
 10
14.6868
 20
26.4488
 30
0.0000
  0
SEQEND
  8
0
  0
POLYLINE
  8
21
 66
1
 10
0.0000
 20
0.0000
 30
0.0000
 40
0.1016
 41
0.1016
 70
0
  0
VERTEX
  8
21
 10
14.8002
 20
26.5981
 30
0.0000
  0
VERTEX
  8
21
 10
14.8002
 20
27.1235
 30
0.0000
  0
SEQEND
  8
0
  0
POLYLINE
  8
21
 66
1
 10
0.0000
 20
0.0000
 30
0.0000
 40
0.0508
 41
0.0508
 70
0
  0
VERTEX
  8
21
 10
14.8256
 20
27.1235
 30
0.0000
 42
1.0000
  0
VERTEX
  8
21
 10
14.7748
 20
27.1235
 30
0.0000
  0
SEQEND
  8
0
  0
POLYLINE
  8
21
 66
1
 10
0.0000
 20
0.0000
 30
0.0000
 40
0.0508
 41
0.0508
 70
0
  0
VERTEX
  8
21
 10
14.7748
 20
26.5981
 30
0.0000
 42
1.0000
  0
VERTEX
  8
21
 10
14.8256
 20
26.5981
 30
0.0000
  0
SEQEND
  8
0
  0
POLYLINE
  8
21
 66
1
 10
0.0000
 20
0.0000
 30
0.0000
 40
0.1016
 41
0.1016
 70
0
  0
VERTEX
  8
21
 10
14.8002
 20
27.1235
 30
0.0000
  0
VERTEX
  8
21
 10
14.6688
 20
27.2549
 30
0.0000
  0
SEQEND
  8
0
  0
POLYLINE
  8
21
 66
1
 10
0.0000
 20
0.0000
 30
0.0000
 40
0.0508
 41
0.0508
 70
0
  0
VERTEX
  8
21
 10
14.6868
 20
27.2728
 30
0.0000
 42
1.0000
  0
VERTEX
  8
21
 10
14.6509
 20
27.2369
 30
0.0000
  0
SEQEND
  8
0
  0
POLYLINE
  8
21
 66
1
 10
0.0000
 20
0.0000
 30
0.0000
 40
0.0508
 41
0.0508
 70
0
  0
VERTEX
  8
21
 10
14.7822
 20
27.1056
 30
0.0000
 42
1.0000
  0
VERTEX
  8
21
 10
14.8181
 20
27.1415
 30
0.0000
  0
SEQEND
  8
0
  0
POLYLINE
  8
21
 66
1
 10
0.0000
 20
0.0000
 30
0.0000
 40
0.1016
 41
0.1016
 70
0
  0
VERTEX
  8
21
 10
14.6688
 20
27.2549
 30
0.0000
  0
VERTEX
  8
21
 10
14.2748
 20
27.2549
 30
0.0000
  0
SEQEND
  8
0
  0
POLYLINE
  8
21
 66
1
 10
0.0000
 20
0.0000
 30
0.0000
 40
0.0508
 41
0.0508
 70
0
  0
VERTEX
  8
21
 10
14.2748
 20
27.2803
 30
0.0000
 42
1.0000
  0
VERTEX
  8
21
 10
14.2748
 20
27.2295
 30
0.0000
  0
SEQEND
  8
0
  0
POLYLINE
  8
21
 66
1
 10
0.0000
 20
0.0000
 30
0.0000
 40
0.0508
 41
0.0508
 70
0
  0
VERTEX
  8
21
 10
14.6688
 20
27.2295
 30
0.0000
 42
1.0000
  0
VERTEX
  8
21
 10
14.6688
 20
27.2803
 30
0.0000
  0
SEQEND
  8
0
  0
POLYLINE
  8
21
 66
1
 10
0.0000
 20
0.0000
 30
0.0000
 40
0.1016
 41
0.1016
 70
0
  0
VERTEX
  8
21
 10
15.0934
 20
26.9922
 30
0.0000
  0
VERTEX
  8
21
 10
15.3561
 20
27.2549
 30
0.0000
  0
SEQEND
  8
0
  0
POLYLINE
  8
21
 66
1
 10
0.0000
 20
0.0000
 30
0.0000
 40
0.0508
 41
0.0508
 70
0
  0
VERTEX
  8
21
 10
15.3740
 20
27.2369
 30
0.0000
 42
1.0000
  0
VERTEX
  8
21
 10
15.3381
 20
27.2728
 30
0.0000
  0
SEQEND
  8
0
  0
POLYLINE
  8
21
 66
1
 10
0.0000
 20
0.0000
 30
0.0000
 40
0.0508
 41
0.0508
 70
0
  0
VERTEX
  8
21
 10
15.0754
 20
27.0101
 30
0.0000
 42
1.0000
  0
VERTEX
  8
21
 10
15.1113
 20
26.9742
 30
0.0000
  0
SEQEND
  8
0
  0
POLYLINE
  8
21
 66
1
 10
0.0000
 20
0.0000
 30
0.0000
 40
0.1016
 41
0.1016
 70
0
  0
VERTEX
  8
21
 10
15.3561
 20
27.2549
 30
0.0000
  0
VERTEX
  8
21
 10
15.3561
 20
26.4668
 30
0.0000
  0
SEQEND
  8
0
  0
POLYLINE
  8
21
 66
1
 10
0.0000
 20
0.0000
 30
0.0000
 40
0.0508
 41
0.0508
 70
0
  0
VERTEX
  8
21
 10
15.3307
 20
26.4668
 30
0.0000
 42
1.0000
  0
VERTEX
  8
21
 10
15.3815
 20
26.4668
 30
0.0000
  0
SEQEND
  8
0
  0
POLYLINE
  8
21
 66
1
 10
0.0000
 20
0.0000
 30
0.0000
 40
0.0508
 41
0.0508
 70
0
  0
VERTEX
  8
21
 10
15.3815
 20
27.2549
 30
0.0000
 42
1.0000
  0
VERTEX
  8
21
 10
15.3307
 20
27.2549
 30
0.0000
  0
SEQEND
  8
0
  0
POLYLINE
  8
21
 66
1
 10
0.0000
 20
0.0000
 30
0.0000
 40
0.1016
 41
0.1016
 70
0
  0
VERTEX
  8
21
 10
15.0934
 20
26.4668
 30
0.0000
  0
VERTEX
  8
21
 10
15.6188
 20
26.4668
 30
0.0000
  0
SEQEND
  8
0
  0
POLYLINE
  8
21
 66
1
 10
0.0000
 20
0.0000
 30
0.0000
 40
0.0508
 41
0.0508
 70
0
  0
VERTEX
  8
21
 10
15.6188
 20
26.4414
 30
0.0000
 42
1.0000
  0
VERTEX
  8
21
 10
15.6188
 20
26.4922
 30
0.0000
  0
SEQEND
  8
0
  0
POLYLINE
  8
21
 66
1
 10
0.0000
 20
0.0000
 30
0.0000
 40
0.0508
 41
0.0508
 70
0
  0
VERTEX
  8
21
 10
15.0934
 20
26.4922
 30
0.0000
 42
1.0000
  0
VERTEX
  8
21
 10
15.0934
 20
26.4414
 30
0.0000
  0
SEQEND
  8
0
  0
POLYLINE
  8
21
 66
1
 10
0.0000
 20
0.0000
 30
0.0000
 40
0.1016
 41
0.1016
 70
0
  0
VERTEX
  8
21
 10
16.4373
 20
26.4668
 30
0.0000
  0
VERTEX
  8
21
 10
15.9120
 20
26.4668
 30
0.0000
  0
SEQEND
  8
0
  0
POLYLINE
  8
21
 66
1
 10
0.0000
 20
0.0000
 30
0.0000
 40
0.0508
 41
0.0508
 70
0
  0
VERTEX
  8
21
 10
15.9120
 20
26.4922
 30
0.0000
 42
1.0000
  0
VERTEX
  8
21
 10
15.9120
 20
26.4414
 30
0.0000
  0
SEQEND
  8
0
  0
POLYLINE
  8
21
 66
1
 10
0.0000
 20
0.0000
 30
0.0000
 40
0.0508
 41
0.0508
 70
0
  0
VERTEX
  8
21
 10
16.4373
 20
26.4414
 30
0.0000
 42
1.0000
  0
VERTEX
  8
21
 10
16.4373
 20
26.4922
 30
0.0000
  0
SEQEND
  8
0
  0
POLYLINE
  8
21
 66
1
 10
0.0000
 20
0.0000
 30
0.0000
 40
0.1016
 41
0.1016
 70
0
  0
VERTEX
  8
21
 10
15.9120
 20
26.4668
 30
0.0000
  0
VERTEX
  8
21
 10
16.4373
 20
26.9922
 30
0.0000
  0
SEQEND
  8
0
  0
POLYLINE
  8
21
 66
1
 10
0.0000
 20
0.0000
 30
0.0000
 40
0.0508
 41
0.0508
 70
0
  0
VERTEX
  8
21
 10
16.4553
 20
26.9742
 30
0.0000
 42
1.0000
  0
VERTEX
  8
21
 10
16.4194
 20
27.0101
 30
0.0000
  0
SEQEND
  8
0
  0
POLYLINE
  8
21
 66
1
 10
0.0000
 20
0.0000
 30
0.0000
 40
0.0508
 41
0.0508
 70
0
  0
VERTEX
  8
21
 10
15.8940
 20
26.4848
 30
0.0000
 42
1.0000
  0
VERTEX
  8
21
 10
15.9299
 20
26.4488
 30
0.0000
  0
SEQEND
  8
0
  0
POLYLINE
  8
21
 66
1
 10
0.0000
 20
0.0000
 30
0.0000
 40
0.1016
 41
0.1016
 70
0
  0
VERTEX
  8
21
 10
16.4373
 20
26.9922
 30
0.0000
  0
VERTEX
  8
21
 10
16.4373
 20
27.1235
 30
0.0000
  0
SEQEND
  8
0
  0
POLYLINE
  8
21
 66
1
 10
0.0000
 20
0.0000
 30
0.0000
 40
0.0508
 41
0.0508
 70
0
  0
VERTEX
  8
21
 10
16.4627
 20
27.1235
 30
0.0000
 42
1.0000
  0
VERTEX
  8
21
 10
16.4119
 20
27.1235
 30
0.0000
  0
SEQEND
  8
0
  0
POLYLINE
  8
21
 66
1
 10
0.0000
 20
0.0000
 30
0.0000
 40
0.0508
 41
0.0508
 70
0
  0
VERTEX
  8
21
 10
16.4119
 20
26.9922
 30
0.0000
 42
1.0000
  0
VERTEX
  8
21
 10
16.4627
 20
26.9922
 30
0.0000
  0
SEQEND
  8
0
  0
POLYLINE
  8
21
 66
1
 10
0.0000
 20
0.0000
 30
0.0000
 40
0.1016
 41
0.1016
 70
0
  0
VERTEX
  8
21
 10
16.4373
 20
27.1235
 30
0.0000
  0
VERTEX
  8
21
 10
16.3060
 20
27.2549
 30
0.0000
  0
SEQEND
  8
0
  0
POLYLINE
  8
21
 66
1
 10
0.0000
 20
0.0000
 30
0.0000
 40
0.0508
 41
0.0508
 70
0
  0
VERTEX
  8
21
 10
16.3240
 20
27.2728
 30
0.0000
 42
1.0000
  0
VERTEX
  8
21
 10
16.2880
 20
27.2369
 30
0.0000
  0
SEQEND
  8
0
  0
POLYLINE
  8
21
 66
1
 10
0.0000
 20
0.0000
 30
0.0000
 40
0.0508
 41
0.0508
 70
0
  0
VERTEX
  8
21
 10
16.4194
 20
27.1056
 30
0.0000
 42
1.0000
  0
VERTEX
  8
21
 10
16.4553
 20
27.1415
 30
0.0000
  0
SEQEND
  8
0
  0
POLYLINE
  8
21
 66
1
 10
0.0000
 20
0.0000
 30
0.0000
 40
0.1016
 41
0.1016
 70
0
  0
VERTEX
  8
21
 10
16.3060
 20
27.2549
 30
0.0000
  0
VERTEX
  8
21
 10
16.0433
 20
27.2549
 30
0.0000
  0
SEQEND
  8
0
  0
POLYLINE
  8
21
 66
1
 10
0.0000
 20
0.0000
 30
0.0000
 40
0.0508
 41
0.0508
 70
0
  0
VERTEX
  8
21
 10
16.0433
 20
27.2803
 30
0.0000
 42
1.0000
  0
VERTEX
  8
21
 10
16.0433
 20
27.2295
 30
0.0000
  0
SEQEND
  8
0
  0
POLYLINE
  8
21
 66
1
 10
0.0000
 20
0.0000
 30
0.0000
 40
0.0508
 41
0.0508
 70
0
  0
VERTEX
  8
21
 10
16.3060
 20
27.2295
 30
0.0000
 42
1.0000
  0
VERTEX
  8
21
 10
16.3060
 20
27.2803
 30
0.0000
  0
SEQEND
  8
0
  0
POLYLINE
  8
21
 66
1
 10
0.0000
 20
0.0000
 30
0.0000
 40
0.1016
 41
0.1016
 70
0
  0
VERTEX
  8
21
 10
16.0433
 20
27.2549
 30
0.0000
  0
VERTEX
  8
21
 10
15.9120
 20
27.1235
 30
0.0000
  0
SEQEND
  8
0
  0
POLYLINE
  8
21
 66
1
 10
0.0000
 20
0.0000
 30
0.0000
 40
0.0508
 41
0.0508
 70
0
  0
VERTEX
  8
21
 10
15.8940
 20
27.1415
 30
0.0000
 42
1.0000
  0
VERTEX
  8
21
 10
15.9299
 20
27.1056
 30
0.0000
  0
SEQEND
  8
0
  0
POLYLINE
  8
21
 66
1
 10
0.0000
 20
0.0000
 30
0.0000
 40
0.0508
 41
0.0508
 70
0
  0
VERTEX
  8
21
 10
16.0613
 20
27.2369
 30
0.0000
 42
1.0000
  0
VERTEX
  8
21
 10
16.0253
 20
27.2728
 30
0.0000
  0
SEQEND
  8
0
  0
POLYLINE
  8
21
 66
1
 10
0.0000
 20
0.0000
 30
0.0000
 40
0.1016
 41
0.1016
 70
0
  0
VERTEX
  8
21
 10
1.0668
 20
18.5928
 30
0.0000
  0
VERTEX
  8
21
 10
1.0668
 20
19.2538
 30
0.0000
  0
SEQEND
  8
0
  0
POLYLINE
  8
21
 66
1
 10
0.0000
 20
0.0000
 30
0.0000
 40
0.0508
 41
0.0508
 70
0
  0
VERTEX
  8
21
 10
1.0922
 20
19.2538
 30
0.0000
 42
1.0000
  0
VERTEX
  8
21
 10
1.0414
 20
19.2538
 30
0.0000
  0
SEQEND
  8
0
  0
POLYLINE
  8
21
 66
1
 10
0.0000
 20
0.0000
 30
0.0000
 40
0.0508
 41
0.0508
 70
0
  0
VERTEX
  8
21
 10
1.0414
 20
18.5928
 30
0.0000
 42
1.0000
  0
VERTEX
  8
21
 10
1.0922
 20
18.5928
 30
0.0000
  0
SEQEND
  8
0
  0
POLYLINE
  8
21
 66
1
 10
0.0000
 20
0.0000
 30
0.0000
 40
0.1016
 41
0.1016
 70
0
  0
VERTEX
  8
21
 10
1.0668
 20
19.2538
 30
0.0000
  0
VERTEX
  8
21
 10
1.2871
 20
19.0334
 30
0.0000
  0
SEQEND
  8
0
  0
POLYLINE
  8
21
 66
1
 10
0.0000
 20
0.0000
 30
0.0000
 40
0.0508
 41
0.0508
 70
0
  0
VERTEX
  8
21
 10
1.2692
 20
19.0155
 30
0.0000
 42
1.0000
  0
VERTEX
  8
21
 10
1.3051
 20
19.0514
 30
0.0000
  0
SEQEND
  8
0
  0
POLYLINE
  8
21
 66
1
 10
0.0000
 20
0.0000
 30
0.0000
 40
0.0508
 41
0.0508
 70
0
  0
VERTEX
  8
21
 10
1.0848
 20
19.2717
 30
0.0000
 42
1.0000
  0
VERTEX
  8
21
 10
1.0488
 20
19.2358
 30
0.0000
  0
SEQEND
  8
0
  0
POLYLINE
  8
21
 66
1
 10
0.0000
 20
0.0000
 30
0.0000
 40
0.1016
 41
0.1016
 70
0
  0
VERTEX
  8
21
 10
1.2871
 20
19.0334
 30
0.0000
  0
VERTEX
  8
21
 10
1.5074
 20
19.2538
 30
0.0000
  0
SEQEND
  8
0
  0
POLYLINE
  8
21
 66
1
 10
0.0000
 20
0.0000
 30
0.0000
 40
0.0508
 41
0.0508
 70
0
  0
VERTEX
  8
21
 10
1.5254
 20
19.2358
 30
0.0000
 42
1.0000
  0
VERTEX
  8
21
 10
1.4895
 20
19.2717
 30
0.0000
  0
SEQEND
  8
0
  0
POLYLINE
  8
21
 66
1
 10
0.0000
 20
0.0000
 30
0.0000
 40
0.0508
 41
0.0508
 70
0
  0
VERTEX
  8
21
 10
1.2692
 20
19.0514
 30
0.0000
 42
1.0000
  0
VERTEX
  8
21
 10
1.3051
 20
19.0155
 30
0.0000
  0
SEQEND
  8
0
  0
POLYLINE
  8
21
 66
1
 10
0.0000
 20
0.0000
 30
0.0000
 40
0.1016
 41
0.1016
 70
0
  0
VERTEX
  8
21
 10
1.5074
 20
19.2538
 30
0.0000
  0
VERTEX
  8
21
 10
1.5074
 20
18.5928
 30
0.0000
  0
SEQEND
  8
0
  0
POLYLINE
  8
21
 66
1
 10
0.0000
 20
0.0000
 30
0.0000
 40
0.0508
 41
0.0508
 70
0
  0
VERTEX
  8
21
 10
1.4820
 20
18.5928
 30
0.0000
 42
1.0000
  0
VERTEX
  8
21
 10
1.5328
 20
18.5928
 30
0.0000
  0
SEQEND
  8
0
  0
POLYLINE
  8
21
 66
1
 10
0.0000
 20
0.0000
 30
0.0000
 40
0.0508
 41
0.0508
 70
0
  0
VERTEX
  8
21
 10
1.5328
 20
19.2538
 30
0.0000
 42
1.0000
  0
VERTEX
  8
21
 10
1.4820
 20
19.2538
 30
0.0000
  0
SEQEND
  8
0
  0
POLYLINE
  8
21
 66
1
 10
0.0000
 20
0.0000
 30
0.0000
 40
0.1016
 41
0.1016
 70
0
  0
VERTEX
  8
21
 10
1.7684
 20
18.5928
 30
0.0000
  0
VERTEX
  8
21
 10
1.9888
 20
18.5928
 30
0.0000
  0
SEQEND
  8
0
  0
POLYLINE
  8
21
 66
1
 10
0.0000
 20
0.0000
 30
0.0000
 40
0.0508
 41
0.0508
 70
0
  0
VERTEX
  8
21
 10
1.9888
 20
18.5674
 30
0.0000
 42
1.0000
  0
VERTEX
  8
21
 10
1.9888
 20
18.6182
 30
0.0000
  0
SEQEND
  8
0
  0
POLYLINE
  8
21
 66
1
 10
0.0000
 20
0.0000
 30
0.0000
 40
0.0508
 41
0.0508
 70
0
  0
VERTEX
  8
21
 10
1.7684
 20
18.6182
 30
0.0000
 42
1.0000
  0
VERTEX
  8
21
 10
1.7684
 20
18.5674
 30
0.0000
  0
SEQEND
  8
0
  0
POLYLINE
  8
21
 66
1
 10
0.0000
 20
0.0000
 30
0.0000
 40
0.1016
 41
0.1016
 70
0
  0
VERTEX
  8
21
 10
1.8786
 20
18.5928
 30
0.0000
  0
VERTEX
  8
21
 10
1.8786
 20
19.2538
 30
0.0000
  0
SEQEND
  8
0
  0
POLYLINE
  8
21
 66
1
 10
0.0000
 20
0.0000
 30
0.0000
 40
0.0508
 41
0.0508
 70
0
  0
VERTEX
  8
21
 10
1.9040
 20
19.2538
 30
0.0000
 42
1.0000
  0
VERTEX
  8
21
 10
1.8532
 20
19.2538
 30
0.0000
  0
SEQEND
  8
0
  0
POLYLINE
  8
21
 66
1
 10
0.0000
 20
0.0000
 30
0.0000
 40
0.0508
 41
0.0508
 70
0
  0
VERTEX
  8
21
 10
1.8532
 20
18.5928
 30
0.0000
 42
1.0000
  0
VERTEX
  8
21
 10
1.9040
 20
18.5928
 30
0.0000
  0
SEQEND
  8
0
  0
POLYLINE
  8
21
 66
1
 10
0.0000
 20
0.0000
 30
0.0000
 40
0.1016
 41
0.1016
 70
0
  0
VERTEX
  8
21
 10
1.7684
 20
19.2538
 30
0.0000
  0
VERTEX
  8
21
 10
1.9888
 20
19.2538
 30
0.0000
  0
SEQEND
  8
0
  0
POLYLINE
  8
21
 66
1
 10
0.0000
 20
0.0000
 30
0.0000
 40
0.0508
 41
0.0508
 70
0
  0
VERTEX
  8
21
 10
1.9888
 20
19.2284
 30
0.0000
 42
1.0000
  0
VERTEX
  8
21
 10
1.9888
 20
19.2792
 30
0.0000
  0
SEQEND
  8
0
  0
POLYLINE
  8
21
 66
1
 10
0.0000
 20
0.0000
 30
0.0000
 40
0.0508
 41
0.0508
 70
0
  0
VERTEX
  8
21
 10
1.7684
 20
19.2792
 30
0.0000
 42
1.0000
  0
VERTEX
  8
21
 10
1.7684
 20
19.2284
 30
0.0000
  0
SEQEND
  8
0
  0
POLYLINE
  8
21
 66
1
 10
0.0000
 20
0.0000
 30
0.0000
 40
0.1016
 41
0.1016
 70
0
  0
VERTEX
  8
21
 10
2.6768
 20
19.1436
 30
0.0000
  0
VERTEX
  8
21
 10
2.5667
 20
19.2538
 30
0.0000
  0
SEQEND
  8
0
  0
POLYLINE
  8
21
 66
1
 10
0.0000
 20
0.0000
 30
0.0000
 40
0.0508
 41
0.0508
 70
0
  0
VERTEX
  8
21
 10
2.5846
 20
19.2717
 30
0.0000
 42
1.0000
  0
VERTEX
  8
21
 10
2.5487
 20
19.2358
 30
0.0000
  0
SEQEND
  8
0
  0
POLYLINE
  8
21
 66
1
 10
0.0000
 20
0.0000
 30
0.0000
 40
0.0508
 41
0.0508
 70
0
  0
VERTEX
  8
21
 10
2.6589
 20
19.1256
 30
0.0000
 42
1.0000
  0
VERTEX
  8
21
 10
2.6948
 20
19.1616
 30
0.0000
  0
SEQEND
  8
0
  0
POLYLINE
  8
21
 66
1
 10
0.0000
 20
0.0000
 30
0.0000
 40
0.1016
 41
0.1016
 70
0
  0
VERTEX
  8
21
 10
2.5667
 20
19.2538
 30
0.0000
  0
VERTEX
  8
21
 10
2.3464
 20
19.2538
 30
0.0000
  0
SEQEND
  8
0
  0
POLYLINE
  8
21
 66
1
 10
0.0000
 20
0.0000
 30
0.0000
 40
0.0508
 41
0.0508
 70
0
  0
VERTEX
  8
21
 10
2.3464
 20
19.2792
 30
0.0000
 42
1.0000
  0
VERTEX
  8
21
 10
2.3464
 20
19.2284
 30
0.0000
  0
SEQEND
  8
0
  0
POLYLINE
  8
21
 66
1
 10
0.0000
 20
0.0000
 30
0.0000
 40
0.0508
 41
0.0508
 70
0
  0
VERTEX
  8
21
 10
2.5667
 20
19.2284
 30
0.0000
 42
1.0000
  0
VERTEX
  8
21
 10
2.5667
 20
19.2792
 30
0.0000
  0
SEQEND
  8
0
  0
POLYLINE
  8
21
 66
1
 10
0.0000
 20
0.0000
 30
0.0000
 40
0.1016
 41
0.1016
 70
0
  0
VERTEX
  8
21
 10
2.3464
 20
19.2538
 30
0.0000
  0
VERTEX
  8
21
 10
2.2362
 20
19.1436
 30
0.0000
  0
SEQEND
  8
0
  0
POLYLINE
  8
21
 66
1
 10
0.0000
 20
0.0000
 30
0.0000
 40
0.0508
 41
0.0508
 70
0
  0
VERTEX
  8
21
 10
2.2182
 20
19.1616
 30
0.0000
 42
1.0000
  0
VERTEX
  8
21
 10
2.2542
 20
19.1256
 30
0.0000
  0
SEQEND
  8
0
  0
POLYLINE
  8
21
 66
1
 10
0.0000
 20
0.0000
 30
0.0000
 40
0.0508
 41
0.0508
 70
0
  0
VERTEX
  8
21
 10
2.3643
 20
19.2358
 30
0.0000
 42
1.0000
  0
VERTEX
  8
21
 10
2.3284
 20
19.2717
 30
0.0000
  0
SEQEND
  8
0
  0
POLYLINE
  8
21
 66
1
 10
0.0000
 20
0.0000
 30
0.0000
 40
0.1016
 41
0.1016
 70
0
  0
VERTEX
  8
21
 10
2.2362
 20
19.1436
 30
0.0000
  0
VERTEX
  8
21
 10
2.2362
 20
18.7030
 30
0.0000
  0
SEQEND
  8
0
  0
POLYLINE
  8
21
 66
1
 10
0.0000
 20
0.0000
 30
0.0000
 40
0.0508
 41
0.0508
 70
0
  0
VERTEX
  8
21
 10
2.2108
 20
18.7030
 30
0.0000
 42
1.0000
  0
VERTEX
  8
21
 10
2.2616
 20
18.7030
 30
0.0000
  0
SEQEND
  8
0
  0
POLYLINE
  8
21
 66
1
 10
0.0000
 20
0.0000
 30
0.0000
 40
0.0508
 41
0.0508
 70
0
  0
VERTEX
  8
21
 10
2.2616
 20
19.1436
 30
0.0000
 42
1.0000
  0
VERTEX
  8
21
 10
2.2108
 20
19.1436
 30
0.0000
  0
SEQEND
  8
0
  0
POLYLINE
  8
21
 66
1
 10
0.0000
 20
0.0000
 30
0.0000
 40
0.1016
 41
0.1016
 70
0
  0
VERTEX
  8
21
 10
2.2362
 20
18.7030
 30
0.0000
  0
VERTEX
  8
21
 10
2.3464
 20
18.5928
 30
0.0000
  0
SEQEND
  8
0
  0
POLYLINE
  8
21
 66
1
 10
0.0000
 20
0.0000
 30
0.0000
 40
0.0508
 41
0.0508
 70
0
  0
VERTEX
  8
21
 10
2.3284
 20
18.5748
 30
0.0000
 42
1.0000
  0
VERTEX
  8
21
 10
2.3643
 20
18.6108
 30
0.0000
  0
SEQEND
  8
0
  0
POLYLINE
  8
21
 66
1
 10
0.0000
 20
0.0000
 30
0.0000
 40
0.0508
 41
0.0508
 70
0
  0
VERTEX
  8
21
 10
2.2542
 20
18.7209
 30
0.0000
 42
1.0000
  0
VERTEX
  8
21
 10
2.2182
 20
18.6850
 30
0.0000
  0
SEQEND
  8
0
  0
POLYLINE
  8
21
 66
1
 10
0.0000
 20
0.0000
 30
0.0000
 40
0.1016
 41
0.1016
 70
0
  0
VERTEX
  8
21
 10
2.3464
 20
18.5928
 30
0.0000
  0
VERTEX
  8
21
 10
2.5667
 20
18.5928
 30
0.0000
  0
SEQEND
  8
0
  0
POLYLINE
  8
21
 66
1
 10
0.0000
 20
0.0000
 30
0.0000
 40
0.0508
 41
0.0508
 70
0
  0
VERTEX
  8
21
 10
2.5667
 20
18.5674
 30
0.0000
 42
1.0000
  0
VERTEX
  8
21
 10
2.5667
 20
18.6182
 30
0.0000
  0
SEQEND
  8
0
  0
POLYLINE
  8
21
 66
1
 10
0.0000
 20
0.0000
 30
0.0000
 40
0.0508
 41
0.0508
 70
0
  0
VERTEX
  8
21
 10
2.3464
 20
18.6182
 30
0.0000
 42
1.0000
  0
VERTEX
  8
21
 10
2.3464
 20
18.5674
 30
0.0000
  0
SEQEND
  8
0
  0
POLYLINE
  8
21
 66
1
 10
0.0000
 20
0.0000
 30
0.0000
 40
0.1016
 41
0.1016
 70
0
  0
VERTEX
  8
21
 10
2.5667
 20
18.5928
 30
0.0000
  0
VERTEX
  8
21
 10
2.6768
 20
18.7030
 30
0.0000
  0
SEQEND
  8
0
  0
POLYLINE
  8
21
 66
1
 10
0.0000
 20
0.0000
 30
0.0000
 40
0.0508
 41
0.0508
 70
0
  0
VERTEX
  8
21
 10
2.6948
 20
18.6850
 30
0.0000
 42
1.0000
  0
VERTEX
  8
21
 10
2.6589
 20
18.7209
 30
0.0000
  0
SEQEND
  8
0
  0
POLYLINE
  8
21
 66
1
 10
0.0000
 20
0.0000
 30
0.0000
 40
0.0508
 41
0.0508
 70
0
  0
VERTEX
  8
21
 10
2.5487
 20
18.6108
 30
0.0000
 42
1.0000
  0
VERTEX
  8
21
 10
2.5846
 20
18.5748
 30
0.0000
  0
SEQEND
  8
0
  0
POLYLINE
  8
21
 66
1
 10
0.0000
 20
0.0000
 30
0.0000
 40
0.0762
 41
0.0762
 70
0
  0
VERTEX
  8
21
 10
5.0165
 20
19.7485
 30
0.0000
  0
VERTEX
  8
21
 10
5.9055
 20
19.7485
 30
0.0000
  0
SEQEND
  8
0
  0
POLYLINE
  8
21
 66
1
 10
0.0000
 20
0.0000
 30
0.0000
 40
0.0381
 41
0.0381
 70
0
  0
VERTEX
  8
21
 10
5.9055
 20
19.7294
 30
0.0000
 42
1.0000
  0
VERTEX
  8
21
 10
5.9055
 20
19.7675
 30
0.0000
  0
SEQEND
  8
0
  0
POLYLINE
  8
21
 66
1
 10
0.0000
 20
0.0000
 30
0.0000
 40
0.0381
 41
0.0381
 70
0
  0
VERTEX
  8
21
 10
5.0165
 20
19.7675
 30
0.0000
 42
1.0000
  0
VERTEX
  8
21
 10
5.0165
 20
19.7294
 30
0.0000
  0
SEQEND
  8
0
  0
POLYLINE
  8
21
 66
1
 10
0.0000
 20
0.0000
 30
0.0000
 40
0.0762
 41
0.0762
 70
0
  0
VERTEX
  8
21
 10
6.0325
 20
19.6215
 30
0.0000
 42
0.4142
  0
VERTEX
  8
21
 10
5.9055
 20
19.7485
 30
0.0000
  0
SEQEND
  8
0
  0
POLYLINE
  8
21
 66
1
 10
0.0000
 20
0.0000
 30
0.0000
 40
0.0381
 41
0.0381
 70
0
  0
VERTEX
  8
21
 10
6.0135
 20
19.6215
 30
0.0000
 42
1.0000
  0
VERTEX
  8
21
 10
6.0516
 20
19.6215
 30
0.0000
  0
SEQEND
  8
0
  0
POLYLINE
  8
21
 66
1
 10
0.0000
 20
0.0000
 30
0.0000
 40
0.0381
 41
0.0381
 70
0
  0
VERTEX
  8
21
 10
5.9055
 20
19.7675
 30
0.0000
 42
1.0000
  0
VERTEX
  8
21
 10
5.9055
 20
19.7294
 30
0.0000
  0
SEQEND
  8
0
  0
POLYLINE
  8
21
 66
1
 10
0.0000
 20
0.0000
 30
0.0000
 40
0.0762
 41
0.0762
 70
0
  0
VERTEX
  8
21
 10
6.0325
 20
19.6215
 30
0.0000
  0
VERTEX
  8
21
 10
6.0325
 20
19.2405
 30
0.0000
  0
SEQEND
  8
0
  0
POLYLINE
  8
21
 66
1
 10
0.0000
 20
0.0000
 30
0.0000
 40
0.0381
 41
0.0381
 70
0
  0
VERTEX
  8
21
 10
6.0135
 20
19.2405
 30
0.0000
 42
1.0000
  0
VERTEX
  8
21
 10
6.0516
 20
19.2405
 30
0.0000
  0
SEQEND
  8
0
  0
POLYLINE
  8
21
 66
1
 10
0.0000
 20
0.0000
 30
0.0000
 40
0.0381
 41
0.0381
 70
0
  0
VERTEX
  8
21
 10
6.0516
 20
19.6215
 30
0.0000
 42
1.0000
  0
VERTEX
  8
21
 10
6.0135
 20
19.6215
 30
0.0000
  0
SEQEND
  8
0
  0
POLYLINE
  8
21
 66
1
 10
0.0000
 20
0.0000
 30
0.0000
 40
0.0762
 41
0.0762
 70
0
  0
VERTEX
  8
21
 10
5.9055
 20
19.1135
 30
0.0000
 42
0.4142
  0
VERTEX
  8
21
 10
6.0325
 20
19.2405
 30
0.0000
  0
SEQEND
  8
0
  0
POLYLINE
  8
21
 66
1
 10
0.0000
 20
0.0000
 30
0.0000
 40
0.0381
 41
0.0381
 70
0
  0
VERTEX
  8
21
 10
5.9055
 20
19.1326
 30
0.0000
 42
1.0000
  0
VERTEX
  8
21
 10
5.9055
 20
19.0945
 30
0.0000
  0
SEQEND
  8
0
  0
POLYLINE
  8
21
 66
1
 10
0.0000
 20
0.0000
 30
0.0000
 40
0.0381
 41
0.0381
 70
0
  0
VERTEX
  8
21
 10
6.0516
 20
19.2405
 30
0.0000
 42
1.0000
  0
VERTEX
  8
21
 10
6.0135
 20
19.2405
 30
0.0000
  0
SEQEND
  8
0
  0
POLYLINE
  8
21
 66
1
 10
0.0000
 20
0.0000
 30
0.0000
 40
0.0762
 41
0.0762
 70
0
  0
VERTEX
  8
21
 10
5.9055
 20
19.1135
 30
0.0000
  0
VERTEX
  8
21
 10
5.0165
 20
19.1135
 30
0.0000
  0
SEQEND
  8
0
  0
POLYLINE
  8
21
 66
1
 10
0.0000
 20
0.0000
 30
0.0000
 40
0.0381
 41
0.0381
 70
0
  0
VERTEX
  8
21
 10
5.0165
 20
19.1326
 30
0.0000
 42
1.0000
  0
VERTEX
  8
21
 10
5.0165
 20
19.0945
 30
0.0000
  0
SEQEND
  8
0
  0
POLYLINE
  8
21
 66
1
 10
0.0000
 20
0.0000
 30
0.0000
 40
0.0381
 41
0.0381
 70
0
  0
VERTEX
  8
21
 10
5.9055
 20
19.0945
 30
0.0000
 42
1.0000
  0
VERTEX
  8
21
 10
5.9055
 20
19.1326
 30
0.0000
  0
SEQEND
  8
0
  0
POLYLINE
  8
21
 66
1
 10
0.0000
 20
0.0000
 30
0.0000
 40
0.0762
 41
0.0762
 70
0
  0
VERTEX
  8
21
 10
4.8895
 20
19.2405
 30
0.0000
 42
0.4142
  0
VERTEX
  8
21
 10
5.0165
 20
19.1135
 30
0.0000
  0
SEQEND
  8
0
  0
POLYLINE
  8
21
 66
1
 10
0.0000
 20
0.0000
 30
0.0000
 40
0.0381
 41
0.0381
 70
0
  0
VERTEX
  8
21
 10
4.9085
 20
19.2405
 30
0.0000
 42
1.0000
  0
VERTEX
  8
21
 10
4.8704
 20
19.2405
 30
0.0000
  0
SEQEND
  8
0
  0
POLYLINE
  8
21
 66
1
 10
0.0000
 20
0.0000
 30
0.0000
 40
0.0381
 41
0.0381
 70
0
  0
VERTEX
  8
21
 10
5.0165
 20
19.0945
 30
0.0000
 42
1.0000
  0
VERTEX
  8
21
 10
5.0165
 20
19.1326
 30
0.0000
  0
SEQEND
  8
0
  0
POLYLINE
  8
21
 66
1
 10
0.0000
 20
0.0000
 30
0.0000
 40
0.0762
 41
0.0762
 70
0
  0
VERTEX
  8
21
 10
4.8895
 20
19.2405
 30
0.0000
  0
VERTEX
  8
21
 10
4.8895
 20
19.6215
 30
0.0000
  0
SEQEND
  8
0
  0
POLYLINE
  8
21
 66
1
 10
0.0000
 20
0.0000
 30
0.0000
 40
0.0381
 41
0.0381
 70
0
  0
VERTEX
  8
21
 10
4.9085
 20
19.6215
 30
0.0000
 42
1.0000
  0
VERTEX
  8
21
 10
4.8704
 20
19.6215
 30
0.0000
  0
SEQEND
  8
0
  0
POLYLINE
  8
21
 66
1
 10
0.0000
 20
0.0000
 30
0.0000
 40
0.0381
 41
0.0381
 70
0
  0
VERTEX
  8
21
 10
4.8704
 20
19.2405
 30
0.0000
 42
1.0000
  0
VERTEX
  8
21
 10
4.9085
 20
19.2405
 30
0.0000
  0
SEQEND
  8
0
  0
POLYLINE
  8
21
 66
1
 10
0.0000
 20
0.0000
 30
0.0000
 40
0.0762
 41
0.0762
 70
0
  0
VERTEX
  8
21
 10
5.0165
 20
19.7485
 30
0.0000
 42
0.4142
  0
VERTEX
  8
21
 10
4.8895
 20
19.6215
 30
0.0000
  0
SEQEND
  8
0
  0
POLYLINE
  8
21
 66
1
 10
0.0000
 20
0.0000
 30
0.0000
 40
0.0381
 41
0.0381
 70
0
  0
VERTEX
  8
21
 10
5.0165
 20
19.7294
 30
0.0000
 42
1.0000
  0
VERTEX
  8
21
 10
5.0165
 20
19.7675
 30
0.0000
  0
SEQEND
  8
0
  0
POLYLINE
  8
21
 66
1
 10
0.0000
 20
0.0000
 30
0.0000
 40
0.0381
 41
0.0381
 70
0
  0
VERTEX
  8
21
 10
4.8704
 20
19.6215
 30
0.0000
 42
1.0000
  0
VERTEX
  8
21
 10
4.9085
 20
19.6215
 30
0.0000
  0
SEQEND
  8
0
  0
POLYLINE
  8
21
 66
1
 10
0.0000
 20
0.0000
 30
0.0000
 40
0.0762
 41
0.0762
 70
0
  0
VERTEX
  8
21
 10
5.0165
 20
21.2725
 30
0.0000
  0
VERTEX
  8
21
 10
5.9055
 20
21.2725
 30
0.0000
  0
SEQEND
  8
0
  0
POLYLINE
  8
21
 66
1
 10
0.0000
 20
0.0000
 30
0.0000
 40
0.0381
 41
0.0381
 70
0
  0
VERTEX
  8
21
 10
5.9055
 20
21.2535
 30
0.0000
 42
1.0000
  0
VERTEX
  8
21
 10
5.9055
 20
21.2916
 30
0.0000
  0
SEQEND
  8
0
  0
POLYLINE
  8
21
 66
1
 10
0.0000
 20
0.0000
 30
0.0000
 40
0.0381
 41
0.0381
 70
0
  0
VERTEX
  8
21
 10
5.0165
 20
21.2916
 30
0.0000
 42
1.0000
  0
VERTEX
  8
21
 10
5.0165
 20
21.2535
 30
0.0000
  0
SEQEND
  8
0
  0
POLYLINE
  8
21
 66
1
 10
0.0000
 20
0.0000
 30
0.0000
 40
0.0762
 41
0.0762
 70
0
  0
VERTEX
  8
21
 10
6.0325
 20
21.1455
 30
0.0000
 42
0.4142
  0
VERTEX
  8
21
 10
5.9055
 20
21.2725
 30
0.0000
  0
SEQEND
  8
0
  0
POLYLINE
  8
21
 66
1
 10
0.0000
 20
0.0000
 30
0.0000
 40
0.0381
 41
0.0381
 70
0
  0
VERTEX
  8
21
 10
6.0135
 20
21.1455
 30
0.0000
 42
1.0000
  0
VERTEX
  8
21
 10
6.0516
 20
21.1455
 30
0.0000
  0
SEQEND
  8
0
  0
POLYLINE
  8
21
 66
1
 10
0.0000
 20
0.0000
 30
0.0000
 40
0.0381
 41
0.0381
 70
0
  0
VERTEX
  8
21
 10
5.9055
 20
21.2916
 30
0.0000
 42
1.0000
  0
VERTEX
  8
21
 10
5.9055
 20
21.2535
 30
0.0000
  0
SEQEND
  8
0
  0
POLYLINE
  8
21
 66
1
 10
0.0000
 20
0.0000
 30
0.0000
 40
0.0762
 41
0.0762
 70
0
  0
VERTEX
  8
21
 10
6.0325
 20
21.1455
 30
0.0000
  0
VERTEX
  8
21
 10
6.0325
 20
20.7645
 30
0.0000
  0
SEQEND
  8
0
  0
POLYLINE
  8
21
 66
1
 10
0.0000
 20
0.0000
 30
0.0000
 40
0.0381
 41
0.0381
 70
0
  0
VERTEX
  8
21
 10
6.0135
 20
20.7645
 30
0.0000
 42
1.0000
  0
VERTEX
  8
21
 10
6.0516
 20
20.7645
 30
0.0000
  0
SEQEND
  8
0
  0
POLYLINE
  8
21
 66
1
 10
0.0000
 20
0.0000
 30
0.0000
 40
0.0381
 41
0.0381
 70
0
  0
VERTEX
  8
21
 10
6.0516
 20
21.1455
 30
0.0000
 42
1.0000
  0
VERTEX
  8
21
 10
6.0135
 20
21.1455
 30
0.0000
  0
SEQEND
  8
0
  0
POLYLINE
  8
21
 66
1
 10
0.0000
 20
0.0000
 30
0.0000
 40
0.0762
 41
0.0762
 70
0
  0
VERTEX
  8
21
 10
5.9055
 20
20.6375
 30
0.0000
 42
0.4142
  0
VERTEX
  8
21
 10
6.0325
 20
20.7645
 30
0.0000
  0
SEQEND
  8
0
  0
POLYLINE
  8
21
 66
1
 10
0.0000
 20
0.0000
 30
0.0000
 40
0.0381
 41
0.0381
 70
0
  0
VERTEX
  8
21
 10
5.9055
 20
20.6565
 30
0.0000
 42
1.0000
  0
VERTEX
  8
21
 10
5.9055
 20
20.6184
 30
0.0000
  0
SEQEND
  8
0
  0
POLYLINE
  8
21
 66
1
 10
0.0000
 20
0.0000
 30
0.0000
 40
0.0381
 41
0.0381
 70
0
  0
VERTEX
  8
21
 10
6.0516
 20
20.7645
 30
0.0000
 42
1.0000
  0
VERTEX
  8
21
 10
6.0135
 20
20.7645
 30
0.0000
  0
SEQEND
  8
0
  0
POLYLINE
  8
21
 66
1
 10
0.0000
 20
0.0000
 30
0.0000
 40
0.0762
 41
0.0762
 70
0
  0
VERTEX
  8
21
 10
5.9055
 20
20.6375
 30
0.0000
  0
VERTEX
  8
21
 10
5.0165
 20
20.6375
 30
0.0000
  0
SEQEND
  8
0
  0
POLYLINE
  8
21
 66
1
 10
0.0000
 20
0.0000
 30
0.0000
 40
0.0381
 41
0.0381
 70
0
  0
VERTEX
  8
21
 10
5.0165
 20
20.6565
 30
0.0000
 42
1.0000
  0
VERTEX
  8
21
 10
5.0165
 20
20.6184
 30
0.0000
  0
SEQEND
  8
0
  0
POLYLINE
  8
21
 66
1
 10
0.0000
 20
0.0000
 30
0.0000
 40
0.0381
 41
0.0381
 70
0
  0
VERTEX
  8
21
 10
5.9055
 20
20.6184
 30
0.0000
 42
1.0000
  0
VERTEX
  8
21
 10
5.9055
 20
20.6565
 30
0.0000
  0
SEQEND
  8
0
  0
POLYLINE
  8
21
 66
1
 10
0.0000
 20
0.0000
 30
0.0000
 40
0.0762
 41
0.0762
 70
0
  0
VERTEX
  8
21
 10
4.8895
 20
20.7645
 30
0.0000
 42
0.4142
  0
VERTEX
  8
21
 10
5.0165
 20
20.6375
 30
0.0000
  0
SEQEND
  8
0
  0
POLYLINE
  8
21
 66
1
 10
0.0000
 20
0.0000
 30
0.0000
 40
0.0381
 41
0.0381
 70
0
  0
VERTEX
  8
21
 10
4.9085
 20
20.7645
 30
0.0000
 42
1.0000
  0
VERTEX
  8
21
 10
4.8704
 20
20.7645
 30
0.0000
  0
SEQEND
  8
0
  0
POLYLINE
  8
21
 66
1
 10
0.0000
 20
0.0000
 30
0.0000
 40
0.0381
 41
0.0381
 70
0
  0
VERTEX
  8
21
 10
5.0165
 20
20.6184
 30
0.0000
 42
1.0000
  0
VERTEX
  8
21
 10
5.0165
 20
20.6565
 30
0.0000
  0
SEQEND
  8
0
  0
POLYLINE
  8
21
 66
1
 10
0.0000
 20
0.0000
 30
0.0000
 40
0.0762
 41
0.0762
 70
0
  0
VERTEX
  8
21
 10
4.8895
 20
20.7645
 30
0.0000
  0
VERTEX
  8
21
 10
4.8895
 20
21.1455
 30
0.0000
  0
SEQEND
  8
0
  0
POLYLINE
  8
21
 66
1
 10
0.0000
 20
0.0000
 30
0.0000
 40
0.0381
 41
0.0381
 70
0
  0
VERTEX
  8
21
 10
4.9085
 20
21.1455
 30
0.0000
 42
1.0000
  0
VERTEX
  8
21
 10
4.8704
 20
21.1455
 30
0.0000
  0
SEQEND
  8
0
  0
POLYLINE
  8
21
 66
1
 10
0.0000
 20
0.0000
 30
0.0000
 40
0.0381
 41
0.0381
 70
0
  0
VERTEX
  8
21
 10
4.8704
 20
20.7645
 30
0.0000
 42
1.0000
  0
VERTEX
  8
21
 10
4.9085
 20
20.7645
 30
0.0000
  0
SEQEND
  8
0
  0
POLYLINE
  8
21
 66
1
 10
0.0000
 20
0.0000
 30
0.0000
 40
0.0762
 41
0.0762
 70
0
  0
VERTEX
  8
21
 10
5.0165
 20
21.2725
 30
0.0000
 42
0.4142
  0
VERTEX
  8
21
 10
4.8895
 20
21.1455
 30
0.0000
  0
SEQEND
  8
0
  0
POLYLINE
  8
21
 66
1
 10
0.0000
 20
0.0000
 30
0.0000
 40
0.0381
 41
0.0381
 70
0
  0
VERTEX
  8
21
 10
5.0165
 20
21.2535
 30
0.0000
 42
1.0000
  0
VERTEX
  8
21
 10
5.0165
 20
21.2916
 30
0.0000
  0
SEQEND
  8
0
  0
POLYLINE
  8
21
 66
1
 10
0.0000
 20
0.0000
 30
0.0000
 40
0.0381
 41
0.0381
 70
0
  0
VERTEX
  8
21
 10
4.8704
 20
21.1455
 30
0.0000
 42
1.0000
  0
VERTEX
  8
21
 10
4.9085
 20
21.1455
 30
0.0000
  0
SEQEND
  8
0
  0
POLYLINE
  8
21
 66
1
 10
0.0000
 20
0.0000
 30
0.0000
 40
0.0762
 41
0.0762
 70
0
  0
VERTEX
  8
21
 10
9.2075
 20
19.1135
 30
0.0000
  0
VERTEX
  8
21
 10
8.3185
 20
19.1135
 30
0.0000
  0
SEQEND
  8
0
  0
POLYLINE
  8
21
 66
1
 10
0.0000
 20
0.0000
 30
0.0000
 40
0.0381
 41
0.0381
 70
0
  0
VERTEX
  8
21
 10
8.3185
 20
19.1326
 30
0.0000
 42
1.0000
  0
VERTEX
  8
21
 10
8.3185
 20
19.0945
 30
0.0000
  0
SEQEND
  8
0
  0
POLYLINE
  8
21
 66
1
 10
0.0000
 20
0.0000
 30
0.0000
 40
0.0381
 41
0.0381
 70
0
  0
VERTEX
  8
21
 10
9.2075
 20
19.0945
 30
0.0000
 42
1.0000
  0
VERTEX
  8
21
 10
9.2075
 20
19.1326
 30
0.0000
  0
SEQEND
  8
0
  0
POLYLINE
  8
21
 66
1
 10
0.0000
 20
0.0000
 30
0.0000
 40
0.0762
 41
0.0762
 70
0
  0
VERTEX
  8
21
 10
8.1915
 20
19.2405
 30
0.0000
 42
0.4142
  0
VERTEX
  8
21
 10
8.3185
 20
19.1135
 30
0.0000
  0
SEQEND
  8
0
  0
POLYLINE
  8
21
 66
1
 10
0.0000
 20
0.0000
 30
0.0000
 40
0.0381
 41
0.0381
 70
0
  0
VERTEX
  8
21
 10
8.2105
 20
19.2405
 30
0.0000
 42
1.0000
  0
VERTEX
  8
21
 10
8.1724
 20
19.2405
 30
0.0000
  0
SEQEND
  8
0
  0
POLYLINE
  8
21
 66
1
 10
0.0000
 20
0.0000
 30
0.0000
 40
0.0381
 41
0.0381
 70
0
  0
VERTEX
  8
21
 10
8.3185
 20
19.0945
 30
0.0000
 42
1.0000
  0
VERTEX
  8
21
 10
8.3185
 20
19.1326
 30
0.0000
  0
SEQEND
  8
0
  0
POLYLINE
  8
21
 66
1
 10
0.0000
 20
0.0000
 30
0.0000
 40
0.0762
 41
0.0762
 70
0
  0
VERTEX
  8
21
 10
8.1915
 20
19.2405
 30
0.0000
  0
VERTEX
  8
21
 10
8.1915
 20
19.6215
 30
0.0000
  0
SEQEND
  8
0
  0
POLYLINE
  8
21
 66
1
 10
0.0000
 20
0.0000
 30
0.0000
 40
0.0381
 41
0.0381
 70
0
  0
VERTEX
  8
21
 10
8.2105
 20
19.6215
 30
0.0000
 42
1.0000
  0
VERTEX
  8
21
 10
8.1724
 20
19.6215
 30
0.0000
  0
SEQEND
  8
0
  0
POLYLINE
  8
21
 66
1
 10
0.0000
 20
0.0000
 30
0.0000
 40
0.0381
 41
0.0381
 70
0
  0
VERTEX
  8
21
 10
8.1724
 20
19.2405
 30
0.0000
 42
1.0000
  0
VERTEX
  8
21
 10
8.2105
 20
19.2405
 30
0.0000
  0
SEQEND
  8
0
  0
POLYLINE
  8
21
 66
1
 10
0.0000
 20
0.0000
 30
0.0000
 40
0.0762
 41
0.0762
 70
0
  0
VERTEX
  8
21
 10
8.3185
 20
19.7485
 30
0.0000
 42
0.4142
  0
VERTEX
  8
21
 10
8.1915
 20
19.6215
 30
0.0000
  0
SEQEND
  8
0
  0
POLYLINE
  8
21
 66
1
 10
0.0000
 20
0.0000
 30
0.0000
 40
0.0381
 41
0.0381
 70
0
  0
VERTEX
  8
21
 10
8.3185
 20
19.7294
 30
0.0000
 42
1.0000
  0
VERTEX
  8
21
 10
8.3185
 20
19.7675
 30
0.0000
  0
SEQEND
  8
0
  0
POLYLINE
  8
21
 66
1
 10
0.0000
 20
0.0000
 30
0.0000
 40
0.0381
 41
0.0381
 70
0
  0
VERTEX
  8
21
 10
8.1724
 20
19.6215
 30
0.0000
 42
1.0000
  0
VERTEX
  8
21
 10
8.2105
 20
19.6215
 30
0.0000
  0
SEQEND
  8
0
  0
POLYLINE
  8
21
 66
1
 10
0.0000
 20
0.0000
 30
0.0000
 40
0.0762
 41
0.0762
 70
0
  0
VERTEX
  8
21
 10
8.3185
 20
19.7485
 30
0.0000
  0
VERTEX
  8
21
 10
9.2075
 20
19.7485
 30
0.0000
  0
SEQEND
  8
0
  0
POLYLINE
  8
21
 66
1
 10
0.0000
 20
0.0000
 30
0.0000
 40
0.0381
 41
0.0381
 70
0
  0
VERTEX
  8
21
 10
9.2075
 20
19.7294
 30
0.0000
 42
1.0000
  0
VERTEX
  8
21
 10
9.2075
 20
19.7675
 30
0.0000
  0
SEQEND
  8
0
  0
POLYLINE
  8
21
 66
1
 10
0.0000
 20
0.0000
 30
0.0000
 40
0.0381
 41
0.0381
 70
0
  0
VERTEX
  8
21
 10
8.3185
 20
19.7675
 30
0.0000
 42
1.0000
  0
VERTEX
  8
21
 10
8.3185
 20
19.7294
 30
0.0000
  0
SEQEND
  8
0
  0
POLYLINE
  8
21
 66
1
 10
0.0000
 20
0.0000
 30
0.0000
 40
0.0762
 41
0.0762
 70
0
  0
VERTEX
  8
21
 10
9.3345
 20
19.6215
 30
0.0000
 42
0.4142
  0
VERTEX
  8
21
 10
9.2075
 20
19.7485
 30
0.0000
  0
SEQEND
  8
0
  0
POLYLINE
  8
21
 66
1
 10
0.0000
 20
0.0000
 30
0.0000
 40
0.0381
 41
0.0381
 70
0
  0
VERTEX
  8
21
 10
9.3155
 20
19.6215
 30
0.0000
 42
1.0000
  0
VERTEX
  8
21
 10
9.3536
 20
19.6215
 30
0.0000
  0
SEQEND
  8
0
  0
POLYLINE
  8
21
 66
1
 10
0.0000
 20
0.0000
 30
0.0000
 40
0.0381
 41
0.0381
 70
0
  0
VERTEX
  8
21
 10
9.2075
 20
19.7675
 30
0.0000
 42
1.0000
  0
VERTEX
  8
21
 10
9.2075
 20
19.7294
 30
0.0000
  0
SEQEND
  8
0
  0
POLYLINE
  8
21
 66
1
 10
0.0000
 20
0.0000
 30
0.0000
 40
0.0762
 41
0.0762
 70
0
  0
VERTEX
  8
21
 10
9.3345
 20
19.6215
 30
0.0000
  0
VERTEX
  8
21
 10
9.3345
 20
19.2405
 30
0.0000
  0
SEQEND
  8
0
  0
POLYLINE
  8
21
 66
1
 10
0.0000
 20
0.0000
 30
0.0000
 40
0.0381
 41
0.0381
 70
0
  0
VERTEX
  8
21
 10
9.3155
 20
19.2405
 30
0.0000
 42
1.0000
  0
VERTEX
  8
21
 10
9.3536
 20
19.2405
 30
0.0000
  0
SEQEND
  8
0
  0
POLYLINE
  8
21
 66
1
 10
0.0000
 20
0.0000
 30
0.0000
 40
0.0381
 41
0.0381
 70
0
  0
VERTEX
  8
21
 10
9.3536
 20
19.6215
 30
0.0000
 42
1.0000
  0
VERTEX
  8
21
 10
9.3155
 20
19.6215
 30
0.0000
  0
SEQEND
  8
0
  0
POLYLINE
  8
21
 66
1
 10
0.0000
 20
0.0000
 30
0.0000
 40
0.0762
 41
0.0762
 70
0
  0
VERTEX
  8
21
 10
9.2075
 20
19.1135
 30
0.0000
 42
0.4142
  0
VERTEX
  8
21
 10
9.3345
 20
19.2405
 30
0.0000
  0
SEQEND
  8
0
  0
POLYLINE
  8
21
 66
1
 10
0.0000
 20
0.0000
 30
0.0000
 40
0.0381
 41
0.0381
 70
0
  0
VERTEX
  8
21
 10
9.2075
 20
19.1326
 30
0.0000
 42
1.0000
  0
VERTEX
  8
21
 10
9.2075
 20
19.0945
 30
0.0000
  0
SEQEND
  8
0
  0
POLYLINE
  8
21
 66
1
 10
0.0000
 20
0.0000
 30
0.0000
 40
0.0381
 41
0.0381
 70
0
  0
VERTEX
  8
21
 10
9.3536
 20
19.2405
 30
0.0000
 42
1.0000
  0
VERTEX
  8
21
 10
9.3155
 20
19.2405
 30
0.0000
  0
SEQEND
  8
0
  0
POLYLINE
  8
21
 66
1
 10
0.0000
 20
0.0000
 30
0.0000
 40
0.0762
 41
0.0762
 70
0
  0
VERTEX
  8
21
 10
9.2075
 20
21.3995
 30
0.0000
  0
VERTEX
  8
21
 10
8.3185
 20
21.3995
 30
0.0000
  0
SEQEND
  8
0
  0
POLYLINE
  8
21
 66
1
 10
0.0000
 20
0.0000
 30
0.0000
 40
0.0381
 41
0.0381
 70
0
  0
VERTEX
  8
21
 10
8.3185
 20
21.4185
 30
0.0000
 42
1.0000
  0
VERTEX
  8
21
 10
8.3185
 20
21.3804
 30
0.0000
  0
SEQEND
  8
0
  0
POLYLINE
  8
21
 66
1
 10
0.0000
 20
0.0000
 30
0.0000
 40
0.0381
 41
0.0381
 70
0
  0
VERTEX
  8
21
 10
9.2075
 20
21.3804
 30
0.0000
 42
1.0000
  0
VERTEX
  8
21
 10
9.2075
 20
21.4185
 30
0.0000
  0
SEQEND
  8
0
  0
POLYLINE
  8
21
 66
1
 10
0.0000
 20
0.0000
 30
0.0000
 40
0.0762
 41
0.0762
 70
0
  0
VERTEX
  8
21
 10
8.1915
 20
21.5265
 30
0.0000
 42
0.4142
  0
VERTEX
  8
21
 10
8.3185
 20
21.3995
 30
0.0000
  0
SEQEND
  8
0
  0
POLYLINE
  8
21
 66
1
 10
0.0000
 20
0.0000
 30
0.0000
 40
0.0381
 41
0.0381
 70
0
  0
VERTEX
  8
21
 10
8.2105
 20
21.5265
 30
0.0000
 42
1.0000
  0
VERTEX
  8
21
 10
8.1724
 20
21.5265
 30
0.0000
  0
SEQEND
  8
0
  0
POLYLINE
  8
21
 66
1
 10
0.0000
 20
0.0000
 30
0.0000
 40
0.0381
 41
0.0381
 70
0
  0
VERTEX
  8
21
 10
8.3185
 20
21.3804
 30
0.0000
 42
1.0000
  0
VERTEX
  8
21
 10
8.3185
 20
21.4185
 30
0.0000
  0
SEQEND
  8
0
  0
POLYLINE
  8
21
 66
1
 10
0.0000
 20
0.0000
 30
0.0000
 40
0.0762
 41
0.0762
 70
0
  0
VERTEX
  8
21
 10
8.1915
 20
21.5265
 30
0.0000
  0
VERTEX
  8
21
 10
8.1915
 20
21.9075
 30
0.0000
  0
SEQEND
  8
0
  0
POLYLINE
  8
21
 66
1
 10
0.0000
 20
0.0000
 30
0.0000
 40
0.0381
 41
0.0381
 70
0
  0
VERTEX
  8
21
 10
8.2105
 20
21.9075
 30
0.0000
 42
1.0000
  0
VERTEX
  8
21
 10
8.1724
 20
21.9075
 30
0.0000
  0
SEQEND
  8
0
  0
POLYLINE
  8
21
 66
1
 10
0.0000
 20
0.0000
 30
0.0000
 40
0.0381
 41
0.0381
 70
0
  0
VERTEX
  8
21
 10
8.1724
 20
21.5265
 30
0.0000
 42
1.0000
  0
VERTEX
  8
21
 10
8.2105
 20
21.5265
 30
0.0000
  0
SEQEND
  8
0
  0
POLYLINE
  8
21
 66
1
 10
0.0000
 20
0.0000
 30
0.0000
 40
0.0762
 41
0.0762
 70
0
  0
VERTEX
  8
21
 10
8.3185
 20
22.0345
 30
0.0000
 42
0.4142
  0
VERTEX
  8
21
 10
8.1915
 20
21.9075
 30
0.0000
  0
SEQEND
  8
0
  0
POLYLINE
  8
21
 66
1
 10
0.0000
 20
0.0000
 30
0.0000
 40
0.0381
 41
0.0381
 70
0
  0
VERTEX
  8
21
 10
8.3185
 20
22.0155
 30
0.0000
 42
1.0000
  0
VERTEX
  8
21
 10
8.3185
 20
22.0536
 30
0.0000
  0
SEQEND
  8
0
  0
POLYLINE
  8
21
 66
1
 10
0.0000
 20
0.0000
 30
0.0000
 40
0.0381
 41
0.0381
 70
0
  0
VERTEX
  8
21
 10
8.1724
 20
21.9075
 30
0.0000
 42
1.0000
  0
VERTEX
  8
21
 10
8.2105
 20
21.9075
 30
0.0000
  0
SEQEND
  8
0
  0
POLYLINE
  8
21
 66
1
 10
0.0000
 20
0.0000
 30
0.0000
 40
0.0762
 41
0.0762
 70
0
  0
VERTEX
  8
21
 10
8.3185
 20
22.0345
 30
0.0000
  0
VERTEX
  8
21
 10
9.2075
 20
22.0345
 30
0.0000
  0
SEQEND
  8
0
  0
POLYLINE
  8
21
 66
1
 10
0.0000
 20
0.0000
 30
0.0000
 40
0.0381
 41
0.0381
 70
0
  0
VERTEX
  8
21
 10
9.2075
 20
22.0155
 30
0.0000
 42
1.0000
  0
VERTEX
  8
21
 10
9.2075
 20
22.0536
 30
0.0000
  0
SEQEND
  8
0
  0
POLYLINE
  8
21
 66
1
 10
0.0000
 20
0.0000
 30
0.0000
 40
0.0381
 41
0.0381
 70
0
  0
VERTEX
  8
21
 10
8.3185
 20
22.0536
 30
0.0000
 42
1.0000
  0
VERTEX
  8
21
 10
8.3185
 20
22.0155
 30
0.0000
  0
SEQEND
  8
0
  0
POLYLINE
  8
21
 66
1
 10
0.0000
 20
0.0000
 30
0.0000
 40
0.0762
 41
0.0762
 70
0
  0
VERTEX
  8
21
 10
9.3345
 20
21.9075
 30
0.0000
 42
0.4142
  0
VERTEX
  8
21
 10
9.2075
 20
22.0345
 30
0.0000
  0
SEQEND
  8
0
  0
POLYLINE
  8
21
 66
1
 10
0.0000
 20
0.0000
 30
0.0000
 40
0.0381
 41
0.0381
 70
0
  0
VERTEX
  8
21
 10
9.3155
 20
21.9075
 30
0.0000
 42
1.0000
  0
VERTEX
  8
21
 10
9.3536
 20
21.9075
 30
0.0000
  0
SEQEND
  8
0
  0
POLYLINE
  8
21
 66
1
 10
0.0000
 20
0.0000
 30
0.0000
 40
0.0381
 41
0.0381
 70
0
  0
VERTEX
  8
21
 10
9.2075
 20
22.0536
 30
0.0000
 42
1.0000
  0
VERTEX
  8
21
 10
9.2075
 20
22.0155
 30
0.0000
  0
SEQEND
  8
0
  0
POLYLINE
  8
21
 66
1
 10
0.0000
 20
0.0000
 30
0.0000
 40
0.0762
 41
0.0762
 70
0
  0
VERTEX
  8
21
 10
9.3345
 20
21.9075
 30
0.0000
  0
VERTEX
  8
21
 10
9.3345
 20
21.5265
 30
0.0000
  0
SEQEND
  8
0
  0
POLYLINE
  8
21
 66
1
 10
0.0000
 20
0.0000
 30
0.0000
 40
0.0381
 41
0.0381
 70
0
  0
VERTEX
  8
21
 10
9.3155
 20
21.5265
 30
0.0000
 42
1.0000
  0
VERTEX
  8
21
 10
9.3536
 20
21.5265
 30
0.0000
  0
SEQEND
  8
0
  0
POLYLINE
  8
21
 66
1
 10
0.0000
 20
0.0000
 30
0.0000
 40
0.0381
 41
0.0381
 70
0
  0
VERTEX
  8
21
 10
9.3536
 20
21.9075
 30
0.0000
 42
1.0000
  0
VERTEX
  8
21
 10
9.3155
 20
21.9075
 30
0.0000
  0
SEQEND
  8
0
  0
POLYLINE
  8
21
 66
1
 10
0.0000
 20
0.0000
 30
0.0000
 40
0.0762
 41
0.0762
 70
0
  0
VERTEX
  8
21
 10
9.2075
 20
21.3995
 30
0.0000
 42
0.4142
  0
VERTEX
  8
21
 10
9.3345
 20
21.5265
 30
0.0000
  0
SEQEND
  8
0
  0
POLYLINE
  8
21
 66
1
 10
0.0000
 20
0.0000
 30
0.0000
 40
0.0381
 41
0.0381
 70
0
  0
VERTEX
  8
21
 10
9.2075
 20
21.4185
 30
0.0000
 42
1.0000
  0
VERTEX
  8
21
 10
9.2075
 20
21.3804
 30
0.0000
  0
SEQEND
  8
0
  0
POLYLINE
  8
21
 66
1
 10
0.0000
 20
0.0000
 30
0.0000
 40
0.0381
 41
0.0381
 70
0
  0
VERTEX
  8
21
 10
9.3536
 20
21.5265
 30
0.0000
 42
1.0000
  0
VERTEX
  8
21
 10
9.3155
 20
21.5265
 30
0.0000
  0
SEQEND
  8
0
  0
POLYLINE
  8
21
 66
1
 10
0.0000
 20
0.0000
 30
0.0000
 40
0.0762
 41
0.0762
 70
0
  0
VERTEX
  8
21
 10
5.0165
 20
20.5105
 30
0.0000
  0
VERTEX
  8
21
 10
5.9055
 20
20.5105
 30
0.0000
  0
SEQEND
  8
0
  0
POLYLINE
  8
21
 66
1
 10
0.0000
 20
0.0000
 30
0.0000
 40
0.0381
 41
0.0381
 70
0
  0
VERTEX
  8
21
 10
5.9055
 20
20.4915
 30
0.0000
 42
1.0000
  0
VERTEX
  8
21
 10
5.9055
 20
20.5296
 30
0.0000
  0
SEQEND
  8
0
  0
POLYLINE
  8
21
 66
1
 10
0.0000
 20
0.0000
 30
0.0000
 40
0.0381
 41
0.0381
 70
0
  0
VERTEX
  8
21
 10
5.0165
 20
20.5296
 30
0.0000
 42
1.0000
  0
VERTEX
  8
21
 10
5.0165
 20
20.4915
 30
0.0000
  0
SEQEND
  8
0
  0
POLYLINE
  8
21
 66
1
 10
0.0000
 20
0.0000
 30
0.0000
 40
0.0762
 41
0.0762
 70
0
  0
VERTEX
  8
21
 10
6.0325
 20
20.3835
 30
0.0000
 42
0.4142
  0
VERTEX
  8
21
 10
5.9055
 20
20.5105
 30
0.0000
  0
SEQEND
  8
0
  0
POLYLINE
  8
21
 66
1
 10
0.0000
 20
0.0000
 30
0.0000
 40
0.0381
 41
0.0381
 70
0
  0
VERTEX
  8
21
 10
6.0135
 20
20.3835
 30
0.0000
 42
1.0000
  0
VERTEX
  8
21
 10
6.0516
 20
20.3835
 30
0.0000
  0
SEQEND
  8
0
  0
POLYLINE
  8
21
 66
1
 10
0.0000
 20
0.0000
 30
0.0000
 40
0.0381
 41
0.0381
 70
0
  0
VERTEX
  8
21
 10
5.9055
 20
20.5296
 30
0.0000
 42
1.0000
  0
VERTEX
  8
21
 10
5.9055
 20
20.4915
 30
0.0000
  0
SEQEND
  8
0
  0
POLYLINE
  8
21
 66
1
 10
0.0000
 20
0.0000
 30
0.0000
 40
0.0762
 41
0.0762
 70
0
  0
VERTEX
  8
21
 10
6.0325
 20
20.3835
 30
0.0000
  0
VERTEX
  8
21
 10
6.0325
 20
20.0025
 30
0.0000
  0
SEQEND
  8
0
  0
POLYLINE
  8
21
 66
1
 10
0.0000
 20
0.0000
 30
0.0000
 40
0.0381
 41
0.0381
 70
0
  0
VERTEX
  8
21
 10
6.0135
 20
20.0025
 30
0.0000
 42
1.0000
  0
VERTEX
  8
21
 10
6.0516
 20
20.0025
 30
0.0000
  0
SEQEND
  8
0
  0
POLYLINE
  8
21
 66
1
 10
0.0000
 20
0.0000
 30
0.0000
 40
0.0381
 41
0.0381
 70
0
  0
VERTEX
  8
21
 10
6.0516
 20
20.3835
 30
0.0000
 42
1.0000
  0
VERTEX
  8
21
 10
6.0135
 20
20.3835
 30
0.0000
  0
SEQEND
  8
0
  0
POLYLINE
  8
21
 66
1
 10
0.0000
 20
0.0000
 30
0.0000
 40
0.0762
 41
0.0762
 70
0
  0
VERTEX
  8
21
 10
5.9055
 20
19.8755
 30
0.0000
 42
0.4142
  0
VERTEX
  8
21
 10
6.0325
 20
20.0025
 30
0.0000
  0
SEQEND
  8
0
  0
POLYLINE
  8
21
 66
1
 10
0.0000
 20
0.0000
 30
0.0000
 40
0.0381
 41
0.0381
 70
0
  0
VERTEX
  8
21
 10
5.9055
 20
19.8946
 30
0.0000
 42
1.0000
  0
VERTEX
  8
21
 10
5.9055
 20
19.8565
 30
0.0000
  0
SEQEND
  8
0
  0
POLYLINE
  8
21
 66
1
 10
0.0000
 20
0.0000
 30
0.0000
 40
0.0381
 41
0.0381
 70
0
  0
VERTEX
  8
21
 10
6.0516
 20
20.0025
 30
0.0000
 42
1.0000
  0
VERTEX
  8
21
 10
6.0135
 20
20.0025
 30
0.0000
  0
SEQEND
  8
0
  0
POLYLINE
  8
21
 66
1
 10
0.0000
 20
0.0000
 30
0.0000
 40
0.0762
 41
0.0762
 70
0
  0
VERTEX
  8
21
 10
5.9055
 20
19.8755
 30
0.0000
  0
VERTEX
  8
21
 10
5.0165
 20
19.8755
 30
0.0000
  0
SEQEND
  8
0
  0
POLYLINE
  8
21
 66
1
 10
0.0000
 20
0.0000
 30
0.0000
 40
0.0381
 41
0.0381
 70
0
  0
VERTEX
  8
21
 10
5.0165
 20
19.8946
 30
0.0000
 42
1.0000
  0
VERTEX
  8
21
 10
5.0165
 20
19.8565
 30
0.0000
  0
SEQEND
  8
0
  0
POLYLINE
  8
21
 66
1
 10
0.0000
 20
0.0000
 30
0.0000
 40
0.0381
 41
0.0381
 70
0
  0
VERTEX
  8
21
 10
5.9055
 20
19.8565
 30
0.0000
 42
1.0000
  0
VERTEX
  8
21
 10
5.9055
 20
19.8946
 30
0.0000
  0
SEQEND
  8
0
  0
POLYLINE
  8
21
 66
1
 10
0.0000
 20
0.0000
 30
0.0000
 40
0.0762
 41
0.0762
 70
0
  0
VERTEX
  8
21
 10
4.8895
 20
20.0025
 30
0.0000
 42
0.4142
  0
VERTEX
  8
21
 10
5.0165
 20
19.8755
 30
0.0000
  0
SEQEND
  8
0
  0
POLYLINE
  8
21
 66
1
 10
0.0000
 20
0.0000
 30
0.0000
 40
0.0381
 41
0.0381
 70
0
  0
VERTEX
  8
21
 10
4.9085
 20
20.0025
 30
0.0000
 42
1.0000
  0
VERTEX
  8
21
 10
4.8704
 20
20.0025
 30
0.0000
  0
SEQEND
  8
0
  0
POLYLINE
  8
21
 66
1
 10
0.0000
 20
0.0000
 30
0.0000
 40
0.0381
 41
0.0381
 70
0
  0
VERTEX
  8
21
 10
5.0165
 20
19.8565
 30
0.0000
 42
1.0000
  0
VERTEX
  8
21
 10
5.0165
 20
19.8946
 30
0.0000
  0
SEQEND
  8
0
  0
POLYLINE
  8
21
 66
1
 10
0.0000
 20
0.0000
 30
0.0000
 40
0.0762
 41
0.0762
 70
0
  0
VERTEX
  8
21
 10
4.8895
 20
20.0025
 30
0.0000
  0
VERTEX
  8
21
 10
4.8895
 20
20.3835
 30
0.0000
  0
SEQEND
  8
0
  0
POLYLINE
  8
21
 66
1
 10
0.0000
 20
0.0000
 30
0.0000
 40
0.0381
 41
0.0381
 70
0
  0
VERTEX
  8
21
 10
4.9085
 20
20.3835
 30
0.0000
 42
1.0000
  0
VERTEX
  8
21
 10
4.8704
 20
20.3835
 30
0.0000
  0
SEQEND
  8
0
  0
POLYLINE
  8
21
 66
1
 10
0.0000
 20
0.0000
 30
0.0000
 40
0.0381
 41
0.0381
 70
0
  0
VERTEX
  8
21
 10
4.8704
 20
20.0025
 30
0.0000
 42
1.0000
  0
VERTEX
  8
21
 10
4.9085
 20
20.0025
 30
0.0000
  0
SEQEND
  8
0
  0
POLYLINE
  8
21
 66
1
 10
0.0000
 20
0.0000
 30
0.0000
 40
0.0762
 41
0.0762
 70
0
  0
VERTEX
  8
21
 10
5.0165
 20
20.5105
 30
0.0000
 42
0.4142
  0
VERTEX
  8
21
 10
4.8895
 20
20.3835
 30
0.0000
  0
SEQEND
  8
0
  0
POLYLINE
  8
21
 66
1
 10
0.0000
 20
0.0000
 30
0.0000
 40
0.0381
 41
0.0381
 70
0
  0
VERTEX
  8
21
 10
5.0165
 20
20.4915
 30
0.0000
 42
1.0000
  0
VERTEX
  8
21
 10
5.0165
 20
20.5296
 30
0.0000
  0
SEQEND
  8
0
  0
POLYLINE
  8
21
 66
1
 10
0.0000
 20
0.0000
 30
0.0000
 40
0.0381
 41
0.0381
 70
0
  0
VERTEX
  8
21
 10
4.8704
 20
20.3835
 30
0.0000
 42
1.0000
  0
VERTEX
  8
21
 10
4.9085
 20
20.3835
 30
0.0000
  0
SEQEND
  8
0
  0
POLYLINE
  8
21
 66
1
 10
0.0000
 20
0.0000
 30
0.0000
 40
0.0762
 41
0.0762
 70
0
  0
VERTEX
  8
21
 10
5.0165
 20
22.0345
 30
0.0000
  0
VERTEX
  8
21
 10
5.9055
 20
22.0345
 30
0.0000
  0
SEQEND
  8
0
  0
POLYLINE
  8
21
 66
1
 10
0.0000
 20
0.0000
 30
0.0000
 40
0.0381
 41
0.0381
 70
0
  0
VERTEX
  8
21
 10
5.9055
 20
22.0155
 30
0.0000
 42
1.0000
  0
VERTEX
  8
21
 10
5.9055
 20
22.0536
 30
0.0000
  0
SEQEND
  8
0
  0
POLYLINE
  8
21
 66
1
 10
0.0000
 20
0.0000
 30
0.0000
 40
0.0381
 41
0.0381
 70
0
  0
VERTEX
  8
21
 10
5.0165
 20
22.0536
 30
0.0000
 42
1.0000
  0
VERTEX
  8
21
 10
5.0165
 20
22.0155
 30
0.0000
  0
SEQEND
  8
0
  0
POLYLINE
  8
21
 66
1
 10
0.0000
 20
0.0000
 30
0.0000
 40
0.0762
 41
0.0762
 70
0
  0
VERTEX
  8
21
 10
6.0325
 20
21.9075
 30
0.0000
 42
0.4142
  0
VERTEX
  8
21
 10
5.9055
 20
22.0345
 30
0.0000
  0
SEQEND
  8
0
  0
POLYLINE
  8
21
 66
1
 10
0.0000
 20
0.0000
 30
0.0000
 40
0.0381
 41
0.0381
 70
0
  0
VERTEX
  8
21
 10
6.0135
 20
21.9075
 30
0.0000
 42
1.0000
  0
VERTEX
  8
21
 10
6.0516
 20
21.9075
 30
0.0000
  0
SEQEND
  8
0
  0
POLYLINE
  8
21
 66
1
 10
0.0000
 20
0.0000
 30
0.0000
 40
0.0381
 41
0.0381
 70
0
  0
VERTEX
  8
21
 10
5.9055
 20
22.0536
 30
0.0000
 42
1.0000
  0
VERTEX
  8
21
 10
5.9055
 20
22.0155
 30
0.0000
  0
SEQEND
  8
0
  0
POLYLINE
  8
21
 66
1
 10
0.0000
 20
0.0000
 30
0.0000
 40
0.0762
 41
0.0762
 70
0
  0
VERTEX
  8
21
 10
6.0325
 20
21.9075
 30
0.0000
  0
VERTEX
  8
21
 10
6.0325
 20
21.5265
 30
0.0000
  0
SEQEND
  8
0
  0
POLYLINE
  8
21
 66
1
 10
0.0000
 20
0.0000
 30
0.0000
 40
0.0381
 41
0.0381
 70
0
  0
VERTEX
  8
21
 10
6.0135
 20
21.5265
 30
0.0000
 42
1.0000
  0
VERTEX
  8
21
 10
6.0516
 20
21.5265
 30
0.0000
  0
SEQEND
  8
0
  0
POLYLINE
  8
21
 66
1
 10
0.0000
 20
0.0000
 30
0.0000
 40
0.0381
 41
0.0381
 70
0
  0
VERTEX
  8
21
 10
6.0516
 20
21.9075
 30
0.0000
 42
1.0000
  0
VERTEX
  8
21
 10
6.0135
 20
21.9075
 30
0.0000
  0
SEQEND
  8
0
  0
POLYLINE
  8
21
 66
1
 10
0.0000
 20
0.0000
 30
0.0000
 40
0.0762
 41
0.0762
 70
0
  0
VERTEX
  8
21
 10
5.9055
 20
21.3995
 30
0.0000
 42
0.4142
  0
VERTEX
  8
21
 10
6.0325
 20
21.5265
 30
0.0000
  0
SEQEND
  8
0
  0
POLYLINE
  8
21
 66
1
 10
0.0000
 20
0.0000
 30
0.0000
 40
0.0381
 41
0.0381
 70
0
  0
VERTEX
  8
21
 10
5.9055
 20
21.4185
 30
0.0000
 42
1.0000
  0
VERTEX
  8
21
 10
5.9055
 20
21.3804
 30
0.0000
  0
SEQEND
  8
0
  0
POLYLINE
  8
21
 66
1
 10
0.0000
 20
0.0000
 30
0.0000
 40
0.0381
 41
0.0381
 70
0
  0
VERTEX
  8
21
 10
6.0516
 20
21.5265
 30
0.0000
 42
1.0000
  0
VERTEX
  8
21
 10
6.0135
 20
21.5265
 30
0.0000
  0
SEQEND
  8
0
  0
POLYLINE
  8
21
 66
1
 10
0.0000
 20
0.0000
 30
0.0000
 40
0.0762
 41
0.0762
 70
0
  0
VERTEX
  8
21
 10
5.9055
 20
21.3995
 30
0.0000
  0
VERTEX
  8
21
 10
5.0165
 20
21.3995
 30
0.0000
  0
SEQEND
  8
0
  0
POLYLINE
  8
21
 66
1
 10
0.0000
 20
0.0000
 30
0.0000
 40
0.0381
 41
0.0381
 70
0
  0
VERTEX
  8
21
 10
5.0165
 20
21.4185
 30
0.0000
 42
1.0000
  0
VERTEX
  8
21
 10
5.0165
 20
21.3804
 30
0.0000
  0
SEQEND
  8
0
  0
POLYLINE
  8
21
 66
1
 10
0.0000
 20
0.0000
 30
0.0000
 40
0.0381
 41
0.0381
 70
0
  0
VERTEX
  8
21
 10
5.9055
 20
21.3804
 30
0.0000
 42
1.0000
  0
VERTEX
  8
21
 10
5.9055
 20
21.4185
 30
0.0000
  0
SEQEND
  8
0
  0
POLYLINE
  8
21
 66
1
 10
0.0000
 20
0.0000
 30
0.0000
 40
0.0762
 41
0.0762
 70
0
  0
VERTEX
  8
21
 10
4.8895
 20
21.5265
 30
0.0000
 42
0.4142
  0
VERTEX
  8
21
 10
5.0165
 20
21.3995
 30
0.0000
  0
SEQEND
  8
0
  0
POLYLINE
  8
21
 66
1
 10
0.0000
 20
0.0000
 30
0.0000
 40
0.0381
 41
0.0381
 70
0
  0
VERTEX
  8
21
 10
4.9085
 20
21.5265
 30
0.0000
 42
1.0000
  0
VERTEX
  8
21
 10
4.8704
 20
21.5265
 30
0.0000
  0
SEQEND
  8
0
  0
POLYLINE
  8
21
 66
1
 10
0.0000
 20
0.0000
 30
0.0000
 40
0.0381
 41
0.0381
 70
0
  0
VERTEX
  8
21
 10
5.0165
 20
21.3804
 30
0.0000
 42
1.0000
  0
VERTEX
  8
21
 10
5.0165
 20
21.4185
 30
0.0000
  0
SEQEND
  8
0
  0
POLYLINE
  8
21
 66
1
 10
0.0000
 20
0.0000
 30
0.0000
 40
0.0762
 41
0.0762
 70
0
  0
VERTEX
  8
21
 10
4.8895
 20
21.5265
 30
0.0000
  0
VERTEX
  8
21
 10
4.8895
 20
21.9075
 30
0.0000
  0
SEQEND
  8
0
  0
POLYLINE
  8
21
 66
1
 10
0.0000
 20
0.0000
 30
0.0000
 40
0.0381
 41
0.0381
 70
0
  0
VERTEX
  8
21
 10
4.9085
 20
21.9075
 30
0.0000
 42
1.0000
  0
VERTEX
  8
21
 10
4.8704
 20
21.9075
 30
0.0000
  0
SEQEND
  8
0
  0
POLYLINE
  8
21
 66
1
 10
0.0000
 20
0.0000
 30
0.0000
 40
0.0381
 41
0.0381
 70
0
  0
VERTEX
  8
21
 10
4.8704
 20
21.5265
 30
0.0000
 42
1.0000
  0
VERTEX
  8
21
 10
4.9085
 20
21.5265
 30
0.0000
  0
SEQEND
  8
0
  0
POLYLINE
  8
21
 66
1
 10
0.0000
 20
0.0000
 30
0.0000
 40
0.0762
 41
0.0762
 70
0
  0
VERTEX
  8
21
 10
5.0165
 20
22.0345
 30
0.0000
 42
0.4142
  0
VERTEX
  8
21
 10
4.8895
 20
21.9075
 30
0.0000
  0
SEQEND
  8
0
  0
POLYLINE
  8
21
 66
1
 10
0.0000
 20
0.0000
 30
0.0000
 40
0.0381
 41
0.0381
 70
0
  0
VERTEX
  8
21
 10
5.0165
 20
22.0155
 30
0.0000
 42
1.0000
  0
VERTEX
  8
21
 10
5.0165
 20
22.0536
 30
0.0000
  0
SEQEND
  8
0
  0
POLYLINE
  8
21
 66
1
 10
0.0000
 20
0.0000
 30
0.0000
 40
0.0381
 41
0.0381
 70
0
  0
VERTEX
  8
21
 10
4.8704
 20
21.9075
 30
0.0000
 42
1.0000
  0
VERTEX
  8
21
 10
4.9085
 20
21.9075
 30
0.0000
  0
SEQEND
  8
0
  0
POLYLINE
  8
21
 66
1
 10
0.0000
 20
0.0000
 30
0.0000
 40
0.0762
 41
0.0762
 70
0
  0
VERTEX
  8
21
 10
1.5875
 20
22.6695
 30
0.0000
  0
VERTEX
  8
21
 10
0.6985
 20
22.6695
 30
0.0000
  0
SEQEND
  8
0
  0
POLYLINE
  8
21
 66
1
 10
0.0000
 20
0.0000
 30
0.0000
 40
0.0381
 41
0.0381
 70
0
  0
VERTEX
  8
21
 10
0.6985
 20
22.6885
 30
0.0000
 42
1.0000
  0
VERTEX
  8
21
 10
0.6985
 20
22.6504
 30
0.0000
  0
SEQEND
  8
0
  0
POLYLINE
  8
21
 66
1
 10
0.0000
 20
0.0000
 30
0.0000
 40
0.0381
 41
0.0381
 70
0
  0
VERTEX
  8
21
 10
1.5875
 20
22.6504
 30
0.0000
 42
1.0000
  0
VERTEX
  8
21
 10
1.5875
 20
22.6885
 30
0.0000
  0
SEQEND
  8
0
  0
POLYLINE
  8
21
 66
1
 10
0.0000
 20
0.0000
 30
0.0000
 40
0.0762
 41
0.0762
 70
0
  0
VERTEX
  8
21
 10
0.5715
 20
22.7965
 30
0.0000
 42
0.4142
  0
VERTEX
  8
21
 10
0.6985
 20
22.6695
 30
0.0000
  0
SEQEND
  8
0
  0
POLYLINE
  8
21
 66
1
 10
0.0000
 20
0.0000
 30
0.0000
 40
0.0381
 41
0.0381
 70
0
  0
VERTEX
  8
21
 10
0.5906
 20
22.7965
 30
0.0000
 42
1.0000
  0
VERTEX
  8
21
 10
0.5524
 20
22.7965
 30
0.0000
  0
SEQEND
  8
0
  0
POLYLINE
  8
21
 66
1
 10
0.0000
 20
0.0000
 30
0.0000
 40
0.0381
 41
0.0381
 70
0
  0
VERTEX
  8
21
 10
0.6985
 20
22.6504
 30
0.0000
 42
1.0000
  0
VERTEX
  8
21
 10
0.6985
 20
22.6885
 30
0.0000
  0
SEQEND
  8
0
  0
POLYLINE
  8
21
 66
1
 10
0.0000
 20
0.0000
 30
0.0000
 40
0.0762
 41
0.0762
 70
0
  0
VERTEX
  8
21
 10
0.5715
 20
22.7965
 30
0.0000
  0
VERTEX
  8
21
 10
0.5715
 20
23.1775
 30
0.0000
  0
SEQEND
  8
0
  0
POLYLINE
  8
21
 66
1
 10
0.0000
 20
0.0000
 30
0.0000
 40
0.0381
 41
0.0381
 70
0
  0
VERTEX
  8
21
 10
0.5906
 20
23.1775
 30
0.0000
 42
1.0000
  0
VERTEX
  8
21
 10
0.5524
 20
23.1775
 30
0.0000
  0
SEQEND
  8
0
  0
POLYLINE
  8
21
 66
1
 10
0.0000
 20
0.0000
 30
0.0000
 40
0.0381
 41
0.0381
 70
0
  0
VERTEX
  8
21
 10
0.5524
 20
22.7965
 30
0.0000
 42
1.0000
  0
VERTEX
  8
21
 10
0.5906
 20
22.7965
 30
0.0000
  0
SEQEND
  8
0
  0
POLYLINE
  8
21
 66
1
 10
0.0000
 20
0.0000
 30
0.0000
 40
0.0762
 41
0.0762
 70
0
  0
VERTEX
  8
21
 10
0.6985
 20
23.3045
 30
0.0000
 42
0.4142
  0
VERTEX
  8
21
 10
0.5715
 20
23.1775
 30
0.0000
  0
SEQEND
  8
0
  0
POLYLINE
  8
21
 66
1
 10
0.0000
 20
0.0000
 30
0.0000
 40
0.0381
 41
0.0381
 70
0
  0
VERTEX
  8
21
 10
0.6985
 20
23.2855
 30
0.0000
 42
1.0000
  0
VERTEX
  8
21
 10
0.6985
 20
23.3236
 30
0.0000
  0
SEQEND
  8
0
  0
POLYLINE
  8
21
 66
1
 10
0.0000
 20
0.0000
 30
0.0000
 40
0.0381
 41
0.0381
 70
0
  0
VERTEX
  8
21
 10
0.5524
 20
23.1775
 30
0.0000
 42
1.0000
  0
VERTEX
  8
21
 10
0.5906
 20
23.1775
 30
0.0000
  0
SEQEND
  8
0
  0
POLYLINE
  8
21
 66
1
 10
0.0000
 20
0.0000
 30
0.0000
 40
0.0762
 41
0.0762
 70
0
  0
VERTEX
  8
21
 10
0.6985
 20
23.3045
 30
0.0000
  0
VERTEX
  8
21
 10
1.5875
 20
23.3045
 30
0.0000
  0
SEQEND
  8
0
  0
POLYLINE
  8
21
 66
1
 10
0.0000
 20
0.0000
 30
0.0000
 40
0.0381
 41
0.0381
 70
0
  0
VERTEX
  8
21
 10
1.5875
 20
23.2855
 30
0.0000
 42
1.0000
  0
VERTEX
  8
21
 10
1.5875
 20
23.3236
 30
0.0000
  0
SEQEND
  8
0
  0
POLYLINE
  8
21
 66
1
 10
0.0000
 20
0.0000
 30
0.0000
 40
0.0381
 41
0.0381
 70
0
  0
VERTEX
  8
21
 10
0.6985
 20
23.3236
 30
0.0000
 42
1.0000
  0
VERTEX
  8
21
 10
0.6985
 20
23.2855
 30
0.0000
  0
SEQEND
  8
0
  0
POLYLINE
  8
21
 66
1
 10
0.0000
 20
0.0000
 30
0.0000
 40
0.0762
 41
0.0762
 70
0
  0
VERTEX
  8
21
 10
1.7145
 20
23.1775
 30
0.0000
 42
0.4142
  0
VERTEX
  8
21
 10
1.5875
 20
23.3045
 30
0.0000
  0
SEQEND
  8
0
  0
POLYLINE
  8
21
 66
1
 10
0.0000
 20
0.0000
 30
0.0000
 40
0.0381
 41
0.0381
 70
0
  0
VERTEX
  8
21
 10
1.6955
 20
23.1775
 30
0.0000
 42
1.0000
  0
VERTEX
  8
21
 10
1.7336
 20
23.1775
 30
0.0000
  0
SEQEND
  8
0
  0
POLYLINE
  8
21
 66
1
 10
0.0000
 20
0.0000
 30
0.0000
 40
0.0381
 41
0.0381
 70
0
  0
VERTEX
  8
21
 10
1.5875
 20
23.3236
 30
0.0000
 42
1.0000
  0
VERTEX
  8
21
 10
1.5875
 20
23.2855
 30
0.0000
  0
SEQEND
  8
0
  0
POLYLINE
  8
21
 66
1
 10
0.0000
 20
0.0000
 30
0.0000
 40
0.0762
 41
0.0762
 70
0
  0
VERTEX
  8
21
 10
1.7145
 20
23.1775
 30
0.0000
  0
VERTEX
  8
21
 10
1.7145
 20
22.7965
 30
0.0000
  0
SEQEND
  8
0
  0
POLYLINE
  8
21
 66
1
 10
0.0000
 20
0.0000
 30
0.0000
 40
0.0381
 41
0.0381
 70
0
  0
VERTEX
  8
21
 10
1.6955
 20
22.7965
 30
0.0000
 42
1.0000
  0
VERTEX
  8
21
 10
1.7336
 20
22.7965
 30
0.0000
  0
SEQEND
  8
0
  0
POLYLINE
  8
21
 66
1
 10
0.0000
 20
0.0000
 30
0.0000
 40
0.0381
 41
0.0381
 70
0
  0
VERTEX
  8
21
 10
1.7336
 20
23.1775
 30
0.0000
 42
1.0000
  0
VERTEX
  8
21
 10
1.6955
 20
23.1775
 30
0.0000
  0
SEQEND
  8
0
  0
POLYLINE
  8
21
 66
1
 10
0.0000
 20
0.0000
 30
0.0000
 40
0.0762
 41
0.0762
 70
0
  0
VERTEX
  8
21
 10
1.5875
 20
22.6695
 30
0.0000
 42
0.4142
  0
VERTEX
  8
21
 10
1.7145
 20
22.7965
 30
0.0000
  0
SEQEND
  8
0
  0
POLYLINE
  8
21
 66
1
 10
0.0000
 20
0.0000
 30
0.0000
 40
0.0381
 41
0.0381
 70
0
  0
VERTEX
  8
21
 10
1.5875
 20
22.6885
 30
0.0000
 42
1.0000
  0
VERTEX
  8
21
 10
1.5875
 20
22.6504
 30
0.0000
  0
SEQEND
  8
0
  0
POLYLINE
  8
21
 66
1
 10
0.0000
 20
0.0000
 30
0.0000
 40
0.0381
 41
0.0381
 70
0
  0
VERTEX
  8
21
 10
1.7336
 20
22.7965
 30
0.0000
 42
1.0000
  0
VERTEX
  8
21
 10
1.6955
 20
22.7965
 30
0.0000
  0
SEQEND
  8
0
  0
POLYLINE
  8
21
 66
1
 10
0.0000
 20
0.0000
 30
0.0000
 40
0.0762
 41
0.0762
 70
0
  0
VERTEX
  8
21
 10
10.2235
 20
20.1295
 30
0.0000
  0
VERTEX
  8
21
 10
10.2235
 20
21.0185
 30
0.0000
  0
SEQEND
  8
0
  0
POLYLINE
  8
21
 66
1
 10
0.0000
 20
0.0000
 30
0.0000
 40
0.0381
 41
0.0381
 70
0
  0
VERTEX
  8
21
 10
10.2426
 20
21.0185
 30
0.0000
 42
1.0000
  0
VERTEX
  8
21
 10
10.2045
 20
21.0185
 30
0.0000
  0
SEQEND
  8
0
  0
POLYLINE
  8
21
 66
1
 10
0.0000
 20
0.0000
 30
0.0000
 40
0.0381
 41
0.0381
 70
0
  0
VERTEX
  8
21
 10
10.2045
 20
20.1295
 30
0.0000
 42
1.0000
  0
VERTEX
  8
21
 10
10.2426
 20
20.1295
 30
0.0000
  0
SEQEND
  8
0
  0
POLYLINE
  8
21
 66
1
 10
0.0000
 20
0.0000
 30
0.0000
 40
0.0762
 41
0.0762
 70
0
  0
VERTEX
  8
21
 10
10.3505
 20
21.1455
 30
0.0000
 42
0.4142
  0
VERTEX
  8
21
 10
10.2235
 20
21.0185
 30
0.0000
  0
SEQEND
  8
0
  0
POLYLINE
  8
21
 66
1
 10
0.0000
 20
0.0000
 30
0.0000
 40
0.0381
 41
0.0381
 70
0
  0
VERTEX
  8
21
 10
10.3505
 20
21.1265
 30
0.0000
 42
1.0000
  0
VERTEX
  8
21
 10
10.3505
 20
21.1646
 30
0.0000
  0
SEQEND
  8
0
  0
POLYLINE
  8
21
 66
1
 10
0.0000
 20
0.0000
 30
0.0000
 40
0.0381
 41
0.0381
 70
0
  0
VERTEX
  8
21
 10
10.2045
 20
21.0185
 30
0.0000
 42
1.0000
  0
VERTEX
  8
21
 10
10.2426
 20
21.0185
 30
0.0000
  0
SEQEND
  8
0
  0
POLYLINE
  8
21
 66
1
 10
0.0000
 20
0.0000
 30
0.0000
 40
0.0762
 41
0.0762
 70
0
  0
VERTEX
  8
21
 10
10.3505
 20
21.1455
 30
0.0000
  0
VERTEX
  8
21
 10
10.7315
 20
21.1455
 30
0.0000
  0
SEQEND
  8
0
  0
POLYLINE
  8
21
 66
1
 10
0.0000
 20
0.0000
 30
0.0000
 40
0.0381
 41
0.0381
 70
0
  0
VERTEX
  8
21
 10
10.7315
 20
21.1265
 30
0.0000
 42
1.0000
  0
VERTEX
  8
21
 10
10.7315
 20
21.1646
 30
0.0000
  0
SEQEND
  8
0
  0
POLYLINE
  8
21
 66
1
 10
0.0000
 20
0.0000
 30
0.0000
 40
0.0381
 41
0.0381
 70
0
  0
VERTEX
  8
21
 10
10.3505
 20
21.1646
 30
0.0000
 42
1.0000
  0
VERTEX
  8
21
 10
10.3505
 20
21.1265
 30
0.0000
  0
SEQEND
  8
0
  0
POLYLINE
  8
21
 66
1
 10
0.0000
 20
0.0000
 30
0.0000
 40
0.0762
 41
0.0762
 70
0
  0
VERTEX
  8
21
 10
10.8585
 20
21.0185
 30
0.0000
 42
0.4142
  0
VERTEX
  8
21
 10
10.7315
 20
21.1455
 30
0.0000
  0
SEQEND
  8
0
  0
POLYLINE
  8
21
 66
1
 10
0.0000
 20
0.0000
 30
0.0000
 40
0.0381
 41
0.0381
 70
0
  0
VERTEX
  8
21
 10
10.8395
 20
21.0185
 30
0.0000
 42
1.0000
  0
VERTEX
  8
21
 10
10.8776
 20
21.0185
 30
0.0000
  0
SEQEND
  8
0
  0
POLYLINE
  8
21
 66
1
 10
0.0000
 20
0.0000
 30
0.0000
 40
0.0381
 41
0.0381
 70
0
  0
VERTEX
  8
21
 10
10.7315
 20
21.1646
 30
0.0000
 42
1.0000
  0
VERTEX
  8
21
 10
10.7315
 20
21.1265
 30
0.0000
  0
SEQEND
  8
0
  0
POLYLINE
  8
21
 66
1
 10
0.0000
 20
0.0000
 30
0.0000
 40
0.0762
 41
0.0762
 70
0
  0
VERTEX
  8
21
 10
10.8585
 20
21.0185
 30
0.0000
  0
VERTEX
  8
21
 10
10.8585
 20
20.1295
 30
0.0000
  0
SEQEND
  8
0
  0
POLYLINE
  8
21
 66
1
 10
0.0000
 20
0.0000
 30
0.0000
 40
0.0381
 41
0.0381
 70
0
  0
VERTEX
  8
21
 10
10.8395
 20
20.1295
 30
0.0000
 42
1.0000
  0
VERTEX
  8
21
 10
10.8776
 20
20.1295
 30
0.0000
  0
SEQEND
  8
0
  0
POLYLINE
  8
21
 66
1
 10
0.0000
 20
0.0000
 30
0.0000
 40
0.0381
 41
0.0381
 70
0
  0
VERTEX
  8
21
 10
10.8776
 20
21.0185
 30
0.0000
 42
1.0000
  0
VERTEX
  8
21
 10
10.8395
 20
21.0185
 30
0.0000
  0
SEQEND
  8
0
  0
POLYLINE
  8
21
 66
1
 10
0.0000
 20
0.0000
 30
0.0000
 40
0.0762
 41
0.0762
 70
0
  0
VERTEX
  8
21
 10
10.7315
 20
20.0025
 30
0.0000
 42
0.4142
  0
VERTEX
  8
21
 10
10.8585
 20
20.1295
 30
0.0000
  0
SEQEND
  8
0
  0
POLYLINE
  8
21
 66
1
 10
0.0000
 20
0.0000
 30
0.0000
 40
0.0381
 41
0.0381
 70
0
  0
VERTEX
  8
21
 10
10.7315
 20
20.0216
 30
0.0000
 42
1.0000
  0
VERTEX
  8
21
 10
10.7315
 20
19.9835
 30
0.0000
  0
SEQEND
  8
0
  0
POLYLINE
  8
21
 66
1
 10
0.0000
 20
0.0000
 30
0.0000
 40
0.0381
 41
0.0381
 70
0
  0
VERTEX
  8
21
 10
10.8776
 20
20.1295
 30
0.0000
 42
1.0000
  0
VERTEX
  8
21
 10
10.8395
 20
20.1295
 30
0.0000
  0
SEQEND
  8
0
  0
POLYLINE
  8
21
 66
1
 10
0.0000
 20
0.0000
 30
0.0000
 40
0.0762
 41
0.0762
 70
0
  0
VERTEX
  8
21
 10
10.7315
 20
20.0025
 30
0.0000
  0
VERTEX
  8
21
 10
10.3505
 20
20.0025
 30
0.0000
  0
SEQEND
  8
0
  0
POLYLINE
  8
21
 66
1
 10
0.0000
 20
0.0000
 30
0.0000
 40
0.0381
 41
0.0381
 70
0
  0
VERTEX
  8
21
 10
10.3505
 20
20.0216
 30
0.0000
 42
1.0000
  0
VERTEX
  8
21
 10
10.3505
 20
19.9835
 30
0.0000
  0
SEQEND
  8
0
  0
POLYLINE
  8
21
 66
1
 10
0.0000
 20
0.0000
 30
0.0000
 40
0.0381
 41
0.0381
 70
0
  0
VERTEX
  8
21
 10
10.7315
 20
19.9835
 30
0.0000
 42
1.0000
  0
VERTEX
  8
21
 10
10.7315
 20
20.0216
 30
0.0000
  0
SEQEND
  8
0
  0
POLYLINE
  8
21
 66
1
 10
0.0000
 20
0.0000
 30
0.0000
 40
0.0762
 41
0.0762
 70
0
  0
VERTEX
  8
21
 10
10.2235
 20
20.1295
 30
0.0000
 42
0.4142
  0
VERTEX
  8
21
 10
10.3505
 20
20.0025
 30
0.0000
  0
SEQEND
  8
0
  0
POLYLINE
  8
21
 66
1
 10
0.0000
 20
0.0000
 30
0.0000
 40
0.0381
 41
0.0381
 70
0
  0
VERTEX
  8
21
 10
10.2426
 20
20.1295
 30
0.0000
 42
1.0000
  0
VERTEX
  8
21
 10
10.2045
 20
20.1295
 30
0.0000
  0
SEQEND
  8
0
  0
POLYLINE
  8
21
 66
1
 10
0.0000
 20
0.0000
 30
0.0000
 40
0.0381
 41
0.0381
 70
0
  0
VERTEX
  8
21
 10
10.3505
 20
19.9835
 30
0.0000
 42
1.0000
  0
VERTEX
  8
21
 10
10.3505
 20
20.0216
 30
0.0000
  0
SEQEND
  8
0
  0
POLYLINE
  8
21
 66
1
 10
0.0000
 20
0.0000
 30
0.0000
 40
0.0762
 41
0.0762
 70
0
  0
VERTEX
  8
21
 10
10.9855
 20
20.1295
 30
0.0000
  0
VERTEX
  8
21
 10
10.9855
 20
21.0185
 30
0.0000
  0
SEQEND
  8
0
  0
POLYLINE
  8
21
 66
1
 10
0.0000
 20
0.0000
 30
0.0000
 40
0.0381
 41
0.0381
 70
0
  0
VERTEX
  8
21
 10
11.0046
 20
21.0185
 30
0.0000
 42
1.0000
  0
VERTEX
  8
21
 10
10.9665
 20
21.0185
 30
0.0000
  0
SEQEND
  8
0
  0
POLYLINE
  8
21
 66
1
 10
0.0000
 20
0.0000
 30
0.0000
 40
0.0381
 41
0.0381
 70
0
  0
VERTEX
  8
21
 10
10.9665
 20
20.1295
 30
0.0000
 42
1.0000
  0
VERTEX
  8
21
 10
11.0046
 20
20.1295
 30
0.0000
  0
SEQEND
  8
0
  0
POLYLINE
  8
21
 66
1
 10
0.0000
 20
0.0000
 30
0.0000
 40
0.0762
 41
0.0762
 70
0
  0
VERTEX
  8
21
 10
11.1125
 20
21.1455
 30
0.0000
 42
0.4142
  0
VERTEX
  8
21
 10
10.9855
 20
21.0185
 30
0.0000
  0
SEQEND
  8
0
  0
POLYLINE
  8
21
 66
1
 10
0.0000
 20
0.0000
 30
0.0000
 40
0.0381
 41
0.0381
 70
0
  0
VERTEX
  8
21
 10
11.1125
 20
21.1265
 30
0.0000
 42
1.0000
  0
VERTEX
  8
21
 10
11.1125
 20
21.1646
 30
0.0000
  0
SEQEND
  8
0
  0
POLYLINE
  8
21
 66
1
 10
0.0000
 20
0.0000
 30
0.0000
 40
0.0381
 41
0.0381
 70
0
  0
VERTEX
  8
21
 10
10.9665
 20
21.0185
 30
0.0000
 42
1.0000
  0
VERTEX
  8
21
 10
11.0046
 20
21.0185
 30
0.0000
  0
SEQEND
  8
0
  0
POLYLINE
  8
21
 66
1
 10
0.0000
 20
0.0000
 30
0.0000
 40
0.0762
 41
0.0762
 70
0
  0
VERTEX
  8
21
 10
11.1125
 20
21.1455
 30
0.0000
  0
VERTEX
  8
21
 10
11.4935
 20
21.1455
 30
0.0000
  0
SEQEND
  8
0
  0
POLYLINE
  8
21
 66
1
 10
0.0000
 20
0.0000
 30
0.0000
 40
0.0381
 41
0.0381
 70
0
  0
VERTEX
  8
21
 10
11.4935
 20
21.1265
 30
0.0000
 42
1.0000
  0
VERTEX
  8
21
 10
11.4935
 20
21.1646
 30
0.0000
  0
SEQEND
  8
0
  0
POLYLINE
  8
21
 66
1
 10
0.0000
 20
0.0000
 30
0.0000
 40
0.0381
 41
0.0381
 70
0
  0
VERTEX
  8
21
 10
11.1125
 20
21.1646
 30
0.0000
 42
1.0000
  0
VERTEX
  8
21
 10
11.1125
 20
21.1265
 30
0.0000
  0
SEQEND
  8
0
  0
POLYLINE
  8
21
 66
1
 10
0.0000
 20
0.0000
 30
0.0000
 40
0.0762
 41
0.0762
 70
0
  0
VERTEX
  8
21
 10
11.6205
 20
21.0185
 30
0.0000
 42
0.4142
  0
VERTEX
  8
21
 10
11.4935
 20
21.1455
 30
0.0000
  0
SEQEND
  8
0
  0
POLYLINE
  8
21
 66
1
 10
0.0000
 20
0.0000
 30
0.0000
 40
0.0381
 41
0.0381
 70
0
  0
VERTEX
  8
21
 10
11.6014
 20
21.0185
 30
0.0000
 42
1.0000
  0
VERTEX
  8
21
 10
11.6395
 20
21.0185
 30
0.0000
  0
SEQEND
  8
0
  0
POLYLINE
  8
21
 66
1
 10
0.0000
 20
0.0000
 30
0.0000
 40
0.0381
 41
0.0381
 70
0
  0
VERTEX
  8
21
 10
11.4935
 20
21.1646
 30
0.0000
 42
1.0000
  0
VERTEX
  8
21
 10
11.4935
 20
21.1265
 30
0.0000
  0
SEQEND
  8
0
  0
POLYLINE
  8
21
 66
1
 10
0.0000
 20
0.0000
 30
0.0000
 40
0.0762
 41
0.0762
 70
0
  0
VERTEX
  8
21
 10
11.6205
 20
21.0185
 30
0.0000
  0
VERTEX
  8
21
 10
11.6205
 20
20.1295
 30
0.0000
  0
SEQEND
  8
0
  0
POLYLINE
  8
21
 66
1
 10
0.0000
 20
0.0000
 30
0.0000
 40
0.0381
 41
0.0381
 70
0
  0
VERTEX
  8
21
 10
11.6014
 20
20.1295
 30
0.0000
 42
1.0000
  0
VERTEX
  8
21
 10
11.6395
 20
20.1295
 30
0.0000
  0
SEQEND
  8
0
  0
POLYLINE
  8
21
 66
1
 10
0.0000
 20
0.0000
 30
0.0000
 40
0.0381
 41
0.0381
 70
0
  0
VERTEX
  8
21
 10
11.6395
 20
21.0185
 30
0.0000
 42
1.0000
  0
VERTEX
  8
21
 10
11.6014
 20
21.0185
 30
0.0000
  0
SEQEND
  8
0
  0
POLYLINE
  8
21
 66
1
 10
0.0000
 20
0.0000
 30
0.0000
 40
0.0762
 41
0.0762
 70
0
  0
VERTEX
  8
21
 10
11.4935
 20
20.0025
 30
0.0000
 42
0.4142
  0
VERTEX
  8
21
 10
11.6205
 20
20.1295
 30
0.0000
  0
SEQEND
  8
0
  0
POLYLINE
  8
21
 66
1
 10
0.0000
 20
0.0000
 30
0.0000
 40
0.0381
 41
0.0381
 70
0
  0
VERTEX
  8
21
 10
11.4935
 20
20.0216
 30
0.0000
 42
1.0000
  0
VERTEX
  8
21
 10
11.4935
 20
19.9835
 30
0.0000
  0
SEQEND
  8
0
  0
POLYLINE
  8
21
 66
1
 10
0.0000
 20
0.0000
 30
0.0000
 40
0.0381
 41
0.0381
 70
0
  0
VERTEX
  8
21
 10
11.6395
 20
20.1295
 30
0.0000
 42
1.0000
  0
VERTEX
  8
21
 10
11.6014
 20
20.1295
 30
0.0000
  0
SEQEND
  8
0
  0
POLYLINE
  8
21
 66
1
 10
0.0000
 20
0.0000
 30
0.0000
 40
0.0762
 41
0.0762
 70
0
  0
VERTEX
  8
21
 10
11.4935
 20
20.0025
 30
0.0000
  0
VERTEX
  8
21
 10
11.1125
 20
20.0025
 30
0.0000
  0
SEQEND
  8
0
  0
POLYLINE
  8
21
 66
1
 10
0.0000
 20
0.0000
 30
0.0000
 40
0.0381
 41
0.0381
 70
0
  0
VERTEX
  8
21
 10
11.1125
 20
20.0216
 30
0.0000
 42
1.0000
  0
VERTEX
  8
21
 10
11.1125
 20
19.9835
 30
0.0000
  0
SEQEND
  8
0
  0
POLYLINE
  8
21
 66
1
 10
0.0000
 20
0.0000
 30
0.0000
 40
0.0381
 41
0.0381
 70
0
  0
VERTEX
  8
21
 10
11.4935
 20
19.9835
 30
0.0000
 42
1.0000
  0
VERTEX
  8
21
 10
11.4935
 20
20.0216
 30
0.0000
  0
SEQEND
  8
0
  0
POLYLINE
  8
21
 66
1
 10
0.0000
 20
0.0000
 30
0.0000
 40
0.0762
 41
0.0762
 70
0
  0
VERTEX
  8
21
 10
10.9855
 20
20.1295
 30
0.0000
 42
0.4142
  0
VERTEX
  8
21
 10
11.1125
 20
20.0025
 30
0.0000
  0
SEQEND
  8
0
  0
POLYLINE
  8
21
 66
1
 10
0.0000
 20
0.0000
 30
0.0000
 40
0.0381
 41
0.0381
 70
0
  0
VERTEX
  8
21
 10
11.0046
 20
20.1295
 30
0.0000
 42
1.0000
  0
VERTEX
  8
21
 10
10.9665
 20
20.1295
 30
0.0000
  0
SEQEND
  8
0
  0
POLYLINE
  8
21
 66
1
 10
0.0000
 20
0.0000
 30
0.0000
 40
0.0381
 41
0.0381
 70
0
  0
VERTEX
  8
21
 10
11.1125
 20
19.9835
 30
0.0000
 42
1.0000
  0
VERTEX
  8
21
 10
11.1125
 20
20.0216
 30
0.0000
  0
SEQEND
  8
0
  0
POLYLINE
  8
21
 66
1
 10
0.0000
 20
0.0000
 30
0.0000
 40
0.0762
 41
0.0762
 70
0
  0
VERTEX
  8
21
 10
9.2075
 20
19.8755
 30
0.0000
  0
VERTEX
  8
21
 10
8.3185
 20
19.8755
 30
0.0000
  0
SEQEND
  8
0
  0
POLYLINE
  8
21
 66
1
 10
0.0000
 20
0.0000
 30
0.0000
 40
0.0381
 41
0.0381
 70
0
  0
VERTEX
  8
21
 10
8.3185
 20
19.8946
 30
0.0000
 42
1.0000
  0
VERTEX
  8
21
 10
8.3185
 20
19.8565
 30
0.0000
  0
SEQEND
  8
0
  0
POLYLINE
  8
21
 66
1
 10
0.0000
 20
0.0000
 30
0.0000
 40
0.0381
 41
0.0381
 70
0
  0
VERTEX
  8
21
 10
9.2075
 20
19.8565
 30
0.0000
 42
1.0000
  0
VERTEX
  8
21
 10
9.2075
 20
19.8946
 30
0.0000
  0
SEQEND
  8
0
  0
POLYLINE
  8
21
 66
1
 10
0.0000
 20
0.0000
 30
0.0000
 40
0.0762
 41
0.0762
 70
0
  0
VERTEX
  8
21
 10
8.1915
 20
20.0025
 30
0.0000
 42
0.4142
  0
VERTEX
  8
21
 10
8.3185
 20
19.8755
 30
0.0000
  0
SEQEND
  8
0
  0
POLYLINE
  8
21
 66
1
 10
0.0000
 20
0.0000
 30
0.0000
 40
0.0381
 41
0.0381
 70
0
  0
VERTEX
  8
21
 10
8.2105
 20
20.0025
 30
0.0000
 42
1.0000
  0
VERTEX
  8
21
 10
8.1724
 20
20.0025
 30
0.0000
  0
SEQEND
  8
0
  0
POLYLINE
  8
21
 66
1
 10
0.0000
 20
0.0000
 30
0.0000
 40
0.0381
 41
0.0381
 70
0
  0
VERTEX
  8
21
 10
8.3185
 20
19.8565
 30
0.0000
 42
1.0000
  0
VERTEX
  8
21
 10
8.3185
 20
19.8946
 30
0.0000
  0
SEQEND
  8
0
  0
POLYLINE
  8
21
 66
1
 10
0.0000
 20
0.0000
 30
0.0000
 40
0.0762
 41
0.0762
 70
0
  0
VERTEX
  8
21
 10
8.1915
 20
20.0025
 30
0.0000
  0
VERTEX
  8
21
 10
8.1915
 20
20.3835
 30
0.0000
  0
SEQEND
  8
0
  0
POLYLINE
  8
21
 66
1
 10
0.0000
 20
0.0000
 30
0.0000
 40
0.0381
 41
0.0381
 70
0
  0
VERTEX
  8
21
 10
8.2105
 20
20.3835
 30
0.0000
 42
1.0000
  0
VERTEX
  8
21
 10
8.1724
 20
20.3835
 30
0.0000
  0
SEQEND
  8
0
  0
POLYLINE
  8
21
 66
1
 10
0.0000
 20
0.0000
 30
0.0000
 40
0.0381
 41
0.0381
 70
0
  0
VERTEX
  8
21
 10
8.1724
 20
20.0025
 30
0.0000
 42
1.0000
  0
VERTEX
  8
21
 10
8.2105
 20
20.0025
 30
0.0000
  0
SEQEND
  8
0
  0
POLYLINE
  8
21
 66
1
 10
0.0000
 20
0.0000
 30
0.0000
 40
0.0762
 41
0.0762
 70
0
  0
VERTEX
  8
21
 10
8.3185
 20
20.5105
 30
0.0000
 42
0.4142
  0
VERTEX
  8
21
 10
8.1915
 20
20.3835
 30
0.0000
  0
SEQEND
  8
0
  0
POLYLINE
  8
21
 66
1
 10
0.0000
 20
0.0000
 30
0.0000
 40
0.0381
 41
0.0381
 70
0
  0
VERTEX
  8
21
 10
8.3185
 20
20.4915
 30
0.0000
 42
1.0000
  0
VERTEX
  8
21
 10
8.3185
 20
20.5296
 30
0.0000
  0
SEQEND
  8
0
  0
POLYLINE
  8
21
 66
1
 10
0.0000
 20
0.0000
 30
0.0000
 40
0.0381
 41
0.0381
 70
0
  0
VERTEX
  8
21
 10
8.1724
 20
20.3835
 30
0.0000
 42
1.0000
  0
VERTEX
  8
21
 10
8.2105
 20
20.3835
 30
0.0000
  0
SEQEND
  8
0
  0
POLYLINE
  8
21
 66
1
 10
0.0000
 20
0.0000
 30
0.0000
 40
0.0762
 41
0.0762
 70
0
  0
VERTEX
  8
21
 10
8.3185
 20
20.5105
 30
0.0000
  0
VERTEX
  8
21
 10
9.2075
 20
20.5105
 30
0.0000
  0
SEQEND
  8
0
  0
POLYLINE
  8
21
 66
1
 10
0.0000
 20
0.0000
 30
0.0000
 40
0.0381
 41
0.0381
 70
0
  0
VERTEX
  8
21
 10
9.2075
 20
20.4915
 30
0.0000
 42
1.0000
  0
VERTEX
  8
21
 10
9.2075
 20
20.5296
 30
0.0000
  0
SEQEND
  8
0
  0
POLYLINE
  8
21
 66
1
 10
0.0000
 20
0.0000
 30
0.0000
 40
0.0381
 41
0.0381
 70
0
  0
VERTEX
  8
21
 10
8.3185
 20
20.5296
 30
0.0000
 42
1.0000
  0
VERTEX
  8
21
 10
8.3185
 20
20.4915
 30
0.0000
  0
SEQEND
  8
0
  0
POLYLINE
  8
21
 66
1
 10
0.0000
 20
0.0000
 30
0.0000
 40
0.0762
 41
0.0762
 70
0
  0
VERTEX
  8
21
 10
9.3345
 20
20.3835
 30
0.0000
 42
0.4142
  0
VERTEX
  8
21
 10
9.2075
 20
20.5105
 30
0.0000
  0
SEQEND
  8
0
  0
POLYLINE
  8
21
 66
1
 10
0.0000
 20
0.0000
 30
0.0000
 40
0.0381
 41
0.0381
 70
0
  0
VERTEX
  8
21
 10
9.3155
 20
20.3835
 30
0.0000
 42
1.0000
  0
VERTEX
  8
21
 10
9.3536
 20
20.3835
 30
0.0000
  0
SEQEND
  8
0
  0
POLYLINE
  8
21
 66
1
 10
0.0000
 20
0.0000
 30
0.0000
 40
0.0381
 41
0.0381
 70
0
  0
VERTEX
  8
21
 10
9.2075
 20
20.5296
 30
0.0000
 42
1.0000
  0
VERTEX
  8
21
 10
9.2075
 20
20.4915
 30
0.0000
  0
SEQEND
  8
0
  0
POLYLINE
  8
21
 66
1
 10
0.0000
 20
0.0000
 30
0.0000
 40
0.0762
 41
0.0762
 70
0
  0
VERTEX
  8
21
 10
9.3345
 20
20.3835
 30
0.0000
  0
VERTEX
  8
21
 10
9.3345
 20
20.0025
 30
0.0000
  0
SEQEND
  8
0
  0
POLYLINE
  8
21
 66
1
 10
0.0000
 20
0.0000
 30
0.0000
 40
0.0381
 41
0.0381
 70
0
  0
VERTEX
  8
21
 10
9.3155
 20
20.0025
 30
0.0000
 42
1.0000
  0
VERTEX
  8
21
 10
9.3536
 20
20.0025
 30
0.0000
  0
SEQEND
  8
0
  0
POLYLINE
  8
21
 66
1
 10
0.0000
 20
0.0000
 30
0.0000
 40
0.0381
 41
0.0381
 70
0
  0
VERTEX
  8
21
 10
9.3536
 20
20.3835
 30
0.0000
 42
1.0000
  0
VERTEX
  8
21
 10
9.3155
 20
20.3835
 30
0.0000
  0
SEQEND
  8
0
  0
POLYLINE
  8
21
 66
1
 10
0.0000
 20
0.0000
 30
0.0000
 40
0.0762
 41
0.0762
 70
0
  0
VERTEX
  8
21
 10
9.2075
 20
19.8755
 30
0.0000
 42
0.4142
  0
VERTEX
  8
21
 10
9.3345
 20
20.0025
 30
0.0000
  0
SEQEND
  8
0
  0
POLYLINE
  8
21
 66
1
 10
0.0000
 20
0.0000
 30
0.0000
 40
0.0381
 41
0.0381
 70
0
  0
VERTEX
  8
21
 10
9.2075
 20
19.8946
 30
0.0000
 42
1.0000
  0
VERTEX
  8
21
 10
9.2075
 20
19.8565
 30
0.0000
  0
SEQEND
  8
0
  0
POLYLINE
  8
21
 66
1
 10
0.0000
 20
0.0000
 30
0.0000
 40
0.0381
 41
0.0381
 70
0
  0
VERTEX
  8
21
 10
9.3536
 20
20.0025
 30
0.0000
 42
1.0000
  0
VERTEX
  8
21
 10
9.3155
 20
20.0025
 30
0.0000
  0
SEQEND
  8
0
  0
POLYLINE
  8
21
 66
1
 10
0.0000
 20
0.0000
 30
0.0000
 40
0.0762
 41
0.0762
 70
0
  0
VERTEX
  8
21
 10
9.2075
 20
20.6375
 30
0.0000
  0
VERTEX
  8
21
 10
8.3185
 20
20.6375
 30
0.0000
  0
SEQEND
  8
0
  0
POLYLINE
  8
21
 66
1
 10
0.0000
 20
0.0000
 30
0.0000
 40
0.0381
 41
0.0381
 70
0
  0
VERTEX
  8
21
 10
8.3185
 20
20.6565
 30
0.0000
 42
1.0000
  0
VERTEX
  8
21
 10
8.3185
 20
20.6184
 30
0.0000
  0
SEQEND
  8
0
  0
POLYLINE
  8
21
 66
1
 10
0.0000
 20
0.0000
 30
0.0000
 40
0.0381
 41
0.0381
 70
0
  0
VERTEX
  8
21
 10
9.2075
 20
20.6184
 30
0.0000
 42
1.0000
  0
VERTEX
  8
21
 10
9.2075
 20
20.6565
 30
0.0000
  0
SEQEND
  8
0
  0
POLYLINE
  8
21
 66
1
 10
0.0000
 20
0.0000
 30
0.0000
 40
0.0762
 41
0.0762
 70
0
  0
VERTEX
  8
21
 10
8.1915
 20
20.7645
 30
0.0000
 42
0.4142
  0
VERTEX
  8
21
 10
8.3185
 20
20.6375
 30
0.0000
  0
SEQEND
  8
0
  0
POLYLINE
  8
21
 66
1
 10
0.0000
 20
0.0000
 30
0.0000
 40
0.0381
 41
0.0381
 70
0
  0
VERTEX
  8
21
 10
8.2105
 20
20.7645
 30
0.0000
 42
1.0000
  0
VERTEX
  8
21
 10
8.1724
 20
20.7645
 30
0.0000
  0
SEQEND
  8
0
  0
POLYLINE
  8
21
 66
1
 10
0.0000
 20
0.0000
 30
0.0000
 40
0.0381
 41
0.0381
 70
0
  0
VERTEX
  8
21
 10
8.3185
 20
20.6184
 30
0.0000
 42
1.0000
  0
VERTEX
  8
21
 10
8.3185
 20
20.6565
 30
0.0000
  0
SEQEND
  8
0
  0
POLYLINE
  8
21
 66
1
 10
0.0000
 20
0.0000
 30
0.0000
 40
0.0762
 41
0.0762
 70
0
  0
VERTEX
  8
21
 10
8.1915
 20
20.7645
 30
0.0000
  0
VERTEX
  8
21
 10
8.1915
 20
21.1455
 30
0.0000
  0
SEQEND
  8
0
  0
POLYLINE
  8
21
 66
1
 10
0.0000
 20
0.0000
 30
0.0000
 40
0.0381
 41
0.0381
 70
0
  0
VERTEX
  8
21
 10
8.2105
 20
21.1455
 30
0.0000
 42
1.0000
  0
VERTEX
  8
21
 10
8.1724
 20
21.1455
 30
0.0000
  0
SEQEND
  8
0
  0
POLYLINE
  8
21
 66
1
 10
0.0000
 20
0.0000
 30
0.0000
 40
0.0381
 41
0.0381
 70
0
  0
VERTEX
  8
21
 10
8.1724
 20
20.7645
 30
0.0000
 42
1.0000
  0
VERTEX
  8
21
 10
8.2105
 20
20.7645
 30
0.0000
  0
SEQEND
  8
0
  0
POLYLINE
  8
21
 66
1
 10
0.0000
 20
0.0000
 30
0.0000
 40
0.0762
 41
0.0762
 70
0
  0
VERTEX
  8
21
 10
8.3185
 20
21.2725
 30
0.0000
 42
0.4142
  0
VERTEX
  8
21
 10
8.1915
 20
21.1455
 30
0.0000
  0
SEQEND
  8
0
  0
POLYLINE
  8
21
 66
1
 10
0.0000
 20
0.0000
 30
0.0000
 40
0.0381
 41
0.0381
 70
0
  0
VERTEX
  8
21
 10
8.3185
 20
21.2535
 30
0.0000
 42
1.0000
  0
VERTEX
  8
21
 10
8.3185
 20
21.2916
 30
0.0000
  0
SEQEND
  8
0
  0
POLYLINE
  8
21
 66
1
 10
0.0000
 20
0.0000
 30
0.0000
 40
0.0381
 41
0.0381
 70
0
  0
VERTEX
  8
21
 10
8.1724
 20
21.1455
 30
0.0000
 42
1.0000
  0
VERTEX
  8
21
 10
8.2105
 20
21.1455
 30
0.0000
  0
SEQEND
  8
0
  0
POLYLINE
  8
21
 66
1
 10
0.0000
 20
0.0000
 30
0.0000
 40
0.0762
 41
0.0762
 70
0
  0
VERTEX
  8
21
 10
8.3185
 20
21.2725
 30
0.0000
  0
VERTEX
  8
21
 10
9.2075
 20
21.2725
 30
0.0000
  0
SEQEND
  8
0
  0
POLYLINE
  8
21
 66
1
 10
0.0000
 20
0.0000
 30
0.0000
 40
0.0381
 41
0.0381
 70
0
  0
VERTEX
  8
21
 10
9.2075
 20
21.2535
 30
0.0000
 42
1.0000
  0
VERTEX
  8
21
 10
9.2075
 20
21.2916
 30
0.0000
  0
SEQEND
  8
0
  0
POLYLINE
  8
21
 66
1
 10
0.0000
 20
0.0000
 30
0.0000
 40
0.0381
 41
0.0381
 70
0
  0
VERTEX
  8
21
 10
8.3185
 20
21.2916
 30
0.0000
 42
1.0000
  0
VERTEX
  8
21
 10
8.3185
 20
21.2535
 30
0.0000
  0
SEQEND
  8
0
  0
POLYLINE
  8
21
 66
1
 10
0.0000
 20
0.0000
 30
0.0000
 40
0.0762
 41
0.0762
 70
0
  0
VERTEX
  8
21
 10
9.3345
 20
21.1455
 30
0.0000
 42
0.4142
  0
VERTEX
  8
21
 10
9.2075
 20
21.2725
 30
0.0000
  0
SEQEND
  8
0
  0
POLYLINE
  8
21
 66
1
 10
0.0000
 20
0.0000
 30
0.0000
 40
0.0381
 41
0.0381
 70
0
  0
VERTEX
  8
21
 10
9.3155
 20
21.1455
 30
0.0000
 42
1.0000
  0
VERTEX
  8
21
 10
9.3536
 20
21.1455
 30
0.0000
  0
SEQEND
  8
0
  0
POLYLINE
  8
21
 66
1
 10
0.0000
 20
0.0000
 30
0.0000
 40
0.0381
 41
0.0381
 70
0
  0
VERTEX
  8
21
 10
9.2075
 20
21.2916
 30
0.0000
 42
1.0000
  0
VERTEX
  8
21
 10
9.2075
 20
21.2535
 30
0.0000
  0
SEQEND
  8
0
  0
POLYLINE
  8
21
 66
1
 10
0.0000
 20
0.0000
 30
0.0000
 40
0.0762
 41
0.0762
 70
0
  0
VERTEX
  8
21
 10
9.3345
 20
21.1455
 30
0.0000
  0
VERTEX
  8
21
 10
9.3345
 20
20.7645
 30
0.0000
  0
SEQEND
  8
0
  0
POLYLINE
  8
21
 66
1
 10
0.0000
 20
0.0000
 30
0.0000
 40
0.0381
 41
0.0381
 70
0
  0
VERTEX
  8
21
 10
9.3155
 20
20.7645
 30
0.0000
 42
1.0000
  0
VERTEX
  8
21
 10
9.3536
 20
20.7645
 30
0.0000
  0
SEQEND
  8
0
  0
POLYLINE
  8
21
 66
1
 10
0.0000
 20
0.0000
 30
0.0000
 40
0.0381
 41
0.0381
 70
0
  0
VERTEX
  8
21
 10
9.3536
 20
21.1455
 30
0.0000
 42
1.0000
  0
VERTEX
  8
21
 10
9.3155
 20
21.1455
 30
0.0000
  0
SEQEND
  8
0
  0
POLYLINE
  8
21
 66
1
 10
0.0000
 20
0.0000
 30
0.0000
 40
0.0762
 41
0.0762
 70
0
  0
VERTEX
  8
21
 10
9.2075
 20
20.6375
 30
0.0000
 42
0.4142
  0
VERTEX
  8
21
 10
9.3345
 20
20.7645
 30
0.0000
  0
SEQEND
  8
0
  0
POLYLINE
  8
21
 66
1
 10
0.0000
 20
0.0000
 30
0.0000
 40
0.0381
 41
0.0381
 70
0
  0
VERTEX
  8
21
 10
9.2075
 20
20.6565
 30
0.0000
 42
1.0000
  0
VERTEX
  8
21
 10
9.2075
 20
20.6184
 30
0.0000
  0
SEQEND
  8
0
  0
POLYLINE
  8
21
 66
1
 10
0.0000
 20
0.0000
 30
0.0000
 40
0.0381
 41
0.0381
 70
0
  0
VERTEX
  8
21
 10
9.3536
 20
20.7645
 30
0.0000
 42
1.0000
  0
VERTEX
  8
21
 10
9.3155
 20
20.7645
 30
0.0000
  0
SEQEND
  8
0
  0
POLYLINE
  8
21
 66
1
 10
0.0000
 20
0.0000
 30
0.0000
 40
0.0762
 41
0.0762
 70
0
  0
VERTEX
  8
21
 10
12.5095
 20
19.9898
 30
0.0000
  0
VERTEX
  8
21
 10
12.5095
 20
21.1582
 30
0.0000
  0
SEQEND
  8
0
  0
POLYLINE
  8
21
 66
1
 10
0.0000
 20
0.0000
 30
0.0000
 40
0.0381
 41
0.0381
 70
0
  0
VERTEX
  8
21
 10
12.5286
 20
21.1582
 30
0.0000
 42
1.0000
  0
VERTEX
  8
21
 10
12.4905
 20
21.1582
 30
0.0000
  0
SEQEND
  8
0
  0
POLYLINE
  8
21
 66
1
 10
0.0000
 20
0.0000
 30
0.0000
 40
0.0381
 41
0.0381
 70
0
  0
VERTEX
  8
21
 10
12.4905
 20
19.9898
 30
0.0000
 42
1.0000
  0
VERTEX
  8
21
 10
12.5286
 20
19.9898
 30
0.0000
  0
SEQEND
  8
0
  0
POLYLINE
  8
21
 66
1
 10
0.0000
 20
0.0000
 30
0.0000
 40
0.0762
 41
0.0762
 70
0
  0
VERTEX
  8
21
 10
12.6365
 20
21.2852
 30
0.0000
 42
0.4142
  0
VERTEX
  8
21
 10
12.5095
 20
21.1582
 30
0.0000
  0
SEQEND
  8
0
  0
POLYLINE
  8
21
 66
1
 10
0.0000
 20
0.0000
 30
0.0000
 40
0.0381
 41
0.0381
 70
0
  0
VERTEX
  8
21
 10
12.6365
 20
21.2661
 30
0.0000
 42
1.0000
  0
VERTEX
  8
21
 10
12.6365
 20
21.3042
 30
0.0000
  0
SEQEND
  8
0
  0
POLYLINE
  8
21
 66
1
 10
0.0000
 20
0.0000
 30
0.0000
 40
0.0381
 41
0.0381
 70
0
  0
VERTEX
  8
21
 10
12.4905
 20
21.1582
 30
0.0000
 42
1.0000
  0
VERTEX
  8
21
 10
12.5286
 20
21.1582
 30
0.0000
  0
SEQEND
  8
0
  0
POLYLINE
  8
21
 66
1
 10
0.0000
 20
0.0000
 30
0.0000
 40
0.0762
 41
0.0762
 70
0
  0
VERTEX
  8
21
 10
12.6365
 20
21.2852
 30
0.0000
  0
VERTEX
  8
21
 10
13.0175
 20
21.2852
 30
0.0000
  0
SEQEND
  8
0
  0
POLYLINE
  8
21
 66
1
 10
0.0000
 20
0.0000
 30
0.0000
 40
0.0381
 41
0.0381
 70
0
  0
VERTEX
  8
21
 10
13.0175
 20
21.2661
 30
0.0000
 42
1.0000
  0
VERTEX
  8
21
 10
13.0175
 20
21.3042
 30
0.0000
  0
SEQEND
  8
0
  0
POLYLINE
  8
21
 66
1
 10
0.0000
 20
0.0000
 30
0.0000
 40
0.0381
 41
0.0381
 70
0
  0
VERTEX
  8
21
 10
12.6365
 20
21.3042
 30
0.0000
 42
1.0000
  0
VERTEX
  8
21
 10
12.6365
 20
21.2661
 30
0.0000
  0
SEQEND
  8
0
  0
POLYLINE
  8
21
 66
1
 10
0.0000
 20
0.0000
 30
0.0000
 40
0.0762
 41
0.0762
 70
0
  0
VERTEX
  8
21
 10
13.1445
 20
21.1582
 30
0.0000
 42
0.4142
  0
VERTEX
  8
21
 10
13.0175
 20
21.2852
 30
0.0000
  0
SEQEND
  8
0
  0
POLYLINE
  8
21
 66
1
 10
0.0000
 20
0.0000
 30
0.0000
 40
0.0381
 41
0.0381
 70
0
  0
VERTEX
  8
21
 10
13.1255
 20
21.1582
 30
0.0000
 42
1.0000
  0
VERTEX
  8
21
 10
13.1636
 20
21.1582
 30
0.0000
  0
SEQEND
  8
0
  0
POLYLINE
  8
21
 66
1
 10
0.0000
 20
0.0000
 30
0.0000
 40
0.0381
 41
0.0381
 70
0
  0
VERTEX
  8
21
 10
13.0175
 20
21.3042
 30
0.0000
 42
1.0000
  0
VERTEX
  8
21
 10
13.0175
 20
21.2661
 30
0.0000
  0
SEQEND
  8
0
  0
POLYLINE
  8
21
 66
1
 10
0.0000
 20
0.0000
 30
0.0000
 40
0.0762
 41
0.0762
 70
0
  0
VERTEX
  8
21
 10
13.1445
 20
21.1582
 30
0.0000
  0
VERTEX
  8
21
 10
13.1445
 20
19.9898
 30
0.0000
  0
SEQEND
  8
0
  0
POLYLINE
  8
21
 66
1
 10
0.0000
 20
0.0000
 30
0.0000
 40
0.0381
 41
0.0381
 70
0
  0
VERTEX
  8
21
 10
13.1255
 20
19.9898
 30
0.0000
 42
1.0000
  0
VERTEX
  8
21
 10
13.1636
 20
19.9898
 30
0.0000
  0
SEQEND
  8
0
  0
POLYLINE
  8
21
 66
1
 10
0.0000
 20
0.0000
 30
0.0000
 40
0.0381
 41
0.0381
 70
0
  0
VERTEX
  8
21
 10
13.1636
 20
21.1582
 30
0.0000
 42
1.0000
  0
VERTEX
  8
21
 10
13.1255
 20
21.1582
 30
0.0000
  0
SEQEND
  8
0
  0
POLYLINE
  8
21
 66
1
 10
0.0000
 20
0.0000
 30
0.0000
 40
0.0762
 41
0.0762
 70
0
  0
VERTEX
  8
21
 10
13.0175
 20
19.8628
 30
0.0000
 42
0.4142
  0
VERTEX
  8
21
 10
13.1445
 20
19.9898
 30
0.0000
  0
SEQEND
  8
0
  0
POLYLINE
  8
21
 66
1
 10
0.0000
 20
0.0000
 30
0.0000
 40
0.0381
 41
0.0381
 70
0
  0
VERTEX
  8
21
 10
13.0175
 20
19.8819
 30
0.0000
 42
1.0000
  0
VERTEX
  8
21
 10
13.0175
 20
19.8438
 30
0.0000
  0
SEQEND
  8
0
  0
POLYLINE
  8
21
 66
1
 10
0.0000
 20
0.0000
 30
0.0000
 40
0.0381
 41
0.0381
 70
0
  0
VERTEX
  8
21
 10
13.1636
 20
19.9898
 30
0.0000
 42
1.0000
  0
VERTEX
  8
21
 10
13.1255
 20
19.9898
 30
0.0000
  0
SEQEND
  8
0
  0
POLYLINE
  8
21
 66
1
 10
0.0000
 20
0.0000
 30
0.0000
 40
0.0762
 41
0.0762
 70
0
  0
VERTEX
  8
21
 10
13.0175
 20
19.8628
 30
0.0000
  0
VERTEX
  8
21
 10
12.6365
 20
19.8628
 30
0.0000
  0
SEQEND
  8
0
  0
POLYLINE
  8
21
 66
1
 10
0.0000
 20
0.0000
 30
0.0000
 40
0.0381
 41
0.0381
 70
0
  0
VERTEX
  8
21
 10
12.6365
 20
19.8819
 30
0.0000
 42
1.0000
  0
VERTEX
  8
21
 10
12.6365
 20
19.8438
 30
0.0000
  0
SEQEND
  8
0
  0
POLYLINE
  8
21
 66
1
 10
0.0000
 20
0.0000
 30
0.0000
 40
0.0381
 41
0.0381
 70
0
  0
VERTEX
  8
21
 10
13.0175
 20
19.8438
 30
0.0000
 42
1.0000
  0
VERTEX
  8
21
 10
13.0175
 20
19.8819
 30
0.0000
  0
SEQEND
  8
0
  0
POLYLINE
  8
21
 66
1
 10
0.0000
 20
0.0000
 30
0.0000
 40
0.0762
 41
0.0762
 70
0
  0
VERTEX
  8
21
 10
12.5095
 20
19.9898
 30
0.0000
 42
0.4142
  0
VERTEX
  8
21
 10
12.6365
 20
19.8628
 30
0.0000
  0
SEQEND
  8
0
  0
POLYLINE
  8
21
 66
1
 10
0.0000
 20
0.0000
 30
0.0000
 40
0.0381
 41
0.0381
 70
0
  0
VERTEX
  8
21
 10
12.5286
 20
19.9898
 30
0.0000
 42
1.0000
  0
VERTEX
  8
21
 10
12.4905
 20
19.9898
 30
0.0000
  0
SEQEND
  8
0
  0
POLYLINE
  8
21
 66
1
 10
0.0000
 20
0.0000
 30
0.0000
 40
0.0381
 41
0.0381
 70
0
  0
VERTEX
  8
21
 10
12.6365
 20
19.8438
 30
0.0000
 42
1.0000
  0
VERTEX
  8
21
 10
12.6365
 20
19.8819
 30
0.0000
  0
SEQEND
  8
0
  0
INSERT
  8
17
  2
OCTAGONP
 10
0.6350
 20
25.0190
 30
0.0000
 41
1.5000
 42
1.5000
 43
1.0000
 50
0.0000
  0
INSERT
  8
17
  2
OCTAGONP
 10
0.6350
 20
25.0190
 30
0.0000
 41
1.5000
 42
1.5000
 43
1.0000
 50
0.0000
  0
INSERT
  8
17
  2
ROUNDP
 10
-0.6350
 20
25.0190
 30
0.0000
 41
1.2700
 42
1.2700
 43
1.0000
 50
270.0000
  0
INSERT
  8
17
  2
ROUNDP
 10
-0.6350
 20
25.0190
 30
0.0000
 41
1.2700
 42
1.2700
 43
1.0000
 50
270.0000
  0
INSERT
  8
17
  2
OCTAGONP
 10
15.8750
 20
25.0190
 30
0.0000
 41
1.5000
 42
1.5000
 43
1.0000
 50
180.0000
  0
INSERT
  8
17
  2
OCTAGONP
 10
15.8750
 20
25.0190
 30
0.0000
 41
1.5000
 42
1.5000
 43
1.0000
 50
180.0000
  0
INSERT
  8
17
  2
ROUNDP
 10
17.1450
 20
25.0190
 30
0.0000
 41
1.2700
 42
1.2700
 43
1.0000
 50
90.0000
  0
INSERT
  8
17
  2
ROUNDP
 10
17.1450
 20
25.0190
 30
0.0000
 41
1.2700
 42
1.2700
 43
1.0000
 50
90.0000
  0
POLYLINE
  8
21
 66
1
 10
0.0000
 20
0.0000
 30
0.0000
 40
0.1270
 41
0.1270
 70
0
  0
VERTEX
  8
21
 10
16.7550
 20
17.4620
 30
0.0000
  0
VERTEX
  8
21
 10
16.7550
 20
13.7295
 30
0.0000
  0
SEQEND
  8
0
  0
POLYLINE
  8
21
 66
1
 10
0.0000
 20
0.0000
 30
0.0000
 40
0.0635
 41
0.0635
 70
0
  0
VERTEX
  8
21
 10
16.7233
 20
13.7295
 30
0.0000
 42
1.0000
  0
VERTEX
  8
21
 10
16.7868
 20
13.7295
 30
0.0000
  0
SEQEND
  8
0
  0
POLYLINE
  8
21
 66
1
 10
0.0000
 20
0.0000
 30
0.0000
 40
0.0635
 41
0.0635
 70
0
  0
VERTEX
  8
21
 10
16.7868
 20
17.4620
 30
0.0000
 42
1.0000
  0
VERTEX
  8
21
 10
16.7233
 20
17.4620
 30
0.0000
  0
SEQEND
  8
0
  0
POLYLINE
  8
21
 66
1
 10
0.0000
 20
0.0000
 30
0.0000
 40
0.1270
 41
0.1270
 70
0
  0
VERTEX
  8
21
 10
16.7550
 20
13.7295
 30
0.0000
  0
VERTEX
  8
21
 10
14.2550
 20
13.7295
 30
0.0000
  0
SEQEND
  8
0
  0
POLYLINE
  8
21
 66
1
 10
0.0000
 20
0.0000
 30
0.0000
 40
0.0635
 41
0.0635
 70
0
  0
VERTEX
  8
21
 10
14.2550
 20
13.7613
 30
0.0000
 42
1.0000
  0
VERTEX
  8
21
 10
14.2550
 20
13.6977
 30
0.0000
  0
SEQEND
  8
0
  0
POLYLINE
  8
21
 66
1
 10
0.0000
 20
0.0000
 30
0.0000
 40
0.0635
 41
0.0635
 70
0
  0
VERTEX
  8
21
 10
16.7550
 20
13.6977
 30
0.0000
 42
1.0000
  0
VERTEX
  8
21
 10
16.7550
 20
13.7613
 30
0.0000
  0
SEQEND
  8
0
  0
POLYLINE
  8
21
 66
1
 10
0.0000
 20
0.0000
 30
0.0000
 40
0.1270
 41
0.1270
 70
0
  0
VERTEX
  8
21
 10
14.2550
 20
13.7295
 30
0.0000
  0
VERTEX
  8
21
 10
14.2550
 20
14.3985
 30
0.0000
  0
SEQEND
  8
0
  0
POLYLINE
  8
21
 66
1
 10
0.0000
 20
0.0000
 30
0.0000
 40
0.0635
 41
0.0635
 70
0
  0
VERTEX
  8
21
 10
14.2868
 20
14.3985
 30
0.0000
 42
1.0000
  0
VERTEX
  8
21
 10
14.2233
 20
14.3985
 30
0.0000
  0
SEQEND
  8
0
  0
POLYLINE
  8
21
 66
1
 10
0.0000
 20
0.0000
 30
0.0000
 40
0.0635
 41
0.0635
 70
0
  0
VERTEX
  8
21
 10
14.2233
 20
13.7295
 30
0.0000
 42
1.0000
  0
VERTEX
  8
21
 10
14.2868
 20
13.7295
 30
0.0000
  0
SEQEND
  8
0
  0
POLYLINE
  8
21
 66
1
 10
0.0000
 20
0.0000
 30
0.0000
 40
0.1270
 41
0.1270
 70
0
  0
VERTEX
  8
21
 10
14.2550
 20
14.3985
 30
0.0000
  0
VERTEX
  8
21
 10
2.2550
 20
14.3985
 30
0.0000
  0
SEQEND
  8
0
  0
POLYLINE
  8
21
 66
1
 10
0.0000
 20
0.0000
 30
0.0000
 40
0.0635
 41
0.0635
 70
0
  0
VERTEX
  8
21
 10
2.2550
 20
14.4303
 30
0.0000
 42
1.0000
  0
VERTEX
  8
21
 10
2.2550
 20
14.3667
 30
0.0000
  0
SEQEND
  8
0
  0
POLYLINE
  8
21
 66
1
 10
0.0000
 20
0.0000
 30
0.0000
 40
0.0635
 41
0.0635
 70
0
  0
VERTEX
  8
21
 10
14.2550
 20
14.3667
 30
0.0000
 42
1.0000
  0
VERTEX
  8
21
 10
14.2550
 20
14.4303
 30
0.0000
  0
SEQEND
  8
0
  0
POLYLINE
  8
21
 66
1
 10
0.0000
 20
0.0000
 30
0.0000
 40
0.1270
 41
0.1270
 70
0
  0
VERTEX
  8
21
 10
2.2550
 20
14.3985
 30
0.0000
  0
VERTEX
  8
21
 10
2.2550
 20
13.7295
 30
0.0000
  0
SEQEND
  8
0
  0
POLYLINE
  8
21
 66
1
 10
0.0000
 20
0.0000
 30
0.0000
 40
0.0635
 41
0.0635
 70
0
  0
VERTEX
  8
21
 10
2.2232
 20
13.7295
 30
0.0000
 42
1.0000
  0
VERTEX
  8
21
 10
2.2868
 20
13.7295
 30
0.0000
  0
SEQEND
  8
0
  0
POLYLINE
  8
21
 66
1
 10
0.0000
 20
0.0000
 30
0.0000
 40
0.0635
 41
0.0635
 70
0
  0
VERTEX
  8
21
 10
2.2868
 20
14.3985
 30
0.0000
 42
1.0000
  0
VERTEX
  8
21
 10
2.2232
 20
14.3985
 30
0.0000
  0
SEQEND
  8
0
  0
POLYLINE
  8
21
 66
1
 10
0.0000
 20
0.0000
 30
0.0000
 40
0.1270
 41
0.1270
 70
0
  0
VERTEX
  8
21
 10
2.2550
 20
13.7295
 30
0.0000
  0
VERTEX
  8
21
 10
-0.2450
 20
13.7295
 30
0.0000
  0
SEQEND
  8
0
  0
POLYLINE
  8
21
 66
1
 10
0.0000
 20
0.0000
 30
0.0000
 40
0.0635
 41
0.0635
 70
0
  0
VERTEX
  8
21
 10
-0.2450
 20
13.7613
 30
0.0000
 42
1.0000
  0
VERTEX
  8
21
 10
-0.2450
 20
13.6977
 30
0.0000
  0
SEQEND
  8
0
  0
POLYLINE
  8
21
 66
1
 10
0.0000
 20
0.0000
 30
0.0000
 40
0.0635
 41
0.0635
 70
0
  0
VERTEX
  8
21
 10
2.2550
 20
13.6977
 30
0.0000
 42
1.0000
  0
VERTEX
  8
21
 10
2.2550
 20
13.7613
 30
0.0000
  0
SEQEND
  8
0
  0
POLYLINE
  8
21
 66
1
 10
0.0000
 20
0.0000
 30
0.0000
 40
0.1270
 41
0.1270
 70
0
  0
VERTEX
  8
21
 10
-0.2450
 20
13.7295
 30
0.0000
  0
VERTEX
  8
21
 10
-0.2450
 20
17.4620
 30
0.0000
  0
SEQEND
  8
0
  0
POLYLINE
  8
21
 66
1
 10
0.0000
 20
0.0000
 30
0.0000
 40
0.0635
 41
0.0635
 70
0
  0
VERTEX
  8
21
 10
-0.2133
 20
17.4620
 30
0.0000
 42
1.0000
  0
VERTEX
  8
21
 10
-0.2768
 20
17.4620
 30
0.0000
  0
SEQEND
  8
0
  0
POLYLINE
  8
21
 66
1
 10
0.0000
 20
0.0000
 30
0.0000
 40
0.0635
 41
0.0635
 70
0
  0
VERTEX
  8
21
 10
-0.2768
 20
13.7295
 30
0.0000
 42
1.0000
  0
VERTEX
  8
21
 10
-0.2133
 20
13.7295
 30
0.0000
  0
SEQEND
  8
0
  0
POLYLINE
  8
21
 66
1
 10
0.0000
 20
0.0000
 30
0.0000
 40
0.1270
 41
0.1270
 70
0
  0
VERTEX
  8
21
 10
-0.2450
 20
17.4620
 30
0.0000
  0
VERTEX
  8
21
 10
-0.5450
 20
17.4620
 30
0.0000
  0
SEQEND
  8
0
  0
POLYLINE
  8
21
 66
1
 10
0.0000
 20
0.0000
 30
0.0000
 40
0.0635
 41
0.0635
 70
0
  0
VERTEX
  8
21
 10
-0.5450
 20
17.4937
 30
0.0000
 42
1.0000
  0
VERTEX
  8
21
 10
-0.5450
 20
17.4303
 30
0.0000
  0
SEQEND
  8
0
  0
POLYLINE
  8
21
 66
1
 10
0.0000
 20
0.0000
 30
0.0000
 40
0.0635
 41
0.0635
 70
0
  0
VERTEX
  8
21
 10
-0.2450
 20
17.4303
 30
0.0000
 42
1.0000
  0
VERTEX
  8
21
 10
-0.2450
 20
17.4937
 30
0.0000
  0
SEQEND
  8
0
  0
POLYLINE
  8
21
 66
1
 10
0.0000
 20
0.0000
 30
0.0000
 40
0.1270
 41
0.1270
 70
0
  0
VERTEX
  8
21
 10
-0.5450
 20
17.4620
 30
0.0000
  0
VERTEX
  8
21
 10
-0.5450
 20
18.2565
 30
0.0000
  0
SEQEND
  8
0
  0
POLYLINE
  8
21
 66
1
 10
0.0000
 20
0.0000
 30
0.0000
 40
0.0635
 41
0.0635
 70
0
  0
VERTEX
  8
21
 10
-0.5132
 20
18.2565
 30
0.0000
 42
1.0000
  0
VERTEX
  8
21
 10
-0.5768
 20
18.2565
 30
0.0000
  0
SEQEND
  8
0
  0
POLYLINE
  8
21
 66
1
 10
0.0000
 20
0.0000
 30
0.0000
 40
0.0635
 41
0.0635
 70
0
  0
VERTEX
  8
21
 10
-0.5768
 20
17.4620
 30
0.0000
 42
1.0000
  0
VERTEX
  8
21
 10
-0.5132
 20
17.4620
 30
0.0000
  0
SEQEND
  8
0
  0
POLYLINE
  8
21
 66
1
 10
0.0000
 20
0.0000
 30
0.0000
 40
0.1270
 41
0.1270
 70
0
  0
VERTEX
  8
21
 10
-0.5450
 20
18.2565
 30
0.0000
  0
VERTEX
  8
21
 10
17.0550
 20
18.2565
 30
0.0000
  0
SEQEND
  8
0
  0
POLYLINE
  8
21
 66
1
 10
0.0000
 20
0.0000
 30
0.0000
 40
0.0635
 41
0.0635
 70
0
  0
VERTEX
  8
21
 10
17.0550
 20
18.2248
 30
0.0000
 42
1.0000
  0
VERTEX
  8
21
 10
17.0550
 20
18.2883
 30
0.0000
  0
SEQEND
  8
0
  0
POLYLINE
  8
21
 66
1
 10
0.0000
 20
0.0000
 30
0.0000
 40
0.0635
 41
0.0635
 70
0
  0
VERTEX
  8
21
 10
-0.5450
 20
18.2883
 30
0.0000
 42
1.0000
  0
VERTEX
  8
21
 10
-0.5450
 20
18.2248
 30
0.0000
  0
SEQEND
  8
0
  0
POLYLINE
  8
21
 66
1
 10
0.0000
 20
0.0000
 30
0.0000
 40
0.1270
 41
0.1270
 70
0
  0
VERTEX
  8
21
 10
17.0550
 20
18.2565
 30
0.0000
  0
VERTEX
  8
21
 10
17.0550
 20
17.4620
 30
0.0000
  0
SEQEND
  8
0
  0
POLYLINE
  8
21
 66
1
 10
0.0000
 20
0.0000
 30
0.0000
 40
0.0635
 41
0.0635
 70
0
  0
VERTEX
  8
21
 10
17.0233
 20
17.4620
 30
0.0000
 42
1.0000
  0
VERTEX
  8
21
 10
17.0867
 20
17.4620
 30
0.0000
  0
SEQEND
  8
0
  0
POLYLINE
  8
21
 66
1
 10
0.0000
 20
0.0000
 30
0.0000
 40
0.0635
 41
0.0635
 70
0
  0
VERTEX
  8
21
 10
17.0867
 20
18.2565
 30
0.0000
 42
1.0000
  0
VERTEX
  8
21
 10
17.0233
 20
18.2565
 30
0.0000
  0
SEQEND
  8
0
  0
POLYLINE
  8
21
 66
1
 10
0.0000
 20
0.0000
 30
0.0000
 40
0.1270
 41
0.1270
 70
0
  0
VERTEX
  8
21
 10
17.0550
 20
17.4620
 30
0.0000
  0
VERTEX
  8
21
 10
16.7550
 20
17.4620
 30
0.0000
  0
SEQEND
  8
0
  0
POLYLINE
  8
21
 66
1
 10
0.0000
 20
0.0000
 30
0.0000
 40
0.0635
 41
0.0635
 70
0
  0
VERTEX
  8
21
 10
16.7550
 20
17.4937
 30
0.0000
 42
1.0000
  0
VERTEX
  8
21
 10
16.7550
 20
17.4303
 30
0.0000
  0
SEQEND
  8
0
  0
POLYLINE
  8
21
 66
1
 10
0.0000
 20
0.0000
 30
0.0000
 40
0.0635
 41
0.0635
 70
0
  0
VERTEX
  8
21
 10
17.0550
 20
17.4303
 30
0.0000
 42
1.0000
  0
VERTEX
  8
21
 10
17.0550
 20
17.4937
 30
0.0000
  0
SEQEND
  8
0
  0
POLYLINE
  8
21
 66
1
 10
0.0000
 20
0.0000
 30
0.0000
 40
0.1270
 41
0.1270
 70
0
  0
VERTEX
  8
21
 10
16.7550
 20
17.4620
 30
0.0000
  0
VERTEX
  8
21
 10
-0.2450
 20
17.4620
 30
0.0000
  0
SEQEND
  8
0
  0
POLYLINE
  8
21
 66
1
 10
0.0000
 20
0.0000
 30
0.0000
 40
0.0635
 41
0.0635
 70
0
  0
VERTEX
  8
21
 10
-0.2450
 20
17.4937
 30
0.0000
 42
1.0000
  0
VERTEX
  8
21
 10
-0.2450
 20
17.4303
 30
0.0000
  0
SEQEND
  8
0
  0
POLYLINE
  8
21
 66
1
 10
0.0000
 20
0.0000
 30
0.0000
 40
0.0635
 41
0.0635
 70
0
  0
VERTEX
  8
21
 10
16.7550
 20
17.4303
 30
0.0000
 42
1.0000
  0
VERTEX
  8
21
 10
16.7550
 20
17.4937
 30
0.0000
  0
SEQEND
  8
0
  0
POLYLINE
  8
25
 66
1
 10
0.0000
 20
0.0000
 30
0.0000
 40
0.1270
 41
0.1270
 70
0
  0
VERTEX
  8
25
 10
4.0640
 20
21.3360
 30
0.0000
  0
VERTEX
  8
25
 10
4.8260
 20
21.3360
 30
0.0000
  0
SEQEND
  8
0
  0
POLYLINE
  8
25
 66
1
 10
0.0000
 20
0.0000
 30
0.0000
 40
0.0635
 41
0.0635
 70
0
  0
VERTEX
  8
25
 10
4.8260
 20
21.3043
 30
0.0000
 42
1.0000
  0
VERTEX
  8
25
 10
4.8260
 20
21.3678
 30
0.0000
  0
SEQEND
  8
0
  0
POLYLINE
  8
25
 66
1
 10
0.0000
 20
0.0000
 30
0.0000
 40
0.0635
 41
0.0635
 70
0
  0
VERTEX
  8
25
 10
4.0640
 20
21.3678
 30
0.0000
 42
1.0000
  0
VERTEX
  8
25
 10
4.0640
 20
21.3043
 30
0.0000
  0
SEQEND
  8
0
  0
POLYLINE
  8
25
 66
1
 10
0.0000
 20
0.0000
 30
0.0000
 40
0.1270
 41
0.1270
 70
0
  0
VERTEX
  8
25
 10
4.8260
 20
21.3360
 30
0.0000
  0
VERTEX
  8
25
 10
4.4450
 20
22.0980
 30
0.0000
  0
SEQEND
  8
0
  0
POLYLINE
  8
25
 66
1
 10
0.0000
 20
0.0000
 30
0.0000
 40
0.0635
 41
0.0635
 70
0
  0
VERTEX
  8
25
 10
4.4734
 20
22.1122
 30
0.0000
 42
1.0000
  0
VERTEX
  8
25
 10
4.4166
 20
22.0838
 30
0.0000
  0
SEQEND
  8
0
  0
POLYLINE
  8
25
 66
1
 10
0.0000
 20
0.0000
 30
0.0000
 40
0.0635
 41
0.0635
 70
0
  0
VERTEX
  8
25
 10
4.7976
 20
21.3218
 30
0.0000
 42
1.0000
  0
VERTEX
  8
25
 10
4.8544
 20
21.3502
 30
0.0000
  0
SEQEND
  8
0
  0
POLYLINE
  8
25
 66
1
 10
0.0000
 20
0.0000
 30
0.0000
 40
0.1270
 41
0.1270
 70
0
  0
VERTEX
  8
25
 10
4.4450
 20
22.0980
 30
0.0000
  0
VERTEX
  8
25
 10
4.0640
 20
21.3360
 30
0.0000
  0
SEQEND
  8
0
  0
POLYLINE
  8
25
 66
1
 10
0.0000
 20
0.0000
 30
0.0000
 40
0.0635
 41
0.0635
 70
0
  0
VERTEX
  8
25
 10
4.0356
 20
21.3502
 30
0.0000
 42
1.0000
  0
VERTEX
  8
25
 10
4.0924
 20
21.3218
 30
0.0000
  0
SEQEND
  8
0
  0
POLYLINE
  8
25
 66
1
 10
0.0000
 20
0.0000
 30
0.0000
 40
0.0635
 41
0.0635
 70
0
  0
VERTEX
  8
25
 10
4.4734
 20
22.0838
 30
0.0000
 42
1.0000
  0
VERTEX
  8
25
 10
4.4166
 20
22.1122
 30
0.0000
  0
SEQEND
  8
0
  0
POLYLINE
  8
25
 66
1
 10
0.0000
 20
0.0000
 30
0.0000
 40
0.1270
 41
0.1270
 70
0
  0
VERTEX
  8
25
 10
4.6990
 20
21.3360
 30
0.0000
  0
VERTEX
  8
25
 10
4.6990
 20
21.5900
 30
0.0000
  0
SEQEND
  8
0
  0
POLYLINE
  8
25
 66
1
 10
0.0000
 20
0.0000
 30
0.0000
 40
0.0635
 41
0.0635
 70
0
  0
VERTEX
  8
25
 10
4.7307
 20
21.5900
 30
0.0000
 42
1.0000
  0
VERTEX
  8
25
 10
4.6673
 20
21.5900
 30
0.0000
  0
SEQEND
  8
0
  0
POLYLINE
  8
25
 66
1
 10
0.0000
 20
0.0000
 30
0.0000
 40
0.0635
 41
0.0635
 70
0
  0
VERTEX
  8
25
 10
4.6673
 20
21.3360
 30
0.0000
 42
1.0000
  0
VERTEX
  8
25
 10
4.7307
 20
21.3360
 30
0.0000
  0
SEQEND
  8
0
  0
POLYLINE
  8
25
 66
1
 10
0.0000
 20
0.0000
 30
0.0000
 40
0.1270
 41
0.1270
 70
0
  0
VERTEX
  8
25
 10
4.5720
 20
21.3360
 30
0.0000
  0
VERTEX
  8
25
 10
4.5720
 20
21.8440
 30
0.0000
  0
SEQEND
  8
0
  0
POLYLINE
  8
25
 66
1
 10
0.0000
 20
0.0000
 30
0.0000
 40
0.0635
 41
0.0635
 70
0
  0
VERTEX
  8
25
 10
4.6037
 20
21.8440
 30
0.0000
 42
1.0000
  0
VERTEX
  8
25
 10
4.5403
 20
21.8440
 30
0.0000
  0
SEQEND
  8
0
  0
POLYLINE
  8
25
 66
1
 10
0.0000
 20
0.0000
 30
0.0000
 40
0.0635
 41
0.0635
 70
0
  0
VERTEX
  8
25
 10
4.5403
 20
21.3360
 30
0.0000
 42
1.0000
  0
VERTEX
  8
25
 10
4.6037
 20
21.3360
 30
0.0000
  0
SEQEND
  8
0
  0
POLYLINE
  8
25
 66
1
 10
0.0000
 20
0.0000
 30
0.0000
 40
0.1270
 41
0.1270
 70
0
  0
VERTEX
  8
25
 10
4.4450
 20
21.3360
 30
0.0000
  0
VERTEX
  8
25
 10
4.4450
 20
22.0980
 30
0.0000
  0
SEQEND
  8
0
  0
POLYLINE
  8
25
 66
1
 10
0.0000
 20
0.0000
 30
0.0000
 40
0.0635
 41
0.0635
 70
0
  0
VERTEX
  8
25
 10
4.4768
 20
22.0980
 30
0.0000
 42
1.0000
  0
VERTEX
  8
25
 10
4.4133
 20
22.0980
 30
0.0000
  0
SEQEND
  8
0
  0
POLYLINE
  8
25
 66
1
 10
0.0000
 20
0.0000
 30
0.0000
 40
0.0635
 41
0.0635
 70
0
  0
VERTEX
  8
25
 10
4.4133
 20
21.3360
 30
0.0000
 42
1.0000
  0
VERTEX
  8
25
 10
4.4768
 20
21.3360
 30
0.0000
  0
SEQEND
  8
0
  0
POLYLINE
  8
25
 66
1
 10
0.0000
 20
0.0000
 30
0.0000
 40
0.1270
 41
0.1270
 70
0
  0
VERTEX
  8
25
 10
4.3180
 20
21.3360
 30
0.0000
  0
VERTEX
  8
25
 10
4.3180
 20
21.8440
 30
0.0000
  0
SEQEND
  8
0
  0
POLYLINE
  8
25
 66
1
 10
0.0000
 20
0.0000
 30
0.0000
 40
0.0635
 41
0.0635
 70
0
  0
VERTEX
  8
25
 10
4.3498
 20
21.8440
 30
0.0000
 42
1.0000
  0
VERTEX
  8
25
 10
4.2863
 20
21.8440
 30
0.0000
  0
SEQEND
  8
0
  0
POLYLINE
  8
25
 66
1
 10
0.0000
 20
0.0000
 30
0.0000
 40
0.0635
 41
0.0635
 70
0
  0
VERTEX
  8
25
 10
4.2863
 20
21.3360
 30
0.0000
 42
1.0000
  0
VERTEX
  8
25
 10
4.3498
 20
21.3360
 30
0.0000
  0
SEQEND
  8
0
  0
POLYLINE
  8
25
 66
1
 10
0.0000
 20
0.0000
 30
0.0000
 40
0.1270
 41
0.1270
 70
0
  0
VERTEX
  8
25
 10
4.1910
 20
21.3360
 30
0.0000
  0
VERTEX
  8
25
 10
4.1910
 20
21.5900
 30
0.0000
  0
SEQEND
  8
0
  0
POLYLINE
  8
25
 66
1
 10
0.0000
 20
0.0000
 30
0.0000
 40
0.0635
 41
0.0635
 70
0
  0
VERTEX
  8
25
 10
4.2227
 20
21.5900
 30
0.0000
 42
1.0000
  0
VERTEX
  8
25
 10
4.1593
 20
21.5900
 30
0.0000
  0
SEQEND
  8
0
  0
POLYLINE
  8
25
 66
1
 10
0.0000
 20
0.0000
 30
0.0000
 40
0.0635
 41
0.0635
 70
0
  0
VERTEX
  8
25
 10
4.1593
 20
21.3360
 30
0.0000
 42
1.0000
  0
VERTEX
  8
25
 10
4.2227
 20
21.3360
 30
0.0000
  0
SEQEND
  8
0
  0
POLYLINE
  8
21
 66
1
 10
0.0000
 20
0.0000
 30
0.0000
 40
0.1270
 41
0.1270
 70
0
  0
VERTEX
  8
21
 10
3.8130
 20
22.9410
 30
0.0000
  0
VERTEX
  8
21
 10
2.5550
 20
22.9410
 30
0.0000
  0
SEQEND
  8
0
  0
POLYLINE
  8
21
 66
1
 10
0.0000
 20
0.0000
 30
0.0000
 40
0.0635
 41
0.0635
 70
0
  0
VERTEX
  8
21
 10
2.5550
 20
22.9728
 30
0.0000
 42
1.0000
  0
VERTEX
  8
21
 10
2.5550
 20
22.9093
 30
0.0000
  0
SEQEND
  8
0
  0
POLYLINE
  8
21
 66
1
 10
0.0000
 20
0.0000
 30
0.0000
 40
0.0635
 41
0.0635
 70
0
  0
VERTEX
  8
21
 10
3.8130
 20
22.9093
 30
0.0000
 42
1.0000
  0
VERTEX
  8
21
 10
3.8130
 20
22.9728
 30
0.0000
  0
SEQEND
  8
0
  0
POLYLINE
  8
21
 66
1
 10
0.0000
 20
0.0000
 30
0.0000
 40
0.1270
 41
0.1270
 70
0
  0
VERTEX
  8
21
 10
2.5550
 20
27.6410
 30
0.0000
  0
VERTEX
  8
21
 10
12.0500
 20
27.6410
 30
0.0000
  0
SEQEND
  8
0
  0
POLYLINE
  8
21
 66
1
 10
0.0000
 20
0.0000
 30
0.0000
 40
0.0635
 41
0.0635
 70
0
  0
VERTEX
  8
21
 10
12.0500
 20
27.6093
 30
0.0000
 42
1.0000
  0
VERTEX
  8
21
 10
12.0500
 20
27.6728
 30
0.0000
  0
SEQEND
  8
0
  0
POLYLINE
  8
21
 66
1
 10
0.0000
 20
0.0000
 30
0.0000
 40
0.0635
 41
0.0635
 70
0
  0
VERTEX
  8
21
 10
2.5550
 20
27.6728
 30
0.0000
 42
1.0000
  0
VERTEX
  8
21
 10
2.5550
 20
27.6093
 30
0.0000
  0
SEQEND
  8
0
  0
POLYLINE
  8
21
 66
1
 10
0.0000
 20
0.0000
 30
0.0000
 40
0.1270
 41
0.1270
 70
0
  0
VERTEX
  8
21
 10
13.9550
 20
22.9410
 30
0.0000
  0
VERTEX
  8
21
 10
12.6970
 20
22.9410
 30
0.0000
  0
SEQEND
  8
0
  0
POLYLINE
  8
21
 66
1
 10
0.0000
 20
0.0000
 30
0.0000
 40
0.0635
 41
0.0635
 70
0
  0
VERTEX
  8
21
 10
12.6970
 20
22.9728
 30
0.0000
 42
1.0000
  0
VERTEX
  8
21
 10
12.6970
 20
22.9093
 30
0.0000
  0
SEQEND
  8
0
  0
POLYLINE
  8
21
 66
1
 10
0.0000
 20
0.0000
 30
0.0000
 40
0.0635
 41
0.0635
 70
0
  0
VERTEX
  8
21
 10
13.9550
 20
22.9093
 30
0.0000
 42
1.0000
  0
VERTEX
  8
21
 10
13.9550
 20
22.9728
 30
0.0000
  0
SEQEND
  8
0
  0
POLYLINE
  8
21
 66
1
 10
0.0000
 20
0.0000
 30
0.0000
 40
0.1270
 41
0.1270
 70
0
  0
VERTEX
  8
21
 10
2.5550
 20
22.9410
 30
0.0000
  0
VERTEX
  8
21
 10
2.5550
 20
24.0850
 30
0.0000
  0
SEQEND
  8
0
  0
POLYLINE
  8
21
 66
1
 10
0.0000
 20
0.0000
 30
0.0000
 40
0.0635
 41
0.0635
 70
0
  0
VERTEX
  8
21
 10
2.5868
 20
24.0850
 30
0.0000
 42
1.0000
  0
VERTEX
  8
21
 10
2.5232
 20
24.0850
 30
0.0000
  0
SEQEND
  8
0
  0
POLYLINE
  8
21
 66
1
 10
0.0000
 20
0.0000
 30
0.0000
 40
0.0635
 41
0.0635
 70
0
  0
VERTEX
  8
21
 10
2.5232
 20
22.9410
 30
0.0000
 42
1.0000
  0
VERTEX
  8
21
 10
2.5868
 20
22.9410
 30
0.0000
  0
SEQEND
  8
0
  0
POLYLINE
  8
21
 66
1
 10
0.0000
 20
0.0000
 30
0.0000
 40
0.1270
 41
0.1270
 70
0
  0
VERTEX
  8
21
 10
2.5550
 20
26.1160
 30
0.0000
  0
VERTEX
  8
21
 10
2.5550
 20
27.6410
 30
0.0000
  0
SEQEND
  8
0
  0
POLYLINE
  8
21
 66
1
 10
0.0000
 20
0.0000
 30
0.0000
 40
0.0635
 41
0.0635
 70
0
  0
VERTEX
  8
21
 10
2.5868
 20
27.6410
 30
0.0000
 42
1.0000
  0
VERTEX
  8
21
 10
2.5232
 20
27.6410
 30
0.0000
  0
SEQEND
  8
0
  0
POLYLINE
  8
21
 66
1
 10
0.0000
 20
0.0000
 30
0.0000
 40
0.0635
 41
0.0635
 70
0
  0
VERTEX
  8
21
 10
2.5232
 20
26.1160
 30
0.0000
 42
1.0000
  0
VERTEX
  8
21
 10
2.5868
 20
26.1160
 30
0.0000
  0
SEQEND
  8
0
  0
POLYLINE
  8
21
 66
1
 10
0.0000
 20
0.0000
 30
0.0000
 40
0.1270
 41
0.1270
 70
0
  0
VERTEX
  8
21
 10
13.9550
 20
24.3390
 30
0.0000
  0
VERTEX
  8
21
 10
13.9550
 20
22.9410
 30
0.0000
  0
SEQEND
  8
0
  0
POLYLINE
  8
21
 66
1
 10
0.0000
 20
0.0000
 30
0.0000
 40
0.0635
 41
0.0635
 70
0
  0
VERTEX
  8
21
 10
13.9232
 20
22.9410
 30
0.0000
 42
1.0000
  0
VERTEX
  8
21
 10
13.9868
 20
22.9410
 30
0.0000
  0
SEQEND
  8
0
  0
POLYLINE
  8
21
 66
1
 10
0.0000
 20
0.0000
 30
0.0000
 40
0.0635
 41
0.0635
 70
0
  0
VERTEX
  8
21
 10
13.9868
 20
24.3390
 30
0.0000
 42
1.0000
  0
VERTEX
  8
21
 10
13.9232
 20
24.3390
 30
0.0000
  0
SEQEND
  8
0
  0
POLYLINE
  8
21
 66
1
 10
0.0000
 20
0.0000
 30
0.0000
 40
0.1000
 41
0.1000
 70
0
  0
VERTEX
  8
21
 10
0.1550
 20
19.6300
 30
0.0000
  0
VERTEX
  8
21
 10
0.1550
 20
22.0800
 30
0.0000
  0
SEQEND
  8
0
  0
POLYLINE
  8
21
 66
1
 10
0.0000
 20
0.0000
 30
0.0000
 40
0.0500
 41
0.0500
 70
0
  0
VERTEX
  8
21
 10
0.1800
 20
22.0800
 30
0.0000
 42
1.0000
  0
VERTEX
  8
21
 10
0.1300
 20
22.0800
 30
0.0000
  0
SEQEND
  8
0
  0
POLYLINE
  8
21
 66
1
 10
0.0000
 20
0.0000
 30
0.0000
 40
0.0500
 41
0.0500
 70
0
  0
VERTEX
  8
21
 10
0.1300
 20
19.6300
 30
0.0000
 42
1.0000
  0
VERTEX
  8
21
 10
0.1800
 20
19.6300
 30
0.0000
  0
SEQEND
  8
0
  0
POLYLINE
  8
21
 66
1
 10
0.0000
 20
0.0000
 30
0.0000
 40
0.1000
 41
0.1000
 70
0
  0
VERTEX
  8
21
 10
0.1550
 20
22.0800
 30
0.0000
  0
VERTEX
  8
21
 10
0.3550
 20
22.2800
 30
0.0000
  0
SEQEND
  8
0
  0
POLYLINE
  8
21
 66
1
 10
0.0000
 20
0.0000
 30
0.0000
 40
0.0500
 41
0.0500
 70
0
  0
VERTEX
  8
21
 10
0.3727
 20
22.2623
 30
0.0000
 42
1.0000
  0
VERTEX
  8
21
 10
0.3373
 20
22.2977
 30
0.0000
  0
SEQEND
  8
0
  0
POLYLINE
  8
21
 66
1
 10
0.0000
 20
0.0000
 30
0.0000
 40
0.0500
 41
0.0500
 70
0
  0
VERTEX
  8
21
 10
0.1373
 20
22.0977
 30
0.0000
 42
1.0000
  0
VERTEX
  8
21
 10
0.1727
 20
22.0623
 30
0.0000
  0
SEQEND
  8
0
  0
POLYLINE
  8
21
 66
1
 10
0.0000
 20
0.0000
 30
0.0000
 40
0.1000
 41
0.1000
 70
0
  0
VERTEX
  8
21
 10
0.3550
 20
22.2800
 30
0.0000
  0
VERTEX
  8
21
 10
3.6550
 20
22.2800
 30
0.0000
  0
SEQEND
  8
0
  0
POLYLINE
  8
21
 66
1
 10
0.0000
 20
0.0000
 30
0.0000
 40
0.0500
 41
0.0500
 70
0
  0
VERTEX
  8
21
 10
3.6550
 20
22.2550
 30
0.0000
 42
1.0000
  0
VERTEX
  8
21
 10
3.6550
 20
22.3050
 30
0.0000
  0
SEQEND
  8
0
  0
POLYLINE
  8
21
 66
1
 10
0.0000
 20
0.0000
 30
0.0000
 40
0.0500
 41
0.0500
 70
0
  0
VERTEX
  8
21
 10
0.3550
 20
22.3050
 30
0.0000
 42
1.0000
  0
VERTEX
  8
21
 10
0.3550
 20
22.2550
 30
0.0000
  0
SEQEND
  8
0
  0
POLYLINE
  8
21
 66
1
 10
0.0000
 20
0.0000
 30
0.0000
 40
0.1000
 41
0.1000
 70
0
  0
VERTEX
  8
21
 10
3.6550
 20
22.2800
 30
0.0000
  0
VERTEX
  8
21
 10
3.6550
 20
19.6300
 30
0.0000
  0
SEQEND
  8
0
  0
POLYLINE
  8
21
 66
1
 10
0.0000
 20
0.0000
 30
0.0000
 40
0.0500
 41
0.0500
 70
0
  0
VERTEX
  8
21
 10
3.6300
 20
19.6300
 30
0.0000
 42
1.0000
  0
VERTEX
  8
21
 10
3.6800
 20
19.6300
 30
0.0000
  0
SEQEND
  8
0
  0
POLYLINE
  8
21
 66
1
 10
0.0000
 20
0.0000
 30
0.0000
 40
0.0500
 41
0.0500
 70
0
  0
VERTEX
  8
21
 10
3.6800
 20
22.2800
 30
0.0000
 42
1.0000
  0
VERTEX
  8
21
 10
3.6300
 20
22.2800
 30
0.0000
  0
SEQEND
  8
0
  0
POLYLINE
  8
21
 66
1
 10
0.0000
 20
0.0000
 30
0.0000
 40
0.1000
 41
0.1000
 70
0
  0
VERTEX
  8
21
 10
3.6550
 20
19.6300
 30
0.0000
  0
VERTEX
  8
21
 10
0.1550
 20
19.6300
 30
0.0000
  0
SEQEND
  8
0
  0
POLYLINE
  8
21
 66
1
 10
0.0000
 20
0.0000
 30
0.0000
 40
0.0500
 41
0.0500
 70
0
  0
VERTEX
  8
21
 10
0.1550
 20
19.6550
 30
0.0000
 42
1.0000
  0
VERTEX
  8
21
 10
0.1550
 20
19.6050
 30
0.0000
  0
SEQEND
  8
0
  0
POLYLINE
  8
21
 66
1
 10
0.0000
 20
0.0000
 30
0.0000
 40
0.0500
 41
0.0500
 70
0
  0
VERTEX
  8
21
 10
3.6550
 20
19.6050
 30
0.0000
 42
1.0000
  0
VERTEX
  8
21
 10
3.6550
 20
19.6550
 30
0.0000
  0
SEQEND
  8
0
  0
POLYLINE
  8
25
 66
1
 10
0.0000
 20
0.0000
 30
0.0000
 40
0.1000
 41
0.1000
 70
0
  0
VERTEX
  8
25
 10
0.0000
 20
22.2790
 30
0.0000
 42
1.0000
  0
VERTEX
  8
25
 10
0.0000
 20
22.6790
 30
0.0000
 42
1.0000
  0
VERTEX
  8
25
 10
0.0000
 20
22.2790
 30
0.0000
  0
SEQEND
  8
0
  0
POLYLINE
  8
21
 66
1
 10
0.0000
 20
0.0000
 30
0.0000
 40
0.1016
 41
0.1016
 70
0
  0
VERTEX
  8
21
 10
0.9550
 20
20.7518
 30
0.0000
 42
1.0000
  0
VERTEX
  8
21
 10
0.9550
 20
21.1582
 30
0.0000
 42
1.0000
  0
VERTEX
  8
21
 10
0.9550
 20
20.7518
 30
0.0000
  0
SEQEND
  8
0
  0
POLYLINE
  8
21
 66
1
 10
0.0000
 20
0.0000
 30
0.0000
 40
0.1000
 41
0.1000
 70
0
  0
VERTEX
  8
21
 10
7.6120
 20
20.3120
 30
0.0000
  0
VERTEX
  8
21
 10
7.6120
 20
19.4390
 30
0.0000
  0
SEQEND
  8
0
  0
POLYLINE
  8
21
 66
1
 10
0.0000
 20
0.0000
 30
0.0000
 40
0.0500
 41
0.0500
 70
0
  0
VERTEX
  8
21
 10
7.5870
 20
19.4390
 30
0.0000
 42
1.0000
  0
VERTEX
  8
21
 10
7.6370
 20
19.4390
 30
0.0000
  0
SEQEND
  8
0
  0
POLYLINE
  8
21
 66
1
 10
0.0000
 20
0.0000
 30
0.0000
 40
0.0500
 41
0.0500
 70
0
  0
VERTEX
  8
21
 10
7.6370
 20
20.3120
 30
0.0000
 42
1.0000
  0
VERTEX
  8
21
 10
7.5870
 20
20.3120
 30
0.0000
  0
SEQEND
  8
0
  0
POLYLINE
  8
21
 66
1
 10
0.0000
 20
0.0000
 30
0.0000
 40
0.1000
 41
0.1000
 70
0
  0
VERTEX
  8
21
 10
7.6120
 20
19.4390
 30
0.0000
  0
VERTEX
  8
21
 10
7.4850
 20
19.3120
 30
0.0000
  0
SEQEND
  8
0
  0
POLYLINE
  8
21
 66
1
 10
0.0000
 20
0.0000
 30
0.0000
 40
0.0500
 41
0.0500
 70
0
  0
VERTEX
  8
21
 10
7.4673
 20
19.3297
 30
0.0000
 42
1.0000
  0
VERTEX
  8
21
 10
7.5027
 20
19.2943
 30
0.0000
  0
SEQEND
  8
0
  0
POLYLINE
  8
21
 66
1
 10
0.0000
 20
0.0000
 30
0.0000
 40
0.0500
 41
0.0500
 70
0
  0
VERTEX
  8
21
 10
7.6297
 20
19.4213
 30
0.0000
 42
1.0000
  0
VERTEX
  8
21
 10
7.5943
 20
19.4567
 30
0.0000
  0
SEQEND
  8
0
  0
POLYLINE
  8
21
 66
1
 10
0.0000
 20
0.0000
 30
0.0000
 40
0.1000
 41
0.1000
 70
0
  0
VERTEX
  8
21
 10
7.4850
 20
19.3120
 30
0.0000
  0
VERTEX
  8
21
 10
6.6120
 20
19.3120
 30
0.0000
  0
SEQEND
  8
0
  0
POLYLINE
  8
21
 66
1
 10
0.0000
 20
0.0000
 30
0.0000
 40
0.0500
 41
0.0500
 70
0
  0
VERTEX
  8
21
 10
6.6120
 20
19.3370
 30
0.0000
 42
1.0000
  0
VERTEX
  8
21
 10
6.6120
 20
19.2870
 30
0.0000
  0
SEQEND
  8
0
  0
POLYLINE
  8
21
 66
1
 10
0.0000
 20
0.0000
 30
0.0000
 40
0.0500
 41
0.0500
 70
0
  0
VERTEX
  8
21
 10
7.4850
 20
19.2870
 30
0.0000
 42
1.0000
  0
VERTEX
  8
21
 10
7.4850
 20
19.3370
 30
0.0000
  0
SEQEND
  8
0
  0
POLYLINE
  8
21
 66
1
 10
0.0000
 20
0.0000
 30
0.0000
 40
0.1000
 41
0.1000
 70
0
  0
VERTEX
  8
21
 10
6.6120
 20
19.3120
 30
0.0000
  0
VERTEX
  8
21
 10
6.6120
 20
20.3120
 30
0.0000
  0
SEQEND
  8
0
  0
POLYLINE
  8
21
 66
1
 10
0.0000
 20
0.0000
 30
0.0000
 40
0.0500
 41
0.0500
 70
0
  0
VERTEX
  8
21
 10
6.6370
 20
20.3120
 30
0.0000
 42
1.0000
  0
VERTEX
  8
21
 10
6.5870
 20
20.3120
 30
0.0000
  0
SEQEND
  8
0
  0
POLYLINE
  8
21
 66
1
 10
0.0000
 20
0.0000
 30
0.0000
 40
0.0500
 41
0.0500
 70
0
  0
VERTEX
  8
21
 10
6.5870
 20
19.3120
 30
0.0000
 42
1.0000
  0
VERTEX
  8
21
 10
6.6370
 20
19.3120
 30
0.0000
  0
SEQEND
  8
0
  0
POLYLINE
  8
21
 66
1
 10
0.0000
 20
0.0000
 30
0.0000
 40
0.1000
 41
0.1000
 70
0
  0
VERTEX
  8
21
 10
6.6120
 20
20.3120
 30
0.0000
  0
VERTEX
  8
21
 10
7.6120
 20
20.3120
 30
0.0000
  0
SEQEND
  8
0
  0
POLYLINE
  8
21
 66
1
 10
0.0000
 20
0.0000
 30
0.0000
 40
0.0500
 41
0.0500
 70
0
  0
VERTEX
  8
21
 10
7.6120
 20
20.2870
 30
0.0000
 42
1.0000
  0
VERTEX
  8
21
 10
7.6120
 20
20.3370
 30
0.0000
  0
SEQEND
  8
0
  0
POLYLINE
  8
21
 66
1
 10
0.0000
 20
0.0000
 30
0.0000
 40
0.0500
 41
0.0500
 70
0
  0
VERTEX
  8
21
 10
6.6120
 20
20.3370
 30
0.0000
 42
1.0000
  0
VERTEX
  8
21
 10
6.6120
 20
20.2870
 30
0.0000
  0
SEQEND
  8
0
  0
POLYLINE
  8
25
 66
1
 10
0.0000
 20
0.0000
 30
0.0000
 40
0.1000
 41
0.1000
 70
0
  0
VERTEX
  8
25
 10
7.7470
 20
19.0270
 30
0.0000
 42
1.0000
  0
VERTEX
  8
25
 10
7.7470
 20
19.3270
 30
0.0000
 42
1.0000
  0
VERTEX
  8
25
 10
7.7470
 20
19.0270
 30
0.0000
  0
SEQEND
  8
0
  0
POLYLINE
  8
21
 66
1
 10
0.0000
 20
0.0000
 30
0.0000
 40
0.1000
 41
0.1000
 70
0
  0
VERTEX
  8
21
 10
7.6120
 20
21.8360
 30
0.0000
  0
VERTEX
  8
21
 10
7.6120
 20
20.9630
 30
0.0000
  0
SEQEND
  8
0
  0
POLYLINE
  8
21
 66
1
 10
0.0000
 20
0.0000
 30
0.0000
 40
0.0500
 41
0.0500
 70
0
  0
VERTEX
  8
21
 10
7.5870
 20
20.9630
 30
0.0000
 42
1.0000
  0
VERTEX
  8
21
 10
7.6370
 20
20.9630
 30
0.0000
  0
SEQEND
  8
0
  0
POLYLINE
  8
21
 66
1
 10
0.0000
 20
0.0000
 30
0.0000
 40
0.0500
 41
0.0500
 70
0
  0
VERTEX
  8
21
 10
7.6370
 20
21.8360
 30
0.0000
 42
1.0000
  0
VERTEX
  8
21
 10
7.5870
 20
21.8360
 30
0.0000
  0
SEQEND
  8
0
  0
POLYLINE
  8
21
 66
1
 10
0.0000
 20
0.0000
 30
0.0000
 40
0.1000
 41
0.1000
 70
0
  0
VERTEX
  8
21
 10
7.6120
 20
20.9630
 30
0.0000
  0
VERTEX
  8
21
 10
7.4850
 20
20.8360
 30
0.0000
  0
SEQEND
  8
0
  0
POLYLINE
  8
21
 66
1
 10
0.0000
 20
0.0000
 30
0.0000
 40
0.0500
 41
0.0500
 70
0
  0
VERTEX
  8
21
 10
7.4673
 20
20.8537
 30
0.0000
 42
1.0000
  0
VERTEX
  8
21
 10
7.5027
 20
20.8183
 30
0.0000
  0
SEQEND
  8
0
  0
POLYLINE
  8
21
 66
1
 10
0.0000
 20
0.0000
 30
0.0000
 40
0.0500
 41
0.0500
 70
0
  0
VERTEX
  8
21
 10
7.6297
 20
20.9453
 30
0.0000
 42
1.0000
  0
VERTEX
  8
21
 10
7.5943
 20
20.9807
 30
0.0000
  0
SEQEND
  8
0
  0
POLYLINE
  8
21
 66
1
 10
0.0000
 20
0.0000
 30
0.0000
 40
0.1000
 41
0.1000
 70
0
  0
VERTEX
  8
21
 10
7.4850
 20
20.8360
 30
0.0000
  0
VERTEX
  8
21
 10
6.6120
 20
20.8360
 30
0.0000
  0
SEQEND
  8
0
  0
POLYLINE
  8
21
 66
1
 10
0.0000
 20
0.0000
 30
0.0000
 40
0.0500
 41
0.0500
 70
0
  0
VERTEX
  8
21
 10
6.6120
 20
20.8610
 30
0.0000
 42
1.0000
  0
VERTEX
  8
21
 10
6.6120
 20
20.8110
 30
0.0000
  0
SEQEND
  8
0
  0
POLYLINE
  8
21
 66
1
 10
0.0000
 20
0.0000
 30
0.0000
 40
0.0500
 41
0.0500
 70
0
  0
VERTEX
  8
21
 10
7.4850
 20
20.8110
 30
0.0000
 42
1.0000
  0
VERTEX
  8
21
 10
7.4850
 20
20.8610
 30
0.0000
  0
SEQEND
  8
0
  0
POLYLINE
  8
21
 66
1
 10
0.0000
 20
0.0000
 30
0.0000
 40
0.1000
 41
0.1000
 70
0
  0
VERTEX
  8
21
 10
6.6120
 20
20.8360
 30
0.0000
  0
VERTEX
  8
21
 10
6.6120
 20
21.8360
 30
0.0000
  0
SEQEND
  8
0
  0
POLYLINE
  8
21
 66
1
 10
0.0000
 20
0.0000
 30
0.0000
 40
0.0500
 41
0.0500
 70
0
  0
VERTEX
  8
21
 10
6.6370
 20
21.8360
 30
0.0000
 42
1.0000
  0
VERTEX
  8
21
 10
6.5870
 20
21.8360
 30
0.0000
  0
SEQEND
  8
0
  0
POLYLINE
  8
21
 66
1
 10
0.0000
 20
0.0000
 30
0.0000
 40
0.0500
 41
0.0500
 70
0
  0
VERTEX
  8
21
 10
6.5870
 20
20.8360
 30
0.0000
 42
1.0000
  0
VERTEX
  8
21
 10
6.6370
 20
20.8360
 30
0.0000
  0
SEQEND
  8
0
  0
POLYLINE
  8
21
 66
1
 10
0.0000
 20
0.0000
 30
0.0000
 40
0.1000
 41
0.1000
 70
0
  0
VERTEX
  8
21
 10
6.6120
 20
21.8360
 30
0.0000
  0
VERTEX
  8
21
 10
7.6120
 20
21.8360
 30
0.0000
  0
SEQEND
  8
0
  0
POLYLINE
  8
21
 66
1
 10
0.0000
 20
0.0000
 30
0.0000
 40
0.0500
 41
0.0500
 70
0
  0
VERTEX
  8
21
 10
7.6120
 20
21.8110
 30
0.0000
 42
1.0000
  0
VERTEX
  8
21
 10
7.6120
 20
21.8610
 30
0.0000
  0
SEQEND
  8
0
  0
POLYLINE
  8
21
 66
1
 10
0.0000
 20
0.0000
 30
0.0000
 40
0.0500
 41
0.0500
 70
0
  0
VERTEX
  8
21
 10
6.6120
 20
21.8610
 30
0.0000
 42
1.0000
  0
VERTEX
  8
21
 10
6.6120
 20
21.8110
 30
0.0000
  0
SEQEND
  8
0
  0
POLYLINE
  8
25
 66
1
 10
0.0000
 20
0.0000
 30
0.0000
 40
0.1000
 41
0.1000
 70
0
  0
VERTEX
  8
25
 10
7.7470
 20
20.5510
 30
0.0000
 42
1.0000
  0
VERTEX
  8
25
 10
7.7470
 20
20.8510
 30
0.0000
 42
1.0000
  0
VERTEX
  8
25
 10
7.7470
 20
20.5510
 30
0.0000
  0
SEQEND
  8
0
  0
ENDSEC
  0
EOF
