M48
; DRILL file {KiCad 9.0.3} date 2025-08-30T15:17:37+0200
; FORMAT={-:-/ absolute / metric / decimal}
; #@! TF.CreationDate,2025-08-30T15:17:37+02:00
; #@! TF.GenerationSoftware,Kicad,Pcbnew,9.0.3
; #@! TF.FileFunction,Plated,1,2,PTH
FMAT,2
METRIC
; #@! TA.AperFunction,Plated,PTH,ComponentDrill
T1C1.000
; #@! TA.AperFunction,Plated,PTH,ViaDrill
T2C1.200
%
G90
G05
T1
X87.0Y-92.42
X87.0Y-94.96
X87.0Y-97.5
X87.0Y-100.04
X87.0Y-102.58
X87.0Y-105.12
X87.0Y-107.66
X88.68Y-114.0
X91.22Y-114.0
X93.76Y-114.0
X96.3Y-114.0
X98.84Y-114.0
X101.38Y-114.0
X103.92Y-114.0
X106.46Y-114.0
X109.0Y-114.0
X111.54Y-114.0
X113.0Y-92.42
X113.0Y-94.96
X113.0Y-97.5
X113.0Y-100.04
X113.0Y-102.58
X113.0Y-105.12
X113.0Y-107.66
T2
X95.5Y-91.0
X95.5Y-93.5
X95.5Y-96.0
X105.0Y-91.0
M30
