%TF.GenerationSoftware,KiCad,Pcbnew,9.0.3*%
%TF.CreationDate,2025-08-30T15:17:24+02:00*%
%TF.ProjectId,rl_uc_module,726c5f75-635f-46d6-9f64-756c652e6b69,rev?*%
%TF.SameCoordinates,Original*%
%TF.FileFunction,Soldermask,Top*%
%TF.FilePolarity,Negative*%
%FSLAX46Y46*%
G04 Gerber Fmt 4.6, Leading zero omitted, Abs format (unit mm)*
G04 Created by KiCad (PCBNEW 9.0.3) date 2025-08-30 15:17:24*
%MOMM*%
%LPD*%
G01*
G04 APERTURE LIST*
G04 Aperture macros list*
%AMRoundRect*
0 Rectangle with rounded corners*
0 $1 Rounding radius*
0 $2 $3 $4 $5 $6 $7 $8 $9 X,Y pos of 4 corners*
0 Add a 4 corners polygon primitive as box body*
4,1,4,$2,$3,$4,$5,$6,$7,$8,$9,$2,$3,0*
0 Add four circle primitives for the rounded corners*
1,1,$1+$1,$2,$3*
1,1,$1+$1,$4,$5*
1,1,$1+$1,$6,$7*
1,1,$1+$1,$8,$9*
0 Add four rect primitives between the rounded corners*
20,1,$1+$1,$2,$3,$4,$5,0*
20,1,$1+$1,$4,$5,$6,$7,0*
20,1,$1+$1,$6,$7,$8,$9,0*
20,1,$1+$1,$8,$9,$2,$3,0*%
G04 Aperture macros list end*
%ADD10RoundRect,0.525400X-0.900400X-0.525400X0.900400X-0.525400X0.900400X0.525400X-0.900400X0.525400X0*%
%ADD11RoundRect,0.300400X1.000400X0.300400X-1.000400X0.300400X-1.000400X-0.300400X1.000400X-0.300400X0*%
%ADD12C,1.700000*%
%ADD13R,1.700000X1.700000*%
%ADD14O,1.700000X1.700000*%
G04 APERTURE END LIST*
D10*
%TO.C,U1*%
X91938636Y-92427000D03*
X91938636Y-94967000D03*
X91938636Y-97507000D03*
X91938636Y-100047000D03*
X91938636Y-102587000D03*
X91938636Y-105127000D03*
X91938636Y-107667000D03*
X108103636Y-107667000D03*
X108103636Y-105127000D03*
X108103636Y-102587000D03*
X108103636Y-100047000D03*
X108103636Y-97507000D03*
X108103636Y-94967000D03*
X108103636Y-92427000D03*
D11*
X95548636Y-99665000D03*
X95548636Y-97760000D03*
D12*
X98723636Y-91415000D03*
X101263636Y-91415000D03*
X98723636Y-93955000D03*
X101263636Y-93955000D03*
X98723636Y-96495000D03*
X101263636Y-96495000D03*
X98723636Y-99035000D03*
X101263636Y-99035000D03*
%TD*%
D13*
%TO.C,X3*%
X111540000Y-114000000D03*
D14*
X109000000Y-114000000D03*
X106460000Y-114000000D03*
X103920000Y-114000000D03*
X101380000Y-114000000D03*
X98840000Y-114000000D03*
X96300000Y-114000000D03*
X93760000Y-114000000D03*
X91220000Y-114000000D03*
X88680000Y-114000000D03*
%TD*%
D13*
%TO.C,X1*%
X87000000Y-92420000D03*
D14*
X87000000Y-94960000D03*
X87000000Y-97500000D03*
X87000000Y-100040000D03*
X87000000Y-102580000D03*
X87000000Y-105120000D03*
X87000000Y-107660000D03*
%TD*%
D13*
%TO.C,X2*%
X113000000Y-92420000D03*
D14*
X113000000Y-94960000D03*
X113000000Y-97500000D03*
X113000000Y-100040000D03*
X113000000Y-102580000D03*
X113000000Y-105120000D03*
X113000000Y-107660000D03*
%TD*%
M02*
