%TF.GenerationSoftware,KiCad,Pcbnew,9.0.3*%
%TF.CreationDate,2025-08-30T15:24:09+02:00*%
%TF.ProjectId,rl_car,726c5f63-6172-42e6-9b69-6361645f7063,rev?*%
%TF.SameCoordinates,Original*%
%TF.FileFunction,Legend,Top*%
%TF.FilePolarity,Positive*%
%FSLAX46Y46*%
G04 Gerber Fmt 4.6, Leading zero omitted, Abs format (unit mm)*
G04 Created by KiCad (PCBNEW 9.0.3) date 2025-08-30 15:24:09*
%MOMM*%
%LPD*%
G01*
G04 APERTURE LIST*
%ADD10C,0.150000*%
%ADD11C,0.100000*%
%ADD12C,0.120000*%
%ADD13C,0.127000*%
%ADD14C,0.200000*%
G04 APERTURE END LIST*
D10*
X132768978Y-104663220D02*
X132768978Y-103901316D01*
X132768978Y-103425125D02*
X132768978Y-102663221D01*
X132768978Y-102187030D02*
X132768978Y-101425126D01*
X132768978Y-100948935D02*
X132768978Y-100187031D01*
X132768978Y-99710840D02*
X132768978Y-98948936D01*
X132768978Y-98472745D02*
X132768978Y-97710841D01*
X132768978Y-97234650D02*
X132768978Y-96472746D01*
X132768978Y-95996555D02*
X132768978Y-95234651D01*
X132768978Y-94758460D02*
X132768978Y-93996556D01*
X132768978Y-93520365D02*
X132768978Y-92758461D01*
X132768978Y-92282270D02*
X132768978Y-91520366D01*
X132768978Y-91044175D02*
X132768978Y-90282271D01*
X132768978Y-89806080D02*
X132768978Y-89044176D01*
X134759875Y-104091792D02*
X134283684Y-104425125D01*
X134759875Y-104663220D02*
X133759875Y-104663220D01*
X133759875Y-104663220D02*
X133759875Y-104282268D01*
X133759875Y-104282268D02*
X133807494Y-104187030D01*
X133807494Y-104187030D02*
X133855113Y-104139411D01*
X133855113Y-104139411D02*
X133950351Y-104091792D01*
X133950351Y-104091792D02*
X134093208Y-104091792D01*
X134093208Y-104091792D02*
X134188446Y-104139411D01*
X134188446Y-104139411D02*
X134236065Y-104187030D01*
X134236065Y-104187030D02*
X134283684Y-104282268D01*
X134283684Y-104282268D02*
X134283684Y-104663220D01*
X134759875Y-103187030D02*
X134759875Y-103663220D01*
X134759875Y-103663220D02*
X133759875Y-103663220D01*
X134378922Y-102853696D02*
X134378922Y-102091792D01*
X134664636Y-101044173D02*
X134712256Y-101091792D01*
X134712256Y-101091792D02*
X134759875Y-101234649D01*
X134759875Y-101234649D02*
X134759875Y-101329887D01*
X134759875Y-101329887D02*
X134712256Y-101472744D01*
X134712256Y-101472744D02*
X134617017Y-101567982D01*
X134617017Y-101567982D02*
X134521779Y-101615601D01*
X134521779Y-101615601D02*
X134331303Y-101663220D01*
X134331303Y-101663220D02*
X134188446Y-101663220D01*
X134188446Y-101663220D02*
X133997970Y-101615601D01*
X133997970Y-101615601D02*
X133902732Y-101567982D01*
X133902732Y-101567982D02*
X133807494Y-101472744D01*
X133807494Y-101472744D02*
X133759875Y-101329887D01*
X133759875Y-101329887D02*
X133759875Y-101234649D01*
X133759875Y-101234649D02*
X133807494Y-101091792D01*
X133807494Y-101091792D02*
X133855113Y-101044173D01*
X134474160Y-100663220D02*
X134474160Y-100187030D01*
X134759875Y-100758458D02*
X133759875Y-100425125D01*
X133759875Y-100425125D02*
X134759875Y-100091792D01*
X134759875Y-99187030D02*
X134283684Y-99520363D01*
X134759875Y-99758458D02*
X133759875Y-99758458D01*
X133759875Y-99758458D02*
X133759875Y-99377506D01*
X133759875Y-99377506D02*
X133807494Y-99282268D01*
X133807494Y-99282268D02*
X133855113Y-99234649D01*
X133855113Y-99234649D02*
X133950351Y-99187030D01*
X133950351Y-99187030D02*
X134093208Y-99187030D01*
X134093208Y-99187030D02*
X134188446Y-99234649D01*
X134188446Y-99234649D02*
X134236065Y-99282268D01*
X134236065Y-99282268D02*
X134283684Y-99377506D01*
X134283684Y-99377506D02*
X134283684Y-99758458D01*
X134378922Y-98758458D02*
X134378922Y-97996554D01*
X134236065Y-97187030D02*
X134283684Y-97044173D01*
X134283684Y-97044173D02*
X134331303Y-96996554D01*
X134331303Y-96996554D02*
X134426541Y-96948935D01*
X134426541Y-96948935D02*
X134569398Y-96948935D01*
X134569398Y-96948935D02*
X134664636Y-96996554D01*
X134664636Y-96996554D02*
X134712256Y-97044173D01*
X134712256Y-97044173D02*
X134759875Y-97139411D01*
X134759875Y-97139411D02*
X134759875Y-97520363D01*
X134759875Y-97520363D02*
X133759875Y-97520363D01*
X133759875Y-97520363D02*
X133759875Y-97187030D01*
X133759875Y-97187030D02*
X133807494Y-97091792D01*
X133807494Y-97091792D02*
X133855113Y-97044173D01*
X133855113Y-97044173D02*
X133950351Y-96996554D01*
X133950351Y-96996554D02*
X134045589Y-96996554D01*
X134045589Y-96996554D02*
X134140827Y-97044173D01*
X134140827Y-97044173D02*
X134188446Y-97091792D01*
X134188446Y-97091792D02*
X134236065Y-97187030D01*
X134236065Y-97187030D02*
X134236065Y-97520363D01*
X133759875Y-96329887D02*
X133759875Y-96139411D01*
X133759875Y-96139411D02*
X133807494Y-96044173D01*
X133807494Y-96044173D02*
X133902732Y-95948935D01*
X133902732Y-95948935D02*
X134093208Y-95901316D01*
X134093208Y-95901316D02*
X134426541Y-95901316D01*
X134426541Y-95901316D02*
X134617017Y-95948935D01*
X134617017Y-95948935D02*
X134712256Y-96044173D01*
X134712256Y-96044173D02*
X134759875Y-96139411D01*
X134759875Y-96139411D02*
X134759875Y-96329887D01*
X134759875Y-96329887D02*
X134712256Y-96425125D01*
X134712256Y-96425125D02*
X134617017Y-96520363D01*
X134617017Y-96520363D02*
X134426541Y-96567982D01*
X134426541Y-96567982D02*
X134093208Y-96567982D01*
X134093208Y-96567982D02*
X133902732Y-96520363D01*
X133902732Y-96520363D02*
X133807494Y-96425125D01*
X133807494Y-96425125D02*
X133759875Y-96329887D01*
X134474160Y-95520363D02*
X134474160Y-95044173D01*
X134759875Y-95615601D02*
X133759875Y-95282268D01*
X133759875Y-95282268D02*
X134759875Y-94948935D01*
X134759875Y-94044173D02*
X134283684Y-94377506D01*
X134759875Y-94615601D02*
X133759875Y-94615601D01*
X133759875Y-94615601D02*
X133759875Y-94234649D01*
X133759875Y-94234649D02*
X133807494Y-94139411D01*
X133807494Y-94139411D02*
X133855113Y-94091792D01*
X133855113Y-94091792D02*
X133950351Y-94044173D01*
X133950351Y-94044173D02*
X134093208Y-94044173D01*
X134093208Y-94044173D02*
X134188446Y-94091792D01*
X134188446Y-94091792D02*
X134236065Y-94139411D01*
X134236065Y-94139411D02*
X134283684Y-94234649D01*
X134283684Y-94234649D02*
X134283684Y-94615601D01*
X134759875Y-93615601D02*
X133759875Y-93615601D01*
X133759875Y-93615601D02*
X133759875Y-93377506D01*
X133759875Y-93377506D02*
X133807494Y-93234649D01*
X133807494Y-93234649D02*
X133902732Y-93139411D01*
X133902732Y-93139411D02*
X133997970Y-93091792D01*
X133997970Y-93091792D02*
X134188446Y-93044173D01*
X134188446Y-93044173D02*
X134331303Y-93044173D01*
X134331303Y-93044173D02*
X134521779Y-93091792D01*
X134521779Y-93091792D02*
X134617017Y-93139411D01*
X134617017Y-93139411D02*
X134712256Y-93234649D01*
X134712256Y-93234649D02*
X134759875Y-93377506D01*
X134759875Y-93377506D02*
X134759875Y-93615601D01*
X134378922Y-92615601D02*
X134378922Y-91853697D01*
X134093208Y-91472744D02*
X134759875Y-91234649D01*
X134759875Y-91234649D02*
X134093208Y-90996554D01*
X133759875Y-90425125D02*
X133759875Y-90329887D01*
X133759875Y-90329887D02*
X133807494Y-90234649D01*
X133807494Y-90234649D02*
X133855113Y-90187030D01*
X133855113Y-90187030D02*
X133950351Y-90139411D01*
X133950351Y-90139411D02*
X134140827Y-90091792D01*
X134140827Y-90091792D02*
X134378922Y-90091792D01*
X134378922Y-90091792D02*
X134569398Y-90139411D01*
X134569398Y-90139411D02*
X134664636Y-90187030D01*
X134664636Y-90187030D02*
X134712256Y-90234649D01*
X134712256Y-90234649D02*
X134759875Y-90329887D01*
X134759875Y-90329887D02*
X134759875Y-90425125D01*
X134759875Y-90425125D02*
X134712256Y-90520363D01*
X134712256Y-90520363D02*
X134664636Y-90567982D01*
X134664636Y-90567982D02*
X134569398Y-90615601D01*
X134569398Y-90615601D02*
X134378922Y-90663220D01*
X134378922Y-90663220D02*
X134140827Y-90663220D01*
X134140827Y-90663220D02*
X133950351Y-90615601D01*
X133950351Y-90615601D02*
X133855113Y-90567982D01*
X133855113Y-90567982D02*
X133807494Y-90520363D01*
X133807494Y-90520363D02*
X133759875Y-90425125D01*
X134664636Y-89663220D02*
X134712256Y-89615601D01*
X134712256Y-89615601D02*
X134759875Y-89663220D01*
X134759875Y-89663220D02*
X134712256Y-89710839D01*
X134712256Y-89710839D02*
X134664636Y-89663220D01*
X134664636Y-89663220D02*
X134759875Y-89663220D01*
X133759875Y-88996554D02*
X133759875Y-88901316D01*
X133759875Y-88901316D02*
X133807494Y-88806078D01*
X133807494Y-88806078D02*
X133855113Y-88758459D01*
X133855113Y-88758459D02*
X133950351Y-88710840D01*
X133950351Y-88710840D02*
X134140827Y-88663221D01*
X134140827Y-88663221D02*
X134378922Y-88663221D01*
X134378922Y-88663221D02*
X134569398Y-88710840D01*
X134569398Y-88710840D02*
X134664636Y-88758459D01*
X134664636Y-88758459D02*
X134712256Y-88806078D01*
X134712256Y-88806078D02*
X134759875Y-88901316D01*
X134759875Y-88901316D02*
X134759875Y-88996554D01*
X134759875Y-88996554D02*
X134712256Y-89091792D01*
X134712256Y-89091792D02*
X134664636Y-89139411D01*
X134664636Y-89139411D02*
X134569398Y-89187030D01*
X134569398Y-89187030D02*
X134378922Y-89234649D01*
X134378922Y-89234649D02*
X134140827Y-89234649D01*
X134140827Y-89234649D02*
X133950351Y-89187030D01*
X133950351Y-89187030D02*
X133855113Y-89139411D01*
X133855113Y-89139411D02*
X133807494Y-89091792D01*
X133807494Y-89091792D02*
X133759875Y-88996554D01*
X135988866Y-104663220D02*
X135988866Y-103901316D01*
X135988866Y-103425125D02*
X135988866Y-102663221D01*
X135988866Y-102187030D02*
X135988866Y-101425126D01*
X135988866Y-100948935D02*
X135988866Y-100187031D01*
X135988866Y-99710840D02*
X135988866Y-98948936D01*
X135988866Y-98472745D02*
X135988866Y-97710841D01*
X135988866Y-97234650D02*
X135988866Y-96472746D01*
X135988866Y-95996555D02*
X135988866Y-95234651D01*
X135988866Y-94758460D02*
X135988866Y-93996556D01*
X135988866Y-93520365D02*
X135988866Y-92758461D01*
X135988866Y-92282270D02*
X135988866Y-91520366D01*
X135988866Y-91044175D02*
X135988866Y-90282271D01*
X135988866Y-89806080D02*
X135988866Y-89044176D01*
X134190476Y-111454819D02*
X134857142Y-112454819D01*
X134857142Y-111454819D02*
X134190476Y-112454819D01*
X135666666Y-111454819D02*
X135476190Y-111454819D01*
X135476190Y-111454819D02*
X135380952Y-111502438D01*
X135380952Y-111502438D02*
X135333333Y-111550057D01*
X135333333Y-111550057D02*
X135238095Y-111692914D01*
X135238095Y-111692914D02*
X135190476Y-111883390D01*
X135190476Y-111883390D02*
X135190476Y-112264342D01*
X135190476Y-112264342D02*
X135238095Y-112359580D01*
X135238095Y-112359580D02*
X135285714Y-112407200D01*
X135285714Y-112407200D02*
X135380952Y-112454819D01*
X135380952Y-112454819D02*
X135571428Y-112454819D01*
X135571428Y-112454819D02*
X135666666Y-112407200D01*
X135666666Y-112407200D02*
X135714285Y-112359580D01*
X135714285Y-112359580D02*
X135761904Y-112264342D01*
X135761904Y-112264342D02*
X135761904Y-112026247D01*
X135761904Y-112026247D02*
X135714285Y-111931009D01*
X135714285Y-111931009D02*
X135666666Y-111883390D01*
X135666666Y-111883390D02*
X135571428Y-111835771D01*
X135571428Y-111835771D02*
X135380952Y-111835771D01*
X135380952Y-111835771D02*
X135285714Y-111883390D01*
X135285714Y-111883390D02*
X135238095Y-111931009D01*
X135238095Y-111931009D02*
X135190476Y-112026247D01*
X102690476Y-135354819D02*
X102690476Y-134354819D01*
X102690476Y-134354819D02*
X103023809Y-135069104D01*
X103023809Y-135069104D02*
X103357142Y-134354819D01*
X103357142Y-134354819D02*
X103357142Y-135354819D01*
X103738095Y-134354819D02*
X104357142Y-134354819D01*
X104357142Y-134354819D02*
X104023809Y-134735771D01*
X104023809Y-134735771D02*
X104166666Y-134735771D01*
X104166666Y-134735771D02*
X104261904Y-134783390D01*
X104261904Y-134783390D02*
X104309523Y-134831009D01*
X104309523Y-134831009D02*
X104357142Y-134926247D01*
X104357142Y-134926247D02*
X104357142Y-135164342D01*
X104357142Y-135164342D02*
X104309523Y-135259580D01*
X104309523Y-135259580D02*
X104261904Y-135307200D01*
X104261904Y-135307200D02*
X104166666Y-135354819D01*
X104166666Y-135354819D02*
X103880952Y-135354819D01*
X103880952Y-135354819D02*
X103785714Y-135307200D01*
X103785714Y-135307200D02*
X103738095Y-135259580D01*
X125690476Y-105954819D02*
X126357142Y-106954819D01*
X126357142Y-105954819D02*
X125690476Y-106954819D01*
X127214285Y-105954819D02*
X126738095Y-105954819D01*
X126738095Y-105954819D02*
X126690476Y-106431009D01*
X126690476Y-106431009D02*
X126738095Y-106383390D01*
X126738095Y-106383390D02*
X126833333Y-106335771D01*
X126833333Y-106335771D02*
X127071428Y-106335771D01*
X127071428Y-106335771D02*
X127166666Y-106383390D01*
X127166666Y-106383390D02*
X127214285Y-106431009D01*
X127214285Y-106431009D02*
X127261904Y-106526247D01*
X127261904Y-106526247D02*
X127261904Y-106764342D01*
X127261904Y-106764342D02*
X127214285Y-106859580D01*
X127214285Y-106859580D02*
X127166666Y-106907200D01*
X127166666Y-106907200D02*
X127071428Y-106954819D01*
X127071428Y-106954819D02*
X126833333Y-106954819D01*
X126833333Y-106954819D02*
X126738095Y-106907200D01*
X126738095Y-106907200D02*
X126690476Y-106859580D01*
X125190476Y-135354819D02*
X125190476Y-134354819D01*
X125190476Y-134354819D02*
X125523809Y-135069104D01*
X125523809Y-135069104D02*
X125857142Y-134354819D01*
X125857142Y-134354819D02*
X125857142Y-135354819D01*
X126285714Y-134450057D02*
X126333333Y-134402438D01*
X126333333Y-134402438D02*
X126428571Y-134354819D01*
X126428571Y-134354819D02*
X126666666Y-134354819D01*
X126666666Y-134354819D02*
X126761904Y-134402438D01*
X126761904Y-134402438D02*
X126809523Y-134450057D01*
X126809523Y-134450057D02*
X126857142Y-134545295D01*
X126857142Y-134545295D02*
X126857142Y-134640533D01*
X126857142Y-134640533D02*
X126809523Y-134783390D01*
X126809523Y-134783390D02*
X126238095Y-135354819D01*
X126238095Y-135354819D02*
X126857142Y-135354819D01*
X135214285Y-118931009D02*
X135357142Y-118978628D01*
X135357142Y-118978628D02*
X135404761Y-119026247D01*
X135404761Y-119026247D02*
X135452380Y-119121485D01*
X135452380Y-119121485D02*
X135452380Y-119264342D01*
X135452380Y-119264342D02*
X135404761Y-119359580D01*
X135404761Y-119359580D02*
X135357142Y-119407200D01*
X135357142Y-119407200D02*
X135261904Y-119454819D01*
X135261904Y-119454819D02*
X134880952Y-119454819D01*
X134880952Y-119454819D02*
X134880952Y-118454819D01*
X134880952Y-118454819D02*
X135214285Y-118454819D01*
X135214285Y-118454819D02*
X135309523Y-118502438D01*
X135309523Y-118502438D02*
X135357142Y-118550057D01*
X135357142Y-118550057D02*
X135404761Y-118645295D01*
X135404761Y-118645295D02*
X135404761Y-118740533D01*
X135404761Y-118740533D02*
X135357142Y-118835771D01*
X135357142Y-118835771D02*
X135309523Y-118883390D01*
X135309523Y-118883390D02*
X135214285Y-118931009D01*
X135214285Y-118931009D02*
X134880952Y-118931009D01*
X135738095Y-118454819D02*
X136309523Y-118454819D01*
X136023809Y-119454819D02*
X136023809Y-118454819D01*
X137166666Y-119454819D02*
X136595238Y-119454819D01*
X136880952Y-119454819D02*
X136880952Y-118454819D01*
X136880952Y-118454819D02*
X136785714Y-118597676D01*
X136785714Y-118597676D02*
X136690476Y-118692914D01*
X136690476Y-118692914D02*
X136595238Y-118740533D01*
X99738095Y-116454819D02*
X99738095Y-117264342D01*
X99738095Y-117264342D02*
X99785714Y-117359580D01*
X99785714Y-117359580D02*
X99833333Y-117407200D01*
X99833333Y-117407200D02*
X99928571Y-117454819D01*
X99928571Y-117454819D02*
X100119047Y-117454819D01*
X100119047Y-117454819D02*
X100214285Y-117407200D01*
X100214285Y-117407200D02*
X100261904Y-117359580D01*
X100261904Y-117359580D02*
X100309523Y-117264342D01*
X100309523Y-117264342D02*
X100309523Y-116454819D01*
X100738095Y-116550057D02*
X100785714Y-116502438D01*
X100785714Y-116502438D02*
X100880952Y-116454819D01*
X100880952Y-116454819D02*
X101119047Y-116454819D01*
X101119047Y-116454819D02*
X101214285Y-116502438D01*
X101214285Y-116502438D02*
X101261904Y-116550057D01*
X101261904Y-116550057D02*
X101309523Y-116645295D01*
X101309523Y-116645295D02*
X101309523Y-116740533D01*
X101309523Y-116740533D02*
X101261904Y-116883390D01*
X101261904Y-116883390D02*
X100690476Y-117454819D01*
X100690476Y-117454819D02*
X101309523Y-117454819D01*
D11*
X125238095Y-94457419D02*
X125238095Y-95266942D01*
X125238095Y-95266942D02*
X125285714Y-95362180D01*
X125285714Y-95362180D02*
X125333333Y-95409800D01*
X125333333Y-95409800D02*
X125428571Y-95457419D01*
X125428571Y-95457419D02*
X125619047Y-95457419D01*
X125619047Y-95457419D02*
X125714285Y-95409800D01*
X125714285Y-95409800D02*
X125761904Y-95362180D01*
X125761904Y-95362180D02*
X125809523Y-95266942D01*
X125809523Y-95266942D02*
X125809523Y-94457419D01*
X126190476Y-94457419D02*
X126809523Y-94457419D01*
X126809523Y-94457419D02*
X126476190Y-94838371D01*
X126476190Y-94838371D02*
X126619047Y-94838371D01*
X126619047Y-94838371D02*
X126714285Y-94885990D01*
X126714285Y-94885990D02*
X126761904Y-94933609D01*
X126761904Y-94933609D02*
X126809523Y-95028847D01*
X126809523Y-95028847D02*
X126809523Y-95266942D01*
X126809523Y-95266942D02*
X126761904Y-95362180D01*
X126761904Y-95362180D02*
X126714285Y-95409800D01*
X126714285Y-95409800D02*
X126619047Y-95457419D01*
X126619047Y-95457419D02*
X126333333Y-95457419D01*
X126333333Y-95457419D02*
X126238095Y-95409800D01*
X126238095Y-95409800D02*
X126190476Y-95362180D01*
D10*
X117690476Y-135354819D02*
X117690476Y-134354819D01*
X117690476Y-134354819D02*
X118023809Y-135069104D01*
X118023809Y-135069104D02*
X118357142Y-134354819D01*
X118357142Y-134354819D02*
X118357142Y-135354819D01*
X119357142Y-135354819D02*
X118785714Y-135354819D01*
X119071428Y-135354819D02*
X119071428Y-134354819D01*
X119071428Y-134354819D02*
X118976190Y-134497676D01*
X118976190Y-134497676D02*
X118880952Y-134592914D01*
X118880952Y-134592914D02*
X118785714Y-134640533D01*
X110190476Y-135354819D02*
X110190476Y-134354819D01*
X110190476Y-134354819D02*
X110523809Y-135069104D01*
X110523809Y-135069104D02*
X110857142Y-134354819D01*
X110857142Y-134354819D02*
X110857142Y-135354819D01*
X111761904Y-134688152D02*
X111761904Y-135354819D01*
X111523809Y-134307200D02*
X111285714Y-135021485D01*
X111285714Y-135021485D02*
X111904761Y-135021485D01*
X96333333Y-82454819D02*
X96000000Y-81978628D01*
X95761905Y-82454819D02*
X95761905Y-81454819D01*
X95761905Y-81454819D02*
X96142857Y-81454819D01*
X96142857Y-81454819D02*
X96238095Y-81502438D01*
X96238095Y-81502438D02*
X96285714Y-81550057D01*
X96285714Y-81550057D02*
X96333333Y-81645295D01*
X96333333Y-81645295D02*
X96333333Y-81788152D01*
X96333333Y-81788152D02*
X96285714Y-81883390D01*
X96285714Y-81883390D02*
X96238095Y-81931009D01*
X96238095Y-81931009D02*
X96142857Y-81978628D01*
X96142857Y-81978628D02*
X95761905Y-81978628D01*
X97285714Y-82454819D02*
X96714286Y-82454819D01*
X97000000Y-82454819D02*
X97000000Y-81454819D01*
X97000000Y-81454819D02*
X96904762Y-81597676D01*
X96904762Y-81597676D02*
X96809524Y-81692914D01*
X96809524Y-81692914D02*
X96714286Y-81740533D01*
X96190476Y-52954819D02*
X96857142Y-53954819D01*
X96857142Y-52954819D02*
X96190476Y-53954819D01*
X97761904Y-53954819D02*
X97190476Y-53954819D01*
X97476190Y-53954819D02*
X97476190Y-52954819D01*
X97476190Y-52954819D02*
X97380952Y-53097676D01*
X97380952Y-53097676D02*
X97285714Y-53192914D01*
X97285714Y-53192914D02*
X97190476Y-53240533D01*
X133833333Y-82454819D02*
X133500000Y-81978628D01*
X133261905Y-82454819D02*
X133261905Y-81454819D01*
X133261905Y-81454819D02*
X133642857Y-81454819D01*
X133642857Y-81454819D02*
X133738095Y-81502438D01*
X133738095Y-81502438D02*
X133785714Y-81550057D01*
X133785714Y-81550057D02*
X133833333Y-81645295D01*
X133833333Y-81645295D02*
X133833333Y-81788152D01*
X133833333Y-81788152D02*
X133785714Y-81883390D01*
X133785714Y-81883390D02*
X133738095Y-81931009D01*
X133738095Y-81931009D02*
X133642857Y-81978628D01*
X133642857Y-81978628D02*
X133261905Y-81978628D01*
X134214286Y-81550057D02*
X134261905Y-81502438D01*
X134261905Y-81502438D02*
X134357143Y-81454819D01*
X134357143Y-81454819D02*
X134595238Y-81454819D01*
X134595238Y-81454819D02*
X134690476Y-81502438D01*
X134690476Y-81502438D02*
X134738095Y-81550057D01*
X134738095Y-81550057D02*
X134785714Y-81645295D01*
X134785714Y-81645295D02*
X134785714Y-81740533D01*
X134785714Y-81740533D02*
X134738095Y-81883390D01*
X134738095Y-81883390D02*
X134166667Y-82454819D01*
X134166667Y-82454819D02*
X134785714Y-82454819D01*
D11*
X98238095Y-49957419D02*
X98238095Y-50766942D01*
X98238095Y-50766942D02*
X98285714Y-50862180D01*
X98285714Y-50862180D02*
X98333333Y-50909800D01*
X98333333Y-50909800D02*
X98428571Y-50957419D01*
X98428571Y-50957419D02*
X98619047Y-50957419D01*
X98619047Y-50957419D02*
X98714285Y-50909800D01*
X98714285Y-50909800D02*
X98761904Y-50862180D01*
X98761904Y-50862180D02*
X98809523Y-50766942D01*
X98809523Y-50766942D02*
X98809523Y-49957419D01*
X99809523Y-50957419D02*
X99238095Y-50957419D01*
X99523809Y-50957419D02*
X99523809Y-49957419D01*
X99523809Y-49957419D02*
X99428571Y-50100276D01*
X99428571Y-50100276D02*
X99333333Y-50195514D01*
X99333333Y-50195514D02*
X99238095Y-50243133D01*
D10*
X128690476Y-47454819D02*
X129357142Y-48454819D01*
X129357142Y-47454819D02*
X128690476Y-48454819D01*
X129642857Y-47454819D02*
X130261904Y-47454819D01*
X130261904Y-47454819D02*
X129928571Y-47835771D01*
X129928571Y-47835771D02*
X130071428Y-47835771D01*
X130071428Y-47835771D02*
X130166666Y-47883390D01*
X130166666Y-47883390D02*
X130214285Y-47931009D01*
X130214285Y-47931009D02*
X130261904Y-48026247D01*
X130261904Y-48026247D02*
X130261904Y-48264342D01*
X130261904Y-48264342D02*
X130214285Y-48359580D01*
X130214285Y-48359580D02*
X130166666Y-48407200D01*
X130166666Y-48407200D02*
X130071428Y-48454819D01*
X130071428Y-48454819D02*
X129785714Y-48454819D01*
X129785714Y-48454819D02*
X129690476Y-48407200D01*
X129690476Y-48407200D02*
X129642857Y-48359580D01*
X132190476Y-52954819D02*
X132857142Y-53954819D01*
X132857142Y-52954819D02*
X132190476Y-53954819D01*
X133190476Y-53050057D02*
X133238095Y-53002438D01*
X133238095Y-53002438D02*
X133333333Y-52954819D01*
X133333333Y-52954819D02*
X133571428Y-52954819D01*
X133571428Y-52954819D02*
X133666666Y-53002438D01*
X133666666Y-53002438D02*
X133714285Y-53050057D01*
X133714285Y-53050057D02*
X133761904Y-53145295D01*
X133761904Y-53145295D02*
X133761904Y-53240533D01*
X133761904Y-53240533D02*
X133714285Y-53383390D01*
X133714285Y-53383390D02*
X133142857Y-53954819D01*
X133142857Y-53954819D02*
X133761904Y-53954819D01*
X125690476Y-85454819D02*
X126357142Y-86454819D01*
X126357142Y-85454819D02*
X125690476Y-86454819D01*
X127166666Y-85788152D02*
X127166666Y-86454819D01*
X126928571Y-85407200D02*
X126690476Y-86121485D01*
X126690476Y-86121485D02*
X127309523Y-86121485D01*
D12*
%TO.C,X6*%
X133330000Y-109405000D02*
X130670000Y-109405000D01*
X133330000Y-112005000D02*
X133330000Y-109405000D01*
X130670000Y-112005000D02*
X130670000Y-109405000D01*
X133330000Y-112005000D02*
X130670000Y-112005000D01*
X133330000Y-113275000D02*
X133330000Y-114605000D01*
X133330000Y-114605000D02*
X132000000Y-114605000D01*
%TO.C,M3*%
X106860000Y-134110000D02*
X106860000Y-132860000D01*
X106560000Y-133810000D02*
X106560000Y-129090000D01*
X106560000Y-132500000D02*
X105950000Y-132500000D01*
X106560000Y-131200000D02*
X105950000Y-131200000D01*
X106560000Y-129090000D02*
X100440000Y-129090000D01*
X105950000Y-133200000D02*
X105950000Y-129700000D01*
X105950000Y-129700000D02*
X101050000Y-129700000D01*
X105610000Y-134110000D02*
X106860000Y-134110000D01*
X105100000Y-134010000D02*
X105100000Y-133810000D01*
X104800000Y-134010000D02*
X105100000Y-134010000D01*
X104800000Y-133910000D02*
X105100000Y-133910000D01*
X104800000Y-133810000D02*
X104800000Y-134010000D01*
X104000000Y-133810000D02*
X104000000Y-133200000D01*
X104000000Y-133200000D02*
X105950000Y-133200000D01*
X103600000Y-130200000D02*
X103400000Y-130200000D01*
X103600000Y-129700000D02*
X103600000Y-130200000D01*
X103500000Y-129700000D02*
X103500000Y-130200000D01*
X103400000Y-130200000D02*
X103400000Y-129700000D01*
X103000000Y-133200000D02*
X103000000Y-133810000D01*
X101050000Y-133200000D02*
X103000000Y-133200000D01*
X101050000Y-129700000D02*
X101050000Y-133200000D01*
X100440000Y-133810000D02*
X106560000Y-133810000D01*
X100440000Y-132500000D02*
X101050000Y-132500000D01*
X100440000Y-131200000D02*
X101050000Y-131200000D01*
X100440000Y-129090000D02*
X100440000Y-133810000D01*
%TO.C,X5*%
X104430000Y-105170000D02*
X104430000Y-107830000D01*
X122270000Y-105170000D02*
X104430000Y-105170000D01*
X122270000Y-107830000D02*
X104430000Y-107830000D01*
X122270000Y-105170000D02*
X122270000Y-107830000D01*
X123540000Y-105170000D02*
X124870000Y-105170000D01*
X124870000Y-105170000D02*
X124870000Y-106500000D01*
%TO.C,M2*%
X129360000Y-134110000D02*
X129360000Y-132860000D01*
X129060000Y-133810000D02*
X129060000Y-129090000D01*
X129060000Y-132500000D02*
X128450000Y-132500000D01*
X129060000Y-131200000D02*
X128450000Y-131200000D01*
X129060000Y-129090000D02*
X122940000Y-129090000D01*
X128450000Y-133200000D02*
X128450000Y-129700000D01*
X128450000Y-129700000D02*
X123550000Y-129700000D01*
X128110000Y-134110000D02*
X129360000Y-134110000D01*
X127600000Y-134010000D02*
X127600000Y-133810000D01*
X127300000Y-134010000D02*
X127600000Y-134010000D01*
X127300000Y-133910000D02*
X127600000Y-133910000D01*
X127300000Y-133810000D02*
X127300000Y-134010000D01*
X126500000Y-133810000D02*
X126500000Y-133200000D01*
X126500000Y-133200000D02*
X128450000Y-133200000D01*
X126100000Y-130200000D02*
X125900000Y-130200000D01*
X126100000Y-129700000D02*
X126100000Y-130200000D01*
X126000000Y-129700000D02*
X126000000Y-130200000D01*
X125900000Y-130200000D02*
X125900000Y-129700000D01*
X125500000Y-133200000D02*
X125500000Y-133810000D01*
X123550000Y-133200000D02*
X125500000Y-133200000D01*
X123550000Y-129700000D02*
X123550000Y-133200000D01*
X122940000Y-133810000D02*
X129060000Y-133810000D01*
X122940000Y-132500000D02*
X123550000Y-132500000D01*
X122940000Y-131200000D02*
X123550000Y-131200000D01*
X122940000Y-129090000D02*
X122940000Y-133810000D01*
%TO.C,BT1*%
X134160000Y-115640000D02*
X132910000Y-115640000D01*
X133860000Y-115940000D02*
X129140000Y-115940000D01*
X132550000Y-115940000D02*
X132550000Y-116550000D01*
X131250000Y-115940000D02*
X131250000Y-116550000D01*
X129140000Y-115940000D02*
X129140000Y-122060000D01*
X133250000Y-116550000D02*
X129750000Y-116550000D01*
X129750000Y-116550000D02*
X129750000Y-121450000D01*
X134160000Y-116890000D02*
X134160000Y-115640000D01*
X134060000Y-117400000D02*
X133860000Y-117400000D01*
X134060000Y-117700000D02*
X134060000Y-117400000D01*
X133960000Y-117700000D02*
X133960000Y-117400000D01*
X133860000Y-117700000D02*
X134060000Y-117700000D01*
X133860000Y-118500000D02*
X133250000Y-118500000D01*
X133250000Y-118500000D02*
X133250000Y-116550000D01*
X130250000Y-118900000D02*
X130250000Y-119100000D01*
X129750000Y-118900000D02*
X130250000Y-118900000D01*
X129750000Y-119000000D02*
X130250000Y-119000000D01*
X130250000Y-119100000D02*
X129750000Y-119100000D01*
X133250000Y-119500000D02*
X133860000Y-119500000D01*
X133250000Y-121450000D02*
X133250000Y-119500000D01*
X129750000Y-121450000D02*
X133250000Y-121450000D01*
X133860000Y-122060000D02*
X133860000Y-115940000D01*
X132550000Y-122060000D02*
X132550000Y-121450000D01*
X131250000Y-122060000D02*
X131250000Y-121450000D01*
X129140000Y-122060000D02*
X133860000Y-122060000D01*
D13*
%TO.C,U2*%
X124660000Y-108960000D02*
X104340000Y-108960000D01*
X101800000Y-111500000D02*
X101800000Y-124200000D01*
X127200000Y-124200000D02*
X127200000Y-111500000D01*
X104340000Y-126740000D02*
X124660000Y-126740000D01*
X124660000Y-108960000D02*
G75*
G02*
X127200000Y-111500000I-1J-2540001D01*
G01*
X101800000Y-111500000D02*
G75*
G02*
X104340000Y-108960000I2540001J-1D01*
G01*
X127200000Y-124200000D02*
G75*
G02*
X124660000Y-126740000I-2540000J0D01*
G01*
X104340000Y-126740000D02*
G75*
G02*
X101800000Y-124200000I0J2540000D01*
G01*
D14*
X123600000Y-108450000D02*
G75*
G02*
X123400000Y-108450000I-100000J0D01*
G01*
X123400000Y-108450000D02*
G75*
G02*
X123600000Y-108450000I100000J0D01*
G01*
D13*
%TO.C,U3*%
X124750000Y-88000000D02*
X104250000Y-88000000D01*
X124750000Y-88000000D02*
X124750000Y-104000000D01*
X104250000Y-88000000D02*
X104250000Y-104000000D01*
X124750000Y-104000000D02*
X104250000Y-104000000D01*
D12*
%TO.C,M1*%
X121860000Y-134110000D02*
X121860000Y-132860000D01*
X121560000Y-133810000D02*
X121560000Y-129090000D01*
X121560000Y-132500000D02*
X120950000Y-132500000D01*
X121560000Y-131200000D02*
X120950000Y-131200000D01*
X121560000Y-129090000D02*
X115440000Y-129090000D01*
X120950000Y-133200000D02*
X120950000Y-129700000D01*
X120950000Y-129700000D02*
X116050000Y-129700000D01*
X120610000Y-134110000D02*
X121860000Y-134110000D01*
X120100000Y-134010000D02*
X120100000Y-133810000D01*
X119800000Y-134010000D02*
X120100000Y-134010000D01*
X119800000Y-133910000D02*
X120100000Y-133910000D01*
X119800000Y-133810000D02*
X119800000Y-134010000D01*
X119000000Y-133810000D02*
X119000000Y-133200000D01*
X119000000Y-133200000D02*
X120950000Y-133200000D01*
X118600000Y-130200000D02*
X118400000Y-130200000D01*
X118600000Y-129700000D02*
X118600000Y-130200000D01*
X118500000Y-129700000D02*
X118500000Y-130200000D01*
X118400000Y-130200000D02*
X118400000Y-129700000D01*
X118000000Y-133200000D02*
X118000000Y-133810000D01*
X116050000Y-133200000D02*
X118000000Y-133200000D01*
X116050000Y-129700000D02*
X116050000Y-133200000D01*
X115440000Y-133810000D02*
X121560000Y-133810000D01*
X115440000Y-132500000D02*
X116050000Y-132500000D01*
X115440000Y-131200000D02*
X116050000Y-131200000D01*
X115440000Y-129090000D02*
X115440000Y-133810000D01*
%TO.C,M4*%
X114360000Y-134110000D02*
X114360000Y-132860000D01*
X114060000Y-133810000D02*
X114060000Y-129090000D01*
X114060000Y-132500000D02*
X113450000Y-132500000D01*
X114060000Y-131200000D02*
X113450000Y-131200000D01*
X114060000Y-129090000D02*
X107940000Y-129090000D01*
X113450000Y-133200000D02*
X113450000Y-129700000D01*
X113450000Y-129700000D02*
X108550000Y-129700000D01*
X113110000Y-134110000D02*
X114360000Y-134110000D01*
X112600000Y-134010000D02*
X112600000Y-133810000D01*
X112300000Y-134010000D02*
X112600000Y-134010000D01*
X112300000Y-133910000D02*
X112600000Y-133910000D01*
X112300000Y-133810000D02*
X112300000Y-134010000D01*
X111500000Y-133810000D02*
X111500000Y-133200000D01*
X111500000Y-133200000D02*
X113450000Y-133200000D01*
X111100000Y-130200000D02*
X110900000Y-130200000D01*
X111100000Y-129700000D02*
X111100000Y-130200000D01*
X111000000Y-129700000D02*
X111000000Y-130200000D01*
X110900000Y-130200000D02*
X110900000Y-129700000D01*
X110500000Y-133200000D02*
X110500000Y-133810000D01*
X108550000Y-133200000D02*
X110500000Y-133200000D01*
X108550000Y-129700000D02*
X108550000Y-133200000D01*
X107940000Y-133810000D02*
X114060000Y-133810000D01*
X107940000Y-132500000D02*
X108550000Y-132500000D01*
X107940000Y-131200000D02*
X108550000Y-131200000D01*
X107940000Y-129090000D02*
X107940000Y-133810000D01*
%TO.C,R1*%
X99920000Y-82000000D02*
X101880000Y-82000000D01*
X113080000Y-82000000D02*
X111120000Y-82000000D01*
X101880000Y-80280000D02*
X111120000Y-80280000D01*
X111120000Y-83720000D01*
X101880000Y-83720000D01*
X101880000Y-80280000D01*
%TO.C,X1*%
X96670000Y-72570000D02*
X99330000Y-72570000D01*
X96670000Y-57270000D02*
X96670000Y-72570000D01*
X99330000Y-57270000D02*
X99330000Y-72570000D01*
X96670000Y-57270000D02*
X99330000Y-57270000D01*
X96670000Y-56000000D02*
X96670000Y-54670000D01*
X96670000Y-54670000D02*
X98000000Y-54670000D01*
%TO.C,R2*%
X117420000Y-82000000D02*
X119380000Y-82000000D01*
X130580000Y-82000000D02*
X128620000Y-82000000D01*
X119380000Y-80280000D02*
X128620000Y-80280000D01*
X128620000Y-83720000D01*
X119380000Y-83720000D01*
X119380000Y-80280000D01*
D13*
%TO.C,U1*%
X100000000Y-50000000D02*
X130000000Y-50000000D01*
X100000000Y-80000000D02*
X100000000Y-50000000D01*
X130000000Y-80000000D02*
X100000000Y-80000000D01*
X130000000Y-80000000D02*
X130000000Y-50000000D01*
D12*
%TO.C,X3*%
X102390000Y-46670000D02*
X102390000Y-49330000D01*
X125310000Y-46670000D02*
X102390000Y-46670000D01*
X125310000Y-49330000D02*
X102390000Y-49330000D01*
X125310000Y-46670000D02*
X125310000Y-49330000D01*
X126580000Y-46670000D02*
X127910000Y-46670000D01*
X127910000Y-46670000D02*
X127910000Y-48000000D01*
%TO.C,X2*%
X130670000Y-72570000D02*
X133330000Y-72570000D01*
X130670000Y-57270000D02*
X130670000Y-72570000D01*
X133330000Y-57270000D02*
X133330000Y-72570000D01*
X130670000Y-57270000D02*
X133330000Y-57270000D01*
X130670000Y-56000000D02*
X130670000Y-54670000D01*
X130670000Y-54670000D02*
X132000000Y-54670000D01*
%TO.C,X4*%
X104430000Y-84670000D02*
X104430000Y-87330000D01*
X122270000Y-84670000D02*
X104430000Y-84670000D01*
X122270000Y-87330000D02*
X104430000Y-87330000D01*
X122270000Y-84670000D02*
X122270000Y-87330000D01*
X123540000Y-84670000D02*
X124870000Y-84670000D01*
X124870000Y-84670000D02*
X124870000Y-86000000D01*
%TD*%
M02*
