%TF.GenerationSoftware,KiCad,Pcbnew,9.0.3*%
%TF.CreationDate,2025-08-30T15:24:09+02:00*%
%TF.ProjectId,rl_car,726c5f63-6172-42e6-9b69-6361645f7063,rev?*%
%TF.SameCoordinates,Original*%
%TF.FileFunction,Soldermask,Top*%
%TF.FilePolarity,Negative*%
%FSLAX46Y46*%
G04 Gerber Fmt 4.6, Leading zero omitted, Abs format (unit mm)*
G04 Created by KiCad (PCBNEW 9.0.3) date 2025-08-30 15:24:09*
%MOMM*%
%LPD*%
G01*
G04 APERTURE LIST*
G04 Aperture macros list*
%AMRoundRect*
0 Rectangle with rounded corners*
0 $1 Rounding radius*
0 $2 $3 $4 $5 $6 $7 $8 $9 X,Y pos of 4 corners*
0 Add a 4 corners polygon primitive as box body*
4,1,4,$2,$3,$4,$5,$6,$7,$8,$9,$2,$3,0*
0 Add four circle primitives for the rounded corners*
1,1,$1+$1,$2,$3*
1,1,$1+$1,$4,$5*
1,1,$1+$1,$6,$7*
1,1,$1+$1,$8,$9*
0 Add four rect primitives between the rounded corners*
20,1,$1+$1,$2,$3,$4,$5,0*
20,1,$1+$1,$4,$5,$6,$7,0*
20,1,$1+$1,$6,$7,$8,$9,0*
20,1,$1+$1,$8,$9,$2,$3,0*%
G04 Aperture macros list end*
%ADD10R,1.700000X1.700000*%
%ADD11O,1.700000X1.700000*%
%ADD12RoundRect,0.250000X0.350000X0.625000X-0.350000X0.625000X-0.350000X-0.625000X0.350000X-0.625000X0*%
%ADD13O,1.200000X1.750000*%
%ADD14C,2.200000*%
%ADD15RoundRect,0.250000X-0.625000X0.350000X-0.625000X-0.350000X0.625000X-0.350000X0.625000X0.350000X0*%
%ADD16O,1.750000X1.200000*%
%ADD17RoundRect,0.102000X-0.889000X0.889000X-0.889000X-0.889000X0.889000X-0.889000X0.889000X0.889000X0*%
%ADD18C,1.982000*%
%ADD19C,2.388400*%
%ADD20C,3.404000*%
%ADD21C,1.600000*%
G04 APERTURE END LIST*
D10*
%TO.C,X6*%
X132000000Y-113275000D03*
D11*
X132000000Y-110735000D03*
%TD*%
D12*
%TO.C,M3*%
X104500000Y-132000000D03*
D13*
X102500000Y-132000000D03*
%TD*%
D14*
%TO.C,REF\u002A\u002A*%
X95000000Y-48500000D03*
%TD*%
D10*
%TO.C,X5*%
X123540000Y-106500000D03*
D11*
X121000000Y-106500000D03*
X118460000Y-106500000D03*
X115920000Y-106500000D03*
X113380000Y-106500000D03*
X110840000Y-106500000D03*
X108300000Y-106500000D03*
X105760000Y-106500000D03*
%TD*%
D12*
%TO.C,M2*%
X127000000Y-132000000D03*
D13*
X125000000Y-132000000D03*
%TD*%
D15*
%TO.C,BT1*%
X132050000Y-118000000D03*
D16*
X132050000Y-120000000D03*
%TD*%
D17*
%TO.C,U2*%
X123390000Y-111500000D03*
D18*
X120850000Y-111500000D03*
X118310000Y-111500000D03*
X115770000Y-111500000D03*
X113230000Y-111500000D03*
X110690000Y-111500000D03*
X108150000Y-111500000D03*
X105610000Y-111500000D03*
X120850000Y-124200000D03*
X118310000Y-124200000D03*
X115770000Y-124200000D03*
X113230000Y-124200000D03*
X110690000Y-124200000D03*
X108150000Y-124200000D03*
D19*
X123390000Y-116658000D03*
X123390000Y-120158000D03*
D20*
X124660000Y-124200000D03*
X104340000Y-124200000D03*
%TD*%
D17*
%TO.C,U3*%
X123500000Y-89000000D03*
D18*
X120960000Y-89000000D03*
X118420000Y-89000000D03*
X115880000Y-89000000D03*
X113340000Y-89000000D03*
X110800000Y-89000000D03*
X108260000Y-89000000D03*
X105720000Y-89000000D03*
D20*
X122500000Y-101750000D03*
X106500000Y-101750000D03*
%TD*%
D14*
%TO.C,REF\u002A\u002A*%
X95000000Y-132500000D03*
%TD*%
D12*
%TO.C,M1*%
X119500000Y-132000000D03*
D13*
X117500000Y-132000000D03*
%TD*%
D12*
%TO.C,M4*%
X112000000Y-132000000D03*
D13*
X110000000Y-132000000D03*
%TD*%
D21*
%TO.C,R1*%
X98880000Y-82000000D03*
X114120000Y-82000000D03*
%TD*%
D14*
%TO.C,REF\u002A\u002A*%
X135000000Y-48500000D03*
%TD*%
D10*
%TO.C,X1*%
X98000000Y-56000000D03*
D11*
X98000000Y-58540000D03*
X98000000Y-61080000D03*
X98000000Y-63620000D03*
X98000000Y-66160000D03*
X98000000Y-68700000D03*
X98000000Y-71240000D03*
%TD*%
D21*
%TO.C,R2*%
X116380000Y-82000000D03*
X131620000Y-82000000D03*
%TD*%
D10*
%TO.C,U1*%
X102061364Y-55913000D03*
D11*
X102061364Y-58453000D03*
X102061364Y-60993000D03*
X102061364Y-63533000D03*
X102061364Y-66073000D03*
X102061364Y-68613000D03*
X102061364Y-71153000D03*
X128061364Y-71153000D03*
X128061364Y-68613000D03*
X128061364Y-66073000D03*
X128061364Y-63533000D03*
X128061364Y-60993000D03*
X128061364Y-58453000D03*
D10*
X128061364Y-55913000D03*
D11*
X103741364Y-77493000D03*
X106281364Y-77493000D03*
D10*
X126601364Y-77493000D03*
D11*
X124061364Y-77493000D03*
X118981364Y-77493000D03*
X121521364Y-77493000D03*
X113901364Y-77493000D03*
X116441364Y-77493000D03*
X108821364Y-77493000D03*
X111361364Y-77493000D03*
%TD*%
D10*
%TO.C,X3*%
X126580000Y-48000000D03*
D11*
X124040000Y-48000000D03*
X121500000Y-48000000D03*
X118960000Y-48000000D03*
X116420000Y-48000000D03*
X113880000Y-48000000D03*
X111340000Y-48000000D03*
X108800000Y-48000000D03*
X106260000Y-48000000D03*
X103720000Y-48000000D03*
%TD*%
D10*
%TO.C,X2*%
X132000000Y-56000000D03*
D11*
X132000000Y-58540000D03*
X132000000Y-61080000D03*
X132000000Y-63620000D03*
X132000000Y-66160000D03*
X132000000Y-68700000D03*
X132000000Y-71240000D03*
%TD*%
D14*
%TO.C,REF\u002A\u002A*%
X135000000Y-132500000D03*
%TD*%
D10*
%TO.C,X4*%
X123540000Y-86000000D03*
D11*
X121000000Y-86000000D03*
X118460000Y-86000000D03*
X115920000Y-86000000D03*
X113380000Y-86000000D03*
X110840000Y-86000000D03*
X108300000Y-86000000D03*
X105760000Y-86000000D03*
%TD*%
M02*
