M48
; DRILL file {KiCad 9.0.3} date 2025-08-30T15:24:25+0200
; FORMAT={-:-/ absolute / metric / decimal}
; #@! TF.CreationDate,2025-08-30T15:24:25+02:00
; #@! TF.GenerationSoftware,Kicad,Pcbnew,9.0.3
; #@! TF.FileFunction,Plated,1,2,PTH
FMAT,2
METRIC
; #@! TA.AperFunction,Plated,PTH,ComponentDrill
T1C0.750
; #@! TA.AperFunction,Plated,PTH,ComponentDrill
T2C0.800
; #@! TA.AperFunction,Plated,PTH,ViaDrill
T3C1.000
; #@! TA.AperFunction,Plated,PTH,ComponentDrill
T4C1.000
; #@! TA.AperFunction,Plated,PTH,ComponentDrill
T5C2.500
; #@! TA.AperFunction,Plated,PTH,ComponentDrill
T6C3.000
%
G90
G05
T1
X102.5Y-132.0
X104.5Y-132.0
X110.0Y-132.0
X112.0Y-132.0
X117.5Y-132.0
X119.5Y-132.0
X125.0Y-132.0
X127.0Y-132.0
X132.05Y-118.0
X132.05Y-120.0
T2
X98.88Y-82.0
X114.12Y-82.0
X116.38Y-82.0
X131.62Y-82.0
T3
X98.5Y-92.5
X100.5Y-94.0
X132.0Y-77.5
T4
X98.0Y-56.0
X98.0Y-58.54
X98.0Y-61.08
X98.0Y-63.62
X98.0Y-66.16
X98.0Y-68.7
X98.0Y-71.24
X102.061Y-55.913
X102.061Y-58.453
X102.061Y-60.993
X102.061Y-63.533
X102.061Y-66.073
X102.061Y-68.613
X102.061Y-71.153
X103.72Y-48.0
X103.741Y-77.493
X105.61Y-111.5
X105.72Y-89.0
X105.76Y-86.0
X105.76Y-106.5
X106.26Y-48.0
X106.281Y-77.493
X108.15Y-111.5
X108.15Y-124.2
X108.26Y-89.0
X108.3Y-86.0
X108.3Y-106.5
X108.8Y-48.0
X108.821Y-77.493
X110.69Y-111.5
X110.69Y-124.2
X110.8Y-89.0
X110.84Y-86.0
X110.84Y-106.5
X111.34Y-48.0
X111.361Y-77.493
X113.23Y-111.5
X113.23Y-124.2
X113.34Y-89.0
X113.38Y-86.0
X113.38Y-106.5
X113.88Y-48.0
X113.901Y-77.493
X115.77Y-111.5
X115.77Y-124.2
X115.88Y-89.0
X115.92Y-86.0
X115.92Y-106.5
X116.42Y-48.0
X116.441Y-77.493
X118.31Y-111.5
X118.31Y-124.2
X118.42Y-89.0
X118.46Y-86.0
X118.46Y-106.5
X118.96Y-48.0
X118.981Y-77.493
X120.85Y-111.5
X120.85Y-124.2
X120.96Y-89.0
X121.0Y-86.0
X121.0Y-106.5
X121.5Y-48.0
X121.521Y-77.493
X123.39Y-111.5
X123.39Y-116.658
X123.39Y-120.158
X123.5Y-89.0
X123.54Y-86.0
X123.54Y-106.5
X124.04Y-48.0
X124.061Y-77.493
X126.58Y-48.0
X126.601Y-77.493
X128.061Y-55.913
X128.061Y-58.453
X128.061Y-60.993
X128.061Y-63.533
X128.061Y-66.073
X128.061Y-68.613
X128.061Y-71.153
X132.0Y-56.0
X132.0Y-58.54
X132.0Y-61.08
X132.0Y-63.62
X132.0Y-66.16
X132.0Y-68.7
X132.0Y-71.24
X132.0Y-110.735
X132.0Y-113.275
T5
X104.34Y-124.2
X124.66Y-124.2
T6
X106.5Y-101.75
X122.5Y-101.75
M30
