%TF.GenerationSoftware,KiCad,Pcbnew,9.0.3*%
%TF.CreationDate,2025-08-30T15:24:08+02:00*%
%TF.ProjectId,rl_car,726c5f63-6172-42e6-9b69-6361645f7063,rev?*%
%TF.SameCoordinates,Original*%
%TF.FileFunction,Copper,L1,Top*%
%TF.FilePolarity,Positive*%
%FSLAX46Y46*%
G04 Gerber Fmt 4.6, Leading zero omitted, Abs format (unit mm)*
G04 Created by KiCad (PCBNEW 9.0.3) date 2025-08-30 15:24:08*
%MOMM*%
%LPD*%
G01*
G04 APERTURE LIST*
G04 Aperture macros list*
%AMRoundRect*
0 Rectangle with rounded corners*
0 $1 Rounding radius*
0 $2 $3 $4 $5 $6 $7 $8 $9 X,Y pos of 4 corners*
0 Add a 4 corners polygon primitive as box body*
4,1,4,$2,$3,$4,$5,$6,$7,$8,$9,$2,$3,0*
0 Add four circle primitives for the rounded corners*
1,1,$1+$1,$2,$3*
1,1,$1+$1,$4,$5*
1,1,$1+$1,$6,$7*
1,1,$1+$1,$8,$9*
0 Add four rect primitives between the rounded corners*
20,1,$1+$1,$2,$3,$4,$5,0*
20,1,$1+$1,$4,$5,$6,$7,0*
20,1,$1+$1,$6,$7,$8,$9,0*
20,1,$1+$1,$8,$9,$2,$3,0*%
G04 Aperture macros list end*
%TA.AperFunction,ComponentPad*%
%ADD10R,1.700000X1.700000*%
%TD*%
%TA.AperFunction,ComponentPad*%
%ADD11O,1.700000X1.700000*%
%TD*%
%TA.AperFunction,ComponentPad*%
%ADD12RoundRect,0.250000X0.350000X0.625000X-0.350000X0.625000X-0.350000X-0.625000X0.350000X-0.625000X0*%
%TD*%
%TA.AperFunction,ComponentPad*%
%ADD13O,1.200000X1.750000*%
%TD*%
%TA.AperFunction,ComponentPad*%
%ADD14RoundRect,0.250000X-0.625000X0.350000X-0.625000X-0.350000X0.625000X-0.350000X0.625000X0.350000X0*%
%TD*%
%TA.AperFunction,ComponentPad*%
%ADD15O,1.750000X1.200000*%
%TD*%
%TA.AperFunction,ComponentPad*%
%ADD16R,1.778000X1.778000*%
%TD*%
%TA.AperFunction,ComponentPad*%
%ADD17C,1.778000*%
%TD*%
%TA.AperFunction,ComponentPad*%
%ADD18C,2.184400*%
%TD*%
%TA.AperFunction,ComponentPad*%
%ADD19C,3.200000*%
%TD*%
%TA.AperFunction,ComponentPad*%
%ADD20C,1.600000*%
%TD*%
%TA.AperFunction,ViaPad*%
%ADD21C,1.800000*%
%TD*%
%TA.AperFunction,Conductor*%
%ADD22C,0.200000*%
%TD*%
%TA.AperFunction,Conductor*%
%ADD23C,0.500000*%
%TD*%
G04 APERTURE END LIST*
D10*
%TO.P,X6,1*%
%TO.N,Net-(BT1-+)*%
X132000000Y-113275000D03*
D11*
%TO.P,X6,2*%
%TO.N,VBAT+*%
X132000000Y-110735000D03*
%TD*%
D12*
%TO.P,M3,1,+*%
%TO.N,Net-(M3-+)*%
X104500000Y-132000000D03*
D13*
%TO.P,M3,2,-*%
%TO.N,Net-(M3--)*%
X102500000Y-132000000D03*
%TD*%
D10*
%TO.P,X5,1*%
%TO.N,Net-(U2-VM)*%
X123540000Y-106500000D03*
D11*
%TO.P,X5,2*%
%TO.N,GND*%
X121000000Y-106500000D03*
%TO.P,X5,3*%
%TO.N,Net-(U2-FLT)*%
X118460000Y-106500000D03*
%TO.P,X5,4*%
%TO.N,unconnected-(X5-Pad4)*%
X115920000Y-106500000D03*
%TO.P,X5,5*%
%TO.N,unconnected-(X5-Pad5)*%
X113380000Y-106500000D03*
%TO.P,X5,6*%
%TO.N,unconnected-(X5-Pad6)*%
X110840000Y-106500000D03*
%TO.P,X5,7*%
%TO.N,unconnected-(X5-Pad7)*%
X108300000Y-106500000D03*
%TO.P,X5,8*%
%TO.N,unconnected-(X5-Pad8)*%
X105760000Y-106500000D03*
%TD*%
D12*
%TO.P,M2,1,+*%
%TO.N,Net-(M1-+)*%
X127000000Y-132000000D03*
D13*
%TO.P,M2,2,-*%
%TO.N,Net-(M1--)*%
X125000000Y-132000000D03*
%TD*%
D14*
%TO.P,BT1,1,+*%
%TO.N,Net-(BT1-+)*%
X132050000Y-118000000D03*
D15*
%TO.P,BT1,2,-*%
%TO.N,VBAT-*%
X132050000Y-120000000D03*
%TD*%
D16*
%TO.P,U2,1,VM*%
%TO.N,Net-(U2-VM)*%
X123390000Y-111500000D03*
D17*
%TO.P,U2,2,GND*%
%TO.N,GND*%
X120850000Y-111500000D03*
%TO.P,U2,3,FLT*%
%TO.N,Net-(U2-FLT)*%
X118310000Y-111500000D03*
%TO.P,U2,4,BIN1*%
%TO.N,MOT_B_DIR*%
X115770000Y-111500000D03*
%TO.P,U2,5,BIN2*%
%TO.N,MOT_B_DIR_PWM*%
X113230000Y-111500000D03*
%TO.P,U2,6,SLP*%
%TO.N,MOT_SLP*%
X110690000Y-111500000D03*
%TO.P,U2,7,AIN2*%
%TO.N,MOT_A_DIR_PWM*%
X108150000Y-111500000D03*
%TO.P,U2,8,AIN1*%
%TO.N,MOT_A_DIR*%
X105610000Y-111500000D03*
%TO.P,U2,9,AS*%
%TO.N,unconnected-(U2-AS-Pad9)*%
X120850000Y-124200000D03*
%TO.P,U2,10,BS*%
%TO.N,unconnected-(U2-BS-Pad10)*%
X118310000Y-124200000D03*
%TO.P,U2,11,B1*%
%TO.N,Net-(M1-+)*%
X115770000Y-124200000D03*
%TO.P,U2,12,B2*%
%TO.N,Net-(M1--)*%
X113230000Y-124200000D03*
%TO.P,U2,13,A2*%
%TO.N,Net-(M3-+)*%
X110690000Y-124200000D03*
%TO.P,U2,14,A1*%
%TO.N,Net-(M3--)*%
X108150000Y-124200000D03*
D18*
%TO.P,U2,15,VM+*%
%TO.N,VBAT+*%
X123390000Y-116658000D03*
%TO.P,U2,16,VM-*%
%TO.N,VBAT-*%
X123390000Y-120158000D03*
D19*
%TO.P,U2,S1*%
%TO.N,N/C*%
X124660000Y-124200000D03*
%TO.P,U2,S2*%
X104340000Y-124200000D03*
%TD*%
D16*
%TO.P,U3,1,VCC*%
%TO.N,3V3*%
X123500000Y-89000000D03*
D17*
%TO.P,U3,2,GND*%
%TO.N,GND*%
X120960000Y-89000000D03*
%TO.P,U3,3,SCL*%
%TO.N,ACC_SDA*%
X118420000Y-89000000D03*
%TO.P,U3,4,SDA*%
%TO.N,ACC_SCL*%
X115880000Y-89000000D03*
%TO.P,U3,5,XDA*%
%TO.N,Net-(U3-XDA)*%
X113340000Y-89000000D03*
%TO.P,U3,6,XCL*%
%TO.N,Net-(U3-XCL)*%
X110800000Y-89000000D03*
%TO.P,U3,7,AD0*%
%TO.N,Net-(U3-AD0)*%
X108260000Y-89000000D03*
%TO.P,U3,8,INT*%
%TO.N,Net-(U3-INT)*%
X105720000Y-89000000D03*
D19*
%TO.P,U3,S1*%
%TO.N,N/C*%
X122500000Y-101750000D03*
X106500000Y-101750000D03*
%TD*%
D12*
%TO.P,M1,1,+*%
%TO.N,Net-(M1-+)*%
X119500000Y-132000000D03*
D13*
%TO.P,M1,2,-*%
%TO.N,Net-(M1--)*%
X117500000Y-132000000D03*
%TD*%
D12*
%TO.P,M4,1,+*%
%TO.N,Net-(M3-+)*%
X112000000Y-132000000D03*
D13*
%TO.P,M4,2,-*%
%TO.N,Net-(M3--)*%
X110000000Y-132000000D03*
%TD*%
D20*
%TO.P,R1,1*%
%TO.N,VBAT+*%
X98880000Y-82000000D03*
%TO.P,R1,2*%
%TO.N,BAT_SENSE*%
X114120000Y-82000000D03*
%TD*%
D10*
%TO.P,X1,1*%
%TO.N,MOT_B_DIR*%
X98000000Y-56000000D03*
D11*
%TO.P,X1,2*%
%TO.N,MOT_B_DIR_PWM*%
X98000000Y-58540000D03*
%TO.P,X1,3*%
%TO.N,MOT_A_DIR*%
X98000000Y-61080000D03*
%TO.P,X1,4*%
%TO.N,MOT_A_DIR_PWM*%
X98000000Y-63620000D03*
%TO.P,X1,5*%
%TO.N,ACC_SDA*%
X98000000Y-66160000D03*
%TO.P,X1,6*%
%TO.N,ACC_SCL*%
X98000000Y-68700000D03*
%TO.P,X1,7*%
%TO.N,Net-(U1-GPIO43_TX_D6)*%
X98000000Y-71240000D03*
%TD*%
D20*
%TO.P,R2,1*%
%TO.N,BAT_SENSE*%
X116380000Y-82000000D03*
%TO.P,R2,2*%
%TO.N,GND*%
X131620000Y-82000000D03*
%TD*%
D10*
%TO.P,U1,1,TCH1_GPIO1_A0_D0*%
%TO.N,MOT_B_DIR*%
X102061364Y-55913000D03*
D11*
%TO.P,U1,2,TCH2_GPIO2_A1_D1*%
%TO.N,MOT_B_DIR_PWM*%
X102061364Y-58453000D03*
%TO.P,U1,3,TCH3_GPIO3_A2_D2*%
%TO.N,MOT_A_DIR*%
X102061364Y-60993000D03*
%TO.P,U1,4,TCH4_GPIO4_A3_D3*%
%TO.N,MOT_A_DIR_PWM*%
X102061364Y-63533000D03*
%TO.P,U1,5,TCH5_GPIO5_A4_D4_SDA*%
%TO.N,ACC_SDA*%
X102061364Y-66073000D03*
%TO.P,U1,6,TCH6_GPIO6_A5_D5_SCL*%
%TO.N,ACC_SCL*%
X102061364Y-68613000D03*
%TO.P,U1,7,GPIO43_TX_D6*%
%TO.N,Net-(U1-GPIO43_TX_D6)*%
X102061364Y-71153000D03*
%TO.P,U1,8,GPIO44_D7_RX*%
%TO.N,MOT_SLP*%
X128061364Y-71153000D03*
%TO.P,U1,9,TCH7_GPIO7_A8_D8_SCK*%
%TO.N,BAT_SENSE*%
X128061364Y-68613000D03*
%TO.P,U1,10,TCH8_GPIO8_A9_D9_MISO*%
%TO.N,Net-(U1-TCH8_GPIO8_A9_D9_MISO)*%
X128061364Y-66073000D03*
%TO.P,U1,11,TCH9_GPIO9_A10_D10_MOSI*%
%TO.N,Net-(U1-TCH9_GPIO9_A10_D10_MOSI)*%
X128061364Y-63533000D03*
%TO.P,U1,12,3V3*%
%TO.N,3V3*%
X128061364Y-60993000D03*
%TO.P,U1,13,GND*%
%TO.N,GND*%
X128061364Y-58453000D03*
D10*
%TO.P,U1,14,5V*%
%TO.N,Net-(U1-5V)*%
X128061364Y-55913000D03*
D11*
%TO.P,U1,15,BAT+*%
%TO.N,VBAT+*%
X103741364Y-77493000D03*
%TO.P,U1,16,BAT-*%
%TO.N,VBAT-*%
X106281364Y-77493000D03*
D10*
%TO.P,U1,17,MTDI*%
%TO.N,Net-(U1-MTDI)*%
X126601364Y-77493000D03*
D11*
%TO.P,U1,18,MTDO*%
%TO.N,Net-(U1-MTDO)*%
X124061364Y-77493000D03*
%TO.P,U1,19,EN*%
%TO.N,Net-(U1-EN)*%
X118981364Y-77493000D03*
%TO.P,U1,20,GND*%
%TO.N,Net-(U1-GND-Pad20)*%
X121521364Y-77493000D03*
%TO.P,U1,21,MTMS*%
%TO.N,Net-(U1-MTMS)*%
X113901364Y-77493000D03*
%TO.P,U1,22,MTCK*%
%TO.N,Net-(U1-MTCK)*%
X116441364Y-77493000D03*
%TO.P,U1,23,D-*%
%TO.N,Net-(U1-D-)*%
X108821364Y-77493000D03*
%TO.P,U1,24,D+*%
%TO.N,Net-(U1-D+)*%
X111361364Y-77493000D03*
%TD*%
D10*
%TO.P,X3,1*%
%TO.N,Net-(U1-MTDI)*%
X126580000Y-48000000D03*
D11*
%TO.P,X3,2*%
%TO.N,Net-(U1-MTDO)*%
X124040000Y-48000000D03*
%TO.P,X3,3*%
%TO.N,Net-(U1-GND-Pad20)*%
X121500000Y-48000000D03*
%TO.P,X3,4*%
%TO.N,Net-(U1-EN)*%
X118960000Y-48000000D03*
%TO.P,X3,5*%
%TO.N,Net-(U1-MTCK)*%
X116420000Y-48000000D03*
%TO.P,X3,6*%
%TO.N,Net-(U1-MTMS)*%
X113880000Y-48000000D03*
%TO.P,X3,7*%
%TO.N,Net-(U1-D+)*%
X111340000Y-48000000D03*
%TO.P,X3,8*%
%TO.N,Net-(U1-D-)*%
X108800000Y-48000000D03*
%TO.P,X3,9*%
%TO.N,VBAT-*%
X106260000Y-48000000D03*
%TO.P,X3,10*%
%TO.N,VBAT+*%
X103720000Y-48000000D03*
%TD*%
D10*
%TO.P,X2,1*%
%TO.N,Net-(U1-5V)*%
X132000000Y-56000000D03*
D11*
%TO.P,X2,2*%
%TO.N,GND*%
X132000000Y-58540000D03*
%TO.P,X2,3*%
%TO.N,3V3*%
X132000000Y-61080000D03*
%TO.P,X2,4*%
%TO.N,Net-(U1-TCH9_GPIO9_A10_D10_MOSI)*%
X132000000Y-63620000D03*
%TO.P,X2,5*%
%TO.N,Net-(U1-TCH8_GPIO8_A9_D9_MISO)*%
X132000000Y-66160000D03*
%TO.P,X2,6*%
%TO.N,BAT_SENSE*%
X132000000Y-68700000D03*
%TO.P,X2,7*%
%TO.N,MOT_SLP*%
X132000000Y-71240000D03*
%TD*%
D10*
%TO.P,X4,1*%
%TO.N,3V3*%
X123540000Y-86000000D03*
D11*
%TO.P,X4,2*%
%TO.N,GND*%
X121000000Y-86000000D03*
%TO.P,X4,3*%
%TO.N,unconnected-(X4-Pad3)*%
X118460000Y-86000000D03*
%TO.P,X4,4*%
%TO.N,unconnected-(X4-Pad4)*%
X115920000Y-86000000D03*
%TO.P,X4,5*%
%TO.N,Net-(U3-XDA)*%
X113380000Y-86000000D03*
%TO.P,X4,6*%
%TO.N,Net-(U3-XCL)*%
X110840000Y-86000000D03*
%TO.P,X4,7*%
%TO.N,Net-(U3-AD0)*%
X108300000Y-86000000D03*
%TO.P,X4,8*%
%TO.N,Net-(U3-INT)*%
X105760000Y-86000000D03*
%TD*%
D21*
%TO.N,VBAT-*%
X98500000Y-92500000D03*
%TO.N,VBAT+*%
X100500000Y-94000000D03*
%TO.N,MOT_SLP*%
X132000000Y-77500000D03*
%TD*%
D22*
%TO.N,Net-(BT1-+)*%
X132050000Y-113325000D02*
X132000000Y-113275000D01*
D23*
X132050000Y-118000000D02*
X132050000Y-113325000D01*
%TO.N,VBAT-*%
X98500000Y-111000000D02*
X107658000Y-120158000D01*
X107658000Y-120158000D02*
X123390000Y-120158000D01*
X106281364Y-48021364D02*
X106260000Y-48000000D01*
X131892000Y-120158000D02*
X132050000Y-120000000D01*
X98500000Y-92500000D02*
X98500000Y-111000000D01*
X106281364Y-77493000D02*
X106281364Y-48021364D01*
X123390000Y-120158000D02*
X131892000Y-120158000D01*
%TO.N,Net-(M1--)*%
X113230000Y-124200000D02*
X113230000Y-125730000D01*
X116500000Y-128000000D02*
X117500000Y-129000000D01*
X117500000Y-129000000D02*
X123500000Y-129000000D01*
X125000000Y-130500000D02*
X125000000Y-132000000D01*
X113230000Y-125730000D02*
X115500000Y-128000000D01*
X115500000Y-128000000D02*
X116500000Y-128000000D01*
X117500000Y-132000000D02*
X116000000Y-132000000D01*
X123500000Y-129000000D02*
X125000000Y-130500000D01*
X116000000Y-132000000D02*
X115500000Y-131500000D01*
X115500000Y-131500000D02*
X115500000Y-128000000D01*
%TO.N,Net-(M1-+)*%
X119500000Y-132000000D02*
X119500000Y-133500000D01*
X120000000Y-134000000D02*
X126500000Y-134000000D01*
X119500000Y-133500000D02*
X120000000Y-134000000D01*
X125500000Y-127500000D02*
X126000000Y-128000000D01*
X126500000Y-134000000D02*
X127000000Y-133500000D01*
X127000000Y-133500000D02*
X127000000Y-132000000D01*
X115770000Y-124200000D02*
X115770000Y-125770000D01*
X127000000Y-129000000D02*
X126000000Y-128000000D01*
X117500000Y-127500000D02*
X125500000Y-127500000D01*
X127000000Y-132000000D02*
X127000000Y-129000000D01*
X115770000Y-125770000D02*
X117500000Y-127500000D01*
%TO.N,Net-(M3-+)*%
X104500000Y-133500000D02*
X105000000Y-134000000D01*
X111500000Y-134000000D02*
X112000000Y-133500000D01*
X112000000Y-128400000D02*
X112000000Y-128500000D01*
X112000000Y-133500000D02*
X112000000Y-132000000D01*
X110690000Y-127090000D02*
X112000000Y-128400000D01*
X112000000Y-132000000D02*
X112000000Y-128500000D01*
X105000000Y-134000000D02*
X111500000Y-134000000D01*
X110690000Y-124200000D02*
X110690000Y-127090000D01*
X104500000Y-132000000D02*
X104500000Y-133500000D01*
%TO.N,Net-(M3--)*%
X110000000Y-129200000D02*
X109150000Y-128350000D01*
X102500000Y-130000000D02*
X104150000Y-128350000D01*
X107500000Y-128350000D02*
X107500000Y-126500000D01*
X104150000Y-128350000D02*
X107500000Y-128350000D01*
X107500000Y-126500000D02*
X108150000Y-125850000D01*
X107500000Y-128350000D02*
X109150000Y-128350000D01*
X110000000Y-132000000D02*
X110000000Y-129200000D01*
X108150000Y-125850000D02*
X108150000Y-124200000D01*
X102500000Y-132000000D02*
X102500000Y-130000000D01*
%TO.N,BAT_SENSE*%
X132000000Y-68700000D02*
X128148364Y-68700000D01*
X128148364Y-68700000D02*
X128061364Y-68613000D01*
X114120000Y-82000000D02*
X116380000Y-82000000D01*
%TO.N,VBAT+*%
X132000000Y-110735000D02*
X129265000Y-110735000D01*
X98880000Y-82000000D02*
X102000000Y-82000000D01*
X103741364Y-80258636D02*
X103741364Y-77493000D01*
X103741364Y-48021364D02*
X103720000Y-48000000D01*
X129265000Y-110735000D02*
X128000000Y-112000000D01*
X103741364Y-77493000D02*
X103741364Y-48021364D01*
X102000000Y-82000000D02*
X103741364Y-80258636D01*
X100500000Y-110000000D02*
X107158000Y-116658000D01*
X100500000Y-94000000D02*
X100500000Y-110000000D01*
X126842000Y-116658000D02*
X123390000Y-116658000D01*
X128000000Y-115500000D02*
X126842000Y-116658000D01*
X128000000Y-112000000D02*
X128000000Y-115500000D01*
X107158000Y-116658000D02*
X123390000Y-116658000D01*
%TO.N,GND*%
X121000000Y-83500000D02*
X122500000Y-82000000D01*
X121000000Y-105000000D02*
X119500000Y-103500000D01*
X122500000Y-82000000D02*
X131620000Y-82000000D01*
X120850000Y-111500000D02*
X120850000Y-106650000D01*
X121000000Y-106500000D02*
X121000000Y-105000000D01*
X120960000Y-91960000D02*
X120960000Y-89000000D01*
X120960000Y-89000000D02*
X120960000Y-86040000D01*
X121000000Y-86000000D02*
X121000000Y-83500000D01*
X120960000Y-86040000D02*
X121000000Y-86000000D01*
X119500000Y-103500000D02*
X119500000Y-93500000D01*
X128148364Y-58540000D02*
X128061364Y-58453000D01*
X121000000Y-92000000D02*
X120960000Y-91960000D01*
X120850000Y-106650000D02*
X121000000Y-106500000D01*
X119500000Y-93500000D02*
X121000000Y-92000000D01*
X132000000Y-58540000D02*
X128148364Y-58540000D01*
%TO.N,Net-(U1-5V)*%
X128148364Y-56000000D02*
X128061364Y-55913000D01*
X132000000Y-56000000D02*
X128148364Y-56000000D01*
%TO.N,3V3*%
X128148364Y-61080000D02*
X128061364Y-60993000D01*
X134000000Y-83000000D02*
X134000000Y-61500000D01*
X123500000Y-86040000D02*
X123540000Y-86000000D01*
X133580000Y-61080000D02*
X132000000Y-61080000D01*
X132000000Y-61080000D02*
X128148364Y-61080000D01*
X123500000Y-89000000D02*
X123500000Y-86040000D01*
X131000000Y-86000000D02*
X134000000Y-83000000D01*
X134000000Y-61500000D02*
X133580000Y-61080000D01*
X123540000Y-86000000D02*
X131000000Y-86000000D01*
%TO.N,ACC_SDA*%
X95000000Y-83000000D02*
X95000000Y-66500000D01*
X95340000Y-66160000D02*
X98000000Y-66160000D01*
X117500000Y-92000000D02*
X104000000Y-92000000D01*
X118420000Y-91080000D02*
X117500000Y-92000000D01*
X98000000Y-66160000D02*
X101974364Y-66160000D01*
X104000000Y-92000000D02*
X95000000Y-83000000D01*
X118420000Y-89000000D02*
X118420000Y-91080000D01*
X95000000Y-66500000D02*
X95340000Y-66160000D01*
X101974364Y-66160000D02*
X102061364Y-66073000D01*
%TO.N,Net-(U1-MTCK)*%
X116441364Y-48021364D02*
X116420000Y-48000000D01*
X116441364Y-77493000D02*
X116441364Y-48021364D01*
%TO.N,Net-(U1-GND-Pad20)*%
X121521364Y-48021364D02*
X121500000Y-48000000D01*
X121521364Y-77493000D02*
X121521364Y-48021364D01*
%TO.N,Net-(U1-MTDO)*%
X124061364Y-48021364D02*
X124040000Y-48000000D01*
X124061364Y-77493000D02*
X124061364Y-48021364D01*
%TO.N,MOT_B_DIR*%
X101974364Y-56000000D02*
X102061364Y-55913000D01*
X98000000Y-56000000D02*
X101974364Y-56000000D01*
%TO.N,Net-(U1-D+)*%
X111361364Y-48021364D02*
X111340000Y-48000000D01*
X111361364Y-77493000D02*
X111361364Y-48021364D01*
%TO.N,Net-(U1-MTMS)*%
X113901364Y-77493000D02*
X113901364Y-48021364D01*
X113901364Y-48021364D02*
X113880000Y-48000000D01*
%TO.N,Net-(U1-D-)*%
X108821364Y-48021364D02*
X108800000Y-48000000D01*
X108821364Y-77493000D02*
X108821364Y-48021364D01*
%TO.N,MOT_A_DIR_PWM*%
X101974364Y-63620000D02*
X102061364Y-63533000D01*
X98000000Y-63620000D02*
X101974364Y-63620000D01*
%TO.N,Net-(U1-GPIO43_TX_D6)*%
X101974364Y-71240000D02*
X102061364Y-71153000D01*
X98000000Y-71240000D02*
X101974364Y-71240000D01*
%TO.N,MOT_B_DIR_PWM*%
X101974364Y-58540000D02*
X102061364Y-58453000D01*
X98000000Y-58540000D02*
X101974364Y-58540000D01*
%TO.N,Net-(U1-TCH8_GPIO8_A9_D9_MISO)*%
X128148364Y-66160000D02*
X128061364Y-66073000D01*
X132000000Y-66160000D02*
X128148364Y-66160000D01*
%TO.N,ACC_SCL*%
X104500000Y-91000000D02*
X115000000Y-91000000D01*
X98000000Y-68700000D02*
X96300000Y-68700000D01*
X101974364Y-68700000D02*
X102061364Y-68613000D01*
X96000000Y-69000000D02*
X96000000Y-82500000D01*
X96300000Y-68700000D02*
X96000000Y-69000000D01*
X96000000Y-82500000D02*
X104500000Y-91000000D01*
X98000000Y-68700000D02*
X101974364Y-68700000D01*
X115000000Y-91000000D02*
X115880000Y-90120000D01*
X115880000Y-90120000D02*
X115880000Y-89000000D01*
%TO.N,MOT_SLP*%
X128148364Y-71240000D02*
X128061364Y-71153000D01*
X132000000Y-71240000D02*
X128148364Y-71240000D01*
X132000000Y-71240000D02*
X132000000Y-77500000D01*
%TO.N,Net-(U1-EN)*%
X118960000Y-77471636D02*
X118981364Y-77493000D01*
X118960000Y-48000000D02*
X118960000Y-77471636D01*
%TO.N,Net-(U1-TCH9_GPIO9_A10_D10_MOSI)*%
X128148364Y-63620000D02*
X128061364Y-63533000D01*
X132000000Y-63620000D02*
X128148364Y-63620000D01*
%TO.N,MOT_A_DIR*%
X101974364Y-61080000D02*
X102061364Y-60993000D01*
X98000000Y-61080000D02*
X101974364Y-61080000D01*
%TO.N,Net-(U1-MTDI)*%
X126580000Y-77471636D02*
X126580000Y-48000000D01*
X126601364Y-77493000D02*
X126580000Y-77471636D01*
%TO.N,Net-(U2-VM)*%
X123390000Y-106650000D02*
X123540000Y-106500000D01*
X123390000Y-111500000D02*
X123390000Y-106650000D01*
%TO.N,Net-(U2-FLT)*%
X118310000Y-111500000D02*
X118310000Y-106650000D01*
X118310000Y-106650000D02*
X118460000Y-106500000D01*
D22*
%TO.N,Net-(U3-INT)*%
X105720000Y-89000000D02*
X105720000Y-86040000D01*
X105720000Y-86040000D02*
X105760000Y-86000000D01*
%TO.N,Net-(U3-XCL)*%
X110800000Y-89000000D02*
X110800000Y-86040000D01*
X110800000Y-86040000D02*
X110840000Y-86000000D01*
%TO.N,Net-(U3-AD0)*%
X108260000Y-86040000D02*
X108300000Y-86000000D01*
X108260000Y-89000000D02*
X108260000Y-86040000D01*
%TO.N,Net-(U3-XDA)*%
X113340000Y-86040000D02*
X113380000Y-86000000D01*
X113340000Y-89000000D02*
X113340000Y-86040000D01*
%TD*%
M02*
